<?xml version="1.0" encoding="UTF-8"?>
<svg width="22px" height="22px" viewBox="0 0 22 22" version="1.1" xmlns="http://www.w3.org/2000/svg" xmlns:xlink="http://www.w3.org/1999/xlink">
    <!-- Generator: Sketch 43.2 (39069) - http://www.bohemiancoding.com/sketch -->
    <title>Fill 3</title>
    <desc>Created with Sketch.</desc>
    <defs></defs>
    <g id="List-View" stroke="none" stroke-width="1" fill="none" fill-rule="evenodd">
        <g id="CMT-IDEAS_DividendChamps" transform="translate(-1241.000000, -15.000000)" fill="#FFFFFF">
            <g id="Header" transform="translate(0.000000, -8.000000)">
                <path d="M1251.52235,38.5735431 C1248.91563,38.5735431 1246.86272,36.3487513 1246.86272,33.7450647 C1246.86272,31.1802391 1248.91563,29.0428845 1251.52235,29.0428845 C1254.03358,29.0428845 1256.09603,31.1802391 1256.09603,33.7450647 C1256.09603,36.3487513 1254.03358,38.5735431 1251.52235,38.5735431 M1261.04211,31.5202728 L1258.9892,31.1025171 C1258.86507,30.7624834 1258.86507,30.471026 1258.6932,30.2670058 L1259.8963,28.5474068 C1260.26869,27.8673394 1260.09682,27.2358483 1259.68623,26.8180926 L1258.40675,25.4385273 C1258.20623,25.2247919 1257.87204,25.1470699 1257.41371,25.1470699 C1257.2132,25.1470699 1256.96494,25.2247919 1256.71668,25.3899511 L1255.02661,26.5266352 C1254.77835,26.3226149 1254.4919,26.1477405 1254.28184,26.1477405 L1253.78532,24.0978231 C1253.623,23.5926302 1253.12648,23 1252.4199,23 L1250.65344,23 C1250.03279,23 1249.53628,23.5926302 1249.33576,24.0978231 L1248.91563,26.1477405 C1248.62918,26.1477405 1248.34273,26.3226149 1248.13266,26.5266352 L1246.36621,25.3899511 C1246.24208,25.2247919 1245.86969,25.1470699 1245.65962,25.1470699 C1245.33498,25.1470699 1244.96259,25.2247919 1244.75252,25.4385273 L1243.39665,26.8180926 C1242.97652,27.2358483 1242.93833,27.8673394 1243.26297,28.5474068 L1244.38014,30.2670058 C1244.34194,30.471026 1244.17007,30.7624834 1244.05549,31.1025171 L1241.99303,31.5202728 C1241.45832,31.6077101 1241,32.2780622 1241,32.8221161 L1241,34.6291523 C1241,35.3383654 1241.45832,35.9309956 1241.99303,35.9698566 L1244.05549,36.4361885 C1244.17007,36.6887849 1244.34194,36.9802424 1244.38014,37.2716998 L1243.26297,39.078736 C1242.93833,39.4964917 1242.97652,40.2057049 1243.39665,40.6331758 L1244.75252,41.9253038 C1244.96259,42.3041985 1245.33498,42.3527747 1245.65962,42.3527747 C1245.86969,42.3527747 1246.24208,42.3527747 1246.36621,42.1390393 L1248.13266,41.0120705 C1248.34273,41.1286534 1248.62918,41.2160907 1248.91563,41.4201109 L1249.33576,43.4408826 C1249.53628,44.0723737 1250.03279,44.5289904 1250.65344,44.5289904 L1252.4199,44.5289904 C1253.12648,44.5289904 1253.623,44.0723737 1253.78532,43.4408826 L1254.28184,41.4201109 C1254.4919,41.2160907 1254.77835,41.1286534 1255.02661,41.0120705 L1256.71668,42.1390393 C1256.96494,42.3527747 1257.2132,42.3527747 1257.41371,42.3527747 C1257.87204,42.3527747 1258.20623,42.3041985 1258.40675,41.9253038 L1259.68623,40.6331758 C1260.09682,40.2057049 1260.26869,39.4964917 1259.8963,39.078736 L1258.6932,37.2716998 C1258.86507,36.9802424 1258.86507,36.6887849 1258.9892,36.4361885 L1261.04211,35.9698566 C1261.66275,35.9309956 1262.08288,35.3383654 1262.08288,34.6291523 L1262.08288,32.8221161 C1262.08288,32.2780622 1261.66275,31.6077101 1261.04211,31.5202728" id="Fill-3"></path>
            </g>
        </g>
    </g>
</svg>