<?xml version="1.0" encoding="UTF-8"?>
<svg width="24px" height="19px" viewBox="0 0 24 19" version="1.1" xmlns="http://www.w3.org/2000/svg" xmlns:xlink="http://www.w3.org/1999/xlink">
    <!-- Generator: Sketch 43.2 (39069) - http://www.bohemiancoding.com/sketch -->
    <title></title>
    <desc>Created with Sketch.</desc>
    <defs></defs>
    <g id="List-View" stroke="none" stroke-width="1" fill="none" fill-rule="evenodd">
        <g id="CMT-IDEAS_DividendChamps" transform="translate(-1188.000000, -16.000000)" fill="#FFFFFF">
            <g id="Header" transform="translate(0.000000, -8.000000)">
                <path d="M1212.00003,30.0803644 L1212.00003,40.7143056 C1212.00003,41.8928785 1211.03574,42.8571653 1209.85717,42.8571653 L1190.14286,42.8571653 C1188.96429,42.8571653 1188,41.8928785 1188,40.7143056 L1188,30.0803644 C1188.40179,30.5223292 1188.85714,30.9107225 1189.35268,31.2455444 C1191.5759,32.758939 1193.8259,34.2723337 1196.00894,35.8660856 C1197.13394,36.6964437 1198.5268,37.7143021 1199.98662,37.7143021 L1200.01341,37.7143021 C1201.47323,37.7143021 1202.86609,36.6964437 1203.99109,35.8660856 C1206.17413,34.2857265 1208.42413,32.758939 1210.66074,31.2455444 C1211.14288,30.9107225 1211.59824,30.5223292 1212.00003,30.0803644 Z M1212.00003,26.1428597 C1212.00003,27.6428615 1210.88842,28.9955417 1209.70985,29.8125069 C1207.62056,31.2589372 1205.51788,32.7053675 1203.44198,34.1651907 C1202.57145,34.76787 1201.09823,36.0000143 1200.01341,36.0000143 L1199.98662,36.0000143 C1198.9018,36.0000143 1197.42858,34.76787 1196.55805,34.1651907 C1194.48215,32.7053675 1192.37947,31.2589372 1190.30357,29.8125069 C1189.35268,29.169649 1188,27.6562544 1188,26.4375029 C1188,25.1250013 1188.70982,24 1190.14286,24 L1209.85717,24 C1211.02235,24 1212.00003,24.9642869 1212.00003,26.1428597 Z" id=""></path>
            </g>
        </g>
    </g>
</svg>