<?xml version="1.0" encoding="UTF-8"?>
<svg width="26px" height="26px" viewBox="0 0 26 26" version="1.1" xmlns="http://www.w3.org/2000/svg" xmlns:xlink="http://www.w3.org/1999/xlink">
    <!-- Generator: Sketch 45 (43475) - http://www.bohemiancoding.com/sketch -->
    <title>Combined Shape</title>
    <desc>Created with Sketch.</desc>
    <defs></defs>
    <g id="Comps" stroke="none" stroke-width="1" fill="none" fill-rule="evenodd">
        <g id="Home-v4_ListActions" transform="translate(-758.000000, -715.000000)" fill="#FFFFFF">
            <g id="LIST" transform="translate(-100.000000, 507.000000)">
                <g id="Group-8" transform="translate(0.000000, 198.000000)">
                    <g id="Group-22">
                        <g id="Group-20" transform="translate(653.000000, 0.000000)">
                            <path d="M228.068071,26.2026007 C228.407651,26.2026007 228.682934,26.4778835 228.682934,26.8174635 L228.682934,35.3851372 C228.682934,35.7247171 228.407651,36 228.068071,36 L205.614863,36 C205.275459,36 205,35.7247171 205,35.3851372 L205,12.9317536 C205,12.5921737 205.275459,12.3168908 205.614863,12.3168908 L214.182712,12.3168908 C214.522292,12.3168908 214.797575,12.5921737 214.797575,12.9317536 L214.797575,15.2954618 C214.797575,15.6350418 214.522292,15.9103246 214.182712,15.9103246 L208.593434,15.9103246 L208.593434,32.4063905 L225.089675,32.4063905 L225.089675,26.8174635 C225.089675,26.4778835 225.364958,26.2026007 225.704538,26.2026007 L228.068071,26.2026007 Z M230.385137,10 C230.724717,10 231,10.2752829 231,10.6148628 L231,22.9641184 C231,23.3036983 230.724717,23.5789812 230.385137,23.5789812 L228.068159,23.5789812 C227.728579,23.5789812 227.453296,23.3036983 227.453296,22.9641184 L227.453296,16.0546417 L218.914608,24.5931534 C218.799366,24.7083963 218.643015,24.7732204 218.479813,24.7732204 L216.841467,24.7732204 C216.502062,24.7732204 216.226604,24.4979375 216.226604,24.1583576 L216.226604,22.5201874 C216.226604,22.3569853 216.291428,22.2006345 216.406847,22.0852159 L224.945358,13.5467042 L218.035706,13.5467042 C217.696302,13.5467042 217.420843,13.2714214 217.420843,12.9318414 L217.420843,10.6148628 C217.420843,10.2752829 217.696302,10 218.035706,10 L230.385137,10 Z" id="Combined-Shape"></path>
                        </g>
                    </g>
                </g>
            </g>
        </g>
    </g>
</svg>