<?xml version="1.0" encoding="UTF-8"?>
<svg width="29px" height="29px" viewBox="0 0 29 29" version="1.1" xmlns="http://www.w3.org/2000/svg" xmlns:xlink="http://www.w3.org/1999/xlink">
    <!-- Generator: Sketch 44.1 (41455) - http://www.bohemiancoding.com/sketch -->
    <title></title>
    <desc>Created with Sketch.</desc>
    <defs></defs>
    <g id="Comps" stroke="none" stroke-width="1" fill="none" fill-rule="evenodd">
        <g id="Home-v4_AddList" transform="translate(-586.000000, -714.000000)" fill="#FFFFFF">
            <g id="LIST" transform="translate(-100.000000, 507.000000)">
                <g id="Group-8" transform="translate(0.000000, 198.000000)">
                    <g id="Group-22">
                        <g id="Group-20" transform="translate(653.000000, 0.000000)">
                            <path d="M55.452381,25.0237796 L55.452381,22.6904462 C55.452381,22.0524254 54.9237351,21.5237796 54.2857143,21.5237796 L49.6190476,21.5237796 L49.6190476,16.8571129 C49.6190476,16.2190921 49.0904018,15.6904462 48.452381,15.6904462 L46.1190476,15.6904462 C45.4810268,15.6904462 44.952381,16.2190921 44.952381,16.8571129 L44.952381,21.5237796 L40.2857143,21.5237796 C39.6476935,21.5237796 39.1190476,22.0524254 39.1190476,22.6904462 L39.1190476,25.0237796 C39.1190476,25.6618004 39.6476935,26.1904462 40.2857143,26.1904462 L44.952381,26.1904462 L44.952381,30.8571129 C44.952381,31.4951337 45.4810268,32.0237796 46.1190476,32.0237796 L48.452381,32.0237796 C49.0904018,32.0237796 49.6190476,31.4951337 49.6190476,30.8571129 L49.6190476,26.1904462 L54.2857143,26.1904462 C54.9237351,26.1904462 55.452381,25.6618004 55.452381,25.0237796 Z M61.2857143,23.8571129 C61.2857143,31.5862796 55.014881,37.8571129 47.2857143,37.8571129 C39.5565476,37.8571129 33.2857143,31.5862796 33.2857143,23.8571129 C33.2857143,16.1279462 39.5565476,9.85711288 47.2857143,9.85711288 C55.014881,9.85711288 61.2857143,16.1279462 61.2857143,23.8571129 Z" id=""></path>
                        </g>
                    </g>
                </g>
            </g>
        </g>
    </g>
</svg>