<?xml version="1.0" encoding="UTF-8"?>
<svg width="28px" height="28px" viewBox="0 0 28 28" version="1.1" xmlns="http://www.w3.org/2000/svg" xmlns:xlink="http://www.w3.org/1999/xlink">
    <!-- Generator: Sketch 44.1 (41455) - http://www.bohemiancoding.com/sketch -->
    <title></title>
    <desc>Created with Sketch.</desc>
    <defs></defs>
    <g id="Comps" stroke="none" stroke-width="1" fill="none" fill-rule="evenodd">
        <g id="Home-v4_AddList" transform="translate(-669.000000, -714.000000)" fill="#FFFFFF">
            <g id="LIST" transform="translate(-100.000000, 507.000000)">
                <g id="Group-8" transform="translate(0.000000, 198.000000)">
                    <g id="Group-22">
                        <g id="Group-20" transform="translate(653.000000, 0.000000)">
                            <path d="M127.000013,13.9999774 L120.375005,13.9999774 C120.156255,13.9999774 119.95313,14.1406025 119.89063,14.3593528 L116,27.999994 L116,36.0000036 C116,36.5468792 116.453126,37.0000048 117.000001,37.0000048 L125.000011,37.0000048 C125.546886,37.0000048 126.000012,36.5468792 126.000012,36.0000036 L126.000012,26.9999928 C126.546888,26.9999928 127.000013,26.5468673 127.000013,25.9999917 L127.000013,13.9999774 Z M132.000019,13.9999774 L128.000014,13.9999774 L128.000014,24.9999905 L132.000019,24.9999905 L132.000019,13.9999774 Z M144.000033,27.999994 L140.109404,14.3593528 C140.046904,14.1406025 139.843778,13.9999774 139.625028,13.9999774 L133.00002,13.9999774 L133.00002,25.9999917 C133.00002,26.5468673 133.453146,26.9999928 134.000021,26.9999928 L134.000021,36.0000036 C134.000021,36.5468792 134.453147,37.0000048 135.000023,37.0000048 L143.000032,37.0000048 C143.546908,37.0000048 144.000033,36.5468792 144.000033,36.0000036 L144.000033,27.999994 Z M127.500014,9.49997199 C127.500014,9.21872165 127.281263,8.99997139 127.000013,8.99997139 L122.500008,8.99997139 C122.218757,8.99997139 122.000007,9.21872165 122.000007,9.49997199 L122.000007,12.9999762 L127.500014,12.9999762 L127.500014,9.49997199 Z M138.000026,9.49997199 C138.000026,9.21872165 137.781276,8.99997139 137.500026,8.99997139 L133.00002,8.99997139 C132.71877,8.99997139 132.50002,9.21872165 132.50002,9.49997199 L132.50002,12.9999762 L138.000026,12.9999762 L138.000026,9.49997199 Z" id=""></path>
                        </g>
                    </g>
                </g>
            </g>
        </g>
    </g>
</svg>