<?xml version="1.0" encoding="UTF-8"?>
<svg width="28px" height="28px" viewBox="0 0 28 28" version="1.1" xmlns="http://www.w3.org/2000/svg" xmlns:xlink="http://www.w3.org/1999/xlink">
    <!-- Generator: Sketch 44.1 (41455) - http://www.bohemiancoding.com/sketch -->
    <title>Fill 1</title>
    <desc>Created with Sketch.</desc>
    <defs></defs>
    <g id="Comps" stroke="none" stroke-width="1" fill="none" fill-rule="evenodd">
        <g id="Home-v4_AddList" transform="translate(-756.000000, -714.000000)" fill="#FFFFFF">
            <g id="LIST" transform="translate(-100.000000, 507.000000)">
                <g id="Group-8" transform="translate(0.000000, 198.000000)">
                    <g id="Group-22">
                        <g id="Group-20" transform="translate(653.000000, 0.000000)">
                            <path d="M205.625034,23.0000506 C205.625034,17.3141952 209.80007,12.6169422 215.250118,11.7732313 L215.250118,24.7500506 L210.875034,20.3749663 L208.250118,23.0000506 L217.000118,31.7500506 L225.750118,23.0000506 L223.125034,20.3749663 L218.750118,24.7500506 L218.750118,11.7732313 C224.199998,12.6169422 228.375034,17.3141952 228.375034,23.0000506 C228.375034,29.2821711 223.283251,34.3751349 217.000118,34.3751349 C210.716817,34.3751349 205.625034,29.2821711 205.625034,23.0000506 M230.999949,23.0000506 C230.999949,15.2681711 224.732166,9.0000506 217.000118,9.0000506 C209.267733,9.0000506 202.999949,15.2681711 202.999949,23.0000506 C202.999949,30.7319301 209.267733,37.0000506 217.000118,37.0000506 C224.732166,37.0000506 230.999949,30.7319301 230.999949,23.0000506" id="Fill-1"></path>
                        </g>
                    </g>
                </g>
            </g>
        </g>
    </g>
</svg>