<?xml version="1.0" encoding="UTF-8"?>
<svg width="22px" height="24px" viewBox="0 0 22 24" version="1.1" xmlns="http://www.w3.org/2000/svg" xmlns:xlink="http://www.w3.org/1999/xlink">
    <!-- Generator: Sketch 43.2 (39069) - http://www.bohemiancoding.com/sketch -->
    <title></title>
    <desc>Created with Sketch.</desc>
    <defs></defs>
    <g id="List-View" stroke="none" stroke-width="1" fill="none" fill-rule="evenodd">
        <g id="CMT-IDEAS_DividendChamps" transform="translate(-311.000000, -165.000000)" fill="#FFFFFF">
            <g id="Group-7" transform="translate(215.000000, 158.000000)">
                <path d="M111.286291,12.5223042 L113.558057,12.5223042 L112.633948,9.72430976 L112.47993,9.12107244 C112.467096,9.01839374 112.454261,8.94138472 112.454261,8.8643757 L112.402921,8.8643757 L112.364417,9.12107244 C112.325912,9.27509048 112.313077,9.46761303 112.223234,9.72430976 L111.286291,12.5223042 Z M105.44644,25.7678557 C105.44644,25.5368286 105.266752,25.3571409 105.035725,25.3571409 L102.571436,25.3571409 L102.571436,7.69640556 C102.571436,7.4653785 102.391749,7.28569078 102.160722,7.28569078 L99.696433,7.28569078 C99.4654059,7.28569078 99.2857182,7.4653785 99.2857182,7.69640556 L99.2857182,25.3571409 L96.8214296,25.3571409 C96.6545767,25.3571409 96.5005586,25.4598196 96.4363844,25.6138376 C96.3722103,25.7678557 96.4107148,25.9347086 96.5262283,26.0630569 L100.633376,30.1702047 C100.72322,30.2472137 100.825899,30.2857182 100.928577,30.2857182 C101.031256,30.2857182 101.133935,30.2472137 101.223779,30.1702047 L105.318091,26.0758918 C105.3951,25.9860479 105.44644,25.8833692 105.44644,25.7678557 Z M116.176363,27.2952012 L114.623348,27.2952012 L114.623348,28.8225468 L111.440309,28.8225468 C111.286291,28.8225468 111.170777,28.8225468 111.055263,28.8482165 L110.875576,28.8738862 L110.875576,28.8482165 L111.016759,28.7070333 C111.106603,28.6043546 111.209282,28.4888411 111.286291,28.3733275 L116.022345,21.5708641 L116.022345,20.4285636 L108.744993,20.4285636 L108.744993,23.3677412 L110.285173,23.3677412 L110.285173,21.891735 L113.262855,21.891735 C113.416873,21.891735 113.545222,21.8789001 113.647901,21.8532305 C113.72491,21.8532305 113.776249,21.8403956 113.827588,21.8403956 L113.827588,21.8789001 L113.686405,21.9944137 C113.622231,22.0585879 113.519552,22.1869362 113.416873,22.3409543 L108.680819,29.1305829 L108.680819,30.2857182 L116.176363,30.2857182 L116.176363,27.2952012 Z M117.318664,15.7823527 L117.318664,17.1428454 L113.622231,17.1428454 L113.622231,15.7823527 L114.584844,15.7823527 L113.981606,13.9341362 L110.862741,13.9341362 L110.259504,15.7823527 L111.222116,15.7823527 L111.222116,17.1428454 L107.538518,17.1428454 L107.538518,15.7823527 L108.436957,15.7823527 L111.388969,7.28569078 L113.468213,7.28569078 L116.420225,15.7823527 L117.318664,15.7823527 Z" id=""></path>
            </g>
        </g>
    </g>
</svg>