<?xml version="1.0" encoding="UTF-8"?>
<svg width="30px" height="30px" viewBox="0 0 30 30" version="1.1" xmlns="http://www.w3.org/2000/svg" xmlns:xlink="http://www.w3.org/1999/xlink">
    <!-- Generator: Sketch 44.1 (41455) - http://www.bohemiancoding.com/sketch -->
    <title>Fill 1</title>
    <desc>Created with Sketch.</desc>
    <defs></defs>
    <g id="Comps" stroke="none" stroke-width="1" fill="none" fill-rule="evenodd">
        <g id="Home-v4_AddList" transform="translate(-1168.000000, -496.000000)" fill="#1199FF">
            <g id="QUICKVIEW-PANEL" transform="translate(858.000000, 482.000000)">
                <path d="M312.81259,29 C312.81259,22.908012 317.285843,17.875241 323.125181,16.9712651 L323.125181,30.875 L318.43759,26.1874096 L315.625181,29 L325.000181,38.375 L334.375181,29 L331.56259,26.1874096 L326.875181,30.875 L326.875181,16.9712651 C332.714337,17.875241 337.18759,22.908012 337.18759,29 C337.18759,35.7308434 331.732108,41.1875904 325.000181,41.1875904 C318.268072,41.1875904 312.81259,35.7308434 312.81259,29 M340,29 C340,20.7158434 333.284518,14 325.000181,14 C316.715482,14 310,20.7158434 310,29 C310,37.2841566 316.715482,44 325.000181,44 C333.284518,44 340,37.2841566 340,29" id="Fill-1"></path>
            </g>
        </g>
    </g>
</svg>