<?xml version="1.0" encoding="UTF-8"?>
<svg width="37px" height="38px" viewBox="0 0 37 38" version="1.1" xmlns="http://www.w3.org/2000/svg" xmlns:xlink="http://www.w3.org/1999/xlink">
    <!-- Generator: Sketch 45 (43475) - http://www.bohemiancoding.com/sketch -->
    <title>Page 1</title>
    <desc>Created with Sketch.</desc>
    <defs></defs>
    <g id="Comps" stroke="none" stroke-width="1" fill="none" fill-rule="evenodd">
        <g id="Home-v4_ListActions" transform="translate(-868.000000, -928.000000)" fill="#1199FF">
            <g id="Page-1" transform="translate(868.000000, 928.000000)">
                <path d="M23.9066025,2.86418925 C22.4057603,2.42022097 20.2757323,2.28681751 18.4606838,2.351099 L18.4436684,2.94124959 C20.1194993,3.00282042 21.8744134,3.36546874 23.4547257,3.98582389 C31.3365642,7.08004851 35.7795367,15.3380908 33.045846,23.8991468 C30.741216,31.1157127 22.6573186,36.0063341 14.3578275,33.4722491 C6.39941928,31.0423311 2.33813485,22.7196201 4.53545137,15.1727402 C5.47613642,11.9427887 7.17323667,9.4826662 9.55811013,7.73060822 C10.2271277,8.1807723 11.0336225,8.44080257 11.9004449,8.43131524 C14.1781982,8.40614477 16.0046547,6.53656008 15.9795183,4.2555351 C15.9543818,1.97451012 14.0873201,0.145779034 11.8095668,0.170949499 C9.63139269,0.195151869 7.87048441,1.90654987 7.74209492,4.05049262 C4.84366349,6.11582608 2.13182222,9.37733748 0.79881446,13.7542877 C-2.11527894,23.3254538 3.14617654,33.5895822 13.2796651,36.8634852 C22.3806238,39.8037827 32.9184233,34.4155607 35.7758629,24.5105955 C38.2100426,16.0722939 34.1976776,5.90904103 23.9066025,2.86418925" id="Fill-1"></path>
                <path d="M27.3027046,18.1459068 C28.6359057,18.174756 29.7397847,17.1162412 29.768595,15.7812384 C29.7962451,14.5039341 28.8286833,13.4392235 27.5770792,13.3244074 C26.426021,11.5874517 24.5753947,9.93646284 22.0441495,9.07214779 C16.5087062,7.18184588 10.4117523,10.0673493 8.30550721,15.9405868 C6.41369579,21.2155418 9.35988656,27.4913132 15.0915879,29.3543148 C19.9746424,30.9416031 25.9884526,28.7856559 27.9639878,22.8158025 C28.2520908,21.9452917 28.370619,20.6999345 28.367912,19.6356111 L28.0233487,19.6145066 C27.9554801,20.5947994 27.7099159,21.6159458 27.3173998,22.5298273 C25.35888,27.087424 20.4499156,29.532057 15.5009261,27.766833 C11.3292344,26.2788712 8.62686765,21.4500144 10.2659606,16.6372278 C11.8375717,12.0219327 16.77728,9.8022849 21.1438762,11.2337099 C23.0128714,11.8463203 24.4176149,12.887603 25.395618,14.3178663 C25.1196966,14.7012318 24.9524422,15.168628 24.9414208,15.6766842 C24.9126105,17.0114933 25.9696969,18.1170576 27.3027046,18.1459068" id="Fill-4"></path>
                <path d="M20.4006807,22.5808961 C20.0292406,22.8254369 19.6608943,22.9838172 19.2900343,23.0703649 C19.1854278,22.8620309 19.0378959,22.6711226 18.8476319,22.512355 C18.1051385,21.8927744 17.0014529,21.9934562 16.3829018,22.736953 C15.7641572,23.4804498 15.8643165,24.5854333 16.6070033,25.2048203 C17.3494967,25.824401 18.4529889,25.7239127 19.0717335,24.9804159 C19.144436,24.8929002 19.2065038,24.8001567 19.2594838,24.7041217 C19.9201869,24.5838843 20.6027395,24.3389563 21.2180036,23.9449417 C23.4079725,22.5419787 24.3523314,19.4252943 22.6728267,16.8852072 C21.2990204,14.8078693 18.2714261,13.897473 15.7697646,15.5333596 C13.8590041,16.7827827 12.9540902,19.5350763 14.5479375,21.9810646 C14.7704922,22.3226085 15.2355174,22.6730588 15.6057973,22.9667787 L15.7086636,22.8529308 C15.3871098,22.5574683 15.0837316,22.1171787 14.8934676,21.7183237 C14.0397935,19.9290909 14.4338565,17.5822354 16.4492234,16.4009661 C18.003239,15.4901826 20.3165701,15.7540852 21.5059131,17.6757534 C22.5179472,19.3110591 22.1076422,21.4575189 20.4006807,22.5808961" id="Fill-6"></path>
            </g>
        </g>
    </g>
</svg>