<?xml version="1.0" encoding="UTF-8"?>
<svg width="23px" height="23px" viewBox="0 0 23 23" version="1.1" xmlns="http://www.w3.org/2000/svg" xmlns:xlink="http://www.w3.org/1999/xlink">
    <!-- Generator: Sketch 43.2 (39069) - http://www.bohemiancoding.com/sketch -->
    <title></title>
    <desc>Created with Sketch.</desc>
    <defs></defs>
    <g id="List-View" stroke="none" stroke-width="1" fill="none" fill-rule="evenodd">
        <g id="CMT-IDEAS_DividendChamps" transform="translate(-862.000000, -15.000000)" fill="#FFFFFF">
            <g id="Header" transform="translate(0.000000, -8.000000)">
                <g id="Group-2" transform="translate(847.000000, 7.000000)">
                    <path d="M30.8125,25.703125 C30.8125,24.0212202 30.2147509,22.5825313 29.0192348,21.3870152 C27.8237187,20.1914991 26.3850298,19.59375 24.703125,19.59375 C23.0212202,19.59375 21.5825313,20.1914991 20.3870152,21.3870152 C19.1914991,22.5825313 18.59375,24.0212202 18.59375,25.703125 C18.59375,27.3850298 19.1914991,28.8237187 20.3870152,30.0192348 C21.5825313,31.2147509 23.0212202,31.8125 24.703125,31.8125 C26.3850298,31.8125 27.8237187,31.2147509 29.0192348,30.0192348 C30.2147509,28.8237187 30.8125,27.3850298 30.8125,25.703125 L30.8125,25.703125 Z M38,37.2307692 C38,37.7099383 37.8249216,38.1245976 37.4747596,38.4747596 C37.1245976,38.8249216 36.7099383,39 36.2307692,39 C35.7331706,39 35.3185113,38.8249216 34.9867788,38.4747596 L30.2457933,33.7475962 C28.5963459,34.8902301 26.758023,35.4615385 24.7307692,35.4615385 C23.4130543,35.4615385 22.1529507,35.2058319 20.9504207,34.6944111 C19.7478906,34.1829902 18.7112423,33.4918914 17.8404447,32.6210938 C16.9696471,31.7502961 16.2785482,30.7136478 15.7671274,29.5111178 C15.2557066,28.3085877 15,27.0484842 15,25.7307692 C15,24.4130543 15.2557066,23.1529507 15.7671274,21.9504207 C16.2785482,20.7478906 16.9696471,19.7112423 17.8404447,18.8404447 C18.7112423,17.9696471 19.7478906,17.2785482 20.9504207,16.7671274 C22.1529507,16.2557066 23.4130543,16 24.7307692,16 C26.0484842,16 27.3085877,16.2557066 28.5111178,16.7671274 C29.7136478,17.2785482 30.7502961,17.9696471 31.6210938,18.8404447 C32.4918914,19.7112423 33.1829902,20.7478906 33.6944111,21.9504207 C34.2058319,23.1529507 34.4615385,24.4130543 34.4615385,25.7307692 C34.4615385,27.758023 33.8902301,29.5963459 32.7475962,31.2457933 L37.4885817,35.9867788 C37.8295289,36.3277261 38,36.7423854 38,37.2307692 L38,37.2307692 Z" id=""></path>
                </g>
            </g>
        </g>
    </g>
</svg>