<?xml version="1.0" encoding="UTF-8"?>
<svg width="30px" height="30px" viewBox="0 0 30 30" version="1.1" xmlns="http://www.w3.org/2000/svg" xmlns:xlink="http://www.w3.org/1999/xlink">
    <!-- Generator: Sketch 45 (43475) - http://www.bohemiancoding.com/sketch -->
    <title>Combined Shape</title>
    <desc>Created with Sketch.</desc>
    <defs></defs>
    <g id="Comps" stroke="none" stroke-width="1" fill="none" fill-rule="evenodd">
        <g id="Home-v4_ListActions" transform="translate(-1167.000000, -495.000000)" fill="#1199FF">
            <g id="QUICKVIEW-PANEL" transform="translate(856.000000, 482.000000)">
                <path d="M337.617005,31.6953085 C338.008828,31.6953085 338.326462,32.0129425 338.326462,32.4047655 L338.326462,42.2905429 C338.326462,42.6823659 338.008828,43 337.617005,43 L311.709457,43 C311.317837,43 311,42.6823659 311,42.2905429 L311,16.3827926 C311,15.9909696 311.317837,15.6733356 311.709457,15.6733356 L321.595437,15.6733356 C321.98726,15.6733356 322.304894,15.9909696 322.304894,16.3827926 L322.304894,19.1101483 C322.304894,19.5019713 321.98726,19.8196053 321.595437,19.8196053 L315.14627,19.8196053 L315.14627,38.8535275 L334.180395,38.8535275 L334.180395,32.4047655 C334.180395,32.0129425 334.498029,31.6953085 334.889852,31.6953085 L337.617005,31.6953085 Z M340.290543,13 C340.682366,13 341,13.3176341 341,13.7094571 L341,27.9585981 C341,28.3504211 340.682366,28.6680552 340.290543,28.6680552 L337.617106,28.6680552 C337.225283,28.6680552 336.907649,28.3504211 336.907649,27.9585981 L336.907649,19.986125 L327.055317,29.8382539 C326.922345,29.9712264 326.74194,30.0460235 326.55363,30.0460235 L324.663231,30.0460235 C324.271611,30.0460235 323.953774,29.7283894 323.953774,29.3365664 L323.953774,27.4463701 C323.953774,27.2580599 324.028571,27.0776551 324.161746,26.9444799 L334.013875,17.092351 L326.041199,17.092351 C325.649579,17.092351 325.331742,16.774717 325.331742,16.382894 L325.331742,13.7094571 C325.331742,13.3176341 325.649579,13 326.041199,13 L340.290543,13 Z" id="Combined-Shape"></path>
            </g>
        </g>
    </g>
</svg>