<?xml version="1.0" encoding="UTF-8"?>
<svg width="28px" height="30px" viewBox="0 0 28 30" version="1.1" xmlns="http://www.w3.org/2000/svg" xmlns:xlink="http://www.w3.org/1999/xlink">
    <!-- Generator: Sketch 44.1 (41455) - http://www.bohemiancoding.com/sketch -->
    <title>Fill 1</title>
    <desc>Created with Sketch.</desc>
    <defs></defs>
    <g id="Comps" stroke="none" stroke-width="1" fill="none" fill-rule="evenodd">
        <g id="Home-v4_AddList" transform="translate(-877.000000, -933.000000)" fill="#1199FF">
            <g id="QUICKVIEW-PANEL" transform="translate(858.000000, 482.000000)">
                <g id="Group-25" transform="translate(0.000000, 440.000000)">
                    <path d="M42.0428358,27.8624286 C41.0519492,28.0972857 40.1305179,28.7348571 39.5741345,29.6577143 C39.0177512,30.5972857 38.9134941,31.6711429 39.1916117,32.6442857 L35.8539039,34.49 C35.3148474,33.953 34.6020784,33.5671429 33.8197059,33.416 L33.8197059,29.7584286 C33.8545076,29.7415714 33.8891613,29.7415714 33.923963,29.7248571 L33.9414379,29.7248571 C33.9587647,29.7248571 33.9762396,29.7248571 33.9935665,29.708 L34.045695,29.708 L34.0803486,29.6912857 C34.0979716,29.6912857 34.1326253,29.6744286 34.1499521,29.6744286 L34.167427,29.6744286 C34.4107429,29.5907143 34.6715337,29.49 34.8976709,29.3725714 L34.9149977,29.3555714 C34.9324726,29.3555714 34.9497995,29.3388571 34.9669782,29.3388571 C35.2279171,29.1878571 35.4887079,29.0201429 35.714697,28.802 L35.7668255,28.7517143 L35.8014792,28.7181429 L35.8362809,28.7012857 C36.0450913,28.4831429 36.2362786,28.2315714 36.4101392,27.9798571 L36.427466,27.9462857 L36.4449409,27.9128571 C36.5838516,27.6778571 36.7055836,27.4094286 36.8098407,27.1241429 L36.8098407,27.1074286 C36.8098407,27.0905714 36.8273156,27.0738571 36.8273156,27.0404286 L36.8273156,27.0234286 L36.8444944,26.9732857 C36.8444944,26.9564286 36.8621174,26.9397143 36.8621174,26.9228571 L36.8621174,26.906 C36.9315727,26.6375714 36.9663744,26.3522857 36.9837013,26.0838571 L36.9837013,26.067 L36.9837013,26.0168571 C36.9837013,25.7148571 36.9490476,25.4127143 36.8621174,25.1108571 L36.8621174,25.094 C36.8621174,25.0772857 36.8621174,25.0604286 36.8444944,25.0268571 L36.8444944,25.0101429 L36.8444944,24.9932857 L36.8273156,24.9597143 C36.8273156,24.9261429 36.8098407,24.9095714 36.8098407,24.8925714 L36.8098407,24.876 C36.7925139,24.8421429 36.7925139,24.8255714 36.7751871,24.792 L40.0609144,22.98 C40.5996748,23.5502857 41.295117,23.9531429 42.0428358,24.1377143 L42.0428358,27.8624286 Z M33.0721352,22.1577143 L33.0200066,22.1577143 C32.7070873,22.1577143 32.3941679,22.1912857 32.0987235,22.2582857 L32.0464468,22.2752857 L32.0116451,22.2752857 C31.9943183,22.2918571 31.9596646,22.2918571 31.9420416,22.2918571 L31.9248629,22.3088571 C31.6292704,22.3758571 31.3510046,22.4934286 31.0902138,22.6275714 L31.072887,22.6442857 C31.0555602,22.6442857 31.0380853,22.6611429 31.0207585,22.6778571 C30.7599676,22.812 30.5166517,22.9965714 30.2906626,23.198 C30.2558609,23.2148571 30.238386,23.2314286 30.2210592,23.2482857 L30.2035843,23.2651429 L30.1689306,23.2987143 C30.1516038,23.3154286 30.1341289,23.3322857 30.1168021,23.349 L30.0993272,23.3658571 C30.0820004,23.3994286 30.0645255,23.416 30.0297237,23.433 L26.7614713,21.621 C27.0049353,20.8657143 27.0222621,20.0772857 26.796273,19.3557143 L30.1341289,17.4934286 C30.8642247,18.2148571 31.8725863,18.6678571 33.0026798,18.6678571 C34.1151504,18.6678571 35.1409868,18.2148571 35.8539039,17.4934286 L39.1916117,19.3557143 C38.9829494,20.0772857 38.9829494,20.8657143 39.2438883,21.621 L35.9580129,23.433 C35.9406861,23.416 35.9232112,23.3994286 35.9058844,23.3825714 L35.8884094,23.3658571 C35.8884094,23.349 35.8710826,23.3322857 35.8539039,23.3322857 L35.8191022,23.2818571 L35.8014792,23.2818571 C35.5583114,23.0301429 35.2800456,22.8288571 34.9844531,22.6611429 C34.9669782,22.6611429 34.9324726,22.6442857 34.9149977,22.6442857 L34.9149977,22.6275714 C34.6368801,22.4934286 34.3586144,22.3758571 34.0631699,22.3088571 L34.0631699,22.2918571 C34.045695,22.2918571 34.0110414,22.2918571 33.9935665,22.2752857 L33.9414379,22.2752857 L33.9067843,22.2582857 C33.6285185,22.2081429 33.3677277,22.1745714 33.0896101,22.1577143 L33.0721352,22.1577143 Z M32.1855056,33.416 C31.3858064,33.5671429 30.6903642,33.953 30.1341289,34.49 L26.796273,32.6442857 C27.0917175,31.6711429 26.9874604,30.5972857 26.4137502,29.6577143 C25.8575149,28.7348571 24.9535586,28.0972857 23.945197,27.8624286 L23.945197,24.1377143 C24.7100946,23.9531429 25.4053887,23.5502857 25.9444452,22.98 L29.2126977,24.792 C29.2126977,24.8255714 29.2126977,24.8421429 29.1953708,24.876 L29.1953708,24.8925714 C29.1778959,24.9095714 29.1778959,24.9261429 29.1778959,24.9597143 L29.1605691,24.9932857 L29.1605691,25.0101429 L29.1432423,25.0268571 C29.0734907,25.329 29.0389852,25.614 29.0215103,25.8992857 L29.0215103,25.9328571 L29.0215103,25.9664286 L29.0215103,25.9832857 C29.0215103,26.3021429 29.056312,26.6375714 29.1432423,26.9732857 L29.1605691,27.0067143 L29.1778959,27.0404286 C29.1778959,27.057 29.1778959,27.0905714 29.1953708,27.1241429 C29.2823011,27.3758571 29.3865582,27.6107143 29.5082902,27.8457143 C29.5257651,27.8792857 29.5430919,27.896 29.5604187,27.9128571 L29.5777456,27.9631429 L29.5952205,27.9798571 C29.7342793,28.1981429 29.890813,28.416 30.0820004,28.6175714 L30.0993272,28.6175714 C30.1168021,28.6341429 30.1341289,28.6511429 30.1516038,28.6677143 C30.4122466,28.9361429 30.7078391,29.1542857 31.0380853,29.3388571 L31.0555602,29.3388571 L31.0555602,29.3555714 L31.1076887,29.3725714 C31.1250156,29.3892857 31.1426386,29.3892857 31.1598173,29.406 L31.1772922,29.406 C31.3510046,29.5067143 31.542192,29.5737143 31.7336756,29.6408571 L31.7508543,29.6408571 C31.7683292,29.6577143 31.8031309,29.6577143 31.8204577,29.6744286 L31.8379326,29.6744286 C31.8552595,29.6744286 31.8899131,29.6744286 31.907388,29.6912857 C31.9943183,29.708 32.0812486,29.7415714 32.1855056,29.7584286 L32.1855056,33.416 Z M45.0154957,28.2651429 C44.5808443,28.0301429 44.1288661,27.8792857 43.676888,27.7952857 L43.676888,24.2047143 C44.1288661,24.1208571 44.5808443,23.9697143 45.0154957,23.7348571 C46.9104868,22.6778571 47.5711272,20.3288571 46.4583605,18.5 C45.3632168,16.6544286 42.9294653,16.0335714 41.0343262,17.0907143 C40.5996748,17.3255714 40.2521018,17.6275714 39.9566573,17.98 L36.7229104,16.1677143 C36.8792961,15.7482857 36.9837013,15.2952857 36.9837013,14.8255714 C36.9837013,12.7114286 35.1932635,11 33.0026798,11 C30.7947694,11 29.0215103,12.7114286 29.0215103,14.8255714 C29.0215103,15.2952857 29.1084406,15.7482857 29.2649743,16.1677143 L26.0487023,17.98 C25.7531098,17.6275714 25.3880618,17.3255714 24.9708854,17.0907143 C23.0585675,16.0335714 20.624668,16.6544286 19.5293761,18.5 C18.4342324,20.3288571 19.0947248,22.6778571 20.9897159,23.7348571 C21.4068923,23.9697143 21.8590186,24.1208571 22.3109968,24.2047143 L22.3109968,27.7952857 C21.8590186,27.8792857 21.4068923,28.0301429 20.9897159,28.2651429 C19.0947248,29.3221429 18.4342324,31.6711429 19.5293761,33.5 C20.624668,35.3288571 23.0585675,35.9665714 24.9708854,34.9094286 C25.3880618,34.6744286 25.7531098,34.3724286 26.0487023,34.0201429 L29.2649743,35.8154286 C29.1084406,36.2348571 29.0215103,36.6878571 29.0215103,37.1745714 C29.0215103,39.2885714 30.7947694,41 33.0026798,41 C35.1932635,41 36.9837013,39.2885714 36.9837013,37.1745714 C36.9837013,36.6878571 36.8792961,36.2348571 36.7229104,35.8154286 L39.9566573,34.0201429 C40.2521018,34.3724286 40.5996748,34.6744286 41.0343262,34.9094286 C42.9294653,35.9665714 45.3632168,35.3288571 46.4583605,33.5 C47.5711272,31.6711429 46.9104868,29.3221429 45.0154957,28.2651429 L45.0154957,28.2651429 Z" id="Fill-1"></path>
                </g>
            </g>
        </g>
    </g>
</svg>