<?xml version="1.0" encoding="UTF-8"?>
<svg width="270px" height="374px" viewBox="0 0 270 374" version="1.1" xmlns="http://www.w3.org/2000/svg" xmlns:xlink="http://www.w3.org/1999/xlink">
    <!-- Generator: Sketch 45.1 (43504) - http://www.bohemiancoding.com/sketch -->
    <title>Page 1</title>
    <desc>Created with Sketch.</desc>
    <defs></defs>
    <g id="Iconsv2" stroke="none" stroke-width="1" fill="none" fill-rule="evenodd">
        <g id="Artboard" transform="translate(-1651.000000, -3179.000000)" fill="#FFFFFF">
            <g id="Group-4" transform="translate(1540.000000, 3125.000000)">
                <g id="Page-1" transform="translate(111.000000, 54.000000)">
                    <path d="M104.394278,264.657616 L104.02355,265.207565 L98.900106,260.103014 C91.8771258,253.104524 82.2071921,249.250722 71.6724238,249.250722 L71.0358675,249.250722 C70.0357351,249.250722 69.0415629,249.211525 68.0497748,249.152729 C60.1685166,287.595726 52.7014967,325.92707 37.1720265,364.389072 C55.7829536,355.145649 73.0558013,345.823237 89.1085828,336.578031 C101.665669,348.900221 115.078053,361.186182 128.656728,373.508965 C132.406927,340.53339 130.845338,307.542968 128.789642,274.565611 C119.873682,273.484123 111.500106,270.082277 104.394278,264.657616" id="Fill-1" opacity="0.800498188"></path>
                    <path d="M198.977364,249.250781 L198.340808,249.250781 C187.80902,249.250781 178.139086,253.106365 171.113126,260.107231 L163.77306,267.421675 L163.445245,266.179835 C157.905179,269.971872 151.695775,272.589179 145.129947,273.921291 C152.691139,307.111857 161.962927,340.292921 154.777232,373.486456 C169.624252,361.163079 182.202795,348.831388 193.443258,336.509793 C207.439748,345.754404 220.683457,354.99664 232.781007,364.240063 C233.75849,325.709169 214.834053,287.43959 204.420874,248.946112 C202.622662,249.142692 200.807166,249.250781 198.977364,249.250781" id="Fill-4" opacity="0.800498188"></path>
                    <path d="M135.006974,223.788843 C85.3996887,223.788843 45.1839934,183.717379 45.1839934,134.287275 C45.1839934,84.8565763 85.3996887,44.7857056 135.006974,44.7857056 C184.614258,44.7857056 224.828762,84.8565763 224.828762,134.287275 C224.828762,183.717379 184.614258,223.788843 135.006974,223.788843 M256.916444,103.159909 L256.661344,102.713298 C248.322338,94.4040755 243.831874,83.1342731 243.831874,71.3822257 L243.831874,70.7491307 C243.831874,46.2781705 223.534788,26.4384245 198.977305,26.4384245 L198.340748,26.4384245 C186.548364,26.4384245 175.23757,21.7715765 166.899159,13.4623539 L166.834192,13.2681494 L166.448563,13.0531584 C157.766841,4.40185086 146.386311,-0.000118779537 135.006974,-0.000118779537 C123.626444,-0.000118779537 112.24651,4.34483668 103.564192,12.9961443 L103.179159,13.125614 L103.114788,13.4671051 C94.7751854,21.7763276 83.4649868,26.4384245 71.6720066,26.4384245 L71.0360464,26.4384245 C46.4785629,26.4384245 26.1814768,46.2781705 26.1814768,70.7491307 L26.1814768,71.3822257 C26.1814768,83.1342731 21.6910132,94.4040755 13.3520066,102.713298 L13.2339934,102.861772 L13.0486291,103.159909 C4.36571523,111.811217 0.0123377483,123.150505 -0.000178807947,134.490388 C0.0123377483,145.829676 4.36571523,157.169558 13.0486291,165.820866 L13.2339934,166.119003 L13.3520066,166.267477 C21.6910132,174.5767 26.1814768,185.846502 26.1814768,197.597956 L26.1814768,198.232238 C26.1814768,222.702605 46.4785629,243.312042 71.0360464,243.312042 L71.6720066,243.312042 C83.4649868,243.312042 94.7751854,247.594044 103.114788,255.903267 L103.178563,255.808837 L103.564192,256.051741 C112.24651,264.703049 123.626444,269.001086 135.006974,269.001086 C146.386311,269.001086 157.766841,264.646035 166.448563,255.994727 L166.834788,255.666302 L166.899159,255.908018 C175.23757,247.598796 186.548364,243.312042 198.340748,243.312042 L198.977305,243.312042 C223.534788,243.312042 243.831874,222.702605 243.831874,198.232238 L243.831874,197.597956 C243.831874,185.846502 248.322338,174.5767 256.661344,166.267477 L257.013596,165.820866 C274.378828,148.517657 274.281675,120.463118 256.916444,103.159909" id="Fill-6"></path>
                    <polygon id="Fill-9" points="72.4463046 132.857822 63.7878278 117.59287 58.7758411 117.59287 58.7758411 147.493837 65.1533245 147.493837 65.1533245 132.147521 73.8511391 147.493837 78.822 147.493837 78.822 117.552485 72.4463046 117.552485"></polygon>
                    <path d="M90.705457,136.552282 L93.5985695,128.229399 L96.5316159,136.552282 L90.705457,136.552282 Z M91.3783709,117.592692 L80.7035364,147.493659 L87.2014172,147.493659 L88.974596,141.931807 L98.2428079,141.931807 L99.9951258,147.493659 L106.494199,147.493659 L95.8193642,117.592692 L91.3783709,117.592692 Z" id="Fill-11"></path>
                    <path d="M117.073788,123.926195 C117.970212,123.926195 118.74445,124.189886 119.395907,124.717861 C120.034252,125.259495 120.354318,125.908625 120.354318,126.666439 L126.87306,126.666439 C126.87306,124.122775 125.922397,121.943764 124.021073,120.130001 C122.092331,118.316831 119.776768,117.40995 117.073788,117.40995 C114.370808,117.40995 112.055245,118.316831 110.127695,120.130001 C108.225179,121.943764 107.275709,124.122775 107.275709,126.666439 C107.275709,129.549218 108.340808,131.782274 110.473391,133.365605 C111.66902,134.245167 113.569748,135.043366 116.177364,135.760794 C118.037563,136.27511 119.219483,136.708061 119.721934,137.059648 C120.143325,137.38451 120.354318,137.926145 120.354318,138.683959 C120.354318,139.441772 120.034252,140.091496 119.395907,140.632537 C118.74445,141.160512 117.970212,141.424202 117.073788,141.424202 C116.177364,141.424202 115.403126,141.160512 114.751669,140.632537 C114.113325,140.091496 113.79445,139.441772 113.79445,138.683959 L107.275709,138.683959 C107.275709,141.214557 108.225179,143.38644 110.127695,145.19961 C112.055245,147.013374 114.370808,147.919661 117.073788,147.919661 C119.776768,147.919661 122.092331,147.013374 124.021073,145.19961 C125.922397,143.38644 126.87306,141.214557 126.87306,138.683959 C126.87306,135.760794 125.800212,133.501013 123.654517,131.904023 C122.445179,131.02446 120.530146,130.225668 117.909417,129.508239 C116.07604,128.994518 114.914384,128.568099 114.425642,128.229578 C114.004252,127.904716 113.79445,127.383867 113.79445,126.666439 C113.79445,125.908625 114.113325,125.259495 114.751669,124.717861 C115.403126,124.189886 116.177364,123.926195 117.073788,123.926195" id="Fill-13"></path>
                    <path d="M145.254695,138.622846 C143.570325,140.301201 141.546815,141.139785 139.18357,141.139785 L136.475225,141.139785 L136.475225,123.966639 L139.18357,123.966639 C141.546815,123.966639 143.570325,124.805817 145.254695,126.484172 C146.939066,128.161933 147.780656,130.185342 147.780656,132.553212 C147.780656,134.921676 146.939066,136.945085 145.254695,138.622846 M139.18357,117.592929 L130.078073,117.592929 L130.078073,147.493896 L139.18357,147.493896 C143.312841,147.493896 146.843702,146.032314 149.777344,143.10915 C152.710987,140.185985 154.177808,136.667735 154.177808,132.553212 C154.177808,128.426217 152.710987,124.90084 149.777344,121.977676 C146.843702,119.054512 143.312841,117.592929 139.18357,117.592929" id="Fill-15"></path>
                    <path d="M165.144755,136.552282 L168.037868,128.229399 L170.970914,136.552282 L165.144755,136.552282 Z M165.817669,117.592692 L155.142834,147.493659 L161.640715,147.493659 L163.413894,141.931807 L172.682106,141.931807 L174.434424,147.493659 L180.933497,147.493659 L170.258662,117.592692 L165.817669,117.592692 Z" id="Fill-17"></path>
                    <path d="M205.182119,132.55339 C205.182119,134.245405 204.74106,135.815076 203.858344,137.262999 C202.988742,138.656877 201.827086,139.712233 200.37457,140.429661 C200.238079,140.280593 200.055099,140.070947 199.825033,139.80013 C198.126358,137.811166 196.754901,136.640594 195.70947,136.288413 C193.305695,135.43617 191.233907,135.794884 189.495894,137.364555 C188.572649,135.902973 188.110132,134.298856 188.110132,132.55339 C188.110132,130.144541 188.939205,128.080747 190.595563,126.362007 C192.28053,124.656927 194.296291,123.804683 196.64702,123.804683 C198.99596,123.804683 201.012318,124.656927 202.696689,126.362007 C204.353046,128.080747 205.182119,130.144541 205.182119,132.55339 M196.64702,141.302097 C194.731987,141.302097 193.013642,140.713544 191.491987,139.536439 C192.361589,138.778626 193.440993,138.615898 194.731987,139.049443 C195.24755,139.251962 196.06947,139.99671 197.196556,141.281905 C196.992715,141.295564 196.809735,141.302097 196.64702,141.302097 M186.012715,121.774741 C183.065364,124.75195 181.591391,128.345031 181.591391,132.55339 C181.591391,136.748684 183.065364,140.335232 186.012715,143.311847 C188.946358,146.302716 192.490927,147.79815 196.64702,147.79815 C198.900596,147.79815 201.047483,147.304027 203.084106,146.316375 C203.219404,146.37042 203.274238,146.397739 203.247417,146.397739 C204.048477,146.681622 204.84894,146.823564 205.651192,146.823564 C207.810596,146.823564 210.105298,145.795527 212.537086,143.738265 L213.65702,142.784466 L211.762848,140.531218 L210.622053,141.485018 C209.29053,142.595012 208.068079,143.318974 206.955298,143.656901 C210.133311,140.625648 211.722318,136.924477 211.722318,132.55339 C211.722318,128.345031 210.241192,124.75195 207.280728,121.774741 C204.347682,118.783872 200.802517,117.288438 196.64702,117.288438 C192.490927,117.288438 188.946358,118.783872 186.012715,121.774741" id="Fill-19"></path>
                </g>
            </g>
        </g>
    </g>
</svg>