<?xml version="1.0" encoding="UTF-8"?>
<svg width="400px" height="400px" viewBox="0 0 400 400" version="1.1" xmlns="http://www.w3.org/2000/svg" xmlns:xlink="http://www.w3.org/1999/xlink">
    <defs></defs>
    <g id="img_list-analystdarlings" fill="#ffffff" stroke="none" stroke-width="1" fill-rule="evenodd">
        <path d="M195.515965,194.064467 L195.420598,194.960363 C195.672769,194.796222 195.928609,194.637584 196.183531,194.478028 L195.515965,194.064467 Z" id="Fill-1"></path>
        <path d="M155.333351,306.013821 L148.290896,265.134572 L152.59523,262.315757 C156.493338,259.758282 158.09623,254.839567 156.454825,250.481132 L150.653053,235.101438 C149.191376,231.228087 145.485835,228.664194 141.343808,228.664194 L140.048106,228.664194 L138.753322,228.664194 C134.612211,228.664194 130.905753,231.228087 129.445911,235.101438 L123.642305,250.481132 C122.000899,254.839567 123.603791,259.758282 127.5019,262.315757 L131.598078,264.998858 L124.577631,305.692876 L89.5230788,240.685884 L84.5539301,194.057131 L28.9322928,228.620178 C23.5284927,231.979099 19.6175461,237.281114 18.0018163,243.442345 L-0.000458493143,312.186973 L123.456156,312.186973 L128.078684,312.186973 L139.83078,312.186973 L140.029766,312.186973 L152.00469,312.186973 L156.396138,312.186973 L190.924339,312.186973 C182.003897,300.5009 175.474954,288.459953 171.400784,276.21085 L155.333351,306.013821 Z" id="Fill-3" opacity="0.8"></path>
        <path d="M73.9722751,83.3034359 L76.8635329,98.0366545 C76.8827896,111.152309 78.2060008,123.275785 80.6791128,134.172333 C80.334326,134.32547 79.9491917,134.437342 79.5558046,134.437342 C77.5512726,134.437342 74.7416266,130.909696 72.841631,121.007161 C68.4190061,97.8816839 68.7307815,86.3936797 73.9722751,83.3034359 L73.9722751,83.3034359 Z M84.0306977,82.3295964 C86.4735492,39.0129982 99.7432577,35.1405651 113.807993,35.1405651 C121.004502,35.1405651 139.138823,40.496682 139.138823,40.496682 L139.308465,40.496682 C139.308465,40.496682 157.442786,35.1405651 164.639294,35.1405651 C178.70403,35.1405651 191.903131,39.0129982 194.345982,82.3295964 C194.524794,85.4886142 194.780634,88.7870139 195.073152,92.0377303 C195.106164,93.9047143 195.124503,95.8037929 195.124503,97.7533058 C195.124503,109.342178 194.080056,120.11585 192.114037,129.895509 C191.996663,130.471377 191.879289,131.048161 191.754579,131.618526 C188.656999,146.039053 183.512706,158.220299 176.69583,167.551551 L173.977883,170.786679 C165.558115,180.805671 155.157656,186.706478 143.662316,188.059032 C143.585289,188.067285 143.509179,188.078289 143.432152,188.086542 C142.768254,188.160818 142.100688,188.213086 141.429454,188.257101 C141.097505,188.279109 140.764639,188.294698 140.430856,188.308453 C140.098907,188.322207 139.766958,188.328626 139.435009,188.335962 C139.13057,188.342381 138.827047,188.351551 138.520774,188.351551 C138.153979,188.351551 137.79177,188.341464 137.427726,188.333211 C137.197563,188.327709 136.966482,188.323124 136.737236,188.314872 C136.364022,188.3002 135.992643,188.280026 135.621263,188.258018 C135.012384,188.217671 134.405339,188.174573 133.802879,188.110384 C133.736856,188.103048 133.670833,188.092961 133.603893,188.086542 C122.670666,186.859614 112.684685,181.51175 104.485911,172.43542 L101.725782,169.37452 C94.974012,160.791528 89.7389373,149.552944 86.348839,136.192454 L86.4020242,136.145688 L86.0407316,134.656502 C83.7666056,125.377518 82.4351415,115.197136 82.0518413,104.32718 C82.7955172,97.8312496 83.6162199,89.6994152 84.0306977,82.3295964 L84.0306977,82.3295964 Z M173.386426,187.349285 C173.386426,193.040102 170.834454,198.352203 166.398074,201.944956 L150.903757,214.459985 C144.238183,219.833524 133.952348,219.789509 127.28219,214.367369 L112.022621,201.890853 C107.652264,198.364124 105.14339,193.084117 105.14339,187.398802 L105.14339,180.438876 C113.309153,187.761929 122.982441,192.189139 133.812049,193.183152 C133.937676,193.195073 134.063303,193.203325 134.188931,193.213412 C134.689605,193.255594 135.193031,193.291356 135.69829,193.319783 C135.994477,193.335371 136.290663,193.351877 136.587767,193.362881 C136.937139,193.375719 137.289261,193.381221 137.641384,193.386723 C137.931152,193.392225 138.219085,193.406896 138.50977,193.406896 C138.741768,193.406896 138.971014,193.394059 139.203012,193.390391 C139.657837,193.383972 140.110828,193.374802 140.561068,193.358296 C140.823326,193.347292 141.084667,193.333537 141.346926,193.318866 C153.614368,192.652217 164.457731,187.63997 173.386426,179.042306 L173.386426,187.349285 Z M196.53116,133.451582 C198.421069,124.999719 199.572804,115.839943 199.994618,106.146481 L204.413574,83.6372189 C209.163563,87.1611972 209.311198,98.6427825 205.026121,121.007161 C203.126126,130.909696 200.310978,134.442844 198.306446,134.442844 C197.65997,134.442844 197.002491,134.141156 196.51007,133.818376 L196.53116,133.451582 Z M79.5558046,139.487186 C80.4049339,139.487186 81.1834553,139.328547 81.8959536,139.09655 C85.8692552,153.899459 92.0790863,166.194411 100.093546,175.321176 L100.093546,187.398802 C100.093546,194.618235 103.28741,201.326907 108.846181,205.811887 L124.093829,218.276481 C128.355064,221.744524 133.706596,223.645436 139.172751,223.645436 C144.577468,223.645436 149.868479,221.78212 154.074695,218.38652 L169.574514,205.866906 C175.203893,201.320488 178.43627,194.573303 178.43627,187.349285 L178.43627,173.549558 C185.775828,164.567678 191.487736,152.808245 195.207949,138.81962 C196.101094,139.203837 197.145541,139.487186 198.306446,139.487186 C203.826703,139.487186 207.748654,133.593715 209.983349,121.95074 C214.377547,99.005909 215.25602,82.7780027 205.437848,78.4204839 L207.940304,65.6743745 C209.51752,57.6406576 209.029683,49.4464682 206.477711,41.6640055 C203.136213,31.5102164 197.714073,18.4138182 191.027409,14.5909024 C153.538258,-6.09447426 121.941662,-3.59201868 87.420796,14.5909024 C80.9908881,18.6714914 75.585254,31.4762879 72.1841518,41.4934461 C69.5111368,49.3538526 68.9691979,57.8093831 70.568422,65.9540553 L72.9709261,78.2013242 C62.5915583,82.2122222 63.4095101,98.605186 67.8844031,121.95074 C70.1190987,133.593715 74.045634,139.487186 79.5558046,139.487186 L79.5558046,139.487186 Z" id="Fill-6"></path>
        <path d="M95.7784841,101.186502 C95.7784841,97.6762789 98.6431493,94.8061119 102.147871,94.8061119 L123.392609,94.8061119 C126.920255,94.8061119 129.779419,97.6762789 129.779419,101.186502 L129.779419,103.838427 C129.779419,107.358737 126.920255,110.218817 123.392609,110.218817 L102.147871,110.218817 C98.6431493,110.218817 95.7784841,107.358737 95.7784841,103.838427 L95.7784841,101.186502 Z M148.368565,101.186502 C148.368565,97.6762789 151.215807,94.8061119 154.731533,94.8061119 L175.98269,94.8061119 C179.498415,94.8061119 182.36308,97.6762789 182.36308,101.186502 L182.36308,103.838427 C182.36308,107.358737 179.498415,110.218817 175.98269,110.218817 L154.731533,110.218817 C151.215807,110.218817 148.368565,107.358737 148.368565,103.838427 L148.368565,101.186502 Z M102.147871,114.468132 L123.392609,114.468132 C129.253069,114.468132 134.02965,109.69155 134.02965,103.838427 L134.02965,101.186502 C134.02965,100.583125 133.967295,99.9944203 133.869177,99.4176359 L144.272387,99.4176359 C144.174269,99.9944203 144.112831,100.583125 144.112831,101.186502 L144.112831,103.838427 C144.112831,109.69155 148.882077,114.468132 154.731533,114.468132 L175.98269,114.468132 C181.831228,114.468132 186.60781,109.69155 186.60781,103.838427 L186.60781,101.186502 C186.60781,95.331545 181.831228,90.5668842 175.98269,90.5668842 L154.731533,90.5668842 C151.116773,90.5668842 147.917407,92.389853 145.999072,95.1628195 L132.139741,95.1628195 C130.218655,92.389853 127.013788,90.5668842 123.392609,90.5668842 L102.147871,90.5668842 C96.2984153,90.5668842 91.5282527,95.331545 91.5282527,101.186502 L91.5282527,103.838427 C91.5282527,109.69155 96.2984153,114.468132 102.147871,114.468132 L102.147871,114.468132 Z" id="Fill-8" opacity="0.8"></path>
        <path d="M358.871203,245.902894 C357.581003,219.030611 335.387184,197.636404 308.196707,197.636404 C292.438298,197.636404 278.374479,204.825576 269.070736,216.097172 C259.76791,204.825576 245.699507,197.636404 229.945682,197.636404 C202.756122,197.636404 180.561386,219.030611 179.271186,245.902894 L179.209748,245.871717 C179.209748,246.42741 179.21525,247.006029 179.229922,247.603904 C179.22442,247.861577 179.209748,248.114665 179.209748,248.374172 C179.209748,251.695496 179.535278,254.939794 180.146908,258.085057 C182.079915,270.629429 187.729467,287.769737 203.226536,307.095223 L227.756836,274.930095 L232.277578,269.000862 L237.348512,275.213444 C241.12833,279.846059 244.883389,284.491511 248.658621,289.126877 C249.83053,286.971959 251.005189,284.818875 252.204607,282.678629 C255.019755,277.646208 257.866081,272.63121 260.854539,267.689571 C263.776974,262.713087 266.887392,257.83472 269.950126,252.932511 L279.404255,238.361599 L284.841066,229.981261 L290.478698,237.878347 L300.712265,252.216345 C303.047829,255.647707 305.438412,259.042391 307.773976,262.473753 L315.029172,254.449206 C317.711357,251.545111 320.377036,248.629094 323.061972,245.725916 L313.530816,243.408691 L338.756192,230.132564 L332.020928,256.378545 L326.998594,248.485128 C324.742808,251.689995 322.469599,254.881107 320.212895,258.083223 L310.687242,271.302497 L307.930781,275.128164 L304.066601,271.170451 C299.897981,266.898212 295.935683,262.489342 291.861513,258.154748 L286.737394,252.463014 L282.856708,259.691617 C280.044311,264.725872 277.27868,269.782134 274.323234,274.741196 C271.434727,279.73602 268.405004,284.656569 265.341353,289.55786 C262.28137,294.463737 259.125103,299.317345 255.993595,304.183792 L250.33854,312.974022 L244.403805,304.56159 C240.400243,298.883611 236.328824,293.250564 232.266574,287.611098 L209.537235,314.46871 C216.490742,322.104455 225.013213,330.018046 235.464106,338.073771 C242.017807,343.21623 249.315183,348.327511 257.456188,353.43054 C261.152559,355.747764 265.01674,358.063155 269.070736,360.380379 C273.124732,358.063155 276.990747,355.747764 280.681616,353.43054 C287.039999,349.445318 292.868364,345.457344 298.242821,341.450114 C299.754014,340.325889 301.241366,339.19983 302.6792,338.073771 C303.983155,337.067837 305.255932,336.064654 306.499365,335.063305 C334.20794,312.794293 347.40429,291.753125 353.607702,274.877827 C354.946502,271.232806 355.960689,267.784021 356.723621,264.55898 C357.260058,262.289439 357.679121,260.123517 357.995481,258.085057 C358.602526,254.939794 358.931724,251.695496 358.931724,248.374172 C358.931724,248.114665 358.917969,247.861577 358.913385,247.603904 C358.927139,247.006029 358.931724,246.42741 358.931724,245.871717 L358.871203,245.902894 Z" id="Fill-10"></path>
    </g>
</svg>