<?xml version="1.0" encoding="UTF-8"?>
<svg width="400px" height="400px" viewBox="0 0 400 400" version="1.1" xmlns="http://www.w3.org/2000/svg" xmlns:xlink="http://www.w3.org/1999/xlink">
    <defs></defs>
    <g id="img_list-defense" fill="#ffffff" stroke="none" stroke-width="1" fill-rule="evenodd">
        <path d="M88.868906,200.8445 C88.6609672,198.616744 88.4702134,194.963842 88.4461544,192.729226 L88.3103927,179.774285 C88.2880522,177.539669 87.5594072,177.395611 86.6915636,179.457014 L75.9990427,204.938152 C75.1311991,206.999555 73.0793074,209.930452 71.4347008,211.455067 L2.98847538,274.840641 C1.34558725,276.366971 1.98951966e-13,279.440211 1.98951966e-13,281.676542 L1.98951966e-13,307.709903 C1.98951966e-13,309.946234 1.80958285,311.487999 4.02301373,311.129568 L90.049517,297.270834 C92.2629479,296.914119 94.0725307,294.792691 94.0725307,292.558075 L94.0725307,260.434829 C94.0725307,258.198498 93.902399,254.545596 93.6961787,252.31784 L88.868906,200.8445 Z" id="Fill-1" opacity="0.8"></path>
        <path d="M91.9707238,313.945703 L44.254533,363.66579 C42.7041439,365.284392 42.5716468,368.046142 43.9637275,369.798626 L48.4410996,375.457725 C49.8314596,377.210209 52.6775677,377.970592 54.7596662,377.139835 L87.424522,364.103482 C89.5083413,363.272725 91.6248546,360.807919 92.1221492,358.626325 L93.8841896,350.952126 C94.3814842,348.770533 94.7927416,345.153996 94.7927416,342.915759 L94.7927416,315.07512 C94.7927416,312.836883 93.5211129,312.328818 91.9707238,313.945703" id="Fill-4"></path>
        <path d="M248.084055,274.841221 L179.63783,211.455948 C177.994942,209.93134 175.941332,207.000457 175.073488,204.939063 L164.380967,179.456331 C163.513123,177.396653 162.784479,177.538995 162.762138,179.773601 L162.626376,192.72848 C162.602317,194.964801 162.409845,198.617686 162.205343,200.845431 L157.37807,252.318526 C157.170132,254.546272 157,258.199157 157,260.435477 L157,292.556856 C157,294.793176 158.809583,296.912879 161.021295,297.271307 L247.049517,311.129976 C249.262948,311.48669 251.072531,309.946647 251.072531,307.710327 L251.072531,281.675375 C251.072531,279.440769 249.728662,276.365829 248.084055,274.841221" id="Fill-6" opacity="0.8"></path>
        <path d="M159.822003,313.945703 C158.271622,312.328818 157,312.836883 157,315.07512 L157,342.915759 C157,345.153996 157.411255,348.770533 157.908547,350.952126 L159.670579,358.626325 C160.169592,360.807919 162.284373,363.272725 164.368182,364.103482 L197.032871,377.139835 C199.114958,377.970592 201.961052,377.210209 203.351405,375.457725 L207.830475,369.798626 C209.220828,368.046142 209.088331,365.284392 207.53795,363.66579 L159.822003,313.945703 Z" id="Fill-9"></path>
        <path d="M150.875907,351 L101.974833,351 L100.409483,358.043892 C99.9188251,360.272151 99.8594029,363.926356 100.283847,366.170381 L101.83222,374.403728 C102.258362,376.647753 104.416237,378.481863 106.630138,378.481863 L122.400789,378.481863 L130.451649,378.481863 L146.220602,378.481863 C148.434504,378.481863 150.592378,376.647753 151.016823,374.403728 L152.565195,366.170381 C152.991337,363.926356 152.930217,360.272151 152.43956,358.043892 L150.875907,351 Z" id="Fill-11" opacity="0.8"></path>
        <path d="M147.731402,104.136916 C146.585657,102.232827 143.963663,100.674004 141.906067,100.674004 C139.850166,100.674004 138.045109,98.8536677 137.895958,96.6282423 C137.895958,96.6282423 135.957005,67.7336067 135.957005,53.0017011 C135.957005,29.0177006 128.323223,0 124.06905,0 C119.811487,0 112.177705,29.0177006 112.177705,53.0017011 C112.177705,67.7336067 110.003162,96.63337 110.003162,96.63337 C109.835368,98.8570862 108.077767,100.674004 106.091357,100.674004 C104.110031,100.674004 101.550748,102.232827 100.399918,104.136916 L97.0881039,109.645784 C95.9372739,111.549873 95,114.934161 95,117.161295 L95,189.890999 C95,192.118133 95.169489,195.758806 95.3728757,197.979104 L100.354156,251.638861 C100.557543,253.859159 100.727032,257.501541 100.727032,259.728675 L100.727032,342.676192 C100.727032,343.238531 100.698219,343.88804 100.655846,344.580281 L147.480559,344.580281 C147.433102,343.88804 147.409373,343.238531 147.409373,342.676192 L147.409373,259.728675 C147.409373,257.501541 147.577167,253.859159 147.782249,251.638861 L152.761834,197.979104 C152.965221,195.758806 153.13471,192.118133 153.13471,189.890999 L153.13471,117.161295 C153.13471,114.934161 152.197436,111.549873 151.051691,109.645784 L147.731402,104.136916 Z" id="Fill-14"></path>
        <path d="M40.8549209,210.372536 C40.8549209,193.914453 35.7656054,174 32.9299406,174 C30.0876621,174 25,193.914453 25,210.372536 L25,250.10362 L40.8549209,234.831411 L40.8549209,210.372536 Z" id="Fill-16"></path>
        <path d="M225.854921,210.374177 C225.854921,193.915351 220.767259,174 217.929941,174 C215.089316,174 210,193.915351 210,210.374177 L210,234.834155 L225.854921,250.10362 L225.854921,210.374177 Z" id="Fill-18"></path>
    </g>
</svg>