<?xml version="1.0" encoding="UTF-8"?>
<svg width="400px" height="400px" viewBox="0 0 400 400" version="1.1" xmlns="http://www.w3.org/2000/svg" xmlns:xlink="http://www.w3.org/1999/xlink">
    <defs></defs>
    <g id="img_list-fitness" fill="#ffffff" stroke="none" stroke-width="1" fill-rule="evenodd">
        <path d="M273.14392,99 C275.232142,102.491635 278.205518,105.396485 279.408588,109.47094 C289.758679,144.5287 246.887455,164.698774 229.746353,177.803638 C219.410772,185.705412 212.299207,196.586045 207.37612,210.317342 C195.776788,242.665847 194.949678,266.043414 169.793389,289.12098 C138.369794,317.948776 94.2717559,330.801217 55.2577419,328.79769 C45.5118236,328.29813 -1.70997389,325.612663 1.12225225,303.999416 C13.1199685,311.802071 29.3811942,316.012649 44.9670125,316.123663 C60.980237,316.238641 77.1807816,315.289741 92.8391534,311.163744 C117.911017,304.557126 143.98148,289.724946 163.977234,269.833728 C177.834959,256.046924 185.620613,237.951743 193.953716,219.133654 C204.529383,195.251241 211.596097,176.731831 228.403453,157.965284 C243.58561,141.013277 270.877611,126.927794 273.14392,99" id="Fill-1"></path>
        <path d="M113.386364,195 C93.2447906,184.001264 71.9130032,184.726528 61.2300126,191.170976 C59.4808586,177.677912 68.0556585,173.318432 75.1601169,173.069658 C91.2786363,172.504979 110.17739,175.312578 126,183.723531 C123.576172,188.455515 118.958669,193.608705 113.386364,195" id="Fill-3" opacity="0.8"></path>
        <path d="M131.038769,174 C109.316658,163.710682 81.0087695,161.429013 70.7507391,167.81605 C67.0956396,153.842532 77.6004221,149.329625 84.7272065,149.072017 C100.649981,148.49683 119.276474,151.305981 135,159.704813 C133.782073,164.826982 132.492892,169.59886 131.038769,174" id="Fill-5"></path>
        <path d="M137.017336,151 C115.503295,140.86065 87.8427606,138.668395 77.7473876,145.069724 C74.10964,130.909168 84.5607798,126.33541 91.6511712,126.072947 C106.933387,125.510724 124.719097,128.140877 140,135.967792 C138.976022,141.211521 138.000617,146.227322 137.017336,151" id="Fill-7" opacity="0.8"></path>
        <path d="M142.85033,125 C121.488098,115.927519 94.664597,114.061723 84.7485322,119.974199 C81.1041777,106.625881 91.5780787,102.31489 98.6839121,102.068808 C113.621818,101.551906 130.946316,103.895544 146,110.857449 C144.85933,115.723101 143.822597,120.440323 142.85033,125" id="Fill-9"></path>
        <path d="M148.136449,100 C126.816696,91.1526182 100.565483,89.4155703 90.7542364,95.3470507 C87.0828029,81.7217904 97.6320462,77.3213576 104.788095,77.0701701 C119.685821,76.5478596 136.941956,78.8896182 152,85.8378098 C150.590254,90.6675207 149.310354,95.3909088 148.136449,100" id="Fill-11" opacity="0.8"></path>
        <path d="M188.026746,59.1088998 C201.037072,59.8795323 217.199853,62.5483266 228.298878,52.9279774 C239.508933,43.2137775 234.631548,27.006701 228.298878,15.1735921 C217.059744,-5.8291188 193.985351,-4.88135974 182.796445,17.1021562 C177.176217,28.1461268 175.740759,31.5670479 168.441864,41.6355009 C172.789214,44.0861917 177.251559,45.5336061 181.994122,46.2447559 C189.122506,30.3113002 201.460043,3.74364425 214.934315,33.7969915 C223.987217,53.9854491 198.449017,54.0303917 187.045982,52.36223 C168.17222,49.5982632 158.729392,46.128434 148.156437,27.67423 C140.616978,14.5166377 121.900508,16.2654317 114.10991,20.7900889 C100.839193,28.4964143 106.007371,43.959295 98,72.3722392 C107.787815,66.4741905 133.97501,68.201835 155.243846,77 C160.854821,60.0315439 174.832693,58.3263707 188.026746,59.1088998" id="Fill-13"></path>
        <path d="M51.2244546,302 C33.8791501,301.711276 18.244965,298.406105 0.993042188,292.864968 C-8.09390869,250.307768 47.8127379,242.823344 61.5753452,200.089482 C76.4677384,193.154821 92.2492298,195.791574 106,202.390049 C94.0800353,243.251816 50.9337879,257.860748 51.2244546,302 L51.2244546,302 Z" id="Fill-15"></path>
        <path d="M239.626917,46 C246.465705,58.6264311 252.398721,66.9231974 259.93365,77.938529 C279.010271,105.821623 225.55776,133.487179 211.342256,153.474304 C185.159201,190.289639 183.615299,233.574421 152.877007,262.0508 C122.895504,289.824466 91.1130016,301.303879 59.003524,302 C58.535475,267.936191 104.830132,243.266067 115.268284,201.924624 C143.278707,191.57509 140.160578,148.056949 160.342059,82.5437419 C166.321219,63.1314446 183.261955,66.1993892 196.710123,66.8467295 C213.699641,67.6641449 231.478909,68.5369336 239.626917,46 Z M221.233252,123.492298 L209.574218,104.077364 C172.843581,129.06127 170.161858,168.016387 147.161536,207.465909 L161.038199,224.853126 C181.500509,189.758319 187.186974,145.197314 221.233252,123.492298 Z" id="Combined-Shape" opacity="0.8"></path>
        <path d="M137,311 C196.150421,282.212129 246.876959,247.540047 302,208 C259.246489,231.581596 217.272087,253.363704 173.208194,272.782913 L149.953532,295.84059 L137,311 Z" id="Fill-17"></path>
        <path d="M177,269 C207.331579,252.883791 236.978977,235.109369 268,216 C240.341989,228.734344 213.030016,240.781583 185.350954,251.942784 L177,269 Z" id="Fill-19"></path>
    </g>
</svg>