<?xml version="1.0" encoding="UTF-8"?>
<svg width="400px" height="400px" viewBox="0 0 400 400" version="1.1" xmlns="http://www.w3.org/2000/svg" xmlns:xlink="http://www.w3.org/1999/xlink">
    <defs></defs>
    <g id="img_list-disrupters" fill="#ffffff" stroke="none" stroke-width="1" fill-rule="evenodd">
        <polygon id="Fill-1" opacity="0.7" points="259 0 259 25.6669151 289.227566 25.6669151 328.560178 89 361 89 287.746599 0"></polygon>
        <path d="M320.681662,119.562579 L334.256734,119.562579 L334.256734,112.764652 L320.681662,112.764652 L320.681662,119.562579 Z M320.681662,130.840065 L334.256734,130.840065 L334.256734,124.039331 L320.681662,124.039331 L320.681662,130.840065 Z M320.681662,142.775732 L334.256734,142.775732 L334.256734,135.956754 L320.681662,135.956754 L320.681662,142.775732 Z M320.681662,154.050411 L334.256734,154.050411 L334.256734,147.252484 L320.681662,147.252484 L320.681662,154.050411 Z M320.681662,165.855564 L334.256734,165.855564 L334.256734,159.056233 L320.681662,159.056233 L320.681662,165.855564 Z M320.681662,177.148486 L334.256734,177.148486 L334.256734,170.332316 L320.681662,170.332316 L320.681662,177.148486 Z M320.681662,189.067313 L334.256734,189.067313 L334.256734,182.249738 L320.681662,182.249738 L320.681662,189.067313 Z M320.681662,200.343395 L334.256734,200.343395 L334.256734,193.542661 L320.681662,193.542661 L320.681662,200.343395 Z M300.088694,165.967833 L313.666583,165.967833 L313.666583,159.169906 L300.088694,159.169906 L300.088694,165.967833 Z M300.088694,177.263563 L313.666583,177.263563 L313.666583,170.444585 L300.088694,170.444585 L300.088694,177.263563 Z M300.088694,189.179582 L313.666583,189.179582 L313.666583,182.363411 L300.088694,182.363411 L300.088694,189.179582 Z M300.088694,200.455665 L313.666583,200.455665 L313.666583,193.654931 L300.088694,193.654931 L300.088694,200.455665 Z M279.932494,154.107949 L293.507566,154.107949 L293.507566,147.308618 L279.932494,147.308618 L279.932494,154.107949 Z M279.933903,165.911698 L279.933903,159.112368 L293.507566,159.112368 L293.507566,165.911698 L279.933903,165.911698 Z M279.932494,177.207428 L293.507566,177.207428 L293.507566,170.388451 L279.932494,170.388451 L279.932494,177.207428 Z M279.932494,189.124851 L293.507566,189.124851 L293.507566,182.305873 L279.932494,182.305873 L279.932494,189.124851 Z M279.932494,200.400933 L293.507566,200.400933 L293.507566,193.601603 L279.932494,193.601603 L279.932494,200.400933 Z M259.36066,189.23712 L272.918825,189.23712 L272.918825,182.418143 L259.36066,182.418143 L259.36066,189.23712 Z M259.36066,200.514606 L272.918825,200.514606 L272.918825,193.713872 L259.36066,193.713872 L259.36066,200.514606 Z M30.9595594,146 C22.243111,146 15.1756201,138.960413 15.1756201,130.278378 C15.1756201,121.596344 22.243111,114.556756 30.9595594,114.556756 C39.6778647,114.556756 46.7434988,121.596344 46.7434988,130.278378 C46.7434988,138.960413 39.6778647,146 30.9595594,146 L30.9595594,146 Z M213.870432,103 L197.298559,121.718156 L197.298559,142.607327 L168.70285,142.607327 L168.70285,121.718156 L152.130977,103 L0,103 L9.04676042,172.768567 C9.04676042,172.768567 16.5718729,217 54.2312498,217 C91.8906267,217 168.70285,188.084953 168.70285,188.084953 L168.70285,153.350129 L197.298559,153.350129 L197.298559,188.084953 C197.298559,188.084953 274.1136,217 311.76875,217 C349.428127,217 356.957466,172.768567 356.957466,172.768567 L366,103 L213.870432,103 Z" id="Fill-2"></path>
        <polygon id="Fill-4" opacity="0.7" points="71.7558304 25.6655036 102 25.6655036 102 0 73.2789995 0 0 89 32.4504312 89"></polygon>
        <path d="M38.5062038,132.423331 C36.4251489,133.839153 32.9444057,132.558488 30.7316971,129.560667 C28.5189884,126.567277 28.4127414,122.991162 30.4937962,121.57534 C32.5748511,120.161733 36.0555943,121.442399 38.2683029,124.438004 C40.4810116,127.43361 40.5872586,131.007509 38.5062038,132.423331 M31,118 C24.3716364,118 19,123.373818 19,130 C19,136.628364 24.3716364,142 31,142 C37.6261818,142 43,136.628364 43,130 C43,123.373818 37.6261818,118 31,118" id="Fill-5" opacity="0.7"></path>
    </g>
</svg>