<?xml version="1.0" encoding="UTF-8"?>
<svg width="375px" height="317px" viewBox="0 0 375 317" version="1.1" xmlns="http://www.w3.org/2000/svg" xmlns:xlink="http://www.w3.org/1999/xlink">
    <!-- Generator: Sketch 45.1 (43504) - http://www.bohemiancoding.com/sketch -->
    <title>Page 1</title>
    <desc>Created with Sketch.</desc>
    <defs></defs>
    <g id="Iconsv2" stroke="none" stroke-width="1" fill="none" fill-rule="evenodd">
        <g id="Artboard" transform="translate(-1571.000000, -1690.000000)" fill="#FFFFFF">
            <g id="EARNINGS-CHAMPS" transform="translate(1533.000000, 1599.000000)">
                <g id="Page-1" transform="translate(38.000000, 91.000000)">
                    <path d="M318.055966,108.059759 C317.041137,109.091239 315.282044,110.309201 312.439855,111.578778 L312.439855,103.84726 C313.8776,103.391045 315.247911,102.900697 316.482523,102.376216 L316.500005,102.376216 C317.057787,102.155601 317.548967,101.936651 318.055966,101.699385 L318.055966,108.059759 Z M290.888677,117.177406 C289.078801,117.465454 287.200659,117.71937 285.290049,117.93832 L285.290049,109.327672 C285.577265,109.294371 285.881963,109.260238 286.152529,109.226938 C287.133225,109.142855 288.114754,109.007156 288.943102,108.888939 L289.028018,108.888939 C289.654065,108.804023 290.262629,108.701624 290.888677,108.618373 L290.888677,117.177406 Z M236.589064,117.93832 C234.660139,117.71937 232.79948,117.465454 230.972121,117.177406 L230.972121,108.600891 C231.852084,108.719107 232.664613,108.854806 233.560394,108.956372 C234.508622,109.091239 235.505969,109.210288 236.589064,109.327672 L236.589064,117.93832 Z M223.005003,117.921669 C221.025295,117.498754 219.165468,117.025889 217.388893,116.517226 L217.388893,108.296192 C219.198769,108.719107 221.059428,109.125372 223.005003,109.497504 L223.005003,117.921669 Z M209.421775,113.760786 C206.64702,112.525342 204.853794,111.324863 203.822314,110.2759 L203.822314,103.898043 C204.09288,104.033743 204.397579,104.151959 204.684795,104.270175 C205.125192,104.456657 205.530624,104.65979 205.987672,104.828789 C207.087418,105.268354 208.237113,105.674619 209.421775,106.080051 L209.421775,113.760786 Z M310.190414,94.9160963 C308.803453,95.4572276 307.314926,95.9817087 305.622433,96.4720569 C304.168039,96.8949718 302.595428,97.3187193 300.987852,97.7066688 L298.974843,98.1637166 L298.738411,98.2144997 C297.350617,98.5025481 295.912873,98.7897639 294.441828,99.0603296 C294.373562,99.0769798 294.288646,99.09363 294.221213,99.1111127 C291.988422,99.4998947 289.569149,99.8720265 286.930093,100.210858 C286.186662,100.329074 285.441566,100.413158 284.579086,100.498074 C282.938209,100.684556 281.280682,100.853555 279.639806,101.005072 C279.55489,101.005072 279.487456,101.022555 279.40254,101.022555 C277.87988,101.140771 276.375535,101.25982 274.887008,101.360554 C270.319027,101.648602 265.650313,101.800119 260.998248,101.800119 C257.970411,101.800119 254.72279,101.732686 251.169639,101.597819 C249.021764,101.496253 246.924672,101.360554 244.775964,101.191554 C243.710352,101.124121 242.67804,101.039205 241.579127,100.937639 C239.514503,100.751989 237.485677,100.532207 235.505969,100.278291 C227.234152,99.2459793 220.146165,97.7915848 214.461788,95.9475758 C213.447792,95.6095769 212.482913,95.2540952 211.518867,94.8819634 C209.777256,94.4090979 208.068114,93.9179171 206.478853,93.4100862 C199.779647,91.245561 194.89115,88.7921549 191.321349,86.272148 C191.168999,86.8640624 191.067433,87.4218439 191.049951,87.9130247 C191.01665,88.0986743 191,88.284324 191,88.4375058 L191,106.1991 C191,106.435533 191.034133,106.672798 191.084083,106.892581 C191.524481,111.087597 195.2791,116.839407 209.895473,121.575555 C222.801871,125.753921 241.410128,128.156544 260.947465,128.156544 C276.780967,128.156544 292.191554,126.565618 304.354521,123.690129 C325.550218,118.683416 330.100716,111.476379 330.726764,107.163147 C330.810847,106.85928 330.86163,106.537099 330.86163,106.1991 L330.86163,88.3700725 C330.86163,87.7098923 330.760064,86.9822788 330.573582,86.2380151 C326.142133,89.3840693 319.629409,92.4119071 310.190414,94.9160963 L310.190414,94.9160963 Z M312.439855,69.6094663 C313.8776,69.153251 315.247911,68.6620703 316.482523,68.1375892 L316.500005,68.1375892 C317.057787,67.9178066 317.548967,67.698024 318.055966,67.4607588 L318.055966,73.8219654 C317.041137,74.8534449 315.282044,76.0714066 312.439855,77.3401514 L312.439855,69.6094663 Z M290.888677,82.9396117 C289.078801,83.2268275 287.200659,83.480743 285.290049,83.7005256 L285.290049,75.0898777 C285.577265,75.0565773 285.881963,75.0224444 286.152529,74.9883115 C287.133225,74.904228 288.114754,74.7693615 288.943102,74.6503126 L289.028018,74.6503126 C289.654065,74.5662291 290.262629,74.4646629 290.888677,74.3797469 L290.888677,82.9396117 Z M236.589064,83.7005256 C234.660139,83.480743 232.79948,83.2268275 230.972121,82.9396117 L230.972121,74.3622642 C231.852084,74.4813131 232.664613,74.6161797 233.560394,74.7177459 C234.508622,74.8534449 235.505969,74.9716613 236.589064,75.0898777 L236.589064,83.7005256 Z M223.005003,83.6838754 C221.025295,83.2609604 219.165468,82.7872624 217.388893,82.2794315 L217.388893,74.0583982 C219.198769,74.4813131 221.059428,74.8867453 223.005003,75.242227 L223.005003,83.6838754 Z M209.421775,79.5229919 C206.64702,78.2875475 204.853794,77.086236 203.822314,76.0372737 L203.822314,69.6602494 C204.09288,69.795116 204.397579,69.9141649 204.684795,70.0323813 C205.125192,70.2188634 205.530624,70.4211633 205.987672,70.5901628 C207.087418,71.0305604 208.237113,71.4368251 209.421775,71.8422573 L209.421775,79.5229919 Z M305.622433,64.4337535 C304.168039,64.8566684 302.595428,65.2962336 300.987852,65.6683654 L298.974843,66.1245807 L298.738411,66.1928465 C297.350617,66.4800624 295.912873,66.7672782 294.441828,67.0386764 C294.373562,67.0386764 294.288646,67.0553266 294.221213,67.0728093 C291.988422,67.4607588 289.569149,67.8337231 286.930093,68.1883723 C286.186662,68.290771 285.441566,68.3748544 284.579086,68.4597704 C282.938209,68.6454201 281.280682,68.8144196 279.639806,68.9667688 C279.55489,68.9667688 279.487456,68.9842515 279.40254,68.9842515 C277.87988,69.1024679 276.375535,69.2206843 274.887008,69.3222505 C270.319027,69.6094663 265.650313,69.7618156 260.998248,69.7618156 C257.970411,69.7618156 254.72279,69.6943823 251.169639,69.5586832 C249.021764,69.457117 246.924672,69.3389007 244.775964,69.1699012 C243.710352,69.0858177 242.67804,69.0009017 241.579127,68.8993355 C239.514503,68.7128534 237.485677,68.4939033 235.505969,68.2391554 C227.234152,67.2076758 220.146165,65.7532814 214.461788,63.9092724 C213.447792,63.5712734 212.482913,63.2157918 211.518867,62.84366 C209.777256,62.3691294 208.068114,61.8962639 206.478853,61.3717828 C199.593165,59.1381593 194.603102,56.6181524 191.01665,54.0298797 C191.01665,54.0806628 191,54.1480961 191,54.1997117 L191,71.9613062 C191,72.197739 191.034133,72.4341717 191.084083,72.6547868 C191.524481,76.8498032 195.2791,82.6007802 209.895473,87.3369279 C222.801871,91.5161267 241.410128,93.9179171 260.947465,93.9179171 C276.780967,93.9179171 292.191554,92.3278236 304.354521,89.4515026 C325.550218,84.4447892 330.100716,77.2394178 330.726764,72.9253525 C330.810847,72.6031712 330.86163,72.2993052 330.86163,71.9613062 L330.86163,54.1997117 L330.86163,54.1655788 L330.86163,54.1314459 L330.86163,53.9790966 C326.430181,57.226717 319.832542,60.3228206 310.190414,62.8936105 C308.803453,63.4180917 307.314926,63.9425728 305.622433,64.4337535 L305.622433,64.4337535 Z M318.055966,142.297554 C317.041137,143.329033 315.282044,144.546995 312.439855,145.816572 L312.439855,138.085054 C313.8776,137.628839 315.247911,137.138491 316.482523,136.61401 L316.500005,136.61401 C317.057787,136.393395 317.548967,136.174445 318.055966,135.937179 L318.055966,142.297554 Z M290.888677,151.4152 C289.078801,151.703248 287.200659,151.957164 285.290049,152.176114 L285.290049,143.566298 C285.577265,143.532165 285.881963,143.498865 286.152529,143.464732 C287.133225,143.380649 288.114754,143.24495 288.943102,143.126733 L289.028018,143.126733 C289.654065,143.04265 290.262629,142.940251 290.888677,142.856168 L290.888677,151.4152 Z M236.589064,152.193596 C234.660139,151.957164 232.79948,151.703248 230.972121,151.4152 L230.972121,142.838685 C231.852084,142.957734 232.664613,143.0926 233.560394,143.211649 C234.508622,143.329033 235.505969,143.448082 236.589064,143.566298 L236.589064,152.193596 Z M223.005003,152.160296 C221.025295,151.736549 219.165468,151.263683 217.388893,150.755852 L217.388893,142.533986 C219.198769,142.957734 221.059428,143.363166 223.005003,143.73613 L223.005003,152.160296 Z M209.421775,147.99858 C206.64702,146.763136 204.853794,145.562657 203.822314,144.513694 L203.822314,138.13667 C204.09288,138.271537 204.397579,138.390585 204.684795,138.507969 C205.125192,138.694452 205.530624,138.897584 205.987672,139.066583 C207.087418,139.506148 208.237113,139.912413 209.421775,140.318678 L209.421775,147.99858 Z M310.190414,129.15389 C308.803453,129.695022 307.314926,130.219503 305.622433,130.709851 C304.168039,131.133598 302.595428,131.556513 300.987852,131.944463 L298.974843,132.401511 L298.738411,132.453126 C297.350617,132.740342 295.912873,133.045041 294.441828,133.315606 C294.373562,133.315606 294.288646,133.331424 294.221213,133.348907 C291.988422,133.738521 289.569149,134.110653 286.930093,134.448652 C286.186662,134.566868 285.441566,134.650952 284.579086,134.735868 C282.938209,134.92235 281.280682,135.09135 279.639806,135.243699 C279.55489,135.243699 279.487456,135.260349 279.40254,135.260349 C277.87988,135.378565 276.375535,135.497614 274.887008,135.59918 C270.319027,135.886396 265.650313,136.038746 260.998248,136.038746 C257.970411,136.038746 254.72279,135.97048 251.169639,135.835613 C249.021764,135.734047 246.924672,135.59918 244.775964,135.445999 C243.710352,135.361915 242.67804,135.276999 241.579127,135.175433 C239.514503,134.990616 237.485677,134.770001 235.505969,134.516085 C227.234152,133.484606 220.146165,132.029379 214.461788,130.18537 C213.447792,129.847371 212.482913,129.491889 211.518867,129.12059 C209.777256,128.646892 208.068114,128.156544 206.478853,127.64788 C199.779647,125.483355 194.89115,123.029949 191.321349,120.509942 C191.168999,121.101856 191.067433,121.66047 191.049951,122.150819 C191.01665,122.336468 191,122.522951 191,122.6753 L191,140.436894 C191,140.67416 191.034133,140.910592 191.084083,141.131207 C191.524481,145.326224 195.2791,151.077201 209.895473,155.813349 C222.801871,159.991715 241.410128,162.394338 260.947465,162.394338 C276.780967,162.394338 292.191554,160.803412 304.354521,157.927923 C325.550218,152.92121 330.100716,145.714173 330.726764,141.400941 C330.810847,141.097075 330.86163,140.775726 330.86163,140.436894 L330.86163,122.607867 C330.86163,121.947686 330.760064,121.220905 330.573582,120.475809 C326.142133,123.621863 319.629409,126.650534 310.190414,129.15389 L310.190414,129.15389 Z M319.172361,22.6342738 C319.139061,22.6842244 319.139061,22.7183573 319.121578,22.7857906 C319.070795,22.9214897 319.003362,23.0571887 318.901796,23.2603211 C318.81688,23.377705 318.716146,23.4967539 318.580447,23.6998862 C318.344014,24.021235 318.055966,24.325101 317.666351,24.6297996 C317.5831,24.6972329 317.514835,24.7646661 317.429919,24.8495821 C317.243436,25.0019314 317.024486,25.1542807 316.753921,25.3407629 C316.516655,25.5097623 316.26274,25.6787618 315.856475,25.9326773 C315.823175,25.9493274 315.789042,25.9834603 315.754909,26.0001105 C315.721609,26.0167607 315.687476,26.0342434 315.653343,26.0683763 L315.637525,26.0683763 C315.468526,26.16911 315.332827,26.2706762 315.146344,26.3722424 C314.960695,26.4738086 314.757562,26.5753747 314.55443,26.6935911 C314.469514,26.727724 314.385431,26.7776746 314.300515,26.8292902 L313.979998,26.980807 C313.522951,27.2189047 313.100036,27.4212046 312.66047,27.624337 C312.135989,27.8607697 311.611508,28.098035 311.002111,28.3344677 C309.412018,28.9938154 307.652925,29.6032125 305.622433,30.1951269 C304.168039,30.6188744 302.595428,31.0584395 300.987852,31.4297388 L298.974843,31.8867867 L298.738411,31.9542199 C297.350617,32.2422683 295.912873,32.5294841 294.441828,32.8008823 C294.373562,32.8008823 294.288646,32.8167 294.221213,32.8341827 C291.988422,33.2229647 289.569149,33.5959291 286.930093,33.9505782 C286.186662,34.0521444 285.441566,34.1370604 284.579086,34.2219764 C282.938209,34.4067935 281.280682,34.575793 279.639806,34.7289748 C279.55489,34.7289748 279.487456,34.7464575 279.40254,34.7464575 C277.87988,34.8638414 276.375535,34.9828902 274.887008,35.0844564 C270.319027,35.3716723 265.650313,35.5240215 260.998248,35.5240215 C257.970411,35.5240215 254.72279,35.4557558 251.169639,35.3208892 C249.021764,35.219323 246.924672,35.1002741 244.775964,34.9312746 C243.710352,34.8471912 242.67804,34.7622752 241.579127,34.6615415 C239.514503,34.4750593 237.485677,34.2552768 235.505969,34.0013613 C227.234152,32.9698818 220.146165,31.5146548 214.461788,29.6706458 C212.26313,28.9438649 210.216821,28.1313354 208.253764,27.201422 C208.220463,27.1672891 208.16968,27.150639 208.118897,27.1331562 C207.645199,26.9133737 207.188151,26.6602907 206.64702,26.3381095 C206.46137,26.2531935 206.274888,26.1358096 205.970189,25.9493274 C205.61554,25.7287124 205.310842,25.5264125 205.006143,25.2891473 C204.887927,25.1884136 204.803843,25.1201478 204.684795,25.0352318 L204.380096,24.7821488 C204.227747,24.6472823 204.058747,24.5115832 203.957181,24.4266672 C203.568399,24.0711856 203.281183,23.7331866 203.060568,23.3951877 C203.04475,23.3618873 203.010617,23.3277544 202.993135,23.3102717 C202.806653,22.9889229 202.689269,22.6842244 202.655136,22.3970085 C202.637653,22.3462255 202.637653,22.2954424 202.621003,22.2446593 C202.637653,22.1938762 202.637653,22.1430931 202.637653,22.09231 C202.705919,20.2657837 206.64702,16.2730672 220.975344,12.8905802 C232.038566,10.2515245 246.231191,8.81378023 260.913332,8.81378023 C278.945493,8.81378023 295.87874,10.9450051 307.399009,14.6838061 C316.127873,17.4910289 319.240627,20.4680836 319.256445,22.1597433 C319.256445,22.3287428 319.223144,22.481092 319.172361,22.6342738 L319.172361,22.6342738 Z M318.055966,41.7828295 C317.041137,42.8309592 315.282044,44.0331032 312.439855,45.3010155 L312.439855,37.5878131 C313.8776,37.1132826 315.247911,36.6229344 316.482523,36.1159359 C316.482523,36.0992858 316.500005,36.0992858 316.500005,36.0992858 C317.057787,35.8795032 317.548967,35.6588881 318.055966,35.4399381 L318.055966,41.7828295 Z M290.888677,50.9004758 C289.078801,51.1885241 287.200659,51.4416071 285.290049,51.6622221 L285.290049,43.0515743 C285.577265,43.0174414 285.881963,42.984141 286.152529,42.9500081 C287.133225,42.8650921 288.114754,42.7468757 288.943102,42.6120092 L289.028018,42.6120092 C289.654065,42.5270932 290.262629,42.425527 290.888677,42.3414435 L290.888677,50.9004758 Z M236.589064,51.6780398 C234.660139,51.4416071 232.79948,51.1885241 230.972121,50.9004758 L230.972121,42.3239608 C231.852084,42.4430097 232.664613,42.5778763 233.560394,42.6960926 C234.508622,42.8151415 235.505969,42.9333579 236.589064,43.0515743 L236.589064,51.6780398 Z M223.005003,49.4460813 C221.025295,49.0056837 219.165468,48.5494684 217.388893,48.0416374 L217.388893,39.8206041 C219.198769,40.2435191 221.059428,40.6323011 223.005003,41.0044329 L223.005003,49.4460813 Z M209.421775,45.2843653 C206.64702,44.0331032 204.853794,42.8484419 203.822314,41.7994797 L203.822314,35.4224554 C204.09288,35.5573219 204.397579,35.6763708 204.684795,35.7945872 C205.125192,35.9802369 205.530624,36.1833692 205.987672,36.3523687 C207.087418,36.7927663 208.237113,37.1990311 209.421775,37.6044633 L209.421775,45.2843653 Z M311.949507,6.5809892 C299.059759,2.402623 280.451503,0 260.913332,0 C245.080663,0 229.670076,1.59009353 217.507941,4.46558205 C195.177534,9.77699395 191.303866,17.4402458 191.049951,21.6527449 C191.01665,21.8217443 191,22.0082265 191,22.1597433 L191,39.9221703 C191,40.1586031 191.034133,40.3958683 191.084083,40.6148184 C191.524481,44.8106673 195.2791,50.5624768 209.895473,55.2986245 C222.801871,59.4769907 241.410128,61.8787812 260.947465,61.8787812 C276.780967,61.8787812 292.191554,60.2886877 304.354521,57.4131992 C325.550218,52.4056533 330.100716,45.1994493 330.726764,40.8862165 C330.810847,40.581518 330.86163,40.2610018 330.86163,39.9221703 L330.86163,22.09231 C330.844147,17.7957274 327.529094,11.5877026 311.949507,6.5809892 L311.949507,6.5809892 Z" id="Fill-1"></path>
                    <path d="M280.975984,20.8243977 C285.932746,21.5511787 288.436103,22.650924 288.436103,24.0886683 C288.436103,25.5597129 286.152529,26.7951573 281.636164,27.7758537 C277.491098,28.6732992 271.926603,29.2652136 265.075048,29.5016464 L265.075048,31.2782221 C265.075048,31.3797882 264.871916,31.4638717 264.533917,31.5487877 L263.942003,31.6670041 C263.569871,31.7344374 263.04539,31.7685703 262.486776,31.7685703 L258.274277,31.7685703 C257.699845,31.7685703 257.175364,31.7344374 256.803232,31.6503539 L256.227968,31.531305 C255.906619,31.4638717 255.720137,31.3797882 255.720137,31.2782221 L255.720137,29.6198627 C248.920198,29.5699121 242.137741,29.2652136 235.522619,28.7232498 C235.049753,28.6899494 234.710922,28.6216836 234.491139,28.5376001 L234.15314,28.401901 C233.999959,28.3344677 233.950008,28.2503843 233.999959,28.1821185 C234.710922,27.3537713 235.083054,26.2706762 235.150487,24.9511483 C235.150487,24.8495821 235.387752,24.7480159 235.810667,24.6805827 L236.419232,24.579849 C236.792196,24.5115832 237.265062,24.4782828 237.73876,24.4782828 L241.071296,24.4782828 C241.579127,24.4782828 242.036175,24.5115832 242.424124,24.579849 L243.100955,24.6972329 C243.524702,24.7646661 243.743652,24.8662323 243.761135,24.9677985 L243.777785,25.7628453 C243.811086,26.0342434 243.997568,26.3048091 244.3697,26.5412418 C246.974622,27.1672891 250.696773,27.539421 255.720137,27.6576374 L255.720137,23.0913216 C248.699583,22.8032733 243.676219,22.4136587 240.411116,21.8725274 C235.759052,21.0941309 233.425527,20.0451686 233.425527,18.7431235 C233.425527,16.8991145 237.332495,15.4955031 245.029047,14.5481071 C248.057718,14.1759752 251.644169,13.9220598 255.720137,13.8030109 L255.720137,13.0595797 C255.720137,12.9580135 255.906619,12.8730975 256.227968,12.8056643 L256.803232,12.6866154 C257.175364,12.6025319 257.699845,12.5517488 258.274277,12.5517488 L262.419342,12.5517488 C262.909691,12.5517488 263.349256,12.5850492 263.721388,12.653315 L264.381568,12.7548812 C264.821965,12.823147 265.075048,12.9405308 265.075048,13.042097 L265.075048,13.7197599 C271.825037,13.8030109 277.695063,14.0735765 282.516127,14.5139742 C282.938209,14.5481071 283.259558,14.6155403 283.46269,14.6996238 L283.868955,14.8694558 C284.054605,14.9368891 284.10622,15.0218051 283.987171,15.1067211 C283.530123,15.4780204 283.142174,16.1548508 282.854126,17.1022468 L282.58356,17.9988598 C282.566077,18.0995935 282.312162,18.2011596 281.94003,18.2702579 L281.297332,18.3709916 C280.958501,18.4392574 280.468985,18.4725578 279.978637,18.4725578 L276.594485,18.4725578 C276.087487,18.4725578 275.597139,18.4392574 275.225007,18.3709916 L274.633092,18.2527752 C274.277611,18.185342 274.056996,18.0995935 274.007045,18.0163425 C273.887996,17.6267279 273.838046,17.3728125 273.838046,17.203813 C273.838046,16.7642479 273.61743,16.5777657 273.499214,16.5103324 C271.756771,16.0532846 268.948716,15.782719 265.075048,15.6811528 L265.075048,19.7246524 C272.146386,19.9436025 277.339581,20.2999166 280.975984,20.8243977 Z M272.991383,26.7618569 C274.733826,26.3381095 275.613789,25.8311111 275.613789,25.2558469 C275.613789,24.2743179 273.330215,23.6998862 268.458368,23.4293206 L268.458368,27.4378548 C270.284894,27.286338 271.807554,27.065723 272.991383,26.7618569 Z M255.720137,19.3858209 L255.720137,15.8501522 C251.474337,16.1889837 249.461329,16.7975483 249.461329,17.7457768 C249.461329,18.574124 251.474337,19.1152553 255.720137,19.3858209 Z" id="Combined-Shape" opacity="0.800158514"></path>
                    <path d="M367.266167,155.259556 C360.697666,154.296342 348.743659,160.479392 348.743659,160.479392 L315.965254,174.735288 C310.189302,177.823899 304.564866,180.770983 304.156937,180.880875 C297.213806,182.767342 292.759879,187.93806 292.759879,187.93806 C292.453515,196.692732 290.864254,203.590074 282.921279,210.499905 C279.33566,213.619319 273.97846,215.864598 268.530516,217.399745 C256.464121,220.799715 245.24522,222.642059 222.882344,221.399122 C212.320294,220.812203 202.439236,217.595385 172.097587,213.982293 C165.06621,213.144788 160.598963,213.131468 161.34073,211.860226 C163.453639,208.238809 224.993589,216.772866 232.324669,216.630506 C256.074506,216.168464 274.923358,210.660579 279.935067,205.016996 C285.098292,199.201083 286.446125,192.09478 283.967744,187.630031 C281.074773,182.416855 273.935169,179.492249 251.146881,177.68487 C239.711528,176.778267 229.377585,175.366331 219.120233,175.006686 C215.273206,174.87182 210.732698,173.717961 205.596945,171.761563 C172.50968,156.051273 129.832735,138.905736 96.2567859,162.92031 C93.6576906,164.82093 91.198457,166.900539 88.8990652,169.163301 C86.5988409,171.42523 84.4601234,173.869478 82.5078882,176.494381 C79.7422909,179.188383 76.269893,182.314456 72.0149359,185.985824 C69.4957615,188.159507 65.7070099,190.935094 61,194.130267 L107.172653,265.303186 C110.295397,263.09204 113.453106,260.928348 116.648279,258.818768 L124.287388,253.771262 C130.884195,249.413906 138.675653,247.220243 146.57617,247.497469 L203.302549,249.487167 L217.205461,248.451525 C227.024913,247.720581 236.721986,245.814134 246.088552,242.776306 L256.475776,239.406307 L285.858373,229.988125 C285.965767,229.953992 286.073161,229.919026 286.180555,229.884893 C303.102147,224.432787 318.940644,216.063567 333.079156,205.284232 L343.036805,197.692576 C346.572473,194.397502 356.765722,186.780039 363.181042,182.058876 C367.739033,178.704694 371.412065,174.266585 373.743093,169.109188 C374.452391,167.539074 374.956059,166.085512 374.991857,165.067353 C375.120896,161.40431 373.835501,156.223602 367.266167,155.259556" id="Fill-4"></path>
                    <path d="M74.4580028,274.716864 C79.5671149,274.896686 83.563994,279.183279 83.3850044,284.291558 C83.2051823,289.401503 78.9177573,293.396717 73.8094778,293.21856 C68.7003657,293.038738 64.7043192,288.751313 64.8833087,283.643033 C65.0631308,278.533921 69.3488908,274.537874 74.4580028,274.716864 L74.4580028,274.716864 Z M0,215.845108 L63.6928199,316.976722 L106.661143,282.826341 L45.7921962,189 L0,215.845108 Z" id="Fill-7" opacity="0.753283514"></path>
                </g>
            </g>
        </g>
    </g>
</svg>