<?xml version="1.0" encoding="UTF-8"?>
<svg width="90px" height="95px" viewBox="0 0 90 95" version="1.1" xmlns="http://www.w3.org/2000/svg" xmlns:xlink="http://www.w3.org/1999/xlink">
    <!-- Generator: Sketch 46.1 (44463) - http://www.bohemiancoding.com/sketch -->
    <title>Group 8</title>
    <desc>Created with Sketch.</desc>
    <defs>
        <linearGradient x1="11.8730509%" y1="121.97895%" x2="134.358758%" y2="-50.5554834%" id="linearGradient-1">
            <stop stop-color="#EC2E2E" offset="0%"></stop>
            <stop stop-color="#2517DC" offset="100%"></stop>
        </linearGradient>
    </defs>
    <g id="Comps" stroke="none" stroke-width="1" fill="none" fill-rule="evenodd">
        <g id="V2-Home" transform="translate(-838.000000, -818.000000)" fill="url(#linearGradient-1)">
            <g id="Group-39" transform="translate(191.000000, 680.000000)">
                <g id="Group-38" transform="translate(151.000000, 0.000000)">
                    <g id="Group-17" transform="translate(496.000000, 91.000000)">
                        <g id="Group-29" transform="translate(0.000000, 47.000000)">
                            <g id="Group-8">
                                <g id="Page-1-Copy-6">
                                    <path d="M89.88444,39.911893 L89.8647219,39.9221324 C89.4471209,31.0976541 82.2626943,24.0724568 73.4609149,24.0724568 C68.360033,24.0724568 63.8072671,26.4332393 60.7957984,30.1344338 C57.7843298,26.4332393 53.2303901,24.0724568 48.130682,24.0724568 C39.329372,24.0724568 32.1444759,31.0976541 31.7271097,39.9221324 L31.7071569,39.911893 C31.7071569,40.0945357 31.7088,40.2845604 31.7132601,40.4810144 C31.7118516,40.565073 31.7071569,40.6486552 31.7071569,40.7336663 C31.7071569,41.8245221 31.81232,42.8896603 32.0104398,43.9226515 C32.6360197,48.0417574 34.4648725,53.6703448 39.481483,60.0166445 L47.4220044,49.4538453 L48.8858378,47.5071642 L50.527134,49.5469527 C51.7503598,51.0683405 52.9663086,52.5937766 54.1881259,54.1156407 C54.5676991,53.4084061 54.9479766,52.7016477 55.3357656,51.9986994 C56.2474925,50.3458658 57.168609,48.6992236 58.1362038,47.076394 C59.0822026,45.4421343 60.0889988,43.8402598 61.0807718,42.230289 L64.1408314,37.4458587 L65.9004361,34.6935968 L67.7260025,37.2872667 L71.0386415,41.9954967 C71.7945016,43.1220714 72.5682019,44.236978 73.3242967,45.3637908 L75.6730967,42.728687 C76.5411621,41.7747537 77.404298,40.8172485 78.2730676,39.8637915 L75.1878909,39.1032166 L83.3537619,34.7433652 L81.1732699,43.3621025 L79.5474665,40.7700996 C78.8174277,41.8223789 78.0812857,42.8701339 77.3505427,43.9221752 L74.2674786,48.2627384 L73.3750004,49.5190919 L72.1243101,48.2191613 C70.7750295,46.8163603 69.4924147,45.3687915 68.1731806,43.9452734 L66.5145138,42.0766977 L65.2584245,44.4501009 C64.3481061,46.1029344 63.4523415,47.763626 62.4960141,49.3921707 C61.5612828,51.0321454 60.5800731,52.6475931 59.5885349,54.257802 C58.5981704,55.8687253 57.5761162,57.4620273 56.5622777,59.0600918 L54.7317818,61.9466568 L52.8106765,59.1846317 C51.5149164,57.319866 50.1970908,55.469864 48.8818473,53.6181952 L41.5244179,62.437911 C43.7750969,64.9451411 46.534221,67.5435735 49.9168122,70.1886786 C52.0383847,71.8777073 54.4007996,73.5560203 57.0359814,75.2317139 C58.2324468,75.992765 59.4836065,76.7533399 60.7957984,77.5136767 C62.108225,76.7533399 63.3593848,75.992765 64.5544418,75.2317139 C66.6124,73.9229727 68.4992333,72.613517 70.23912,71.2981083 C70.7285511,70.9285365 71.2097664,70.5587266 71.6747846,70.1886786 C72.0970804,69.8583977 72.5090476,69.5290692 72.9116253,69.2006933 C81.8807737,61.8878396 86.1530264,54.9783717 88.1607504,49.4367003 C88.5943136,48.2398783 88.9227137,47.1075885 89.1696593,46.0484035 C89.3433662,45.3033068 89.4790455,44.5917859 89.581157,43.9226515 C89.7778684,42.8896603 89.88444,41.8245221 89.88444,40.7336663 C89.88444,40.6486552 89.8797452,40.565073 89.8785715,40.4810144 C89.8827968,40.2845604 89.88444,40.0945357 89.88444,39.911893" id="Fill-1"></path>
                                    <path d="M74.1874091,70.1855353 C74.086706,70.2684032 73.990463,70.3517474 73.8890556,70.434139 C73.4792011,70.7689444 73.0585485,71.1054166 72.6273327,71.4423651 C72.3278055,71.6812056 72.0048044,71.925523 71.6872023,72.1688879 C71.9254626,72.344625 72.1019864,72.5060745 72.1961168,72.648474 C73.2277954,74.2186777 73.3054941,76.1760745 72.4040957,77.8848677 C70.7808745,80.9614574 66.5499359,82.7262101 60.795775,82.7262101 L46.2705854,82.7262101 C46.2126048,81.5924916 45.4581532,80.6909461 44.5262387,80.6909461 L44.352297,80.6909461 L44.352297,79.099311 L45.6374939,79.099311 C46.4649494,79.099311 47.1355992,78.4182702 47.1355992,77.5788756 C47.1355992,76.7397191 46.4649494,76.059869 45.6374939,76.059869 L40.499758,76.059869 C39.6737109,76.059869 39.0028264,76.7397191 39.0028264,77.5788756 C39.0028264,78.4182702 39.6737109,79.099311 40.499758,79.099311 L41.8560808,79.099311 L41.8560808,80.6909461 L39.2910861,80.6909461 C37.1878232,76.5594576 31.6068998,73.5993116 25.031856,73.5993116 C18.4554038,73.5993116 12.8744803,76.5594576 10.7709827,80.6909461 L8.30504789,80.6909461 C7.33580991,80.6909461 6.549199,81.6634532 6.549199,82.8621802 L6.549199,86.6248112 C6.549199,87.8244907 7.33580991,88.7960453 8.30504789,88.7960453 L11.2730898,88.7960453 C13.6782272,92.4674741 18.9262905,95.0201863 25.031856,95.0201863 C31.1364825,95.0201863 36.3838416,92.4674741 38.7887443,88.7960453 L44.5262387,88.7960453 C45.4954767,88.7960453 46.2820876,87.8244907 46.2820876,86.6248112 L46.2820876,85.8928115 L60.795775,85.8928115 C67.7379508,85.8928115 72.971695,83.5186939 75.1557081,79.3791092 C76.6096825,76.6235135 76.4740032,73.4500065 74.7930361,70.8922937 C74.6327093,70.6484525 74.4251999,70.4150889 74.1874091,70.1855353" id="Fill-3" opacity="0.802536232"></path>
                                    <path d="M5.49503239,23.0691123 C1.52019425,17.4538599 2.79036783,9.60593687 8.32363923,5.57374702 C13.8606665,1.54179529 21.5979038,2.82958143 25.5715683,8.44411946 C29.544998,14.0586575 28.2762328,21.9080093 22.741553,25.9404373 C17.2061689,29.9721509 9.46916632,28.6836504 5.49503239,23.0691123 M24.5924712,28.554586 C31.5597641,23.4789274 33.1522346,13.6350311 28.1490042,6.56625675 C23.1450696,-0.500612575 13.4428308,-2.11653653 6.47365994,2.9586458 C-0.493398234,8.03359 -2.08657289,17.8782007 2.91642276,24.9460225 C7.91965314,32.0145587 17.6251783,33.6297683 24.5924712,28.554586" id="Fill-5"></path>
                                    <path d="M17.8066786,14.1003296 C18.0839056,14.4918089 18.2362513,14.9321041 18.2949361,15.3790669 L24.3493284,9.33447308 L16.7684273,13.2228347 C17.1677187,13.4223844 17.5296864,13.7090883 17.8066786,14.1003296" id="Fill-7"></path>
                                    <path d="M16.7198833,17.4352385 C17.6356007,16.7687234 17.8428754,15.4778416 17.1877184,14.5520072 C16.5306835,13.6249822 15.2598057,13.4130499 14.3454967,14.0786125 C13.4323614,14.7444131 13.2236783,16.0345805 13.8788353,16.9606531 C14.5358702,17.8881544 15.806748,18.1000866 16.7198833,17.4352385" id="Fill-9" opacity="0.802649457"></path>
                                    <path d="M30.294168,46.1457256 C27.6641505,45.4763531 25.1723943,44.4147868 23.0860327,42.7807652 C20.0766767,40.4237927 18.1926602,37.0647854 17.4537014,32.7675612 C16.8227225,32.8404278 16.1877531,32.8890055 15.5457415,32.8890055 C15.1288448,32.8890055 14.7147649,32.8680504 14.301624,32.837094 C15.1065445,38.1549269 17.4074578,42.3361837 21.1844108,45.2915672 C24.1055049,47.5775781 27.6240101,48.8994163 31.2359415,49.6121278 C30.9347711,48.7039147 30.6627085,47.7921297 30.4526169,46.888441 C30.3939321,46.6381705 30.3451064,46.3921862 30.294168,46.1457256" id="Fill-11" opacity="0.801290761"></path>
                                </g>
                            </g>
                        </g>
                    </g>
                </g>
            </g>
        </g>
    </g>
</svg>