<?xml version="1.0" encoding="UTF-8"?>
<svg width="339px" height="309px" viewBox="0 0 339 309" version="1.1" xmlns="http://www.w3.org/2000/svg" xmlns:xlink="http://www.w3.org/1999/xlink">
    <!-- Generator: Sketch 45.1 (43504) - http://www.bohemiancoding.com/sketch -->
    <title>Group 2</title>
    <desc>Created with Sketch.</desc>
    <defs></defs>
    <g id="Iconsv2" stroke="none" stroke-width="1" fill="none" fill-rule="evenodd">
        <g id="Artboard" transform="translate(-3950.000000, -187.000000)" fill="#FFFFFF">
            <g id="PGR-DOWN" transform="translate(3846.000000, 98.000000)">
                <g id="Group-2" transform="translate(104.000000, 89.000000)">
                    <path d="M0,175.735276 L66.8707797,175.735276 C66.8707797,117.031971 112.697013,69.4430039 169.225902,69.4430039 C225.75479,69.4430039 271.978789,117.031971 271.978789,175.735276 L338.453125,175.735276 C338.453125,78.6786503 262.687473,0 169.225902,0 C75.7656519,0 0,78.6786503 0,175.735276 Z" id="Combined-Shape"></path>
                    <path d="M246.134425,229.497521 C247.142201,227.329758 246.73909,224.981349 245.126649,223.17488 L173.574586,153.806469 C172.365255,152.722588 170.551259,152 168.737263,152 C166.923267,152 165.310826,152.722588 164.101496,153.806469 L93.5572073,223.17488 C91.9447665,224.981349 91.5416562,227.329758 92.5494318,229.497521 C93.5572073,231.665284 95.7743135,232.929812 98.39453,232.929812 L132.658899,232.929812 L132.658899,302.298223 C132.658899,305.549867 135.48067,308.078924 139.108662,308.078924 L199.575195,308.078924 C203.203187,308.078924 206.024958,305.549867 206.024958,302.298223 L206.024958,232.929812 L240.289327,232.929812 C242.909543,232.929812 245.126649,231.484637 246.134425,229.497521 Z" id="" opacity="0.796082428" transform="translate(169.341928, 230.039462) rotate(-180.000000) translate(-169.341928, -230.039462) "></path>
                </g>
            </g>
        </g>
    </g>
</svg>