<?xml version="1.0" encoding="UTF-8"?>
<svg width="361px" height="340px" viewBox="0 0 361 340" version="1.1" xmlns="http://www.w3.org/2000/svg" xmlns:xlink="http://www.w3.org/1999/xlink">
    <!-- Generator: Sketch 45.1 (43504) - http://www.bohemiancoding.com/sketch -->
    <title>Page 1</title>
    <desc>Created with Sketch.</desc>
    <defs></defs>
    <g id="Iconsv2" stroke="none" stroke-width="1" fill="none" fill-rule="evenodd">
        <g id="Artboard" transform="translate(-211.000000, -2426.000000)" fill="#FFFFFF">
            <g id="Group-4" transform="translate(147.000000, 2363.000000)">
                <g id="Page-1" transform="translate(64.000000, 63.000000)">
                    <path d="M208.355365,233.280579 C207.771746,233.031215 204.386759,231.665901 204.386759,231.665901 C203.228364,231.193701 202.280426,231.835681 202.280426,233.084271 L202.280426,253.908843 C202.280426,255.157433 203.297337,256.075306 204.540622,255.947971 C204.540622,255.947971 211.349505,255.251166 214.320654,253.125379 C218.505022,250.145387 219.948152,244.296822 217.091958,239.739292 C215.353482,236.980367 211.750964,234.706024 208.355365,233.280579" id="Fill-1"></path>
                    <path d="M186.863523,188.502357 C186.863523,188.502357 181.225414,189.720881 178.280793,192.009374 C174.342252,195.06895 173.597696,201.212862 176.575919,205.4945 C178.998821,208.982063 184.431779,211.123766 184.431779,211.123766 C185.59371,211.583587 186.776864,212.050481 187.065137,212.163668 C187.353409,212.273318 189.083042,211.924915 189.083042,210.676325 L189.083042,190.293889 C189.083042,189.045299 188.083816,188.240613 186.863523,188.502357" id="Fill-3"></path>
                    <path d="M242.12778,67.5214113 C260.578969,67.5214113 275.544364,52.5560165 275.544364,34.097753 C275.544364,15.6465636 260.578969,0.681168725 242.12778,0.681168725 C223.669516,0.681168725 208.707658,15.6465636 208.707658,34.097753 C208.707658,52.5560165 223.669516,67.5214113 242.12778,67.5214113" id="Fill-5" opacity="0.794893569"></path>
                    <path d="M341.110019,150.473594 C340.163849,151.893733 338.874583,153.35101 337.457982,154.797677 C337.222766,154.689796 336.971633,154.606675 336.745259,154.491719 C333.765268,152.961931 331.383043,150.783089 329.911617,147.744735 C329.221886,146.312217 328.944225,144.953977 328.944225,143.657637 C328.93715,141.466414 329.789587,139.414906 331.066474,138.001842 C332.359278,136.572861 333.906751,135.860139 335.441845,135.860139 C336.727574,135.877824 338.234371,136.291663 340.149701,137.962934 C341.523858,139.181459 342.335618,140.290334 342.81843,141.271875 C343.297704,142.256952 343.481633,143.128843 343.488707,144.090929 C343.502855,145.813488 342.758299,148.018859 341.110019,150.473594 M224.129867,259.9569 C219.186795,263.789328 204.527358,265.971708 204.527358,265.971708 C203.292916,266.153868 202.281311,267.326411 202.281311,268.575001 L202.281311,272.184593 C202.281311,273.431415 201.259094,274.4554 200.010504,274.4554 L191.353495,274.4554 C190.104905,274.4554 189.084457,273.431415 189.084457,272.184593 L189.084457,268.046207 C189.084457,266.797617 188.094074,265.527804 186.880855,265.221847 C186.880855,265.221847 166.47189,260.086003 161.657921,253.33725 C158.513455,248.940657 168.710863,241.297023 172.283316,246.3073 C172.474319,246.579655 172.700692,246.841399 172.935908,247.083689 C173.256014,247.435629 172.46017,246.71937 173.416951,247.559427 C173.791882,247.890144 174.172118,248.22263 174.575346,248.530356 C177.058377,250.419158 181.242746,252.675816 184.442036,253.632597 C185.816193,254.042898 186.870243,254.286957 186.870243,254.286957 C188.087,254.566387 189.084457,253.775849 189.084457,252.527259 L189.084457,227.728775 C189.084457,226.481954 188.136519,225.074195 186.98343,224.598457 C186.98343,224.598457 175.838084,220.042696 173.938671,219.158425 C169.73308,217.22541 166.404686,213.897015 164.381475,210.273274 C159.90176,202.256478 162.154881,192.425158 169.892249,185.899241 C174.913137,181.661816 186.880855,178.63938 186.880855,178.63938 C188.094074,178.333422 189.084457,177.060072 189.084457,175.811482 L189.084457,171.457334 C189.084457,170.208744 190.104905,169.186527 191.353495,169.186527 L200.010504,169.186527 C201.259094,169.186527 202.281311,170.208744 202.281311,171.457334 L202.281311,175.556813 C202.281311,176.805403 203.296453,177.94788 204.537969,178.094669 C204.537969,178.094669 207.059909,178.393552 209.320104,178.9418 C216.113071,180.591849 224.95047,185.126388 228.644953,190.297603 C231.780576,194.694196 221.586705,202.328988 218.012484,197.327554 C217.817944,197.062272 217.595108,196.79876 217.365198,196.54409 C217.041555,196.19215 217.83563,196.919021 216.885923,196.075426 C216.50215,195.746478 216.120145,195.413992 215.709843,195.104497 C213.233886,193.219233 208.909803,190.476225 205.706975,189.519445 C204.624627,189.190496 204.493755,189.160431 204.493755,189.160431 C203.278768,188.884538 202.281311,189.678613 202.281311,190.927203 L202.281311,215.833568 C202.281311,217.082158 203.245165,218.442166 204.426551,218.856004 C204.426551,218.856004 228.324847,227.224741 231.792956,236.187707 C235.082442,244.715613 231.858392,253.95624 224.129867,259.9569 M69.0924797,210.641131 C64.9116485,210.641131 61.5213552,203.862313 61.5213552,195.504188 C61.5213552,187.144294 64.9116485,180.365476 69.0924797,180.365476 C73.2733109,180.365476 76.6636042,187.144294 76.6636042,195.504188 C76.6636042,203.862313 73.2733109,210.641131 69.0924797,210.641131 M360.028103,157.169291 C358.653947,154.765843 355.592602,153.927555 353.185618,155.298174 C352.292504,155.826968 350.817541,156.286789 349.082602,156.53969 C349.197557,156.373447 349.328429,156.223121 349.439848,156.056878 C351.790239,152.546324 353.505724,148.537041 353.519872,144.090929 C353.523409,141.671565 352.969856,139.174385 351.822072,136.850522 C350.681363,134.521353 348.978258,132.381418 346.801184,130.457246 C343.402048,127.411818 339.353858,125.814825 335.441845,125.828974 C330.703923,125.832511 326.48949,128.059104 323.594388,131.304377 C320.683369,134.565567 318.920134,138.923252 318.913059,143.657637 C318.909522,146.439552 319.539123,149.341728 320.881446,152.109495 C322.851601,156.20013 325.838666,159.342828 329.207737,161.634857 C327.886637,162.543887 326.562,163.380407 325.244437,164.163871 C309.092351,120.53573 270.232197,97.6561138 231.24294,90.5129763 C233.089297,95.1553967 234.132736,100.202813 234.132736,105.503131 C234.132736,109.100343 233.600405,112.564915 232.707292,115.886236 C240.656884,117.046399 244.65025,118.45062 245.071163,118.602715 C248.434928,119.838925 250.162792,123.565241 248.928351,126.929006 C247.697446,130.283929 243.990584,132.004719 240.63743,130.798574 L240.63743,130.802111 L240.605596,130.786194 L240.375686,130.715453 C240.133396,130.635868 239.719557,130.513839 239.13417,130.35467 C237.961627,130.041639 236.090511,129.595966 233.481913,129.141451 C228.264716,128.235958 220.095825,127.295094 208.660438,127.295094 C205.30021,127.295094 201.658784,127.374679 197.727317,127.563913 C169.688866,128.902698 154.242428,137.985925 153.915248,138.178696 L153.915248,138.175159 C150.852135,140.023285 146.876455,139.055893 145.017718,135.999854 C143.153676,132.938509 144.121068,128.94868 147.182412,127.084638 C147.467147,126.913089 150.74956,124.96062 156.732534,122.649137 C154.281336,117.437246 152.875346,111.641737 152.875346,105.503131 C152.875346,102.915755 153.140627,100.397353 153.605754,97.9479231 C134.901663,105.29798 117.819324,115.322071 102.825633,125.860807 C84.3620636,103.750506 64.5685516,104.307597 64.5685516,104.307597 C68.6821782,117.134826 74.3556581,137.88335 76.5875569,146.133594 C58.9622763,160.883227 46.1934095,173.563667 39.5260095,177.320048 C24.1874525,185.971751 20.5460263,186.691547 20.5460263,186.691547 C1.66861853,184.813357 0.000884270554,193.693202 0.000884270554,207.238458 L9.73316599,236.43884 C14.9185285,249.407552 24.1874525,262.045547 37.7309403,262.045547 L51.6688127,266.376704 C74.7447371,289.447323 107.188624,303.866238 118.001484,306.036238 L114.227417,329.863793 C114.227417,334.518593 117.515135,338.289123 121.5704,338.289123 L151.582543,338.289123 C155.636039,338.289123 163.859755,317.21165 163.859755,317.21165 C175.266845,319.726515 186.366209,321.16257 196.581303,321.088292 C214.486013,320.950346 221.977553,320.29068 237.15871,316.456483 L244.002964,331.262709 C244.002964,335.913972 247.287145,339.68627 251.345946,339.68627 L274.791496,339.68627 C278.843224,339.68627 282.13271,335.913972 282.13271,331.262709 C282.13271,331.262709 294.47359,289.871773 294.41346,289.429637 C317.049017,270.615897 331.880003,245.090543 332.964119,216.967203 C333.579571,200.951294 331.844632,186.673862 328.3553,173.919143 C332.161201,171.803968 336.166947,169.175916 339.948087,166.080969 C342.118087,166.52841 344.289856,166.768932 346.396188,166.772469 C350.677826,166.754783 354.717174,165.944792 358.158755,164.011776 C360.562203,162.63762 361.400491,159.576275 360.028103,157.169291" id="Fill-8"></path>
                    <path d="M222.334444,118.377226 C222.77658,118.460347 223.208104,118.3843 223.632554,118.391374 C225.726506,114.037226 226.92204,109.170201 226.92204,104.020209 C226.92204,85.5619455 211.956645,70.6036248 193.505456,70.6036248 C175.047192,70.6036248 160.081797,85.5619455 160.081797,104.020209 C160.081797,111.38972 162.499393,118.179149 166.536972,123.702303 C168.652148,122.980738 198.093051,113.844455 222.334444,118.377226" id="Fill-11" opacity="0.801007699"></path>
                </g>
            </g>
        </g>
    </g>
</svg>