<?xml version="1.0" encoding="UTF-8"?>
<svg width="400px" height="400px" viewBox="0 0 400 400" version="1.1" xmlns="http://www.w3.org/2000/svg" xmlns:xlink="http://www.w3.org/1999/xlink">
    <defs></defs>
    <g id="img_list-ecofriendly" fill="#ffffff" stroke="none" stroke-width="1" fill-rule="evenodd">
        <path d="M91,50.6164416 C107.698028,57.2967543 126.912617,61.206823 147,62 L147,0 C125.375042,3.47529022 105.255656,21.6390429 91,50.6164416" id="Fill-1" opacity="0.7"></path>
        <path d="M82.7438692,33.0503704 C87.7007714,24.7081481 93.1447596,17.3362963 99,11 C85.2653414,16.802963 72.3721457,24.8088889 61,34.6311111 C65.5048164,38.3911111 70.6352612,41.8622222 76.321334,45 C78.389262,40.7540741 80.5403155,36.7451852 82.7438692,33.0503704" id="Fill-3" opacity="0.7"></path>
        <path d="M239,58.6459366 C246.168717,76.7734338 250.864052,96.6961803 253.00268,118 C268.300524,109.181257 279.97454,98.4447619 287,86.683035 C280.284444,71.2476826 270.988793,57.247363 259.335242,45 C255.00536,48.6780006 250.194543,52.1226626 244.986113,55.2654427 C243.093069,56.4073438 241.109392,57.525911 239,58.6459366" id="Fill-5" opacity="0.7"></path>
        <path d="M236.758805,233.907297 C233.595974,241.224464 230.104995,248.056547 226.348859,254.241364 C221.359234,262.474638 215.88471,269.750894 210,276 C241.380727,262.994788 267.368967,239.151169 283,209 C278.537758,212.515396 273.693163,215.856922 268.48526,218.992433 C258.952821,224.744766 248.285043,229.754863 236.758805,233.907297" id="Fill-7" opacity="0.7"></path>
        <path d="M263.1125,129.648257 C260.308947,131.35822 257.315789,133.033256 254.192368,134.661723 C254.308158,137.959405 254.366053,140.87289 254.366053,143.677229 C254.366053,168.485517 250.812763,192.919795 244.044868,214.848068 C269.071316,203.605972 287.368947,187.947077 296.031447,170.230406 C297.651053,161.498681 298.476053,152.564671 298.476053,143.677229 C298.476053,130.247836 296.646579,117.014906 293.013684,104.230205 C285.413553,113.657557 275.378947,122.191364 263.1125,129.648257" id="Fill-9" opacity="0.7"></path>
        <path d="M232.683041,45 C238.363281,41.8622222 243.501017,38.3925926 248,34.6311111 C236.626396,24.8088889 223.74195,16.802963 210,11 C215.858157,17.3362963 221.302145,24.7081481 226.269256,33.0503704 C228.465518,36.7585185 230.619488,40.76 232.683041,45" id="Fill-12" opacity="0.7"></path>
        <path d="M162.575115,0.236247573 L162.575115,62.7220064 C182.763346,61.9240954 202.067346,57.983392 218.841423,51.2492599 C204.516885,22.0448285 184.305269,3.73876606 162.575115,0.236247573" id="Fill-14" opacity="0.7"></path>
        <path d="M223.942592,65 C205.450275,72.4382855 184.18904,76.7613172 162,77.5669863 L162,141 C189.226732,140.129006 215.031313,134.63594 237,125.039042 C235.377791,103.680827 230.892433,83.0498911 223.942592,65" id="Fill-17" opacity="0.7"></path>
        <path d="M14.8762734,69.2810705 C21.8635211,103.492783 -16.7180477,160.563854 8.88532844,221.571264 C29.5071908,270.717135 65.9400716,298.731084 98.1703927,296.916108 C88.1358881,226.813393 66.5614844,157.316156 28.8332642,95.4216843 C23.4608147,87.1769665 29.8572826,82.7693763 35.3435119,91.1891721 C76.436989,151.420403 105.288925,220.684202 119.525989,292.135018 C174.685861,264.412866 194.35664,111.803155 14.8762734,69.2810705" id="Fill-19"></path>
        <path d="M66.7893,70 C68.0825234,66.0857275 69.4860901,62.2478943 71,58.483616 C68.8858226,57.3817353 66.8952296,56.2740856 64.9752564,55.1390331 C59.7008471,52.0093458 54.856041,48.6085151 50.530584,45 C45.9947392,49.6873197 41.8134641,54.6328026 38,59.8148148 C48.3634418,62.8925811 57.9397682,66.3107188 66.7893,70" id="Fill-22" opacity="0.7"></path>
        <path d="M168.20976,248.223014 C166.550619,254.378588 164.469046,260.282127 162,265.846161 L162,288 C182.610342,284.652388 201.887837,267.853542 216,241 C200.798252,244.933222 184.785142,247.351271 168.20976,248.223014" id="Fill-24" opacity="0.7"></path>
        <path d="M237.994178,141 C215.3377,150.036127 189.24163,155.189679 162,156.013783 L162,159.168013 C168.163028,173.868405 170.796215,187.003289 171.892285,196.333946 C173.275109,208.106447 173.056769,219.819461 171.438137,231 C189.930131,229.713063 207.969432,226.360062 224.31441,221.147023 C233.273654,197.864632 238,170.923103 238,143.105238 C238,142.397205 238,141.70223 237.994178,141" id="Fill-26" opacity="0.7"></path>
        <path d="M148,132 L148,77.6126731 C125.470356,76.8026181 103.865336,72.4638702 85.0930866,65 C83.619281,68.7836563 82.254428,72.6911518 81,76.6860635 C113.074781,92.6890208 134.157122,112.514972 148,132" id="Fill-28" opacity="0.7"></path>
    </g>
</svg>