<?xml version="1.0" encoding="UTF-8"?>
<svg width="400px" height="400px" viewBox="0 0 400 400" version="1.1" xmlns="http://www.w3.org/2000/svg" xmlns:xlink="http://www.w3.org/1999/xlink">
    <defs></defs>
    <g id="img_list-growthstock" fill="#ffffff" stroke="none" stroke-width="1" fill-rule="evenodd">
        <path d="M155.856389,222.712641 L132.512379,225.864155 L132.512379,212.303134 L155.856389,208.81419 L155.856389,222.712641 Z M155.856389,248.534472 C148.096854,249.37088 140.313773,250.2125 132.512379,251.059331 L132.512379,237.512641 C140.313773,236.55507 148.096854,235.601408 155.856389,234.651655 L155.856389,248.534472 Z M155.856389,274.357606 C148.096854,274.985563 140.313773,275.61743 132.512379,276.254507 L132.512379,262.707817 C140.313773,261.96 148.096854,261.214789 155.856389,260.473486 L155.856389,274.357606 Z M155.856389,300.179437 C148.098162,300.597641 140.313773,301.019754 132.512379,301.44838 L132.512379,287.90169 C140.313773,287.362324 148.096854,286.828169 155.856389,286.29662 L155.856389,300.179437 Z M155.856389,352.057606 C148.098162,352.267359 140.313773,351.841338 132.512379,352.057606 L132.512379,313.098169 C140.313773,312.767254 148.098162,312.440246 155.856389,312.118451 L155.856389,352.057606 Z M124.835253,226.903803 L104.023687,229.717887 L104.023687,216.569859 L124.835253,213.454824 L124.835253,226.903803 Z M124.835253,251.890528 L104.023687,254.150915 L104.023687,241.015915 L124.835253,238.45588 L124.835253,251.890528 Z M124.835253,276.879859 L104.023687,278.583944 L104.023687,265.446338 L124.835253,263.443908 L124.835253,276.879859 Z M124.835253,301.86919 L104.023687,303.014366 L104.023687,289.879366 L124.835253,288.433239 L124.835253,301.86919 Z M124.835253,352.057606 L104.023687,352.057606 L104.023687,314.311092 L124.835253,313.42257 L124.835253,352.057606 Z M96.345253,230.760141 L75.5349955,233.578134 L75.5349955,220.840493 L96.345253,217.720246 L96.345253,230.760141 Z M96.345253,254.984718 L75.5349955,257.249014 L75.5349955,244.521796 L96.345253,241.959155 L96.345253,254.984718 Z M96.345253,279.211901 L75.5349955,280.918592 L75.5349955,268.191373 L96.345253,266.185035 L96.345253,279.211901 Z M96.345253,303.439085 L75.5349955,304.589472 L75.5349955,291.860951 L96.345253,290.413521 L96.345253,303.439085 Z M96.345253,352.057606 L75.5349955,352.057606 L75.5349955,315.530528 L96.345253,314.640704 L96.345253,352.057606 Z M67.8578692,234.619085 L47.0463035,237.435775 L47.0463035,225.107218 L67.8578692,221.989577 L67.8578692,234.619085 Z M67.8578692,258.082817 L47.0463035,260.343204 L47.0463035,248.028979 L67.8578692,245.468944 L67.8578692,258.082817 Z M67.8578692,281.547852 L47.0463035,283.250634 L47.0463035,270.935106 L67.8578692,268.931373 L67.8578692,281.547852 Z M67.8578692,305.011585 L47.0463035,306.156761 L47.0463035,293.841232 L67.8578692,292.396408 L67.8578692,305.011585 Z M67.8578692,352.057606 L47.0463035,352.057606 L47.0463035,316.748662 L67.8578692,315.861444 L67.8578692,352.057606 Z M39.3678692,238.475423 L19.8970864,241.104507 L19.8970864,229.169401 L39.3678692,226.257606 L39.3678692,238.475423 Z M39.3678692,261.175704 L19.8970864,263.283662 L19.8970864,251.358979 L39.3678692,248.969613 L39.3678692,261.175704 Z M39.3678692,283.875986 L19.8970864,285.458908 L19.8970864,273.535528 L39.3678692,271.671197 L39.3678692,283.875986 Z M39.3678692,306.57757 C32.8640914,306.933239 26.3720864,307.285 19.8970864,307.635458 L19.8970864,295.712077 C26.3720864,295.26912 32.8640914,294.823556 39.3678692,294.372782 L39.3678692,306.57757 Z M39.3678692,352.057606 C32.8640914,352.238697 26.3720864,351.883028 19.8970864,352.057606 L19.8970864,329.810704 L19.8970864,317.88993 C26.3720864,317.620246 32.8640914,317.347958 39.3678692,317.073063 L39.3678692,352.057606 Z M241.043844,351.795739 L241.043844,221.623486 L182.121344,212.310951 L182.121344,352.057606 L172.705778,352.057606 L172.705778,207.206514 C175.81247,206.757042 178.957096,206.306268 182.121344,205.851585 L248.847854,216.396585 L248.847854,199.162923 L222.582899,194.616092 L222.582899,186.132148 L221.931475,186.020106 C221.406935,176.243768 222.040046,174.550106 209.660369,174.550106 C207.424859,174.550106 205.373788,174.808063 203.324026,175.32919 C197.920344,167.589155 188.600268,162.457359 177.977344,162.457359 C172.476864,162.457359 167.260238,163.851373 162.78791,166.373627 C156.915935,162.721831 150.112607,160.371549 142.84491,159.50257 C143.124839,154.111514 143.40346,148.719155 143.589208,143.414085 C143.869137,134.802465 144.149066,132.628063 151.416763,126.368028 C154.492061,123.757183 157.754415,121.323521 161.109642,119.060528 C165.767718,115.931162 170.708339,113.061056 175.924965,110.365528 C186.643379,105.321021 198.198965,102.189049 209.38044,102.362324 C192.793975,108.277113 177.324612,115.321444 164.650617,124.627465 C177.697415,136.889577 203.511081,140.715951 220.097546,113.756761 C224.291253,106.972993 228.763581,100.883627 234.914177,96.5374296 C225.036859,93.4054577 215.43947,86.4471127 202.671293,84.6218662 C170.708339,80.0971831 154.864864,91.8407746 156.543132,109.582535 C156.730187,110.972641 157.010117,112.276761 157.474485,113.669472 C152.630662,116.800141 148.06546,120.192676 143.962011,123.933063 C143.962011,103.753732 137.811415,74.8807042 138.931132,59.8344718 C139.025314,57.748662 139.303935,55.8348239 139.583864,53.8336972 C140.235288,49.4861972 141.259516,45.1373944 142.473415,40.7885915 C145.362965,31.8304225 150.021041,23.6565493 156.543132,17.4811972 C150.765339,30.1784507 146.478758,42.7011268 145.17591,55.1378169 C160.458218,54.8785563 177.604541,42.7011268 169.869859,18.0023239 C167.911662,11.8269718 166.608814,5.91478873 167.353112,0 C159.712612,3.65049296 149.741112,5.04450704 141.355006,11.1325704 C120.198107,26.2647887 118.615329,41.8321479 130.915213,50.9648944 C131.849182,51.7452817 132.966283,52.355 133.990511,52.8787324 C133.524834,55.4869718 133.246213,58.0965141 133.059157,60.7047535 C132.501915,68.5307746 133.43196,74.7074296 134.086001,82.4474648 C134.921864,92.884331 135.20441,103.232606 135.107612,113.494894 C131.10096,109.843099 126.628632,106.451866 121.877682,103.407183 C122.343359,102.103063 122.62198,100.710352 122.716162,99.3189437 C124.39443,81.663169 108.550955,69.8361972 76.5880005,74.4455634 C63.9126975,76.2734155 54.2211268,83.143169 44.4392985,86.2725352 C50.4944045,90.7099296 55.0622227,96.7107042 59.161748,103.494472 C75.8437025,130.454965 101.654753,126.713275 114.702859,114.365176 C101.934682,105.059155 86.5595005,98.1034155 69.877546,92.101338 C81.0603288,91.9267606 92.6146066,95.0587324 103.427203,100.189225 C108.643829,102.797465 113.585758,105.66757 118.243834,108.798239 C121.970556,111.321796 125.511531,114.016021 128.959632,117.060704 C133.990511,121.584085 134.831607,127.584859 134.460112,133.672923 C133.990511,142.283239 133.339086,150.892254 132.501915,159.413979 C121.040511,160.546127 110.789081,165.591937 103.427203,173.070106 C98.0209045,170.373275 91.8690005,168.893275 85.2527278,168.893275 C74.1641268,168.893275 64.1926268,173.24338 57.1106773,180.200423 C54.2211268,179.158169 51.0555712,178.547148 47.7945258,178.547148 C36.6182833,178.547148 27.0810662,187.627782 23.8527227,197.354613 L23.2850157,197.452324 L23.3569601,199.080845 C23.3347227,199.165528 23.3059449,199.246303 23.2850157,199.330986 L23.3674247,199.317958 L23.7559247,208.221408 C67.789849,201.264366 111.822465,194.306021 155.856389,187.347676 L169.809687,189.554648 C116.190147,197.629507 62.7838237,206.457394 9.28462677,214.934824 L9.28462677,230.765352 L13.4914146,230.159542 L13.4914146,352.057606 L-0.000130808081,352.057606 L-0.000130808081,369.20007 L258.799733,369.20007 L258.799733,351.795739 L241.043844,351.795739 Z" id="Fill-1"></path>
    </g>
</svg>