<?xml version="1.0" encoding="UTF-8"?>
<svg width="351px" height="354px" viewBox="0 0 351 354" version="1.1" xmlns="http://www.w3.org/2000/svg" xmlns:xlink="http://www.w3.org/1999/xlink">
    <!-- Generator: Sketch 45 (43475) - http://www.bohemiancoding.com/sketch -->
    <title>Page 1</title>
    <desc>Created with Sketch.</desc>
    <defs></defs>
    <g id="Iconsv2" stroke="none" stroke-width="1" fill="none" fill-rule="evenodd">
        <g id="Artboard" transform="translate(-217.000000, -904.000000)" fill="#FFFFFF">
            <g id="BUY-DIPS" transform="translate(153.000000, 845.000000)">
                <g id="Group-7" transform="translate(6.000000, 0.000000)">
                    <g id="Page-1" transform="translate(58.000000, 59.000000)">
                        <path d="M30.2774922,231.922286 L16.6771953,231.922286 L16.6771953,184.891411 C16.6771953,183.748598 15.7505234,182.821098 14.6068828,182.821098 L2.06989844,182.821098 C0.927085938,182.821098 -0.0004140625,183.748598 -0.0004140625,184.891411 L-0.0004140625,264.288723 C-0.0004140625,265.432364 0.927085938,266.359036 2.06989844,266.359036 L14.6068828,266.359036 C15.7505234,266.359036 16.6771953,265.432364 16.6771953,264.288723 L16.6771953,247.553973 L30.2774922,247.553973 C31.4211328,247.553973 32.3478047,246.627302 32.3478047,245.483661 L32.3478047,233.992598 C32.3478047,232.848958 31.4211328,231.922286 30.2774922,231.922286" id="Fill-1"></path>
                        <path d="M83.4804656,157.748869 L69.8801688,157.748869 L69.8801688,127.433697 C69.8801688,126.290056 68.9534969,125.363384 67.8098563,125.363384 L55.2728719,125.363384 C54.1300594,125.363384 53.2025594,126.290056 53.2025594,127.433697 L53.2025594,204.740822 C53.2025594,205.884462 54.1300594,206.811134 55.2728719,206.811134 L67.8098563,206.811134 C68.9534969,206.811134 69.8801688,205.884462 69.8801688,204.740822 L69.8801688,173.380556 L83.4804656,173.380556 C84.6241063,173.380556 85.5507781,172.453884 85.5507781,171.310244 L85.5507781,159.819181 C85.5507781,158.675541 84.6241063,157.748869 83.4804656,157.748869" id="Fill-4" opacity="0.801573822"></path>
                        <path d="M136.334964,77.3075391 L122.734667,77.3075391 L122.734667,64.7515078 C122.734667,63.6086953 121.807995,62.6811953 120.664355,62.6811953 L108.128198,62.6811953 C106.985386,62.6811953 106.057886,63.6086953 106.057886,64.7515078 L106.057886,183.846648 C106.057886,184.990289 106.985386,185.916961 108.128198,185.916961 L120.664355,185.916961 C121.807995,185.916961 122.734667,184.990289 122.734667,183.846648 L122.734667,92.9392266 L136.334964,92.9392266 C137.478605,92.9392266 138.405277,92.0125547 138.405277,90.8689141 L138.405277,79.3778516 C138.405277,78.2342109 137.478605,77.3075391 136.334964,77.3075391" id="Fill-6"></path>
                        <path d="M189.364031,25.0725609 L175.763734,25.0725609 L175.763734,2.07056094 C175.763734,0.926920312 174.837063,0.0002484375 173.693422,0.0002484375 L161.157266,0.0002484375 C160.014453,0.0002484375 159.086953,0.926920312 159.086953,2.07056094 L159.086953,101.316373 C159.086953,102.460014 160.014453,103.386686 161.157266,103.386686 L173.693422,103.386686 C174.837063,103.386686 175.763734,102.460014 175.763734,101.316373 L175.763734,40.7050766 L189.364031,40.7050766 C190.507672,40.7050766 191.434344,39.7784047 191.434344,38.6347641 L191.434344,27.1428734 C191.434344,25.9992328 190.507672,25.0725609 189.364031,25.0725609" id="Fill-8" opacity="0.801573822"></path>
                        <path d="M228.792967,159.819181 L228.792967,109.654681 L242.044623,109.654681 C243.188264,109.654681 244.114936,108.728009 244.114936,107.584369 L244.114936,96.0924781 C244.114936,94.9496656 243.188264,94.0221656 242.044623,94.0221656 L228.792967,94.0221656 L228.792967,51.1708375 C228.792967,50.0271969 227.866295,49.100525 226.722655,49.100525 L214.186498,49.100525 C213.042858,49.100525 212.116186,50.0271969 212.116186,51.1708375 L212.116186,159.819181 C212.116186,160.962822 213.042858,161.889494 214.186498,161.889494 L226.722655,161.889494 C227.866295,161.889494 228.792967,160.962822 228.792967,159.819181" id="Fill-10"></path>
                        <path d="M267.215069,240.241547 L279.752053,240.241547 C280.895694,240.241547 281.822366,239.314875 281.822366,238.171234 L281.822366,156.666344 L295.422663,156.666344 C296.565475,156.666344 297.492975,155.738844 297.492975,154.596031 L297.492975,143.104141 C297.492975,141.9605 296.565475,141.033828 295.422663,141.033828 L281.822366,141.033828 L281.822366,119.076094 C281.822366,117.932453 280.895694,117.005781 279.752053,117.005781 L267.215069,117.005781 C266.071428,117.005781 265.144756,117.932453 265.144756,119.076094 L265.144756,238.171234 C265.144756,239.314875 266.071428,240.241547 267.215069,240.241547" id="Fill-12" opacity="0.801573822"></path>
                        <path d="M348.451398,80.4413297 L334.851102,80.4413297 L334.851102,68.9312203 C334.851102,67.7875797 333.92443,66.8609078 332.780789,66.8609078 L320.243805,66.8609078 C319.100992,66.8609078 318.173492,67.7875797 318.173492,68.9312203 L318.173492,133.701361 C318.173492,134.845002 319.100992,135.771673 320.243805,135.771673 L332.780789,135.771673 C333.92443,135.771673 334.851102,134.845002 334.851102,133.701361 L334.851102,96.0738453 L348.451398,96.0738453 C349.595039,96.0738453 350.521711,95.1471734 350.521711,94.0035328 L350.521711,82.5116422 C350.521711,81.3680016 349.595039,80.4413297 348.451398,80.4413297" id="Fill-14"></path>
                        <polygon id="Fill-17" opacity="0.84692029" points="246.258041 315.478359 301.016978 315.478359 273.637509 276.285687"></polygon>
                        <path d="M273.309572,340.356891 C252.320744,340.356891 235.244806,323.281781 235.244806,302.292953 C235.244806,281.303297 252.320744,264.228188 273.309572,264.228188 C294.2984,264.228188 311.373509,281.303297 311.373509,302.292953 C311.373509,323.281781 294.2984,340.356891 273.309572,340.356891 M273.309572,251.102406 C245.082931,251.102406 222.119853,274.066313 222.119853,302.292953 C222.119853,330.518766 245.082931,353.482672 273.309572,353.482672 C301.536213,353.482672 324.499291,330.518766 324.499291,302.292953 C324.499291,274.066313 301.536213,251.102406 273.309572,251.102406" id="Fill-19"></path>
                    </g>
                </g>
            </g>
        </g>
    </g>
</svg>