<?xml version="1.0" encoding="UTF-8"?>
<svg width="343px" height="302px" viewBox="0 0 343 302" version="1.1" xmlns="http://www.w3.org/2000/svg" xmlns:xlink="http://www.w3.org/1999/xlink">
    <!-- Generator: Sketch 45.1 (43504) - http://www.bohemiancoding.com/sketch -->
    <title>Page 1</title>
    <desc>Created with Sketch.</desc>
    <defs></defs>
    <g id="Iconsv2" stroke="none" stroke-width="1" fill="none" fill-rule="evenodd">
        <g id="Artboard" transform="translate(-2295.000000, -930.000000)" fill="#FFFFFF">
            <g id="RELATIVE-STRENGTH" transform="translate(2224.000000, 844.000000)">
                <g id="Page-1" transform="translate(70.000000, 86.000000)">
                    <path d="M50.8080144,68.9171765 L79.5578647,98.4461308 C81.0192023,99.9480381 83.0236772,100.793378 85.118399,100.793378 L121.383581,100.793378 L158.643136,139.059724 C160.104473,140.560803 162.108948,141.406971 164.204498,141.406971 L175.027503,141.406971 L190.145931,125.879535 L167.479881,125.879535 L130.220327,87.6140179 C128.758989,86.1129385 126.754514,85.2659423 124.658137,85.2659423 L88.3970941,85.2659423 L51.1358839,46.9938012 C49.0850436,44.887488 46.0158207,44.1158355 43.2264461,45.010853 C40.427136,45.8992469 38.3680161,48.2895481 37.9068462,51.1915244 L3.41431181,268.031665 L26.5655419,221.323508 L50.8080144,68.9171765 Z" id="Fill-1" opacity="0.804517663"></path>
                    <polygon id="Fill-3" opacity="0.804517663" points="327.694474 221.784512 327.523088 248.039739 227.743952 146.904416 214.722731 146.904416 210.356105 151.388611 316.472395 258.94554 290.217168 258.760906 305.913507 274.670029 343.139943 274.922555 343.391641 237.696946"></polygon>
                    <path d="M256.839804,134.176704 L306.235498,31.687677 L314.9969,56.7763178 L324.819738,36.3970753 L312.385535,0.827373729 L276.815833,13.2624043 L266.995479,33.6408188 L292.07998,24.8645138 L244.825374,122.909087 L207.911076,122.909087 C205.78986,122.909087 203.760546,123.765191 202.281822,125.284485 L164.563581,164.021936 L127.852132,164.021936 C124.845834,164.021936 122.103652,165.737455 120.786379,168.441551 L85.5453746,240.841927 L53.3090129,209.201692 C51.8286325,207.747806 49.8539638,206.952143 47.8114031,206.952143 C47.3742437,206.951315 46.9354285,206.987745 46.4957853,207.06226 C44.0127533,207.479549 41.8807736,209.063424 40.7630366,211.320424 L1.81859742,289.893192 C-0.10887785,293.782089 1.48162043,298.497283 5.36886116,300.424758 C6.49156583,300.980315 7.68050677,301.243604 8.85288863,301.243604 C11.7449295,301.243604 14.5285085,299.63903 15.8987712,296.872838 L50.0328018,228.008651 L82.3262921,259.707671 C83.8075006,261.162385 85.7796853,261.958048 87.8255579,261.958048 C88.2718248,261.958048 88.7197475,261.92079 89.1684982,261.84379 C91.6598096,261.41491 93.7909614,259.811993 94.897107,257.537605 L132.766863,179.737318 L167.880362,179.737318 C170.001579,179.737318 172.03172,178.881214 173.509617,177.36192 L211.227857,138.624469 L249.760803,138.624469 C252.778693,138.624469 255.529982,136.89653 256.839804,134.176704" id="Fill-5"></path>
                </g>
            </g>
        </g>
    </g>
</svg>