<?xml version="1.0" encoding="UTF-8"?>
<svg width="105px" height="83px" viewBox="0 0 105 83" version="1.1" xmlns="http://www.w3.org/2000/svg" xmlns:xlink="http://www.w3.org/1999/xlink">
    <!-- Generator: Sketch 44.1 (41455) - http://www.bohemiancoding.com/sketch -->
    <title>Page 1</title>
    <desc>Created with Sketch.</desc>
    <defs></defs>
    <g id="Comps" stroke="none" stroke-width="1" fill="none" fill-rule="evenodd">
        <g id="Home-v4" transform="translate(-324.000000, -161.000000)" fill="#FFFFFF">
            <g id="Group-9" transform="translate(282.000000, 48.000000)">
                <g id="CAROUSEL" transform="translate(11.000000, 65.000000)">
                    <g id="Group-15" transform="translate(0.000000, 12.000000)">
                        <g id="10-UNDER-10" transform="translate(3.000000, 0.000000)">
                            <g id="Page-1" transform="translate(28.000000, 36.000000)">
                                <path d="M29.029938,10.6875618 L37.577568,10.6875618 C38.319078,10.6875618 38.922198,9.65687425 38.922198,8.39016748 L38.922198,4.41787957 C38.922198,3.1511728 38.319078,2.12048526 37.577568,2.12048526 C32.546808,2.12048526 29.693118,4.55780526 28.185108,6.60253256 C27.735078,7.21238938 27.567288,8.20767404 27.756918,9.13826414 C27.949068,10.0796015 28.448658,10.6875618 29.029938,10.6875618" id="Fill-1" opacity="0.801347373"></path>
                                <path d="M67.422306,10.6875618 L75.969936,10.6875618 C76.551426,10.6875618 77.051016,10.0796015 77.242956,9.13826414 C77.432796,8.20767404 77.264796,7.21238938 76.815186,6.60253256 C75.306756,4.55780526 72.453066,2.12048526 67.422306,2.12048526 C66.680796,2.12048526 66.077676,3.1511728 66.077676,4.41787957 L66.077676,8.39016748 C66.077676,9.65687425 66.680796,10.6875618 67.422306,10.6875618" id="Fill-3" opacity="0.801347373"></path>
                                <path d="M41.832357,5.39426162 L41.832357,5.39426162 C48.911037,3.5979867 56.088837,3.5979867 63.167517,5.39426162 C63.211617,5.40543038 63.255087,5.4109094 63.298137,5.4109094 C63.488607,5.4109094 63.665637,5.30196124 63.806127,5.09481222 C63.976647,4.84404179 64.070307,4.48200515 64.070307,4.07592564 L64.070307,3.03575518 C64.070307,2.22696786 63.689367,1.47233852 63.220857,1.35369672 C56.107107,-0.45121819 48.893187,-0.45121819 41.779017,1.35369672 C41.310717,1.47233852 40.929567,2.22696786 40.929567,3.03575518 L40.929567,4.07592564 C40.929567,4.48200515 41.023227,4.84383106 41.193537,5.09460149 C41.365737,5.34874362 41.592537,5.45453081 41.832357,5.39426162" id="Fill-5"></path>
                                <path d="M98.561169,13.3233487 L6.438789,13.3233487 C2.897349,13.3233487 -2.1e-05,16.2310213 -2.1e-05,19.7845858 L1.259979,41.4064759 L44.860179,41.4064759 L44.294439,36.190451 C44.294439,35.1087664 45.176229,34.223905 46.254159,34.223905 L58.745799,34.223905 C59.823729,34.223905 60.705519,35.1087664 60.705519,36.190451 L60.139779,41.4064759 L103.739979,41.4064759 L104.999979,19.7845858 C104.999979,16.2310213 102.102399,13.3233487 98.561169,13.3233487" id="Fill-10"></path>
                                <path d="M59.399025,49.4106044 C59.399025,50.4065213 58.517235,51.2212091 57.439515,51.2212091 L47.560485,51.2212091 C46.482765,51.2212091 45.600765,50.4065213 45.600765,49.4106044 L45.016965,44.4537792 L2.939895,44.4537792 L2.939895,76.893147 C2.939895,80.1649636 5.837475,82.842096 9.378915,82.842096 L95.411085,82.842096 C98.952525,82.842096 101.849895,80.1649636 101.849895,76.893147 L101.849895,44.4537792 L59.983035,44.4537792 L59.399025,49.4106044 Z" id="Fill-7" opacity="0.800498188"></path>
                                <path d="M47.518968,43.9641868 L47.712588,45.8696206 L47.819898,46.9232779 C47.819898,47.6937121 48.408528,48.3240098 49.128198,48.3240098 L55.723668,48.3240098 C56.443338,48.3240098 57.031758,47.6937121 57.031758,46.9232779 L57.139068,45.8696206 L57.332688,43.9641868 L57.433908,42.9686914 L57.782298,39.5428302 L57.904098,38.3441896 C57.904098,37.5737554 57.315468,36.9436684 56.595798,36.9436684 L48.255858,36.9436684 C47.536398,36.9436684 46.947558,37.5737554 46.947558,38.3441896 L47.069358,39.5428302 L47.417748,42.9686914 L47.518968,43.9641868 Z" id="Fill-13" opacity="0.899626359"></path>
                            </g>
                        </g>
                    </g>
                </g>
            </g>
        </g>
    </g>
</svg>