<?xml version="1.0" encoding="UTF-8"?>
<svg width="42px" height="60px" viewBox="0 0 42 60" version="1.1" xmlns="http://www.w3.org/2000/svg" xmlns:xlink="http://www.w3.org/1999/xlink">
    <!-- Generator: Sketch 46.1 (44463) - http://www.bohemiancoding.com/sketch -->
    <title>Fill 1</title>
    <desc>Created with Sketch.</desc>
    <defs>
        <linearGradient x1="60.6510103%" y1="121.164047%" x2="60.6510081%" y2="3.17053298%" id="linearGradient-1">
            <stop stop-color="#6F7689" offset="0%"></stop>
            <stop stop-color="#313540" offset="100%"></stop>
        </linearGradient>
    </defs>
    <g id="Comps" stroke="none" stroke-width="1" fill="none" fill-rule="evenodd" opacity="0.32274683">
        <g id="V2-Home" transform="translate(-241.000000, -768.000000)" fill="url(#linearGradient-1)">
            <g id="Group-39" transform="translate(191.000000, 680.000000)">
                <g id="Group-33" transform="translate(12.000000, 77.000000)">
                    <g transform="translate(-1.000000, 0.000000)" id="Group-19">
                        <g>
                            <path d="M64.2935753,47.1938134 L60.5051328,47.705977 L60.5051328,45.5021278 L64.2935753,44.9351274 L64.2935753,47.1938134 Z M64.2935753,51.3902098 C63.0342992,51.5261375 61.771202,51.6629121 60.5051328,51.8005335 L60.5051328,49.5990134 C61.771202,49.4433952 63.0342992,49.2884123 64.2935753,49.1340645 L64.2935753,51.3902098 Z M64.2935753,55.586818 C63.0342992,55.6888696 61.771202,55.7915564 60.5051328,55.8950901 L60.5051328,53.6935699 C61.771202,53.5720396 63.0342992,53.4509327 64.2935753,53.3304609 L64.2935753,55.586818 Z M64.2935753,59.7832144 C63.0345115,59.8511783 61.771202,59.9197773 60.5051328,59.9894349 L60.5051328,57.7879147 C61.771202,57.7002604 63.0342992,57.613453 64.2935753,57.5270691 L64.2935753,59.7832144 Z M64.2935753,68.2141178 C63.0345115,68.2482056 61.771202,68.1789714 60.5051328,68.2141178 L60.5051328,61.882683 C61.771202,61.8289047 63.0345115,61.7757617 64.2935753,61.7234655 L64.2935753,68.2141178 Z M59.2592306,47.8749338 L55.8817723,48.3322606 L55.8817723,46.1955284 L59.2592306,45.689293 L59.2592306,47.8749338 Z M59.2592306,51.9356143 L55.8817723,52.3029578 L55.8817723,50.1683428 L59.2592306,49.7523025 L59.2592306,51.9356143 Z M59.2592306,55.9967183 L55.8817723,56.273655 L55.8817723,54.1386166 L59.2592306,53.8131947 L59.2592306,55.9967183 Z M59.2592306,60.0578222 L55.8817723,60.2439288 L55.8817723,58.1093138 L59.2592306,57.8742987 L59.2592306,60.0578222 Z M59.2592306,68.2141178 L55.8817723,68.2141178 L55.8817723,62.0797993 L59.2592306,61.9354026 L59.2592306,68.2141178 Z M54.6356579,48.5016409 L51.2584118,48.9596028 L51.2584118,46.8895641 L54.6356579,46.3824818 L54.6356579,48.5016409 Z M54.6356579,52.438462 L51.2584118,52.8064407 L51.2584118,50.7380957 L54.6356579,50.321632 L54.6356579,52.438462 Z M54.6356579,56.3757066 L51.2584118,56.6530668 L51.2584118,54.5847219 L54.6356579,54.2586649 L54.6356579,56.3757066 Z M54.6356579,60.3129512 L51.2584118,60.4999047 L51.2584118,58.4313481 L54.6356579,58.1961212 L54.6356579,60.3129512 Z M54.6356579,68.2141178 L51.2584118,68.2141178 L51.2584118,62.2779742 L54.6356579,62.1333658 L54.6356579,68.2141178 Z M50.0125097,49.1287714 L46.6350513,49.5865216 L46.6350513,47.5829646 L50.0125097,47.0763058 L50.0125097,49.1287714 Z M50.0125097,52.9419449 L46.6350513,53.3092884 L46.6350513,51.3080604 L50.0125097,50.8920201 L50.0125097,52.9419449 Z M50.0125097,56.7553302 L46.6350513,57.0320552 L46.6350513,55.0306155 L50.0125097,54.7049819 L50.0125097,56.7553302 Z M50.0125097,60.5685037 L46.6350513,60.7546103 L46.6350513,58.7531706 L50.0125097,58.5183672 L50.0125097,60.5685037 Z M50.0125097,68.2141178 L46.6350513,68.2141178 L46.6350513,62.4759374 L50.0125097,62.3317525 L50.0125097,68.2141178 Z M45.3889369,49.7554784 L42.2290709,50.1827401 L42.2290709,48.2431242 L45.3889369,47.7699181 L45.3889369,49.7554784 Z M45.3889369,53.4445809 L42.2290709,53.7871525 L42.2290709,51.8492304 L45.3889369,51.4609261 L45.3889369,53.4445809 Z M45.3889369,57.1336834 L42.2290709,57.3909297 L42.2290709,55.4532193 L45.3889369,55.1502403 L45.3889369,57.1336834 Z M45.3889369,60.8229976 C44.3334546,60.8807986 43.2798829,60.9379645 42.2290709,60.9949186 L42.2290709,59.0572082 C43.2798829,58.9852216 44.3334546,58.9128115 45.3889369,58.8395545 L45.3889369,60.8229976 Z M45.3889369,68.2141178 C44.3334546,68.2435477 43.2798829,68.1857466 42.2290709,68.2141178 L42.2290709,64.5986958 L42.2290709,62.6614088 C43.2798829,62.6175817 44.3334546,62.5733311 45.3889369,62.528657 L45.3889369,68.2141178 Z M78.11844,68.1715611 L78.11844,47.016811 L68.5560509,45.5033982 L68.5560509,68.2141178 L67.0280217,68.2141178 L67.0280217,44.6738583 C67.5321991,44.600813 68.0425329,44.5275561 68.5560509,44.4536639 L79.3849338,46.1673689 L79.3849338,43.366666 L75.1224583,42.6277445 L75.1224583,41.248989 L75.0167402,41.2307806 C74.9316138,39.6419936 75.0343599,39.3667507 73.0252923,39.3667507 C72.6624968,39.3667507 72.3296335,39.4086723 71.9969825,39.4933624 C71.1200321,38.2355021 69.6074997,37.401516 67.8835312,37.401516 C66.9908717,37.401516 66.1442782,37.6280621 65.4184749,38.0379624 C64.4655264,37.4444962 63.3614308,37.0625437 62.1819739,36.9213229 C62.227403,36.0452034 62.2726198,35.1688721 62.3027643,34.3067265 C62.3481933,32.907222 62.3936223,32.5538523 63.5730792,31.536512 C64.0721618,31.1122144 64.6016012,30.7167115 65.1461129,30.3489445 C65.9020607,29.8403803 66.7038621,29.3739493 67.5504557,28.9358896 C69.289921,28.116089 71.1652489,27.6071013 72.9798632,27.6352607 C70.2880862,28.5964938 67.7776009,29.7412928 65.7207691,31.253647 C67.8381022,33.246406 72.0273393,33.8682433 74.7191163,29.4870106 C75.3997028,28.3845568 76.1255061,27.3949525 77.1236713,26.6886367 C75.5207054,26.179649 73.9631685,25.0488239 71.8910522,24.7521967 C66.7038621,24.0168745 64.1326631,25.9253668 64.4050251,28.8086426 C64.4353819,29.0345536 64.4808109,29.2464907 64.5561722,29.4728251 C63.7700799,29.9816011 63.0292044,30.5329339 62.3632656,31.1407974 C62.3632656,27.8613834 61.3651003,23.1691262 61.5468165,20.7239101 C61.562101,20.3849379 61.6073178,20.0739133 61.6527468,19.7487032 C61.7584649,19.0421757 61.9246842,18.3354365 62.1216849,17.6286973 C62.5906231,16.1728737 63.3465708,14.8445089 64.4050251,13.8409307 C63.4673611,15.904406 62.7717024,17.9395101 62.5602663,19.9606403 C65.0403949,19.9185069 67.8230299,17.9395101 66.5677872,13.9256209 C66.2499962,12.9220427 66.0385601,11.9612331 66.1593504,11 C64.9193923,11.5932544 63.3011418,11.8198006 61.940181,12.8091931 C58.5066794,15.2683831 58.2498143,17.7982893 60.2459325,19.282484 C60.3975041,19.4093074 60.5787957,19.5083949 60.7450151,19.5935085 C60.6694415,20.0173827 60.6242248,20.4414685 60.593868,20.8653427 C60.5034345,22.1371769 60.6543693,23.1409667 60.7605119,24.398827 C60.8961622,26.0949588 60.9420158,27.7766933 60.9263067,29.4444539 C60.276077,28.8509877 59.5502737,28.2998666 58.7792537,27.8050645 C58.8548272,27.5931274 58.900044,27.366793 58.9153285,27.1406703 C59.1876905,24.2713684 56.6164915,22.3493257 51.4293014,23.0984099 C49.3722574,23.3954606 47.7994359,24.5118884 46.2119668,25.0204527 C47.1946352,25.7415892 47.9359353,26.7167962 48.6012373,27.8192501 C51.3085111,32.2006945 55.4973237,31.5926193 57.6148691,29.5858864 C55.5427527,28.0735322 53.0475519,26.9431306 50.3402781,25.9677119 C52.1551047,25.9393407 54.0302203,26.4483284 55.7849702,27.2821029 C56.6315638,27.705977 57.4335775,28.172408 58.1895252,28.681184 C58.7943259,29.091296 59.3689821,29.529144 59.928566,30.0239461 C60.7450151,30.7590566 60.8815145,31.7342635 60.8212255,32.7236561 C60.7450151,34.1229489 60.639297,35.52203 60.5034345,36.9069255 C58.6433911,37.0909149 56.9797116,37.9109271 55.7849702,39.1262307 C54.9075953,38.6879592 53.9092177,38.4474392 52.8354789,38.4474392 C51.0359369,38.4474392 49.4176864,39.1543901 48.268374,40.2850035 C47.7994359,40.1156232 47.2857056,40.016324 46.7564785,40.016324 C44.9427133,40.016324 43.3949415,41.4920497 42.8710215,43.0727912 L42.7788897,43.0886706 L42.7905654,43.3533273 C42.7869566,43.3670894 42.7822863,43.3802164 42.7788897,43.3939785 L42.7922637,43.3918613 L42.8553124,44.8387923 C50.0014708,43.708179 57.1474169,42.5773539 64.2935753,41.4465288 L66.5580221,41.8051915 C57.8562374,43.1174652 49.1890552,44.5521162 40.5068007,45.929813 L40.5068007,48.5024878 L41.1895101,48.4040355 L41.1895101,68.2141178 L39,68.2141178 L39,71 L81,71 L81,68.1715611 L78.11844,68.1715611 Z" id="Fill-1"></path>
                        </g>
                    </g>
                </g>
            </g>
        </g>
    </g>
</svg>