<?xml version="1.0" encoding="UTF-8"?>
<svg width="276px" height="330px" viewBox="0 0 276 330" version="1.1" xmlns="http://www.w3.org/2000/svg" xmlns:xlink="http://www.w3.org/1999/xlink">
    <!-- Generator: Sketch 45.1 (43504) - http://www.bohemiancoding.com/sketch -->
    <title>Page 1</title>
    <desc>Created with Sketch.</desc>
    <defs></defs>
    <g id="Iconsv2" stroke="none" stroke-width="1" fill="none" fill-rule="evenodd">
        <g id="Artboard" transform="translate(-4364.000000, -1638.000000)" fill="#FFFFFF">
            <g id="Group-5" transform="translate(4254.000000, 1578.000000)">
                <g id="Group-13">
                    <g id="Page-1" transform="translate(110.000000, 60.000000)">
                        <polygon id="Fill-1" opacity="0.798743207" points="172.525714 -0.000478571429 172.525714 22.9637714 169.236676 23.6062536 169.236676 13.5179679 161.688142 13.5179679 161.688142 25.073075 129.390551 31.3603071 129.390551 45.9172536 193.004519 33.5330214 193.004519 18.9784679 177.23817 22.0473071 177.23817 -0.000478571429"></polygon>
                        <path d="M179.66037,195.450127 C170.790006,213.414502 161.957886,231.399216 152.577195,249.103966 C151.336635,251.429823 149.292937,253.180198 146.976747,253.966252 C146.25966,254.210323 145.535402,254.353895 144.826682,254.400555 C143.251481,254.502252 141.742013,254.125377 140.501453,253.280698 C132.496373,247.832163 128.612153,244.991841 121.008642,239.244198 C118.045879,237.004484 117.448306,232.15177 119.58164,227.771645 C127.127783,212.033823 134.430118,196.200288 141.624889,180.299752 C143.870566,175.307055 148.293796,172.38418 151.984403,173.583002 C161.347167,176.62193 166.181528,178.165323 176.302013,181.249716 C178.562032,181.937663 180.2436,183.901002 180.887783,186.628859 C181.533162,189.356716 181.077811,192.579895 179.66037,195.450127 L179.66037,195.450127 Z M156.043115,315.229377 L156.043115,266.10402 C162.639119,265.709198 169.34388,265.294038 176.072545,264.880073 C176.072545,281.66477 176.072545,298.44468 176.095253,315.229377 L156.043115,315.229377 Z M146.569203,315.229377 L127.887895,315.229377 L127.887895,267.780216 C133.99867,267.39377 140.217008,267.039627 146.569203,266.663948 L146.569203,315.229377 Z M119.033068,315.229377 L101.615029,315.229377 L101.615029,269.345145 C107.349333,268.996984 113.137419,268.652413 119.033068,268.283913 L119.033068,315.229377 Z M93.3506032,315.229377 L77.0942446,315.229377 L77.0942446,270.779663 C82.4257852,270.47577 87.8875966,270.144359 93.3506032,269.816538 L93.3506032,315.229377 Z M69.3688291,315.229377 L54.1032456,315.229377 L54.1032456,272.166323 C59.110902,271.875591 64.2273165,271.56093 69.3688291,271.24627 L69.3688291,315.229377 Z M48.2099869,231.05943 C44.2695948,229.815145 41.471761,225.993752 41.5602017,221.02977 C41.6092026,218.313877 42.5270738,215.691305 44.0269804,213.503038 C38.292676,213.47552 33.717662,208.851323 33.7618824,202.431288 C33.7881755,198.569216 35.525916,194.88302 38.2149916,192.234127 C33.1882129,191.142984 29.3888478,186.694663 29.3888478,180.835752 C29.3888478,174.81652 33.5228534,169.200484 38.9798842,166.903341 C35.4924519,165.042895 33.0973819,161.34593 33.1236751,156.792323 C33.1320411,155.08143 33.5766349,153.097752 34.2650383,151.439502 C35.4793053,148.51902 37.9424986,145.862948 40.6829655,144.204698 C41.7741326,143.545466 42.933423,143.044163 44.1010794,142.667288 C45.7324519,142.142055 47.3781662,141.810645 48.9975873,141.573752 C50.6755705,141.327288 52.339212,141.122698 53.9825359,140.937252 C55.8421811,140.72668 57.6815089,140.534055 59.499324,140.362966 C65.8132736,139.767145 71.8750476,139.439323 77.7491839,139.42018 C80.7358506,139.410609 85.6538711,140.228966 87.8696695,136.40877 C89.2213782,134.079323 88.2031148,131.727145 87.4262708,129.82243 C85.9478768,126.193663 84.0786704,122.919038 82.3636377,119.535538 C79.5658039,114.018805 77.0046088,108.284323 76.1082502,101.906163 C75.3804071,96.7268232 75.429408,90.8906446 77.3416396,85.6945554 C78.5798095,82.3278054 82.3911261,75.1516268 86.0709767,73.9516089 C86.0709767,73.9516089 89.4161867,72.6211804 91.2674659,73.7135196 C94.6580915,75.7139482 93.6362428,81.3706625 94.2840112,85.2111982 C94.9807806,89.3460554 96.520127,93.1698411 98.617606,96.5772696 C102.810174,103.383752 109.255589,108.353716 114.519007,113.91352 C129.498951,129.733895 121.64685,158.586966 140.153666,173.068538 C131.445841,192.75577 122.592209,212.34968 113.305935,231.771305 C113.305935,231.771305 107.202331,228.387805 102.82332,228.941752 C85.3407432,231.156341 67.922704,233.05627 50.5835444,231.669609 C49.7827974,231.606198 48.9677087,231.372895 48.2099869,231.05943 L48.2099869,231.05943 Z M46.8654491,315.229377 L32.5141513,315.229377 L32.5141513,273.460859 C37.2540952,273.158163 42.016747,272.890163 46.8654491,272.593448 L46.8654491,315.229377 Z M259.870118,315.229377 L259.870118,202.361895 L259.870118,86.2305554 C251.581789,82.4869304 243.261191,78.6894661 234.890398,74.8644839 L234.890398,56.2420732 C223.019025,50.4812696 211.013796,44.6618411 198.872321,38.7861804 C198.872321,85.3679304 198.901005,131.948484 198.901005,178.50152 L198.901005,315.229377 L193.031649,315.229377 C193.031649,269.382234 193.019697,223.509966 193.004161,177.66402 C192.994599,130.854948 193.004161,84.0123768 193.004161,37.1410911 L15.343507,71.7645375 L15.343507,193.754788 C15.343507,234.24552 15.368605,274.737448 15.368605,315.229377 L0.000239028945,315.229377 L0.000239028945,329.018216 L275.213386,329.018216 L275.213386,315.229377 L259.870118,315.229377 Z" id="Fill-2"></path>
                        <path d="M138.977643,232.090154 C136.290958,230.686743 132.937382,231.992046 131.462573,234.940046 C129.98896,237.889243 130.948661,241.321796 133.628176,242.674957 C136.308885,244.028118 139.698316,242.834082 141.177905,239.937529 C142.658689,237.040975 141.663134,233.494761 138.977643,232.090154" id="Fill-5"></path>
                        <polygon id="Fill-7" opacity="0.798743207" points="224.49228 31.4856929 198.871963 18.9770321 198.871963 33.5327821 224.49228 46.0402464"></polygon>
                    </g>
                </g>
            </g>
        </g>
    </g>
</svg>