<?xml version="1.0" encoding="UTF-8"?>
<svg width="400px" height="400px" viewBox="0 0 400 400" version="1.1" xmlns="http://www.w3.org/2000/svg" xmlns:xlink="http://www.w3.org/1999/xlink">
    <defs></defs>
    <g id="img_list-cloud" fill="#ffffff" stroke="none" stroke-width="1" fill-rule="evenodd">
        <path d="M161.058355,0 C204.955898,0 242.528731,27.076 258.090802,65.46925 C259.42664,65.401 260.772954,65.3695 262.124508,65.3695 C307.270579,65.3695 343.865543,102.046 343.865543,147.28525 C343.865543,192.5315 307.270579,229.2045 262.124508,229.2045 L199.841299,229.08375 C199.841299,213.54025 199.832569,193.99275 199.832569,178.45275 L224.813604,178.45275 L171.931898,113.0745 L119.050193,178.45275 L144.043452,178.45275 C144.043452,193.95775 144.032975,213.51925 144.032975,229.03125 L77.2847513,229.09425 L77.3720609,229.2045 L68.0456447,229.2045 C30.462335,229.2045 0,198.66875 0,161.0035 C0,127.12525 24.6527513,99.022 56.967797,93.71775 C62.5433909,41.0375 107.017178,0 161.058355,0" id="Fill-1"></path>
        <polygon id="Fill-4" opacity="0.7" points="152.07287 240.204465 117 240.181788 172.00175 307 227 240.270753 191.934131 240.248076 191.934131 198 152.07287 198 152.07287 236.607474"></polygon>
    </g>
</svg>