<?xml version="1.0" encoding="UTF-8"?>
<svg width="45px" height="55px" viewBox="0 0 45 55" version="1.1" xmlns="http://www.w3.org/2000/svg" xmlns:xlink="http://www.w3.org/1999/xlink">
    <!-- Generator: Sketch 46.1 (44463) - http://www.bohemiancoding.com/sketch -->
    <title>Page 1</title>
    <desc>Created with Sketch.</desc>
    <defs>
        <linearGradient x1="60.6510103%" y1="121.164047%" x2="60.6510081%" y2="3.17053298%" id="linearGradient-1">
            <stop stop-color="#6F7689" offset="0%"></stop>
            <stop stop-color="#313540" offset="100%"></stop>
        </linearGradient>
    </defs>
    <g id="Comps" stroke="none" stroke-width="1" fill="none" fill-rule="evenodd" opacity="0.32274683">
        <g id="V2-Home" transform="translate(-240.000000, -935.000000)" fill="url(#linearGradient-1)">
            <g id="Group-39" transform="translate(191.000000, 680.000000)">
                <g id="Group-33" transform="translate(12.000000, 77.000000)">
                    <g transform="translate(-1.000000, 0.000000)" id="Group-24">
                        <g transform="translate(0.000000, 164.000000)">
                            <g id="Page-1" transform="translate(38.000000, 14.000000)">
                                <path d="M27.0703742,52.1320362 L23.0160777,52.1320362 L23.0160777,43.7787225 C24.3709339,43.7470166 25.7230081,43.7155264 27.0703742,43.6853303 L27.0703742,52.1320362 Z M21.6824078,52.1320362 L18.0676745,52.1320362 L18.0676745,43.8990754 L21.6824078,43.8110754 L21.6824078,52.1320362 Z M16.7340046,52.1320362 L13.1196993,52.1320362 L13.1196993,44.0220166 L16.7340046,43.9322911 L16.7340046,52.1320362 Z M11.7860294,52.1320362 L8.17129609,52.1320362 L8.17129609,44.1430166 L11.7860294,44.0550166 L11.7860294,52.1320362 Z M6.83784021,52.1320362 L3.45594271,52.1320362 L3.45594271,44.2525852 C4.58053117,44.2273499 5.70811567,44.2012519 6.83784021,44.1745068 L6.83784021,52.1320362 Z M23.0068755,15.2531342 L26.9635865,18.689448 C27.2015584,18.9085852 27.2811677,19.2698597 27.1733099,19.6339382 L25.3975088,25.9326244 C25.2808769,26.3685264 25.0702974,26.7798401 24.7878128,27.1275264 L14.7658143,41.0306637 C14.4133505,41.5979186 13.7614958,41.6764284 13.2990342,41.2083891 L11.394831,39.3528401 L7.67651997,36.0174676 L5.51765255,34.2285656 C4.96359745,33.7848989 4.78618854,32.9687421 5.13201822,32.4032127 L14.989876,18.5434284 C15.2685086,18.1970362 15.6293185,17.9213891 16.0363532,17.7436637 L22.0168953,15.1526244 C22.3680751,15.001644 22.7470753,15.0396048 23.0068755,15.2531342 L23.0068755,15.2531342 Z M41.866577,52.1320362 L41.866577,12.6088205 L31.6320731,10.1206637 L31.6320731,52.2019186 L29.9970863,52.2019186 L29.9970863,9.64615385 L2.34333845,15.7371342 L2.34333845,52.1320362 L0,52.1320362 L0,54.9070558 L44.9505817,54.9070558 L44.9505817,52.1320362 L41.866577,52.1320362 Z" id="Fill-1"></path>
                                <path d="M24.046546,19.9319982 C24.5199218,19.3776845 24.5304079,18.5932335 24.0610982,18.1821355 C23.5872945,17.7725472 22.8134578,17.8918217 22.341152,18.4459198 C21.8733403,18.9989394 21.8842545,19.7782139 22.3567743,20.1880178 C22.825014,20.5993315 23.5776643,20.4854492 24.046546,19.9319982" id="Fill-4" opacity="0.796422101"></path>
                                <path d="M29.8955498,8.72343137 L29.8955498,8.71760784 C30.4350527,8.59747059 30.9811896,8.47690196 31.5307507,8.3552549 L43.1205388,11.1727647 L43.1205388,6.5685098 L38.558626,5.35354902 L38.558626,3.08711765 L26.9688378,0 L4.02466528,6.11168627 L4.02466528,8.9885098 C11.6727228,7.12972549 19.3207803,5.27094118 26.9688378,3.41215686 L29.3924276,4.00119608 C20.0794227,6.15870588 10.8032265,8.51745098 1.51119403,10.7825882 L1.51119403,14.9753137 L29.8955498,8.72343137 Z" id="Fill-6" opacity="0.846807065"></path>
                            </g>
                        </g>
                    </g>
                </g>
            </g>
        </g>
    </g>
</svg>