<?xml version="1.0" encoding="UTF-8"?>
<svg width="400px" height="400px" viewBox="0 0 400 400" version="1.1" xmlns="http://www.w3.org/2000/svg" xmlns:xlink="http://www.w3.org/1999/xlink">
    <defs></defs>
    <g id="img_list-gold" fill="#ffffff" stroke="none" stroke-width="1" fill-rule="evenodd">
        <path d="M119.058713,100.087401 L109.585882,122.331715 L68.0903935,142.161002 L58.1766436,165.44186 L20.6601749,183.369793 L0,231.892665 L90.8967808,247.293637 L97.1587433,243.492461 L95.1523343,248.204447 L186.201209,263.769486 L192.507724,259.928444 L190.553549,264.516228 L282.362893,280 L396,191.902888 L381.861423,151.091234 L345.063943,146.780986 L350.957193,142.828009 L336.818616,102.016356 L298.722961,97.5527728 L305.132409,93.6948633 L290.996904,52.8847432 L232.239539,46 L119.058713,100.087401 Z M213.876134,86.5264503 L234.299718,52.722208 L239.831938,53.3708152 L224.421303,82.2208025 L249.284798,54.4778942 L284.161901,58.5642729 L186.823411,106.824942 L133.851755,100.154868 L211.462605,63.067723 L189.654813,98.7855865 L213.876134,86.5264503 Z M230.647931,162.991567 L219.526649,161.490417 L274.397173,129.618196 L291.145925,103.146435 L330.593524,107.76642 L230.674048,163.172502 L230.647931,162.991567 Z M107.651679,143.332481 L123.812028,105.380526 L181.458648,112.637874 L186.511542,153.691797 L107.651679,143.332481 Z M192.751996,144.940966 L271.315353,107.139279 L193.661486,151.430105 L192.751996,144.940966 Z M84.2630333,141.570662 L105.771246,131.292614 L100.454109,143.781753 L84.2630333,141.570662 Z M56.6096166,185.585484 L73.688674,146.624585 L130.421195,154.372604 L135.219063,197.692819 L56.6096166,185.585484 Z M277.631086,222.9655 L261.146577,220.522872 L324.846222,179.593151 L339.596248,152.619985 L375.903648,156.873499 L277.637231,223.017634 L277.631086,222.9655 Z M237.421482,202.775875 L315.940286,159.823665 L238.332508,209.258881 L237.421482,202.775875 Z M152.789736,199.856376 L169.249664,161.202147 L224.988198,168.721697 L231.49136,211.979044 L152.789736,199.856376 Z M139.019871,169.454638 L158.040813,163.379504 L139.565258,175.722975 L139.019871,169.454638 Z M34.0736183,184.098134 L54.3620084,174.40276 L49.3459858,186.183491 L34.0736183,184.098134 Z M9.12870012,226.91081 L25.112375,189.369793 L83.1645782,197.301814 L87.0345202,240.10989 L9.12870012,226.91081 Z M91.1149355,209.056478 L110.134341,202.978278 L91.6603223,215.324815 L91.1149355,209.056478 Z M104.276426,243.233325 L120.794733,204.43956 L120.889984,204.396627 L176.50715,212.184513 L181.517027,256.437005 L104.276426,243.233325 Z M184.853873,224.987989 L203.873278,218.225914 L185.39926,231.256325 L184.853873,224.987989 Z M199.685322,259.528239 L216.349578,220.391004 L271.813114,228.612829 L277.096453,272.583184 L199.685322,259.528239 Z" id="Fill-1"></path>
        <path d="M315.450343,39.5212637 C315.682682,39.7490887 315.860354,40.0407047 315.936281,40.3687728 C317.290834,42.4829891 317.996963,59.8052855 317.998481,62 C317.998481,59.8037667 318.710685,42.4222357 320.066756,40.3626974 C320.135091,40.0680437 320.286946,39.7885784 320.501063,39.5622722 C320.739476,39.3147023 321.050781,39.1294046 321.410678,39.0534629 C323.545769,37.7092953 340.810241,37.0015188 343,37.0015188 C340.810241,37 323.325579,36.2876671 321.39853,34.9465371 C321.073559,34.8705954 320.783515,34.7035237 320.554212,34.4832928 C320.311243,34.2478736 320.138128,33.9532199 320.066756,33.6464156 C318.713722,31.6385176 318.001519,14.1977521 317.998481,12 C317.996963,14.1947145 317.281723,31.8860875 315.936281,33.6312272 C315.867946,33.8909478 315.726721,34.1749696 315.511085,34.4119077 C315.290895,34.6518834 315.00085,34.8478129 314.637915,34.9359052 C312.516492,36.2861482 295.195833,37.0015188 293,37.0015188 C295.197352,37 312.650125,37.7168894 314.634878,39.0656136 C314.932515,39.1369988 315.219523,39.2979951 315.450343,39.5212637" id="Fill-2" opacity="0.8"></path>
        <path d="M133.90057,28.072472 C134.136675,28.3040478 134.317942,28.6011352 134.395627,28.9347872 C135.77874,31.0920986 136.499238,48.7619417 136.500762,51 C136.500762,48.7588947 137.22583,31.0296341 138.607419,28.9286931 C138.679012,28.6285586 138.83286,28.3436594 139.052209,28.1136072 C139.294406,27.860702 139.612765,27.6702614 139.979869,27.5940851 C142.156596,26.2213891 159.765389,25.5022853 162,25.5022853 C159.765389,25.4992382 141.932678,24.7725168 139.96616,23.4059149 C139.635614,23.3282151 139.340103,23.1575803 139.105523,22.9320986 C138.857232,22.6929052 138.682058,22.3912472 138.607419,22.0789246 C137.230399,20.0297834 136.502285,2.2411053 136.500762,0 C136.499238,2.23958178 135.768077,20.2842121 134.395627,22.0652128 C134.325558,22.3272591 134.182372,22.6182524 133.961501,22.8589694 C133.737583,23.1027334 133.442072,23.3038387 133.071921,23.3952502 C130.908904,24.7725168 113.240704,25.5022853 111,25.5022853 C113.240704,25.4992382 131.04295,26.2305302 133.070398,27.6062733 C133.370479,27.6794025 133.66599,27.8424197 133.90057,28.072472" id="Fill-4" opacity="0.8"></path>
        <path d="M89.2921416,64.648318 C89.81347,65.1574924 90.2109638,65.8103976 90.3791343,66.5458716 C93.4169044,71.2782875 94.9977068,110.084098 94.9992356,115 C95.0022932,110.077982 96.596855,71.1452599 99.6315675,66.529052 C99.7844497,65.8685015 100.123848,65.2446483 100.605427,64.7400612 C101.135929,64.1819572 101.836129,63.7691131 102.641819,63.5978593 C107.423975,60.5840979 146.095538,59.0015291 151,59.0015291 C146.095538,59 106.933223,57.4051988 102.612771,54.4021407 C101.885052,54.2293578 101.236831,53.851682 100.726204,53.3593272 C100.178886,52.8333333 99.7920938,52.1712538 99.6300386,51.4862385 C96.6029703,46.9847095 95.0038221,7.92201835 94.9992356,3 C94.9977068,7.91743119 93.3939721,47.5412844 90.3791343,51.4541284 C90.2262521,52.0336391 89.9097858,52.6697248 89.426678,53.2003058 C88.9343971,53.735474 88.2846476,54.1743119 87.4713141,54.3730887 C82.7197341,57.4006116 43.9182217,59.0015291 39,59.0015291 C43.9228081,59 83.0193833,60.6009174 87.4651988,63.6269113 C88.1302366,63.7828746 88.7738708,64.1437309 89.2921416,64.648318" id="Fill-7" opacity="0.8"></path>
    </g>
</svg>