<?xml version="1.0" encoding="UTF-8"?>
<svg width="55px" height="50px" viewBox="0 0 55 50" version="1.1" xmlns="http://www.w3.org/2000/svg" xmlns:xlink="http://www.w3.org/1999/xlink">
    <!-- Generator: Sketch 46.1 (44463) - http://www.bohemiancoding.com/sketch -->
    <title>Group</title>
    <desc>Created with Sketch.</desc>
    <defs>
        <linearGradient x1="60.6510103%" y1="121.164047%" x2="60.6510081%" y2="3.17053298%" id="linearGradient-1">
            <stop stop-color="#6F7689" offset="0%"></stop>
            <stop stop-color="#313540" offset="100%"></stop>
        </linearGradient>
    </defs>
    <g id="Comps" stroke="none" stroke-width="1" fill="none" fill-rule="evenodd" opacity="0.32274683">
        <g id="V2-Home" transform="translate(-235.000000, -1266.000000)" fill="url(#linearGradient-1)">
            <g id="Group-39" transform="translate(191.000000, 680.000000)">
                <g id="Group-33" transform="translate(12.000000, 77.000000)">
                    <g transform="translate(-1.000000, 0.000000)" id="Group-31">
                        <g transform="translate(0.000000, 492.000000)">
                            <g id="Group" transform="translate(33.000000, 17.000000)">
                                <path d="M0,28.4361289 L10.8492415,28.4361289 C10.8492415,18.9372121 18.2841762,11.236732 27.4555298,11.236732 C36.6268834,11.236732 44.1263522,18.9372121 44.1263522,28.4361289 L54.911274,28.4361289 C54.911274,12.7311732 42.6189116,0 27.4555298,0 C12.2923624,0 0,12.7311732 0,28.4361289 Z" id="Combined-Shape"></path>
                                <path d="M39.9333138,37.1355213 C40.0968172,36.7847506 40.0314158,36.404749 39.7698104,36.1124401 L28.1610685,24.8877782 C27.9648644,24.7123928 27.6705583,24.5954693 27.3762521,24.5954693 C27.081946,24.5954693 26.8203405,24.7123928 26.6241364,24.8877782 L15.1788979,36.1124401 C14.9172925,36.404749 14.8518911,36.7847506 15.0153945,37.1355213 C15.1788979,37.4862919 15.5386054,37.6909082 15.9637143,37.6909082 L21.5228301,37.6909082 L21.5228301,48.9155701 C21.5228301,49.4417261 21.9806397,49.8509586 22.569252,49.8509586 L32.3794564,49.8509586 C32.9680686,49.8509586 33.4258782,49.4417261 33.4258782,48.9155701 L33.4258782,37.6909082 L38.984994,37.6909082 C39.4101029,37.6909082 39.7698104,37.457061 39.9333138,37.1355213 Z" id="" opacity="0.796082428"></path>
                            </g>
                        </g>
                    </g>
                </g>
            </g>
        </g>
    </g>
</svg>