<?xml version="1.0" encoding="UTF-8"?>
<svg width="60px" height="52px" viewBox="0 0 60 52" version="1.1" xmlns="http://www.w3.org/2000/svg" xmlns:xlink="http://www.w3.org/1999/xlink">
    <!-- Generator: Sketch 46.1 (44463) - http://www.bohemiancoding.com/sketch -->
    <title>Page 1</title>
    <desc>Created with Sketch.</desc>
    <defs>
        <linearGradient x1="60.6510103%" y1="121.164047%" x2="60.6510081%" y2="3.17053298%" id="linearGradient-1">
            <stop stop-color="#6F7689" offset="0%"></stop>
            <stop stop-color="#313540" offset="100%"></stop>
        </linearGradient>
    </defs>
    <g id="Comps" stroke="none" stroke-width="1" fill="none" fill-rule="evenodd" opacity="0.32274683">
        <g id="V2-Home" transform="translate(-232.000000, -855.000000)" fill="url(#linearGradient-1)">
            <g id="Group-39" transform="translate(191.000000, 680.000000)">
                <g id="Group-33" transform="translate(12.000000, 77.000000)">
                    <g transform="translate(-1.000000, 0.000000)" id="Group-20">
                        <g transform="translate(0.000000, 82.000000)">
                            <g id="Page-1" transform="translate(30.000000, 16.000000)">
                                <path d="M50.8889545,17.7258911 C50.7265818,17.8950928 50.445127,18.0948847 49.9903769,18.3031434 L49.9903769,17.0348818 C50.2204159,16.9600452 50.4396657,16.8796096 50.6372036,16.7935748 L50.6400008,16.7935748 C50.7292459,16.7573856 50.8078348,16.7214695 50.8889545,16.682549 L50.8889545,17.7258911 Z M46.5421883,19.2215303 C46.2526081,19.2687811 45.9521054,19.3104329 45.6464078,19.346349 L45.6464078,17.9338768 C45.6923624,17.9284142 45.7411141,17.9228151 45.7844046,17.9173526 C45.9413161,17.9035597 46.0983607,17.8813 46.2308963,17.861908 L46.2444828,17.861908 C46.3446504,17.8479786 46.4420207,17.8311813 46.5421883,17.817525 L46.5421883,19.2215303 Z M37.8542502,19.346349 C37.5456222,19.3104329 37.2479168,19.2687811 36.9555393,19.2215303 L36.9555393,17.8146572 C37.0963334,17.8340491 37.2263381,17.8563089 37.369663,17.8729696 C37.5213795,17.8950928 37.680955,17.9146214 37.8542502,17.9338768 L37.8542502,19.346349 Z M35.6808005,19.3436177 C35.3640472,19.2742436 35.0664749,19.1966758 34.7822228,19.1132357 L34.7822228,17.7646751 C35.071803,17.8340491 35.3695085,17.9006919 35.6808005,17.9617356 L35.6808005,19.3436177 Z M33.507484,18.6610753 C33.0635232,18.4584156 32.776607,18.2614916 32.6115703,18.0894221 L32.6115703,17.0432122 C32.6548608,17.065472 32.7036126,17.0848639 32.7495671,17.1042559 C32.8200307,17.134846 32.8848999,17.1681674 32.9580275,17.1958897 C33.1339868,17.2679951 33.3179381,17.3346378 33.507484,17.4011441 L33.507484,18.6610753 Z M49.6304663,15.5698328 C49.4085525,15.6585988 49.1703881,15.7446336 48.8995894,15.8250693 C48.6668862,15.8944433 48.4152685,15.963954 48.1580563,16.0275924 L47.835975,16.1025655 L47.7981457,16.1108959 C47.5760987,16.1581467 47.3460596,16.205261 47.1106925,16.249644 C47.09977,16.2523752 47.0861834,16.2551065 47.0753941,16.2579743 C46.7181475,16.3217493 46.3310638,16.382793 45.9088149,16.4383742 C45.7898659,16.4577661 45.6706505,16.471559 45.5326537,16.4854885 C45.2701135,16.5160786 45.0049092,16.5438009 44.7423689,16.5686554 C44.7287823,16.5686554 44.717993,16.5715232 44.7044065,16.5715232 C44.4607808,16.5909152 44.2200856,16.6104437 43.9819212,16.6269678 C43.2510443,16.6742187 42.50405,16.6990732 41.7597197,16.6990732 C41.2752657,16.6990732 40.7556464,16.6880115 40.1871422,16.6658883 C39.8434822,16.6492276 39.5079475,16.6269678 39.1641543,16.5992455 C38.9936563,16.5881839 38.8284864,16.5742545 38.6526603,16.5575938 C38.3223205,16.5271402 37.9977083,16.4910875 37.680955,16.4494358 C36.3574644,16.2800975 35.2233864,16.0415218 34.3138862,15.7390345 C34.1516467,15.6835899 33.9972661,15.6252774 33.8430187,15.5642337 C33.564361,15.4866659 33.2908982,15.4060937 33.0366165,15.3227902 C31.9647436,14.9677261 31.1825841,14.5652746 30.6114158,14.1518981 C30.5870399,14.2489945 30.5707893,14.3404917 30.5679921,14.421064 C30.562664,14.4515176 30.56,14.4819711 30.56,14.5070987 L30.56,17.4206726 C30.56,17.4594565 30.5654613,17.498377 30.5734534,17.5344297 C30.643917,18.2225712 31.244656,19.1660857 33.5832756,19.9429932 C35.6482993,20.6284034 38.6256204,21.0225245 41.7515944,21.0225245 C44.2849548,21.0225245 46.7506487,20.7615524 48.6967234,20.2898635 C52.0880349,19.4685729 52.8161146,18.2863461 52.9162822,17.5788127 C52.9297355,17.5289671 52.9378608,17.4761172 52.9378608,17.4206726 L52.9378608,14.4960371 C52.9378608,14.3877426 52.9216102,14.2683864 52.8917731,14.146299 C52.1827412,14.662371 51.1407055,15.159051 49.6304663,15.5698328 L49.6304663,15.5698328 Z M49.9903769,11.4185875 C50.2204159,11.343751 50.4396657,11.2631787 50.6372036,11.177144 L50.6400008,11.177144 C50.7292459,11.1410913 50.8078348,11.1050386 50.8889545,11.0661182 L50.8889545,12.1095969 C50.7265818,12.2787985 50.445127,12.4785904 49.9903769,12.6867125 L49.9903769,11.4185875 Z M46.5421883,13.605236 C46.2526081,13.6523503 45.9521054,13.694002 45.6464078,13.7300547 L45.6464078,12.3175825 C45.6923624,12.3121199 45.7411141,12.3065209 45.7844046,12.3009218 C45.9413161,12.2871289 46.0983607,12.2650057 46.2308963,12.2454771 L46.2444828,12.2454771 C46.3446504,12.2316843 46.4420207,12.2150236 46.5421883,12.2010941 L46.5421883,13.605236 Z M37.8542502,13.7300547 C37.5456222,13.694002 37.2479168,13.6523503 36.9555393,13.605236 L36.9555393,12.1982263 C37.0963334,12.2177548 37.2263381,12.2398781 37.369663,12.2565388 C37.5213795,12.2787985 37.680955,12.2981905 37.8542502,12.3175825 L37.8542502,13.7300547 Z M35.6808005,13.7273234 C35.3640472,13.6579493 35.0664749,13.5802449 34.7822228,13.4969414 L34.7822228,12.1483808 C35.071803,12.2177548 35.3695085,12.2842611 35.6808005,12.3425735 L35.6808005,13.7273234 Z M33.507484,13.044781 C33.0635232,12.8421214 32.776607,12.6450608 32.6115703,12.4729913 L32.6115703,11.4269179 C32.6548608,11.4490411 32.7036126,11.4685696 32.7495671,11.4879616 C32.8200307,11.5185517 32.8848999,11.5517366 32.9580275,11.5794589 C33.1339868,11.6517008 33.3179381,11.7183436 33.507484,11.7848498 L33.507484,13.044781 Z M48.8995894,10.5695747 C48.6668862,10.6389488 48.4152685,10.7110541 48.1580563,10.7720978 L47.835975,10.8469344 L47.7981457,10.8581325 C47.5760987,10.9052468 47.3460596,10.9523611 47.1106925,10.9968807 C47.09977,10.9968807 47.0861834,10.9996119 47.0753941,11.0024798 C46.7181475,11.0661182 46.3310638,11.1272984 45.9088149,11.1854743 C45.7898659,11.2022716 45.6706505,11.2160644 45.5326537,11.2299939 C45.2701135,11.2604475 45.0049092,11.2881698 44.7423689,11.3131608 C44.7287823,11.3131608 44.717993,11.3160286 44.7044065,11.3160286 C44.4607808,11.3354206 44.2200856,11.3548126 43.9819212,11.3714733 C43.2510443,11.4185875 42.50405,11.4435786 41.7597197,11.4435786 C41.2752657,11.4435786 40.7556464,11.432517 40.1871422,11.4102572 C39.8434822,11.3935965 39.5079475,11.3742045 39.1641543,11.3464822 C38.9936563,11.3326893 38.8284864,11.3187599 38.6526603,11.3020992 C38.3223205,11.2715091 37.9977083,11.235593 37.680955,11.1938047 C36.3574644,11.024603 35.2233864,10.7860272 34.3138862,10.4835399 C34.1516467,10.4280953 33.9972661,10.3697829 33.8430187,10.3087392 C33.564361,10.2308982 33.2908982,10.1533304 33.0366165,10.0672956 C31.9349064,9.70089679 31.1364963,9.28752027 30.562664,8.86294557 C30.562664,8.87127592 30.56,8.88233753 30.56,8.89080445 L30.56,11.8043783 C30.56,11.8431622 30.5654613,11.8819462 30.5734534,11.9181354 C30.643917,12.6062769 31.244656,13.5496548 33.5832756,14.3265623 C35.6482993,15.0121091 38.6256204,15.4060937 41.7515944,15.4060937 C44.2849548,15.4060937 46.7506487,15.1452581 48.6967234,14.6734326 C52.0880349,13.8521421 52.8161146,12.6701884 52.9162822,11.9625184 C52.9297355,11.9096685 52.9378608,11.8598229 52.9378608,11.8043783 L52.9378608,8.89080445 L52.9378608,8.88520536 L52.9378608,8.87960627 L52.9378608,8.85461522 C52.228829,9.3873479 51.1732067,9.89522609 49.6304663,10.316933 C49.4085525,10.4029677 49.1703881,10.4890025 48.8995894,10.5695747 L48.8995894,10.5695747 Z M50.8889545,23.3421854 C50.7265818,23.5113871 50.445127,23.7111789 49.9903769,23.9194377 L49.9903769,22.6511761 C50.2204159,22.5763395 50.4396657,22.4959039 50.6372036,22.4098691 L50.6400008,22.4098691 C50.7292459,22.3736799 50.8078348,22.3377638 50.8889545,22.2988433 L50.8889545,23.3421854 Z M46.5421883,24.8378246 C46.2526081,24.8850754 45.9521054,24.9267272 45.6464078,24.9626433 L45.6464078,23.5503076 C45.6923624,23.5447085 45.7411141,23.539246 45.7844046,23.5336469 C45.9413161,23.519854 46.0983607,23.4975943 46.2308963,23.4782023 L46.2444828,23.4782023 C46.3446504,23.4644094 46.4420207,23.4476122 46.5421883,23.4338193 L46.5421883,24.8378246 Z M37.8542502,24.9655111 C37.5456222,24.9267272 37.2479168,24.8850754 36.9555393,24.8378246 L36.9555393,23.4309515 C37.0963334,23.45048 37.2263381,23.4726032 37.369663,23.4921317 C37.5213795,23.5113871 37.680955,23.5309156 37.8542502,23.5503076 L37.8542502,24.9655111 Z M35.6808005,24.9600486 C35.3640472,24.8905379 35.0664749,24.8129701 34.7822228,24.7296666 L34.7822228,23.3809694 C35.071803,23.45048 35.3695085,23.5169862 35.6808005,23.5781665 L35.6808005,24.9600486 Z M33.507484,24.2773696 C33.0635232,24.0747099 32.776607,23.8777859 32.6115703,23.7057164 L32.6115703,22.659643 C32.6548608,22.6817663 32.7036126,22.7012948 32.7495671,22.7205502 C32.8200307,22.7511403 32.8848999,22.7844617 32.9580275,22.812184 C33.1339868,22.8842893 33.3179381,22.9509321 33.507484,23.0175749 L33.507484,24.2773696 Z M49.6304663,21.1861271 C49.4085525,21.2748931 49.1703881,21.3609279 48.8995894,21.4413636 C48.6668862,21.5108742 48.4152685,21.5802482 48.1580563,21.6438867 L47.835975,21.7188598 L47.7981457,21.7273267 C47.5760987,21.774441 47.3460596,21.8244231 47.1106925,21.8688061 C47.09977,21.8688061 47.0861834,21.8714008 47.0753941,21.8742686 C46.7181475,21.9381801 46.3310638,21.9992239 45.9088149,22.0546685 C45.7898659,22.0740604 45.6706505,22.0878533 45.5326537,22.1017827 C45.2701135,22.1323729 45.0049092,22.1600952 44.7423689,22.1850862 C44.7287823,22.1850862 44.717993,22.1878175 44.7044065,22.1878175 C44.4607808,22.2072095 44.2200856,22.226738 43.9819212,22.2433987 C43.2510443,22.290513 42.50405,22.315504 41.7597197,22.315504 C41.2752657,22.315504 40.7556464,22.3043058 40.1871422,22.2821826 C39.8434822,22.2655219 39.5079475,22.2433987 39.1641543,22.2182711 C38.9936563,22.2044782 38.8284864,22.1905488 38.6526603,22.1738881 C38.3223205,22.1435711 37.9977083,22.1073818 37.680955,22.0657301 C36.3574644,21.8965284 35.2233864,21.6578161 34.3138862,21.3553288 C34.1516467,21.2998842 33.9972661,21.2415717 33.8430187,21.1806646 C33.564361,21.1029602 33.2908982,21.0225245 33.0366165,20.9390845 C31.9647436,20.5840204 31.1825841,20.1815689 30.6114158,19.7681924 C30.5870399,19.8652888 30.5707893,19.9569226 30.5679921,20.0373583 C30.562664,20.0678118 30.56,20.098402 30.56,20.123393 L30.56,23.0369669 C30.56,23.0758874 30.5654613,23.1146713 30.5734534,23.1508605 C30.643917,23.839002 31.244656,24.78238 33.5832756,25.5592875 C35.6482993,26.2446977 38.6256204,26.6388188 41.7515944,26.6388188 C44.2849548,26.6388188 46.7506487,26.3778467 48.6967234,25.9061578 C52.0880349,25.0848672 52.8161146,23.9026404 52.9162822,23.195107 C52.9297355,23.1452614 52.9378608,23.0925481 52.9378608,23.0369669 L52.9378608,20.1123314 C52.9378608,20.0040369 52.9216102,19.8848173 52.8917731,19.7625933 C52.1827412,20.2786653 51.1407055,20.7754819 49.6304663,21.1861271 L49.6304663,21.1861271 Z M51.0675778,3.71287772 C51.0622498,3.72107151 51.0622498,3.7266706 51.0594525,3.73773221 C51.0513272,3.75999199 51.0405379,3.78225178 51.0242873,3.81557318 C51.0107008,3.83482858 50.9945834,3.8543571 50.9728715,3.8876785 C50.9350423,3.94039186 50.8889545,3.99023739 50.8266162,4.04021949 C50.8132961,4.0512811 50.8023735,4.06234271 50.788787,4.07627215 C50.7589498,4.1012632 50.7239178,4.12625424 50.6806273,4.15684438 C50.6426649,4.18456669 50.6020384,4.212289 50.537036,4.25394075 C50.531708,4.25667201 50.5262467,4.2622711 50.5207855,4.26500236 C50.5154574,4.26773362 50.5099961,4.27060145 50.5045349,4.27620053 L50.502004,4.27620053 C50.4749641,4.29272467 50.4532523,4.30938537 50.4234151,4.32604607 C50.3937112,4.34270677 50.36121,4.35936747 50.3287088,4.37875943 C50.3151223,4.38435851 50.3016689,4.3925523 50.2880823,4.40101921 L50.2367997,4.4258737 C50.1636721,4.46493075 50.0960057,4.49811558 50.0256753,4.53143698 C49.9417583,4.5702209 49.8578413,4.60914139 49.7603378,4.64792531 C49.5059228,4.75608329 49.2244679,4.85604748 48.8995894,4.95314385 C48.6668862,5.02265447 48.4152685,5.09475979 48.1580563,5.15566694 L47.835975,5.23064008 L47.7981457,5.24170169 C47.5760987,5.28895253 47.3460596,5.3360668 47.1106925,5.38058637 C47.09977,5.38058637 47.0861834,5.38318107 47.0753941,5.3860489 C46.7181475,5.44982387 46.3310638,5.51100414 45.9088149,5.56918002 C45.7898659,5.58584072 45.6706505,5.59977016 45.5326537,5.61369959 C45.2701135,5.6440166 45.0049092,5.67173891 44.7423689,5.69686653 C44.7287823,5.69686653 44.717993,5.69973435 44.7044065,5.69973435 C44.4607808,5.71898975 44.2200856,5.73851827 43.9819212,5.75517897 C43.2510443,5.80229324 42.50405,5.82728429 41.7597197,5.82728429 C41.2752657,5.82728429 40.7556464,5.81608612 40.1871422,5.79396289 C39.8434822,5.77730219 39.5079475,5.75777367 39.1641543,5.73005136 C38.9936563,5.71625849 38.8284864,5.70232905 38.6526603,5.68580491 C38.3223205,5.65521478 37.9977083,5.61916212 37.680955,5.57751037 C36.3574644,5.40830868 35.2233864,5.16959637 34.3138862,4.86710909 C33.9621009,4.7478895 33.6346914,4.61460391 33.3206022,4.46206292 C33.3152741,4.45646383 33.3071488,4.45373257 33.2990235,4.45086475 C33.2232318,4.41481209 33.1501042,4.3732969 33.0635232,4.32044698 C33.0338192,4.30651754 33.0039821,4.28726215 32.9552303,4.25667201 C32.8984865,4.22048279 32.8497347,4.18729795 32.8009829,4.14837747 C32.7820683,4.13185333 32.7686149,4.12065516 32.7495671,4.10672572 L32.7008154,4.06521054 C32.6764395,4.04308731 32.6493996,4.02082753 32.633149,4.00689809 C32.5709438,3.94858564 32.5249893,3.89314102 32.4896909,3.8376964 C32.4871601,3.83223388 32.4816988,3.82663479 32.4789016,3.82376696 C32.4490644,3.77105361 32.430283,3.72107151 32.4248217,3.67395724 C32.4220245,3.66562689 32.4220245,3.65729654 32.4193605,3.64896619 C32.4220245,3.64063584 32.4220245,3.63230549 32.4220245,3.62397514 C32.432947,3.32435569 33.0635232,2.66939903 35.3560551,2.11454313 C37.1261705,1.68163809 39.3969906,1.4457936 41.7461332,1.4457936 C44.6312788,1.4457936 47.3405984,1.79539515 49.1838415,2.40870006 C50.5804597,2.86919085 51.0785004,3.35754052 51.0810312,3.63503675 C51.0810312,3.66275906 51.0757031,3.68775011 51.0675778,3.71287772 L51.0675778,3.71287772 Z M50.8889545,6.85396572 C50.7265818,7.02589867 50.445127,7.2230958 49.9903769,7.43108141 L49.9903769,6.16582423 C50.2204159,6.08798326 50.4396657,6.00754759 50.6372036,5.92438066 C50.6372036,5.9216494 50.6400008,5.9216494 50.6400008,5.9216494 C50.7292459,5.88559674 50.8078348,5.84940751 50.8889545,5.81349142 L50.8889545,6.85396572 Z M46.5421883,8.34960486 C46.2526081,8.39685569 45.9521054,8.43837088 45.6464078,8.4745601 L45.6464078,7.06208789 C45.6923624,7.05648881 45.7411141,7.05102628 45.7844046,7.0454272 C45.9413161,7.03149776 46.0983607,7.0121058 46.2308963,6.98998258 L46.2444828,6.98998258 C46.3446504,6.97605314 46.4420207,6.95939244 46.5421883,6.94559957 L46.5421883,8.34960486 Z M37.8542502,8.4771548 C37.5456222,8.43837088 37.2479168,8.39685569 36.9555393,8.34960486 L36.9555393,6.94273174 C37.0963334,6.96226026 37.2263381,6.98438349 37.369663,7.00377545 C37.5213795,7.02330397 37.680955,7.04269593 37.8542502,7.06208789 L37.8542502,8.4771548 Z M35.6808005,8.11102911 C35.3640472,8.03878723 35.0664749,7.96395065 34.7822228,7.88064715 L34.7822228,6.53208648 C35.071803,6.60146054 35.3695085,6.66523551 35.6808005,6.72627922 L35.6808005,8.11102911 Z M33.507484,7.42835014 C33.0635232,7.2230958 32.776607,7.0287665 32.6115703,6.85669698 L32.6115703,5.81062359 C32.6548608,5.83274682 32.7036126,5.85227534 32.7495671,5.8716673 C32.8200307,5.90212087 32.8848999,5.93544227 32.9580275,5.96316458 C33.1339868,6.03540646 33.3179381,6.10204926 33.507484,6.16855549 L33.507484,7.42835014 Z M49.9119212,1.07953135 C47.8495615,0.394121124 44.8722404,0 41.7461332,0 C39.2129061,0 36.7472121,0.260835532 34.8012706,0.7325245 C31.2284054,1.60379712 30.6086186,2.86086051 30.5679921,3.55186982 C30.562664,3.57959213 30.56,3.61018227 30.56,3.63503675 L30.56,6.54874718 C30.56,6.5875311 30.5654613,6.62645159 30.5734534,6.66236768 C30.643917,7.35064574 31.244656,8.29416024 33.5832756,9.07106775 C35.6482993,9.75647797 38.6256204,10.1504625 41.7515944,10.1504625 C44.2849548,10.1504625 46.7506487,9.889627 48.6967234,9.41793803 C52.0880349,8.59651095 52.8161146,7.41442071 52.9162822,6.70688726 C52.9297355,6.65690516 52.9378608,6.60432836 52.9378608,6.54874718 L52.9378608,3.62397514 C52.9350636,2.91917295 52.404655,1.90082187 49.9119212,1.07953135 L49.9119212,1.07953135 Z" id="Fill-1"></path>
                                <path d="M44.9561574,3.41598953 C45.7492394,3.53520912 46.1497765,3.71560899 46.1497765,3.95145347 C46.1497765,4.19276048 45.7844046,4.39542013 45.0617862,4.55629146 C44.3985757,4.70350649 43.5082565,4.80060286 42.4120077,4.83938678 L42.4120077,5.13081245 C42.4120077,5.14747315 42.3795066,5.16126602 42.3254267,5.17519546 L42.2307204,5.19458742 C42.1711793,5.20564903 42.0872624,5.21124812 41.9978841,5.21124812 L41.3238843,5.21124812 C41.2319752,5.21124812 41.1480582,5.20564903 41.0885171,5.19185616 L40.9964748,5.17232764 C40.945059,5.16126602 40.9152219,5.14747315 40.9152219,5.13081245 L40.9152219,4.85877874 C39.8272316,4.85058496 38.7420386,4.80060286 37.683619,4.71170028 C37.6079605,4.70623776 37.5537475,4.69503958 37.5185823,4.68124671 L37.4645025,4.65898692 C37.4399934,4.64792531 37.4320013,4.63413244 37.4399934,4.62293426 C37.5537475,4.48705397 37.6132886,4.30938537 37.6240779,4.09293285 C37.6240779,4.07627215 37.6620404,4.05961145 37.7297068,4.04854984 L37.8270771,4.0320257 C37.8867514,4.02082753 37.9624099,4.015365 38.0382016,4.015365 L38.5714074,4.015365 C38.6526603,4.015365 38.725788,4.02082753 38.7878599,4.0320257 L38.8961528,4.0512811 C38.9639524,4.06234271 38.9989844,4.07900341 39.0017816,4.09566411 L39.0044456,4.22608187 C39.0097737,4.27060145 39.0396108,4.31498446 39.0991519,4.35376838 C39.5159396,4.45646383 40.1114837,4.51750754 40.9152219,4.5368995 L40.9152219,3.78785087 C39.7919332,3.74060003 38.988195,3.6766885 38.4657785,3.58792248 C37.7214483,3.46023598 37.3480843,3.28816646 37.3480843,3.07458177 C37.3480843,2.77209449 37.9731992,2.54184909 39.2046476,2.38644028 C39.6892348,2.32539657 40.2630671,2.28374482 40.9152219,2.2642163 L40.9152219,2.14226544 C40.9152219,2.12560474 40.945059,2.11167531 40.9964748,2.10061369 L41.0885171,2.08108517 C41.1480582,2.0672923 41.2319752,2.05896195 41.3238843,2.05896195 L41.9870948,2.05896195 C42.0655505,2.05896195 42.1358809,2.06442447 42.195422,2.07562265 L42.3010508,2.09228335 C42.3715145,2.10348152 42.4120077,2.12273692 42.4120077,2.13939762 L42.4120077,2.25055999 C43.4920059,2.2642163 44.4312101,2.30859931 45.2025803,2.38084119 C45.2701135,2.38644028 45.3215293,2.39750189 45.3540304,2.41129476 L45.4190328,2.43915363 C45.4487367,2.45021525 45.4569952,2.46414468 45.4379474,2.47807412 C45.3648198,2.53898126 45.3027478,2.65000707 45.2566601,2.80541588 L45.2133696,2.95249435 C45.2105724,2.96901849 45.1699459,2.98567918 45.1104048,2.99701392 L45.0075732,3.01353806 C44.9533602,3.02473623 44.8750376,3.03019876 44.7965819,3.03019876 L44.2551176,3.03019876 C44.1739979,3.03019876 44.0955422,3.02473623 44.0360011,3.01353806 L43.9412948,2.9941461 C43.8844177,2.98308449 43.8491193,2.96901849 43.8411272,2.95536217 C43.8220794,2.89145064 43.8140873,2.84979889 43.8140873,2.82207658 C43.8140873,2.74997126 43.7787889,2.71938113 43.7598742,2.70831952 C43.4810834,2.63334637 43.0317946,2.58896336 42.4120077,2.57230266 L42.4120077,3.23558967 C43.5434217,3.27150576 44.374333,3.32995477 44.9561574,3.41598953 Z M43.6786213,4.3899576 C43.9574122,4.32044698 44.0982062,4.23728005 44.0982062,4.14291494 C44.0982062,3.98190704 43.7328343,3.8876785 42.9533388,3.84329549 L42.9533388,4.50084684 C43.2455831,4.47599236 43.4892087,4.43980314 43.6786213,4.3899576 Z M40.9152219,3.18000848 L40.9152219,2.60002497 C40.235894,2.65560616 39.9138126,2.75543379 39.9138126,2.91097917 C39.9138126,3.04685946 40.235894,3.13562547 40.9152219,3.18000848 Z" id="Combined-Shape" opacity="0.800158514"></path>
                                <path d="M58.7625867,25.4684445 C57.7116265,25.310441 55.7989854,26.3246952 55.7989854,26.3246952 L50.5544407,28.6632018 C49.6302883,29.169851 48.7303786,29.6532844 48.6651099,29.6713107 C47.5542089,29.9807627 46.8415806,30.8289561 46.8415806,30.8289561 C46.7925624,32.2650538 46.5382807,33.3964791 45.2674047,34.5299529 C44.6937056,35.0416548 43.8365536,35.4099655 42.9648826,35.6617879 C41.0342593,36.2195116 39.2392352,36.5217258 35.6611751,36.3178371 C33.971247,36.2215601 32.3902778,35.6938802 27.535614,35.1011963 C26.4105937,34.9638139 25.6958341,34.9616288 25.8145167,34.753097 C26.1525823,34.1590475 35.9989742,35.5589559 37.1719471,35.5356036 C40.971921,35.4598111 43.9877373,34.5563095 44.7896107,33.6305483 C45.6157267,32.6765184 45.83138,31.5108157 45.434839,30.7784278 C44.9719636,29.9232696 43.8296271,29.4435234 40.183501,29.1470449 C38.3538445,28.9983277 36.7004136,28.7667167 35.0592373,28.7077214 C34.4437129,28.6855982 33.7172316,28.4963217 32.8955113,28.1753984 C27.6015488,25.5983161 20.7732376,22.7857989 15.4010857,26.7250982 C14.9852305,27.0368718 14.5917531,27.3780065 14.2238504,27.749185 C13.8558145,28.1202269 13.5136197,28.5211762 13.2012621,28.9517597 C12.7587666,29.3936779 12.2031829,29.9064724 11.5223897,30.5087157 C11.1193218,30.8652819 10.5131216,31.3205833 9.76,31.8447125 L17.1476245,43.5197656 C17.6472635,43.157054 18.152497,42.8021264 18.6637246,42.4560755 L19.885982,41.6280934 C20.9414711,40.9133221 22.1881045,40.5534783 23.4521872,40.5989539 L32.5284078,40.9253397 L34.7528737,40.7554552 C36.323986,40.6355528 37.8755177,40.3228233 39.3741684,39.8245045 L41.0361241,39.271697 L45.7373397,37.7267586 C45.7545227,37.7211595 45.7717057,37.7154239 45.7888887,37.7098248 C48.4963435,36.815473 51.030503,35.4426041 53.292665,33.674385 L54.8858888,32.429066 C55.4515958,31.8885493 57.0825156,30.6389969 58.1089667,29.8645475 C58.8382452,29.3143347 59.4259305,28.5863168 59.7988948,27.7403084 C59.9123825,27.4827504 59.9929695,27.2443112 59.9986972,27.0772945 C60.0193434,26.4764168 59.8136802,25.6265846 58.7625867,25.4684445" id="Fill-4"></path>
                                <path d="M11.9132805,45.0639651 C12.7307384,45.0934627 13.370239,45.7966261 13.3416007,46.6345774 C13.3128292,47.4728017 12.6268412,48.1281681 11.8095164,48.0989435 C10.9920585,48.0694459 10.3526911,47.3661459 10.3813294,46.5281947 C10.4101009,45.6901069 11.0958225,45.034604 11.9132805,45.0639651 L11.9132805,45.0639651 Z M0,35.4067685 L10.1908512,51.9961815 L17.0657829,46.3942263 L7.3267514,31.0031546 L0,35.4067685 Z" id="Fill-7" opacity="0.753283514"></path>
                            </g>
                        </g>
                    </g>
                </g>
            </g>
        </g>
    </g>
</svg>