<?xml version="1.0" encoding="UTF-8"?>
<svg width="310px" height="302px" viewBox="0 0 310 302" version="1.1" xmlns="http://www.w3.org/2000/svg" xmlns:xlink="http://www.w3.org/1999/xlink">
    <!-- Generator: Sketch 45.1 (43504) - http://www.bohemiancoding.com/sketch -->
    <title>Page 1</title>
    <desc>Created with Sketch.</desc>
    <defs></defs>
    <g id="Iconsv2" stroke="none" stroke-width="1" fill="none" fill-rule="evenodd">
        <g id="Artboard" transform="translate(-2331.000000, -1688.000000)" fill="#FFFFFF">
            <g id="Group-3" transform="translate(2224.000000, 1598.000000)">
                <g id="Page-1" transform="translate(107.000000, 90.000000)">
                    <path d="M201.349826,202.056585 C201.349826,202.056585 198.790934,195.879058 194.878808,194.221311 C190.965754,192.564492 186.151473,194.069846 186.151473,194.069846 C186.151473,194.069846 186.527371,200.698978 189.085335,201.452585 C191.645156,202.205262 201.349826,202.056585 201.349826,202.056585" id="Fill-1"></path>
                    <path d="M250.555087,160.733971 C250.440925,160.253559 250.292422,159.771288 250.106793,159.289946 C247.816135,167.804488 240.581254,172.218334 235.760476,174.96607 L238.262751,179.865903 C241.075955,178.703436 243.96341,176.60802 246.289338,173.958783 C247.985985,172.028771 249.354069,169.83114 250.136494,167.52386 C250.881793,165.329946 251.098979,163.016162 250.555087,160.733971" id="Fill-3"></path>
                    <path d="M107.037246,26.2259588 L107.037246,32.0847588 C100.003772,31.6368695 96.6884431,30.7578172 96.6884431,29.3751218 C96.6884431,27.8112265 100.003772,26.7909311 107.037246,26.2259588 L107.037246,26.2259588 Z M128.087545,38.7733618 C136.141048,39.2203218 139.929731,40.1978726 139.929731,41.8184511 C139.929731,42.7755588 138.472545,43.6127957 135.594371,44.3041434 C133.625778,44.7929188 131.111437,45.1701865 128.087545,45.4359465 L128.087545,38.7733618 Z M81.710988,36.2040388 C87.103503,37.0905249 95.4131737,37.7539957 107.037246,38.2213988 L107.037246,45.784408 C98.728503,45.5818357 92.5693413,44.975048 88.2692515,43.9278049 C87.6511078,43.5431034 87.3225449,43.1100818 87.2863473,42.6501126 L87.2501497,41.3436142 C87.213024,41.1689188 86.8482635,41.0016572 86.1558683,40.8817865 L85.0263174,40.6801434 C84.4072455,40.5751403 83.6415269,40.5193865 82.8043413,40.5193865 L77.3013772,40.5193865 C76.4994611,40.5193865 75.7337425,40.5751403 75.1146707,40.6801434 L74.0946407,40.8548388 C73.4031737,40.9728511 73.0022156,41.1419711 73.0022156,41.3157372 C72.8926946,43.4938542 72.2726946,45.289128 71.106018,46.6569557 C71.0336228,46.7758972 71.106018,46.9022726 71.3612575,47.0137803 L71.9079341,47.2442295 C72.2726946,47.3836142 72.8555689,47.5025557 73.6203593,47.5583095 C84.5529641,48.4522295 95.7760778,48.9400757 107.037246,49.0246357 L107.037246,51.7825926 C107.037246,51.9368449 107.327754,52.090168 107.874431,52.2016757 L108.822994,52.4051772 C109.442066,52.537128 110.316377,52.6068203 111.264012,52.6068203 L118.224162,52.6068203 C119.134671,52.6068203 120.00991,52.537128 120.628982,52.4116818 L121.612814,52.2165434 C122.159491,52.0976018 122.487126,51.9442788 122.487126,51.7825926 L122.487126,48.8360018 C133.81976,48.4373618 143.03994,47.4737495 149.890569,45.9804757 C157.361198,44.3664018 161.150808,42.3137311 161.150808,39.8837926 C161.150808,37.4956695 156.995509,35.673448 148.797216,34.465448 C142.784701,33.6133434 134.185449,33.0130603 122.487126,32.6422972 L122.487126,25.9536942 C128.901527,26.1144511 133.565449,26.5753495 136.444551,27.3354603 C136.626467,27.4478972 136.990299,27.7619772 136.990299,28.4812018 C136.990299,28.7460326 137.064551,29.186488 137.281737,29.814648 C137.35506,29.9679711 137.71982,30.1157188 138.302695,30.2272265 L139.286527,30.4009926 C139.905599,30.5125003 140.707515,30.5766172 141.545629,30.5766172 L147.158114,30.5766172 C147.959102,30.5766172 148.76009,30.5199342 149.343892,30.4158603 L150.401048,30.2337311 C151.02012,30.128728 151.42015,29.9679711 151.457275,29.8007095 L151.894431,28.3065065 C152.368713,26.7426111 153.023982,25.6312511 153.789701,25.0105249 C153.971617,24.8711403 153.898293,24.7317557 153.571587,24.5988757 L152.915389,24.3266111 C152.586826,24.1937311 152.04015,24.088728 151.347754,24.0264695 C143.367575,23.2933065 133.674042,22.8528511 122.487126,22.7134665 L122.487126,21.5890972 C122.487126,21.406968 122.087096,21.2332018 121.358503,21.1142603 L120.26515,20.9330603 C119.64515,20.8345618 118.916557,20.7862418 118.115569,20.7862418 L111.264012,20.7862418 C110.316377,20.7862418 109.442066,20.863368 108.822994,20.9953188 L107.874431,21.1904572 C107.327754,21.310328 107.037246,21.4562172 107.037246,21.6095403 L107.037246,22.8379834 C100.29521,23.0554234 94.3550898,23.4745065 89.3626048,24.0812942 C76.608982,25.6461188 70.1602395,27.978488 70.1602395,31.022648 C70.1602395,33.1877557 74.0222455,34.9328511 81.710988,36.2040388 L81.710988,36.2040388 Z" id="Fill-5" opacity="0.795629529"></path>
                    <path d="M222.343695,194.22159 C218.430641,195.878408 215.872677,202.056863 215.872677,202.056863 C215.872677,202.056863 225.577347,202.20554 228.13624,201.451934 C230.69606,200.699257 231.07103,194.070125 231.07103,194.070125 C231.07103,194.070125 226.256749,192.564771 222.343695,194.22159" id="Fill-7"></path>
                    <path d="M242.283377,192.787879 C239.063647,205.692107 233.528198,217.143947 226.553198,227.696292 L233.489216,235.221202 L234.755204,236.593676 L234.495323,238.447492 C233.957,242.317738 232.81724,245.625799 231.134515,248.419996 C229.401671,251.294107 227.11194,253.603246 224.325653,255.39759 L223.339964,256.034113 L222.189066,256.034113 L194.470982,256.034113 L193.32194,256.034113 L192.335323,255.39759 C189.549036,253.603246 187.259305,251.294107 185.527389,248.419996 C183.843737,245.625799 182.704904,242.317738 182.166581,238.447492 L181.907629,236.593676 L183.17176,235.221202 L189.826551,228.002009 C182.697479,217.276827 177.048796,205.622415 173.811431,192.458932 C165.614994,194.148273 155.313527,192.633627 149.445802,180.546193 C154.335263,178.391307 159.235862,177.897886 163.700234,178.203602 C163.606491,178.099529 163.514605,177.995455 163.42179,177.891381 C161.244365,175.410335 159.466042,172.526002 158.415383,169.430735 C157.325743,166.221172 157.017599,162.796956 157.834365,159.360661 C158.694754,155.747812 160.779365,152.179566 164.482659,148.918895 L169.39718,151.466846 C168.242569,162.372298 177.06179,167.375276 181.972599,170.159252 C182.652,170.545812 183.263647,170.893344 183.891072,171.280833 L186.217,172.716495 L186.008168,173.124427 L228.16724,173.124427 L227.958407,172.716495 L230.282479,171.280833 C230.909904,170.893344 231.522479,170.545812 232.202808,170.159252 C237.112689,167.375276 245.933766,162.373227 244.778228,151.466846 L249.69182,148.918895 C253.395114,152.179566 255.479725,155.747812 256.340114,159.360661 C257.15688,162.796956 256.848737,166.221172 255.760024,169.430735 C254.708437,172.526002 252.931042,175.410335 250.752689,177.891381 C250.659874,177.995455 250.567988,178.099529 250.473317,178.203602 C254.937689,177.897886 259.839216,178.391307 264.729605,180.546193 C259.311102,191.706255 250.114126,193.853707 242.283377,192.787879 M256.790263,136.146618 C243.193886,125.361966 226.809365,119.398162 209.41224,118.899166 C165.291072,117.631695 128.354665,152.544753 127.08682,196.725959 C126.354515,222.258433 137.417988,246.014218 157.449186,261.901276 C171.044635,272.684999 187.429156,278.648802 204.82721,279.148729 C248.950234,280.413412 285.886641,245.500353 287.153557,201.321935 C287.880293,175.784815 276.814964,152.02903 256.790263,136.146618" id="Fill-9" opacity="0.802366395"></path>
                    <path d="M294.554853,201.530268 C293.170991,249.799161 252.820871,287.941296 204.608446,286.561388 C185.607488,286.014071 167.710093,279.500164 152.849584,267.71473 C130.970452,250.361345 118.884165,224.408859 119.683296,196.517998 C121.069943,148.246318 161.415422,110.098607 209.629704,111.487807 C228.63159,112.034194 246.528985,118.547173 261.389494,130.334465 C283.263057,147.683204 295.350272,173.631973 294.554853,201.530268 M210.064075,96.1638622 C153.322937,94.5358498 106.006171,139.26809 104.380991,196.075684 C102.754883,252.883278 147.432937,300.255462 204.175003,301.883474 C260.917069,303.511487 308.231979,258.779247 309.858087,201.971653 C311.485123,145.16313 266.805213,97.7918745 210.064075,96.1638622" id="Fill-11"></path>
                    <path d="M218.971934,242.436308 C217.272503,244.475969 212.17885,245.157095 212.17885,245.157095 C212.17885,245.157095 210.98897,242.521797 213.876425,239.118954 C216.762952,235.717969 218.802084,236.228117 218.802084,236.228117 C218.802084,236.228117 220.671365,240.395717 218.971934,242.436308 L218.971934,242.436308 Z M204.622832,245.157095 C204.622832,245.157095 199.528251,244.475969 197.829749,242.436308 C196.130317,240.395717 197.997743,236.228117 197.997743,236.228117 C197.997743,236.228117 200.037802,235.717969 202.925257,239.118954 C205.811784,242.521797 204.622832,245.157095 204.622832,245.157095 L204.622832,245.157095 Z M195.10379,233.960794 L190.321066,239.151477 C190.755437,241.137243 191.425557,242.854462 192.311006,244.325434 C193.208521,245.816849 194.346425,247.066665 195.700587,248.094394 L220.961874,248.094394 C222.316036,247.066665 223.453012,245.816849 224.349599,244.325434 C225.235976,242.854462 225.907024,241.137243 226.340467,239.151477 L221.557743,233.960794 L195.10379,233.960794 Z" id="Fill-13"></path>
                    <path d="M75.3769641,251.978207 C72.2045689,251.601868 69.1175629,251.178139 66.1048084,250.714453 L66.1048084,236.490718 C67.542503,236.690502 68.9105868,236.920951 70.384479,237.104939 C71.9539701,237.315874 73.6042096,237.513801 75.3769641,237.706151 L75.3769641,251.978207 Z M52.9205269,251.934533 C49.6599581,251.223671 46.5840898,250.446834 43.6474431,249.621678 L43.6474431,235.989862 C46.6193593,236.697936 49.7063653,237.360478 52.9205269,237.974699 L52.9205269,251.934533 Z M30.4631617,245.04057 C25.8716347,242.988828 22.9080719,241.004921 21.191006,239.270976 L21.191006,228.723278 C21.6597186,228.929567 22.1367844,229.132139 22.6147784,229.334711 C23.3405868,229.641358 24.0246287,229.966588 24.7717844,230.261154 C26.603012,230.985954 28.5131317,231.667081 30.4631617,232.32033 L30.4631617,245.04057 Z M97.8334012,253.817154 C94.6972036,253.663831 91.6120539,253.470551 88.5612455,253.239173 L88.5612455,238.856539 C91.5248084,239.07305 94.5004371,239.258896 97.5707365,239.409431 C95.7868443,234.576502 94.2934611,229.608834 93.1546287,224.507358 C91.7522036,224.427444 90.353491,224.35961 88.9417844,224.249031 C87.1801677,224.117081 85.4593892,223.982342 83.6448683,223.807647 C80.2190898,223.501001 76.8833413,223.131167 73.606994,222.725093 C59.9242994,221.019025 48.2074132,218.601167 38.8062455,215.545856 C37.1253772,214.995751 35.5104072,214.402902 33.926994,213.781247 C31.0367545,213.008127 28.230976,212.203413 25.5857665,211.344804 C14.5037305,207.753327 6.42516766,203.695376 0.526814371,199.521271 C0.262293413,200.502539 0.117502994,201.423407 0.0645988024,202.257856 C0.0228323353,202.564502 -0.000371257485,202.860927 -0.000371257485,203.120182 L-0.000371257485,232.528478 C-0.000371257485,232.920613 0.0423233533,233.305314 0.121215569,233.683511 C0.870227545,240.613714 7.08229341,250.145764 31.2353772,257.973604 C52.1111856,264.748625 82.0196886,268.684847 113.570078,268.854896 C107.056365,260.126631 101.730677,250.47657 97.8334012,240.137948 L97.8334012,253.817154 Z" id="Fill-15"></path>
                    <path d="M21.1911916,172.030815 C21.6599042,172.238034 22.1369701,172.440606 22.6149641,172.642249 C23.3398443,172.948895 24.0248144,173.274126 24.7710419,173.568692 C26.6031976,174.294422 28.5133174,174.975548 30.4633473,175.628797 L30.4633473,188.349966 C25.8718204,186.298225 22.9082575,184.313388 21.1911916,182.579443 L21.1911916,172.030815 Z M43.6476287,179.2974 C46.6186168,180.005474 49.7065509,180.668015 52.9207126,181.283166 L52.9207126,195.242071 C49.6601437,194.532138 46.5833473,193.755302 43.6476287,192.929215 L43.6476287,179.2974 Z M66.104994,179.798255 C67.5417605,179.998969 68.9107725,180.229418 70.3846647,180.413406 C71.9541557,180.624342 73.6043952,180.822268 75.3771497,181.014618 L75.3771497,195.286674 C72.2047545,194.909406 69.1177485,194.486606 66.104994,194.021991 L66.104994,179.798255 Z M31.2355629,201.282071 C47.0446347,206.412354 68.0670898,209.885818 91.027509,211.359578 C90.5188862,206.535942 90.2942754,201.632391 90.3954431,196.661935 C89.7847246,196.622908 89.1647246,196.593172 88.5614311,196.54764 L88.5614311,182.164077 C89.5499042,182.236557 90.5662216,182.286735 91.5621198,182.350852 C92.2591557,177.453806 93.2346347,172.626452 94.5312515,167.900385 C92.6721796,167.789806 90.8149641,167.704317 88.9419701,167.557498 C87.1803533,167.425548 85.4595749,167.28988 83.6450539,167.116114 C80.2192754,166.809468 76.8835269,166.438705 73.6071796,166.032631 C59.9235569,164.327492 48.2066707,161.908705 38.8064311,158.853394 C37.1255629,158.305148 35.5105928,157.711369 33.9271796,157.089714 C31.036012,156.316594 28.2311617,155.51188 25.585024,154.653271 C14.5039162,151.061794 6.42535329,147.002914 0.527,142.828809 C0.262479042,143.811006 0.117688623,144.731874 0.0647844311,145.567252 C0.0230179641,145.872969 -0.000185628743,146.168465 -0.000185628743,146.42772 L-0.000185628743,175.836945 C-0.000185628743,176.22908 0.042508982,176.613782 0.121401198,176.991049 C0.86948503,183.921252 7.08247904,193.45516 31.2355629,201.282071 L31.2355629,201.282071 Z" id="Fill-18"></path>
                    <path d="M21.1911916,115.338632 C21.6599042,115.54585 22.1369701,115.748423 22.6149641,115.950995 C23.3398443,116.256712 24.0248144,116.581943 24.7710419,116.877438 C26.6031976,117.602238 28.5133174,118.283364 30.4633473,118.936614 L30.4633473,131.657783 C25.8718204,129.606041 22.9082575,127.622134 21.1911916,125.888189 L21.1911916,115.338632 Z M43.6476287,122.605217 C46.6186168,123.31329 49.7065509,123.975832 52.9207126,124.590983 L52.9207126,138.550817 C49.6601437,137.839955 46.5833473,137.063118 43.6476287,136.237032 L43.6476287,122.605217 Z M66.104994,123.107001 C67.5417605,123.307715 68.9107725,123.538164 70.3846647,123.721223 C71.9541557,123.932158 73.6043952,124.130084 75.3771497,124.322435 L75.3771497,138.59449 C72.2047545,138.218152 69.1177485,137.794423 66.104994,137.329807 L66.104994,123.107001 Z M88.5614311,125.471894 C91.6113114,125.695838 94.6686168,125.88726 97.8335868,126.040583 L97.8335868,140.433438 C94.6973892,140.281044 91.6122395,140.086835 88.5614311,139.856386 L88.5614311,125.471894 Z M31.2355629,144.589887 C48.8368802,150.302798 72.8674491,153.992774 98.8814611,155.113426 C102.081701,147.197309 106.129335,139.636158 111.018796,132.574934 L111.018796,126.388115 C112.553946,126.4067 114.121581,126.434577 115.603826,126.436435 C118.677838,122.56433 121.995952,118.852054 125.586012,115.347924 C122.319874,115.43806 119.045383,115.49846 115.77182,115.49846 C110.756132,115.49846 105.394246,115.384164 99.4940359,115.161149 C95.9652335,114.992958 92.4772695,114.790386 88.9419701,114.511617 C87.1803533,114.380595 85.4595749,114.244927 83.6450539,114.070232 C80.2192754,113.764515 76.8835269,113.393752 73.6071796,112.988607 C59.9235569,111.28254 48.2066707,108.863752 38.8064311,105.808441 C37.1255629,105.258337 35.5105928,104.666417 33.9271796,104.044761 C31.036012,103.271641 28.2311617,102.465998 25.585024,101.608318 C14.199485,97.9183428 5.95849701,93.7368043 0.0220898204,89.4409705 C0.0174491018,89.5376105 -0.000185628743,89.6472597 -0.000185628743,89.7364658 L-0.000185628743,119.14569 C-0.000185628743,119.537826 0.042508982,119.921598 0.121401198,120.299795 C0.86948503,127.229069 7.08247904,136.762977 31.2355629,144.589887 L31.2355629,144.589887 Z" id="Fill-21"></path>
                    <path d="M19.2424611,36.5600271 C19.3621916,33.5474609 25.8824012,26.948064 49.5519222,21.3215717 C67.866982,16.9764886 91.3258144,14.5874363 115.609766,14.5874363 C145.440305,14.5874363 173.460036,18.1268763 192.508329,24.3155532 C206.945605,28.9635655 212.090305,33.8708332 212.109796,36.6919778 C212.109796,36.974464 212.051323,37.2114178 211.956653,37.4688148 C211.92788,37.5533748 211.913958,37.6212086 211.872192,37.7243532 C211.795156,37.9343594 211.703269,38.1592332 211.513928,38.4937563 C211.389557,38.7084086 211.223419,38.9063348 210.986743,39.2232025 C210.588569,39.7723778 210.110575,40.2667286 209.485006,40.779664 L209.486862,40.779664 C209.352281,40.8902425 209.219557,41.0036086 209.093329,41.1253378 C208.766623,41.3808763 208.404647,41.6522117 207.97306,41.9588578 C207.578599,42.2432025 207.151653,42.5173255 206.476892,42.941984 C206.435126,42.9670732 206.376653,43.0061009 206.31818,43.0414117 C206.266204,43.0730055 206.214228,43.1092455 206.161323,43.1408394 C206.151114,43.147344 206.141832,43.1547778 206.130695,43.1612825 C205.852251,43.3294732 205.605365,43.4920886 205.299078,43.6658548 C205.003,43.8303286 204.679078,44.0040948 204.331024,44.1852948 C204.195515,44.258704 204.044228,44.3339717 203.905006,44.4083102 L203.383389,44.6722117 C202.636234,45.0578425 201.924347,45.4007286 201.20782,45.7315348 C200.339078,46.1227409 199.47776,46.5139471 198.467012,46.916304 C195.840365,48.0053625 192.908359,49.0200825 189.56797,49.9836948 C187.141802,50.6926978 184.555066,51.4054178 181.895006,52.026144 L178.572251,52.8020517 L178.183359,52.8893994 C175.875994,53.3660948 173.496234,53.8427902 171.069138,54.2906794 C170.949407,54.309264 170.830605,54.3269194 170.710874,54.3482917 C167.007581,55.0043286 163.007281,55.6157625 158.648719,56.1928148 C157.414287,56.3740148 156.176144,56.5273378 154.770934,56.6630055 C152.031982,56.9612886 149.299527,57.2549255 146.599557,57.4872332 C146.461263,57.4993132 146.335036,57.5123225 146.195814,57.5244025 C143.672192,57.7260455 141.188479,57.9276886 138.718689,58.0949502 C131.180305,58.5688578 123.459078,58.8067409 115.772192,58.8067409 C110.756503,58.8067409 105.393689,58.6924455 99.4944072,58.4685009 C95.9646766,58.3012394 92.4767126,58.0986671 88.9423413,57.8208271 C87.1797964,57.6879471 85.4599461,57.5532086 83.6454251,57.3785132 C80.2187186,57.0727963 76.8838982,56.7029625 73.6066228,56.2959594 C59.9239281,54.5898917 48.2070419,52.1729625 38.8058743,49.1167225 C35.161982,47.9254486 31.7696168,46.5734178 28.5350359,45.0206732 C28.4617126,44.9844332 28.3883892,44.9454055 28.3132096,44.9100948 C27.5270719,44.5449071 26.7669222,44.1416209 25.868479,43.6147471 C25.5659042,43.4502732 25.2661138,43.2616394 24.7547066,42.9522055 C24.1755449,42.5963102 23.6492874,42.2506363 23.1564431,41.854784 C22.9643174,41.7023902 22.8232395,41.5992455 22.6181198,41.4570732 L22.1234192,41.0370609 C21.8635389,40.8056825 21.5934491,40.5733748 21.4282395,40.4488578 C20.7887485,39.8550794 20.3107545,39.2854609 19.945994,38.7334978 C19.9125808,38.6823902 19.8652455,38.629424 19.8336886,38.5783163 C19.5088383,38.0542302 19.3315629,37.5552332 19.2619521,37.0748209 C19.2508144,36.9930486 19.2276108,36.9103471 19.2229701,36.8313625 C19.2303952,36.7402978 19.2387485,36.6501625 19.2424611,36.5600271 L19.2424611,36.5600271 Z M210.118,69.1834609 C208.448269,70.8969625 205.525545,72.9078178 200.845844,75.002304 L200.845844,62.2142302 C203.207042,61.4346055 205.481922,60.6261748 207.520126,59.7787163 C207.53312,59.7731409 207.547042,59.7666363 207.559108,59.7610609 C208.464976,59.4023778 209.271533,59.0288271 210.118,58.6589932 L210.118,69.1834609 Z M187.661563,79.592704 C185.809916,80.1065686 183.875665,80.6176455 181.757641,81.1175717 C180.671713,81.3758978 179.510605,81.6035594 178.389407,81.8470178 L178.389407,67.9122732 C180.082341,67.5833255 181.773419,67.2645994 183.482132,66.9124209 L187.443449,66.0259348 C187.516772,66.0082794 187.58824,65.9878363 187.661563,65.9701809 L187.661563,79.592704 Z M165.205126,84.2834609 C162.193299,84.7471471 159.095156,85.1634425 155.932042,85.5397809 L155.932042,71.2760886 C156.402611,71.2221932 156.91309,71.1738732 157.365096,71.1181194 C158.990275,70.9592209 160.611743,70.7585071 161.980754,70.556864 C162.019737,70.5503594 162.068,70.5466425 162.106982,70.5410671 C163.162281,70.4016825 164.170246,70.2474302 165.205126,70.1024702 L165.205126,84.2834609 Z M142.74776,86.8416332 C139.696024,87.0739409 136.603449,87.2681502 133.475605,87.4214732 L133.475605,72.9514917 C135.717072,72.8511348 137.984527,72.7777255 140.18794,72.6383409 C140.236204,72.6355532 140.285395,72.6318363 140.334587,72.6281194 L140.355934,72.6281194 C140.368928,72.6271902 140.381922,72.6262609 140.393988,72.6253317 C141.184766,72.5816578 141.964407,72.5240455 142.74776,72.4710794 L142.74776,86.8416332 Z M120.291323,87.7996702 C118.757102,87.8182548 117.230305,87.855424 115.687731,87.855424 C114.11824,87.855424 112.578449,87.8061748 111.019168,87.7866609 L111.019168,73.3426978 C112.610006,73.3612825 114.242611,73.3938055 115.772192,73.3938055 C117.280425,73.3938055 118.782162,73.3408394 120.291323,73.323184 L120.291323,87.7996702 Z M97.8339581,87.3880209 C94.6977605,87.2356271 91.6126108,87.0423471 88.5618024,86.8100394 L88.5618024,72.4274055 C91.6116826,72.6513502 94.668988,72.8418425 97.8339581,72.9951655 L97.8339581,87.3880209 Z M75.3765928,85.5500025 C72.2051257,85.1727348 69.1171916,84.7490055 66.1044371,84.2853194 L66.1044371,70.0625132 C67.5421317,70.2622978 68.9111437,70.4927471 70.3850359,70.6767348 C71.9545269,70.8858117 73.6038383,71.0846671 75.3765928,71.2770178 L75.3765928,85.5500025 Z M52.9201557,81.8590978 C49.6595868,81.1482363 46.5837186,80.3704702 43.648,79.5462425 L43.648,65.9144271 C46.618988,66.6225009 49.705994,67.2841132 52.9201557,67.899264 L52.9201557,81.8590978 Z M30.4637186,74.966064 C25.8721916,72.9133932 22.9077006,70.9294855 21.1915629,69.1955409 L21.1915629,58.6478425 C21.6593473,58.8541317 22.1364132,59.056704 22.6153353,59.2592763 C23.3402156,59.5659225 24.0242575,59.890224 24.7714132,60.1857194 C26.6035689,60.9105194 28.5127605,61.5916455 30.4637186,62.245824 L30.4637186,74.966064 Z M31.2359341,91.5453994 C52.5776707,98.4718855 83.3595569,102.442489 115.687731,102.442489 C124.880994,102.442489 133.957311,102.084735 142.777461,101.456575 C161.719018,88.8887286 183.917431,82.1164948 207.063479,82.1164948 L207.06812,82.1164948 L207.069976,82.1164948 C208.199527,82.1164948 209.32815,82.1322917 210.464198,82.1648148 C213.463958,82.2512332 216.434946,82.4835409 219.390156,82.7920455 C227.826054,77.2473255 230.492611,71.7137563 231.081982,67.6846117 C231.229557,67.1753932 231.309377,66.6448025 231.309377,66.1002732 L231.309377,36.6919778 C231.309377,36.6761809 231.303808,36.6613132 231.303808,36.6464455 C231.303808,36.6232148 231.309377,36.6037009 231.309377,36.5804702 C231.261114,29.4449071 225.78785,19.192704 200.029078,10.893744 C178.70776,3.97097477 147.93794,0.000371692308 115.609766,0.000371692308 C89.4388982,0.000371692308 63.9483593,2.62451938 43.8243473,7.39704862 C6.89536527,16.1754917 0.499526946,28.856704 0.0651556886,35.8296517 C0.0233892216,36.1362978 0.000185628743,36.4317932 0.000185628743,36.6919778 L0.000185628743,66.1002732 C0.000185628743,66.4924086 0.0419520958,66.8771102 0.120844311,67.2543778 C0.869856287,74.1836517 7.08192216,83.7175594 31.2359341,91.5453994 L31.2359341,91.5453994 Z" id="Fill-24"></path>
                    <path d="M164.068243,159.290132 C163.882614,159.771474 163.733183,160.253745 163.619021,160.734157 C163.076057,163.016348 163.293243,165.330132 164.037614,167.523117 C164.820967,169.831326 166.188123,172.028957 167.883841,173.958969 C170.210698,176.608206 173.098153,178.703622 175.911356,179.866089 L178.41456,174.966255 C173.593781,172.21852 166.358901,167.804674 164.068243,159.290132" id="Fill-26"></path>
                </g>
            </g>
        </g>
    </g>
</svg>