<?xml version="1.0" encoding="UTF-8"?>
<svg width="354px" height="333px" viewBox="0 0 354 333" version="1.1" xmlns="http://www.w3.org/2000/svg" xmlns:xlink="http://www.w3.org/1999/xlink">
    <defs></defs>
    <g id="CLASSIC-BEARS" stroke="none" stroke-width="1" fill="#FFFFFF" fill-rule="evenodd">
                <path d="M200.675146,154.350798 C192.378393,154.839479 188.1948,162.154396 177.307887,165.359077 C176.696561,165.539257 176.267304,166.01996 176.157664,166.647598 C176.048689,167.276567 176.288568,167.872292 176.802879,168.249274 C179.548528,170.261175 184.370027,170.463961 187.392102,173.763719 C187.888472,174.307584 188.656616,174.452526 189.317778,174.128069 C195.663604,171.008491 201.287136,163.645038 202.389516,156.225736 C202.464603,155.721099 202.322403,155.255689 201.978864,154.880036 C201.633997,154.503054 201.184141,154.319549 200.675146,154.350798 M345.453676,225.069865 C345.325431,224.512037 345.148013,224.529989 345.080236,225.091805 C343.292773,239.599968 335.368796,258.735637 319.290931,265.805882 C318.777949,266.036592 318.653026,265.853088 319.000551,265.407624 C333.457074,246.801857 330.898145,194.348808 287.934576,186.370349 C287.389034,186.265964 287.349165,186.395614 287.840883,186.666882 C311.055976,199.534806 324.471916,266.366369 269.121028,280.123227 C275.402399,271.693985 272.794298,260.475606 268.627316,255.647309 C268.260521,255.220461 267.90037,255.364738 267.851863,255.92456 C266.41259,269.681418 248.894122,292.404735 220.066795,286.129012 C219.519924,286.022632 219.365099,286.252678 219.745184,286.660909 C235.688824,303.665 274.359159,308.759246 301.878781,299.378573 C327.484024,290.656787 355.43091,265.512009 345.453676,225.069865 M82.5510794,197.635268 C100.656951,193.405355 99.7233503,191.547039 116.347422,182.938947 C123.829516,179.062081 131.182701,176.058856 144.170049,171.79171 C144.766091,171.600227 145.517623,171.040405 145.863819,170.541751 C154.605112,157.745633 155.015099,145.912248 167.639638,133.413992 C169.879615,131.195316 172.475756,128.944725 175.550326,126.569139 C181.724715,121.79935 191.260731,117.742969 196.022426,115.677878 C200.38676,113.792967 217.984965,106.230052 231.120493,101.726212 C235.698791,88.1714752 243.93574,80.7927303 252.193952,77.7622456 C272.588972,70.2817754 292.566697,87.965365 284.220108,105.421569 C294.903024,100.204321 301.943236,110.069686 314.212277,113.302291 C327.464089,116.804835 344.109424,110.443344 341.321248,99.8413013 C341.167087,99.2442466 341.377729,99.0899964 341.839545,99.4949032 C347.647804,104.863741 347.764088,114.638683 342.839594,122.395075 C372.217115,118.681767 390.623334,153.193922 404.849281,136.447801 C405.212089,136.019624 405.724407,135.816173 406.281909,135.879336 C406.842069,135.944493 407.293254,136.257648 407.549081,136.756966 C414.942799,151.149442 405.968937,165.593112 395.943196,167.190798 C439.599822,214.506385 425.294137,274.623409 409.365117,293.098196 C408.905294,293.630758 408.192966,293.808943 407.536456,293.554298 C406.879281,293.300317 406.473281,292.68797 406.491886,291.983206 C406.822799,279.865921 404.002063,264.557253 393.343733,247.804484 C405.132351,348.869619 327.358436,367.689474 313.703946,367.325124 C316.664889,360.318708 306.336807,338.556131 291.221116,337.823442 C308.798058,362.802003 301.12592,385.277987 286.796978,397.574122 C273.007598,409.389555 253.063762,411.795725 243.487213,405.927569 C242.946987,405.618404 243.044002,405.329849 243.659314,405.272005 C250.889569,404.617772 266.14148,397.68981 266.14148,372.866164 C266.14148,336.341444 223.388552,323.428973 209.753997,309.035168 C211.035787,313.576905 211.768713,320.371893 206.202992,324.710845 C205.7033,325.10046 205.072039,325.170271 204.501247,324.900998 C203.927797,324.631725 203.581601,324.095174 203.564989,323.461551 C202.727074,290.298421 140.322684,287.029248 122.228109,279.802094 C111.775769,275.628695 103.93751,268.384919 103.93751,261.08064 C87.3386896,261.08064 76.2996099,236.007002 76.2996099,226.405592 C71.9146772,217.150579 64.4837479,202.728185 82.5510794,197.635268" id="Fill-1"></path>
    </g>
</svg>