<?xml version="1.0" encoding="UTF-8"?>
<svg width="107px" height="123px" viewBox="0 0 107 123" version="1.1" xmlns="http://www.w3.org/2000/svg" xmlns:xlink="http://www.w3.org/1999/xlink">
    <defs></defs>
    <g id="Comps" stroke="none" stroke-width="1"  fill="#FFFFFF" fill-rule="evenodd">
        <g id="Home-v4_News-popup">
            <g id="Page-1">
                <polygon id="Fill-1" points="21.9451892 46.2932974 19.4634882 46.2932974 19.4634882 54.254654 16.3459706 54.254654 16.3459706 81.0328575 19.4634882 81.0328575 19.4634882 86.9279757 21.9451892 86.9279757 21.9451892 81.0328575 25.0616314 81.0328575 25.0616314 54.254654 21.9451892 54.254654"></polygon>
                <polygon id="Fill-2" opacity="0.792119565" points="38.2903533 20.7243696 35.8078457 20.7243696 35.8078457 29.9369888 32.6914035 29.9369888 32.6914035 57.625177 35.8078457 57.625177 35.8078457 67.7445512 38.2903533 67.7445512 38.2903533 57.625177 41.4070643 57.625177 41.4070643 29.9369888 38.2903533 29.9369888"></polygon>
                <polygon id="Fill-3" points="52.1532249 0 52.1532249 8.12069147 49.0367827 8.12069147 49.0367827 35.4371882 52.1532249 35.4371882 52.1532249 41.4504617 54.6354636 41.4504617 54.6354636 35.4371882 57.7527123 35.4371882 57.7527123 8.12069147 54.6354636 8.12069147 54.6354636 0"></polygon>
                <polygon id="Fill-4" opacity="0.797214674" points="70.9811653 16.8149074 68.4991955 16.8149074 68.4991955 28.7986602 65.3816779 28.7986602 65.3816779 46.609437 68.4991955 46.609437 68.4991955 59.6495902 70.9811653 59.6495902 70.9811653 46.609437 74.0986829 46.609437 74.0986829 28.7986602 70.9811653 28.7986602"></polygon>
                <polygon id="Fill-5" points="87.576005 39.9820247 85.0934975 39.9820247 85.0934975 56.8957359 81.9765176 56.8957359 81.9765176 79.6873398 85.0934975 79.6873398 85.0934975 87.203528 87.576005 87.203528 87.576005 79.6873398 90.6924472 79.6873398 90.6924472 56.8957359 87.576005 56.8957359"></polygon>
                <polygon id="Fill-6" opacity="0.797214674" points="101.190249 28.801863 101.190249 34.6547252 98.0735384 34.6547252 98.0735384 51.2050884 101.190249 51.2050884 101.190249 58.6741759 103.672219 58.6741759 103.672219 51.2050884 106.788393 51.2050884 106.788393 34.6547252 103.672219 34.6547252 103.672219 28.801863"></polygon>
                <polygon id="Fill-7" opacity="0.797214674" points="3.11716809 69.8366816 3.11716809 76.9814475 -8.06532663e-05 76.9814475 -8.06532663e-05 91.5568129 3.11716809 91.5568129 3.11716809 104.597235 5.59940678 104.597235 5.59940678 91.5568129 8.71665553 91.5568129 8.71665553 76.9814475 5.59940678 76.9814475 5.59940678 69.8366816"></polygon>
                <polygon id="Fill-8" opacity="0.791836504" points="78.0501553 111.15763 94.8198513 111.15763 86.4348688 99.1415796"></polygon>
                <path d="M86.3344286,118.785056 C79.906901,118.785056 74.6776121,113.549886 74.6776121,107.115129 C74.6776121,100.680102 79.906901,95.4449317 86.3344286,95.4449317 C92.7622251,95.4449317 97.9915141,100.680102 97.9915141,107.115129 C97.9915141,113.549886 92.7622251,118.785056 86.3344286,118.785056 M86.3344286,91.4209208 C77.6905492,91.4209208 70.6578533,98.4612578 70.6578533,107.115129 C70.6578533,115.76873 77.6905492,122.809067 86.3344286,122.809067 C94.9785769,122.809067 102.011273,115.76873 102.011273,107.115129 C102.011273,98.4612578 94.9785769,91.4209208 86.3344286,91.4209208" id="Fill-9"></path>
            </g>
        </g>
    </g>
</svg>