<?xml version="1.0" encoding="UTF-8"?>
<svg width="51px" height="55px" viewBox="0 0 51 55" version="1.1" xmlns="http://www.w3.org/2000/svg" xmlns:xlink="http://www.w3.org/1999/xlink">
    <!-- Generator: Sketch 46.1 (44463) - http://www.bohemiancoding.com/sketch -->
    <title>Page 1</title>
    <desc>Created with Sketch.</desc>
    <defs>
        <linearGradient x1="60.6510103%" y1="121.164047%" x2="60.6510081%" y2="3.17053298%" id="linearGradient-1">
            <stop stop-color="#6F7689" offset="0%"></stop>
            <stop stop-color="#313540" offset="100%"></stop>
        </linearGradient>
    </defs>
    <g id="Comps" stroke="none" stroke-width="1" fill="none" fill-rule="evenodd" opacity="0.32274683">
        <g id="V2-Home" transform="translate(-237.000000, -1098.000000)" fill="url(#linearGradient-1)">
            <g id="Group-39" transform="translate(191.000000, 680.000000)">
                <g id="Group-33" transform="translate(12.000000, 77.000000)">
                    <g transform="translate(-1.000000, 0.000000)" id="Group-28">
                        <g transform="translate(0.000000, 328.000000)">
                            <g id="Page-1" transform="translate(35.000000, 13.000000)">
                                <polygon id="Fill-1" points="0 43.5180477 31.1350769 54.8727554 31.1350769 46.0923862 0 36.1910323"></polygon>
                                <polygon id="Fill-3" points="22.7162354 0.169146154 16.1786815 1.28539231 45.2618354 4.35997692 50.7691123 2.8523"></polygon>
                                <path d="M43.6155923,12.1462338 L17.8251615,8.32364923 L17.8251615,4.21269538 L43.6155923,6.93900308 L43.6155923,12.1462338 Z M16.1787154,2.38314154 L16.1787154,9.74383385 L45.2620385,14.05448 L45.2620385,5.45738769 L16.1787154,2.38314154 Z" id="Fill-4" opacity="0.79908288"></path>
                                <polygon id="Fill-5" points="20.8229831 41.7108831 26.2491985 38.6716677 27.17726 38.9426062 21.7754138 42.0138062"></polygon>
                                <polygon id="Fill-6" points="12.5863692 39.0916985 18.1850308 36.3169908 19.0340615 36.5649138 13.4536769 39.3675446"></polygon>
                                <polygon id="Fill-7" points="5.37918615 36.7999754 11.1288015 34.2567754 11.9087862 34.48456 6.17220154 37.0521292"></polygon>
                                <path d="M37.8455508,19.6021354 C37.0291815,20.9107969 35.4230123,21.9651046 34.4235354,21.3858277 C33.1180892,20.6288585 34.1894892,17.8754738 36.48172,17.2037969 C37.8416585,16.8054277 39.0487815,17.5415815 37.8455508,19.6021354 M34.6261046,26.2478277 C34.0820277,27.7478892 32.92872,28.7326431 32.0008277,28.4896277 C30.3736738,28.0635046 30.5437508,24.5871662 32.7325815,23.4614431 C34.0659508,22.77572 35.4797046,23.6633354 34.6261046,26.2478277 M32.7363046,33.8506892 C32.52392,35.3570123 31.7617046,36.3236585 30.88272,36.2013046 C29.1912585,35.9662431 28.4743969,32.3487662 30.2648585,30.8383815 C31.4355969,29.8510892 33.0751046,30.8503969 32.7363046,33.8506892 M27.58932,27.3349662 C26.0318892,26.92712 26.2256585,23.5384431 28.3354585,22.4313354 C29.6148431,21.7599969 30.9559969,22.6190123 30.1161046,25.1361508 C29.5727046,26.6247046 28.4864123,27.5698585 27.58932,27.3349662 M28.2708123,32.5604738 C28.0665508,34.0326123 27.3400431,34.9818277 26.5042123,34.8689508 C24.8836585,34.6501354 24.20132,31.1223508 25.9190123,29.6361662 C27.0359354,28.6696892 28.5974277,29.6365046 28.2708123,32.5604738 M23.37852,26.2327662 C21.8867508,25.8420123 22.1023508,22.5369354 24.1376892,21.4481046 C25.3664738,20.7908123 26.6394277,21.6230892 25.8134123,24.0757508 C25.2794892,25.5291046 24.2327969,26.4564892 23.37852,26.2327662 M24.0105969,31.3294892 C23.8137815,32.7689662 23.1204431,33.7014277 22.3250585,33.5973508 C20.7705046,33.3935969 20.1206585,29.9509354 21.7706585,28.4881046 C22.8627046,27.5201046 24.33112,28.42752 24.0105969,31.3294892 M19.3553969,25.1798123 C17.9248892,24.8051354 18.1597815,21.5792585 20.1252277,20.5081969 C21.33472,19.8488738 22.5303354,20.6313969 21.7039815,23.0629046 C21.1791969,24.48292 20.1695662,25.3930431 19.3553969,25.1798123 M19.9417815,30.1538431 C19.7519046,31.5620123 19.0897046,32.4783969 18.3315508,32.3821046 C16.7932431,32.1868123 16.1975508,28.5497046 17.95112,27.2716738 C18.9597354,26.5367046 20.2399662,27.4231354 19.9417815,30.1538431 M23.9156585,14.6318277 C25.0105815,14.3825508 25.9235815,15.0257969 24.7892277,16.88192 C24.0029815,18.0949662 22.5374431,19.0854738 21.69112,18.5672892 C20.5046431,17.8409508 21.7471354,15.1256431 23.9156585,14.6318277 M27.9851508,15.4333046 C29.1235662,15.1801354 30.0895354,15.84352 28.9426585,17.7473662 C28.1464277,18.9907046 26.63672,20.0016892 25.7430123,19.4643815 C24.4969662,18.7148585 25.7399662,15.9325354 27.9851508,15.4333046 M32.2414738,16.2713354 C33.4260892,16.0146123 34.4495969,16.69932 33.2901969,18.6530892 C32.4838123,19.9282431 30.9272277,20.9603815 29.9825815,20.4027662 C28.6713815,19.6287046 29.9133662,16.7759815 32.2414738,16.2713354 M45.26192,15.1522123 L16.1787662,10.8413969 C10.7782738,13.9758892 5.69695077,21.7004277 5.69695077,30.1128892 C5.69695077,31.0258892 5.75770462,31.8948892 5.87244308,32.7173508 L36.3470123,41.6141508 C36.2459815,40.6481815 36.1925046,39.6214585 36.1925046,38.5375354 C36.1925046,28.5476738 40.6266892,19.1001969 45.26192,15.1522123 M0,35.0936046 L31.1350769,44.9947892 L36.3468769,41.6142354 L5.87247692,32.7172662 L0,35.0936046 Z M2.42406154,35.0005277 L5.91630769,33.58762 L34.3919231,41.9010815 L31.0135692,44.0922815 L2.42406154,35.0005277 Z" id="Fill-8"></path>
                                <path d="M47.2224923,37.7694985 C46.9342923,37.6952062 46.6664,37.5335908 46.4401385,37.3157908 C46.1428,37.0297908 45.793,36.8492215 45.4447231,36.7603754 L42.8928923,36.1100215 L42.8928923,33.9193292 L42.8928923,28.3922523 L41.6969385,28.1336677 C41.5515692,28.4421754 41.3515385,28.6892523 41.1300154,28.8021292 C40.6824,29.0300831 40.3177077,28.6251138 40.3177077,27.8964062 C40.3177077,27.1676985 40.6824,26.3968523 41.1300154,26.1758369 C41.5752615,25.9558369 41.9345385,26.3635138 41.9345385,27.0852831 C41.9345385,27.1499292 41.9284462,27.2147446 41.9228615,27.27956 L42.8928923,27.4848369 L43.5699846,27.6281754 L43.5699846,34.0844985 L45.4443846,34.5415908 C45.7909692,34.6262062 46.1404308,34.6233292 46.4357385,34.4847292 C46.7320615,34.3457908 47.0999692,34.3390215 47.4920769,34.51096 C48.0889538,34.7729292 48.5776923,35.4254831 48.6936154,36.1240677 C48.8811231,37.2511446 48.1466615,38.0074369 47.2224923,37.7694985 L47.2224923,37.7694985 Z M46.3595846,5.45742154 L46.3595846,15.1521446 C41.7241846,19.1002985 37.2901692,28.5476062 37.2901692,38.5374677 C37.2901692,39.62156 37.3434769,41.7457446 37.4445077,42.7118831 L32.2325385,46.0924369 L32.2325385,54.8726369 L50.7692308,39.1707292 L50.7692308,3.94991385 L46.3595846,5.45742154 Z" id="Fill-10" opacity="0.803838315"></path>
                            </g>
                        </g>
                    </g>
                </g>
            </g>
        </g>
    </g>
</svg>