<?xml version="1.0" encoding="UTF-8"?>
<svg width="57px" height="60px" viewBox="0 0 57 60" version="1.1" xmlns="http://www.w3.org/2000/svg" xmlns:xlink="http://www.w3.org/1999/xlink">
    <!-- Generator: Sketch 46.1 (44463) - http://www.bohemiancoding.com/sketch -->
    <title>Page 1</title>
    <desc>Created with Sketch.</desc>
    <defs></defs>
    <g id="Comps" stroke="none" stroke-width="1" fill="none" fill-rule="evenodd">
        <g id="V2-Home" transform="translate(-234.000000, -1013.000000)" fill="#FFFFFF">
            <g id="Group-39" transform="translate(191.000000, 680.000000)">
                <g id="Group-33" transform="translate(12.000000, 77.000000)">
                    <g transform="translate(-1.000000, 0.000000)" id="Group-27">
                        <g transform="translate(0.000000, 246.000000)">
                            <g id="Page-1" transform="translate(32.000000, 10.000000)">
                                <path d="M56.8788736,25.1679974 L56.866396,25.1744543 C56.6021381,19.609836 52.055833,15.1798245 46.4860669,15.1798245 C43.2582289,15.1798245 40.3772386,16.6685078 38.4715812,19.00244 C36.5659239,16.6685078 33.6841909,15.1798245 30.4570955,15.1798245 C24.8876266,15.1798245 20.3410244,19.609836 20.076915,25.1744543 L20.0642889,25.1679974 C20.0642889,25.2831699 20.0653287,25.4029973 20.068151,25.5268791 C20.0672597,25.5798855 20.0642889,25.6325915 20.0642889,25.6861985 C20.0642889,26.3740801 20.1308361,27.0457445 20.2562063,27.6971373 C20.6520733,30.2945998 21.8093713,33.8439247 24.9838824,37.8458309 L30.0086444,31.1850468 L30.9349582,29.9574912 L31.9735704,31.2437593 C32.7476277,32.2031296 33.5170801,33.1650526 34.2902461,34.1247233 C34.53044,33.678749 34.7710796,33.233075 35.0164725,32.7898036 C35.5934133,31.7475451 36.1762958,30.7091907 36.7885898,29.6858523 C37.3872178,28.6553063 38.0243185,27.645182 38.6519124,26.6299522 L40.5883181,23.6129435 L41.701796,21.8773977 L42.8570144,23.5129372 L44.9532524,26.4818948 C45.4315606,27.1923003 45.9211581,27.8953481 46.399615,28.6059038 L47.8859356,26.9442365 C48.4352474,26.3426967 48.9814398,25.7389046 49.5311972,25.1376651 L47.5788973,24.658055 L52.7462605,21.9087811 L51.3664452,27.3436613 L50.3376368,25.709173 C49.8756683,26.3727287 49.4098376,27.0334314 48.9474234,27.6968369 L46.9964605,30.433948 L46.4317002,31.2261906 L45.6402634,30.4064688 C44.7864386,29.521878 43.9748,28.6090571 43.1399887,27.7114024 L42.0903843,26.5330992 L41.295531,28.029741 C40.7194815,29.0719995 40.1526417,30.1192132 39.5474777,31.1461555 C38.9559798,32.1803053 38.3350703,33.1989887 37.7076249,34.2143686 C37.0809223,35.230199 36.4341663,36.2349176 35.7926093,37.2426394 L34.6342715,39.0628753 L33.4185961,37.3211729 C32.5986391,36.1452723 31.764719,34.9786815 30.9324329,33.8110397 L26.2766516,39.3726547 C27.7008813,40.9536862 29.446855,42.5922289 31.5873588,44.2602029 C32.9298898,45.3252856 34.424826,46.3836112 36.092369,47.4402851 C36.8494924,47.9201955 37.6412262,48.3998055 38.4715812,48.8792655 C39.3020848,48.3998055 40.0938187,47.9201955 40.8500508,47.4402851 C42.1523267,46.6150073 43.3463149,45.7892791 44.4473151,44.9597969 C44.7570271,44.7267491 45.0615402,44.4935511 45.3558037,44.2602029 C45.6230325,44.0519314 45.8837253,43.8442605 46.1384765,43.6371903 C51.8141536,39.0257858 54.5176351,34.6687519 55.7881228,31.1742353 C56.0624816,30.4195327 56.2702932,29.7055233 56.4265604,29.0376129 C56.5364822,28.5677632 56.62234,28.119086 56.6869561,27.6971373 C56.8114351,27.0457445 56.8788736,26.3740801 56.8788736,25.6861985 C56.8788736,25.6325915 56.8759028,25.5798855 56.8751601,25.5268791 C56.8778338,25.4029973 56.8788736,25.2831699 56.8788736,25.1679974" id="Fill-1"></path>
                                <path d="M46.9457925,44.2582208 C46.8820676,44.3104763 46.821165,44.3630322 46.7569944,44.4149875 C46.4976384,44.626112 46.2314495,44.8382877 45.9585761,45.0507637 C45.7690353,45.2013739 45.5646402,45.3554377 45.3636616,45.5089009 C45.5144327,45.6197188 45.626137,45.7215271 45.6857027,45.8113226 C46.3385489,46.8014756 46.3877167,48.0357884 45.8173118,49.1133344 C44.7901374,51.0533978 42.1127994,52.1662313 38.4715664,52.1662313 L29.2800264,52.1662313 C29.2433363,51.451321 28.7659193,50.8828164 28.1762039,50.8828164 L28.0661336,50.8828164 L28.0661336,49.8791489 L28.8794061,49.8791489 C29.40302,49.8791489 29.8274072,49.4496922 29.8274072,48.9203792 C29.8274072,48.3912164 29.40302,47.9625105 28.8794061,47.9625105 L25.6282468,47.9625105 C25.1055242,47.9625105 24.6809885,48.3912164 24.6809885,48.9203792 C24.6809885,49.4496922 25.1055242,49.8791489 25.6282468,49.8791489 L26.4865279,49.8791489 L26.4865279,50.8828164 L24.8633993,50.8828164 C23.5324545,48.2775455 20.0008462,46.4109103 15.8401585,46.4109103 C11.6785795,46.4109103 8.14697114,48.2775455 6.81587787,50.8828164 L5.25543431,50.8828164 C4.64210051,50.8828164 4.14433313,51.4960686 4.14433313,52.2519725 L4.14433313,54.624646 C4.14433313,55.3811505 4.64210051,55.9938021 5.25543431,55.9938021 L7.13361122,55.9938021 C8.65558217,58.3089644 11.9765566,59.9186764 15.8401585,59.9186764 C19.7031661,59.9186764 23.023695,58.3089644 24.5455174,55.9938021 L28.1762039,55.9938021 C28.7895377,55.9938021 29.2873051,55.3811505 29.2873051,54.624646 L29.2873051,54.163055 L38.4715664,54.163055 C42.8645752,54.163055 46.1764886,52.6659628 47.5585321,50.0555866 C48.4786071,48.3179385 48.3927492,46.3167601 47.3290333,44.7038948 C47.2275784,44.5501312 47.0962665,44.4029747 46.9457925,44.2582208" id="Fill-3" opacity="0.802536232"></path>
                                <path d="M3.4772565,14.5471266 C0.961978923,11.0062106 1.76574476,6.05739734 5.26719891,3.5147431 C8.77102974,0.972239023 13.6671535,1.78430269 16.1816884,5.32476815 C18.6960747,8.86523361 17.8932001,13.8149479 14.3908547,16.3577523 C10.8880637,18.9001062 5.99208845,18.087592 3.4772565,14.5471266 M15.5621158,18.0062055 C19.9710187,14.8055514 20.978734,8.5980995 17.8126899,4.14060874 C14.6462,-0.315680742 8.50662331,-1.33466448 4.09653201,1.86568925 C-0.312222402,5.06589282 -1.32038333,11.2737952 1.84551232,15.7306853 C5.01155651,20.1880259 11.1532128,21.2065592 15.5621158,18.0062055" id="Fill-5"></path>
                                <path d="M11.2680662,8.89151156 C11.4434955,9.13837411 11.5398998,9.41601939 11.5770356,9.69786916 L15.408255,5.88621528 L10.6110608,8.33817305 C10.8637324,8.46400688 11.0927856,8.64479916 11.2680662,8.89151156" id="Fill-7"></path>
                                <path d="M10.5803421,10.9944682 C11.1598081,10.5741711 11.2909716,9.7601554 10.8763882,9.17633448 C10.4606165,8.59176276 9.65640507,8.45812062 9.07783032,8.87781699 C8.49999829,9.29766352 8.36794362,10.1112288 8.78252696,10.6951999 C9.19829865,11.2800719 10.0025101,11.413714 10.5803421,10.9944682" id="Fill-9" opacity="0.802649457"></path>
                                <path d="M19.1701495,29.0989832 C17.5058744,28.6768843 15.9290911,28.0074723 14.6088415,26.9770764 C12.704521,25.4907957 11.5123154,23.3726429 11.0447022,20.662861 C10.6454188,20.7088098 10.2436102,20.7394424 9.83734522,20.7394424 C9.57353296,20.7394424 9.31150322,20.7262284 9.05006765,20.7067076 C9.55942138,24.0600741 11.0154393,26.6967283 13.4054951,28.5603603 C15.2539635,30.0018935 17.4804736,30.83543 19.7661038,31.284858 C19.5755232,30.7121489 19.4033619,30.1371874 19.270416,29.5673313 C19.2332802,29.4095134 19.2023833,29.2543985 19.1701495,29.0989832" id="Fill-11" opacity="0.801290761"></path>
                            </g>
                        </g>
                    </g>
                </g>
            </g>
        </g>
    </g>
</svg>