<?xml version="1.0" encoding="UTF-8"?>
<svg width="400px" height="400px" viewBox="0 0 400 400" version="1.1" xmlns="http://www.w3.org/2000/svg" xmlns:xlink="http://www.w3.org/1999/xlink">
    <defs></defs>
    <g id="img_list-sincity" fill="#ffffff" stroke="none" stroke-width="1" fill-rule="evenodd">
        <path d="M147.761283,347.346582 C120.57245,347.346582 98.5322549,352.079971 98.5322549,357.915656 C98.5322549,363.75548 120.57245,368.487489 147.761283,368.487489 C174.950116,368.487489 196.99031,363.75548 196.99031,357.915656 C196.99031,352.079971 174.950116,347.346582 147.761283,347.346582 M245.162324,169.548569 L233.333962,334.018318 C232.704163,340.489997 232.708298,349.444945 227.592734,355.197854 C215.211748,369.123482 184.139387,379 147.761283,379 C115.547842,379 87.4963091,371.256336 72.8979358,359.813978 C62.5730975,351.721276 63.0788657,336.574707 62.1886034,324.508773 L57,209.100167 C62.9672384,241.719301 67.6335361,266.036035 74.5365147,298.721391 C76.6450308,308.705517 79.8036706,324.163874 89.3071524,329.529117 C102.683138,337.079639 123.886817,341.956506 147.758526,341.956506 C170.210778,341.956506 190.30094,337.642513 203.73894,330.84801 C216.793824,324.248029 219.624473,318.678606 220.817921,304.086634 L226.6818,237.975081 L232.235604,173.062397 C215.247579,182.100121 184.377801,188.142745 149.114592,188.142745 C132.841809,188.142745 117.507522,186.854204 104.037825,184.580632 C111.95923,182.326374 120.323011,179.863798 128.962415,177.243948 C134.372894,177.570912 139.962529,177.743361 145.685841,177.743361 C193.210141,177.743361 231.735348,165.949207 231.735348,151.400002 C231.735348,147.628191 227.596869,144.09091 221.043931,140.905426 C222.7776,139.927294 224.461657,138.958818 226.096101,138 C236.765469,142.45885 243.76905,147.870999 245.643286,153.772905 C246.085661,155.162157 246.034671,157.346055 245.921665,159.754827 C245.752157,163.363847 245.316673,167.411577 245.162324,169.548569" id="Fill-1"></path>
        <path d="M130.18287,199.573242 C133.64445,199.33485 137.212179,199.168114 140.859866,199.078545 L140.825402,220.193404 C140.650324,220.146553 140.476624,220.098323 140.305682,220.050094 C136.437425,218.969754 133.121973,217.762639 130.249041,216.525209 L130.18287,199.573242 Z M95.1603932,230.158989 L94.7454447,223.597026 C88.8189883,221.075314 85.28848,218.21324 85.28848,215.404907 C85.28848,212.746775 88.4509111,210.488258 93.8149125,208.851212 L93.6315632,205.960201 C84.0146847,209.194331 78.2467634,213.320017 78.2467634,217.810869 C78.2467634,222.537356 84.6267682,226.85596 95.1603932,230.158989 L95.1603932,230.158989 Z M140.800587,236.543192 L140.808859,231.645835 C137.352793,231.538352 133.825042,231.353702 130.305562,231.078105 L130.324862,236.05952 C133.723028,236.291021 137.221829,236.455001 140.800587,236.543192 L140.800587,236.543192 Z M206.190122,208.14844 C212.393671,210.971931 215.9614,214.277716 215.9614,217.810869 C215.9614,221.561743 211.944258,225.054934 205.022477,227.987285 L206.190122,208.14844 Z M147.104771,199 C146.443059,199 145.785483,199.002756 145.129286,199.008268 L145.094821,221.247562 C157.529489,224.075187 174.838768,226.286852 176.723268,227.675861 C179.771278,229.920598 164.16315,231.993087 145.078279,231.742294 L145.070007,236.61347 C145.745505,236.618981 146.423759,236.623115 147.104771,236.623115 C164.418185,236.623115 180.237233,234.875831 192.335531,231.993087 L193.982918,204.033778 C181.690242,200.912643 165.214996,199 147.104771,199 L147.104771,199 Z M216,228.28493 L211.725066,276.6329 C211.097818,283.724009 211.372153,292.614766 207.749281,298.695813 C200.959842,310.090368 176.58679,318 145.924718,318 C119.459003,318 98.6771158,312.015413 88.5763606,302.957919 C85.1685447,299.905683 84.1511628,295.544362 83.1448094,287.038062 C80.9253177,268.279557 79.52883,247.652505 78,228.250481 C81.5291297,231.280669 87.608607,233.998055 95.5422561,236.206964 L99.4918485,298.767468 C107.108427,302.161444 124.235735,305.821372 130.600575,306.49934 L130.346919,241.594884 C133.742328,241.815362 137.230101,241.972452 140.790937,242.055131 L140.687545,307.542474 C142.117118,307.677517 143.539799,307.773976 144.956965,307.833229 L145.060357,242.119896 C145.713798,242.125408 146.36586,242.128164 147.022057,242.128164 C164.014265,242.128164 179.637557,240.514544 191.993647,237.812316 L188.188804,302.420505 C192.926936,300.594676 197.67334,298.502895 200.98052,296.595764 L204.653021,234.258494 C209.580017,232.478138 213.449652,230.463524 216,228.28493 L216,228.28493 Z" id="Fill-3" opacity="0.75"></path>
        <path d="M145.881426,165.032448 L145.881426,165.032448 C128.742761,162.568746 118.920239,153.251748 109.292427,144.117247 C98.5764466,133.949982 88.1090324,124.021897 67.4434844,124.870783 C53.8689881,129.853489 42.8561083,134.306679 35.406016,137.897159 C47.9821033,137.941401 59.5639243,147.72017 62.3754883,161.46962 C64.7175377,172.917125 60.3165286,183.873826 52.0337383,189.716478 C71.7202102,186.267019 107.392274,176.734343 145.881426,165.032448 M200.310599,144.879032 L200.310599,144.879032 C185.326178,141.695021 176.203785,133.04303 167.252627,124.550031 C156.564264,114.409034 146.124469,104.505836 125.627394,105.233056 C107.121613,111.074326 90.0009001,116.788401 75.313378,122.025497 C92.0543362,123.601603 101.613101,132.666976 111.369339,141.921759 C121.932037,151.943857 132.739159,162.19684 153.763748,162.618518 C155.206815,162.173337 156.651263,161.725391 158.098472,161.27468 C174.1973,156.265705 188.181931,150.604167 200.310599,144.879032 M239.138077,123.267026 L239.138077,123.267026 C224.549982,121.070155 216.142908,113.09423 207.901546,105.274533 C201.964947,99.6420283 196.118109,94.0966243 187.944412,91.0771373 C171.537638,93.2034976 153.151998,96.7345278 134.300986,102.520495 C150.395671,104.395232 159.768011,113.282257 169.328157,122.354543 C178.71845,131.262307 188.300691,140.351184 205.037506,142.596443 C218.813618,135.812275 230.03916,129.044698 239.138077,123.267026 M24.804652,157.880522 L24.804652,157.880522 C25.2009776,157.588805 27.0707506,158.555206 27.3869825,159.585205 C27.5595981,160.143755 27.0610841,160.624882 26.7338048,161.186197 C26.4603815,161.657646 26.2201005,162.466438 25.7643952,162.501001 C25.2161678,162.54386 24.3945172,161.834613 24.1639027,161.229056 C23.9843824,160.75899 24.0548096,159.865863 24.1045229,159.373675 C24.1597599,158.822038 24.3627559,158.205422 24.804652,157.880522 M36.5963737,177.710423 L36.5963737,177.710423 C36.9554143,178.439026 35.2195911,179.760743 33.6605264,179.199428 C32.8126382,178.895267 32.1953646,177.872181 31.428951,176.980437 C30.7868207,176.232478 29.6447954,175.216304 29.671033,174.648077 C29.7027943,173.96648 30.8807236,173.644346 31.8059436,173.922239 C32.5240248,174.136534 33.8207137,175.02966 34.5305094,175.534291 C35.3286842,176.099753 36.1986672,176.897484 36.5963737,177.710423 M50.4525788,175.346264 L50.4525788,175.346264 C49.5743102,175.546734 46.6508912,174.997862 46.0709026,173.414843 C45.7560516,172.554898 47.1245486,171.741959 47.8785339,171.12949 C48.5096168,170.617946 47.8550582,168.291116 48.838277,168.47223 C50.0162063,168.692056 51.7092208,170.089813 52.1469742,171.043772 C52.4866818,171.784818 52.2491626,172.983488 52.0958799,173.637433 C51.9232643,174.37295 51.428893,175.122291 50.4525788,175.346264 M42.3410232,143.027799 L42.3410232,143.027799 C41.272187,142.676631 38.8417583,143.087248 33.7392391,142.433302 C30.4471131,142.013008 26.7628042,143.824147 24.7273202,144.877649 C26.5321897,145.002079 28.3743441,145.391957 30.0052169,145.947742 C31.5269967,146.466198 26.6702822,148.509605 26.6771868,149.632235 C26.6827105,150.641496 25.9936288,152.494112 22.2485592,152.369682 C21.3109109,152.337884 20.7309222,152.035105 20.2848833,151.610663 C19.3914246,152.335118 18.0491652,153.21442 17.7163622,153.770204 C17.3517979,154.381291 17.2620377,155.585491 17.1059932,156.231142 C16.886426,157.143624 17.6749344,158.563502 17.5368419,159.545111 C17.3987493,160.518426 16.1490119,161.414318 16.0979176,162.440169 C16.0744419,162.89641 16.1766304,163.410719 16.3078183,163.943 C16.5660513,163.608423 16.8284272,163.342974 17.0825174,163.190893 C17.8254553,162.747095 18.3184456,163.721792 18.9522904,164.320436 C19.4853276,164.825066 20.4478325,165.208032 20.3925955,166.159226 C20.3249302,167.301211 19.2519512,169.128941 18.4385861,169.704082 C17.9083108,170.078752 17.0369469,170.129907 16.4141496,170.117464 C16.3147229,171.202765 15.8189707,172.261797 16.0702991,173.291796 C16.3105802,174.283084 18.9108626,174.678493 19.2353801,175.646277 C19.7035138,177.048182 19.274046,179.235374 19.9217,180.546031 C20.4492135,181.613359 21.7776637,182.112459 23.0564005,182.582526 C23.1282087,182.413855 23.2013977,182.259009 23.2635393,182.126284 C23.5908187,181.43501 24.2219015,180.685668 25.1816447,180.349709 C26.044723,180.046931 29.1697571,181.591238 29.3506583,182.948901 C29.448704,183.688565 28.3163452,184.213933 27.4753617,184.872027 C26.9837523,185.257758 26.4534769,185.856402 25.8817738,186.168858 C25.564161,186.983179 25.1222649,187.662011 26.1648635,188.270332 C29.3216589,190.109122 30.6459663,190.288854 33.6025275,189.699888 C33.6950495,189.214613 34.1024225,188.650533 34.6257932,188.328399 C35.2513524,187.942668 36.7510373,187.576293 37.5823544,187.382736 C38.5158599,187.167058 39.6675517,187.052306 40.5209636,187.290105 C41.0553817,187.438038 41.1368563,188.519191 40.6549133,189.424761 C41.3246621,189.369459 41.9944109,189.279593 42.6254938,189.144103 C42.436307,188.917365 42.2982145,188.617352 42.2167399,188.423795 C42.085552,188.114104 42.0772664,187.718695 42.3976411,187.396561 C42.6862545,187.104843 44.8280698,186.958293 45.4784856,187.388266 C45.6497204,187.501635 45.6621487,187.657863 45.6151972,187.837594 C46.2642321,187.497487 47.2460701,187.095165 48.1864802,186.66381 C48.0373403,186.615421 47.9061524,186.561502 47.7984402,186.500669 C47.2405464,186.192361 46.8525063,185.360066 46.6577959,184.896913 C46.4382287,184.375692 46.4244195,183.712068 46.9629804,183.165961 C47.3855435,182.740136 50.1653463,182.499573 51.6056514,182.918485 C51.7368393,182.523076 51.8694082,182.149788 52.0144053,181.849775 C52.4673489,180.923467 53.1909537,181.245601 53.5320423,180.183803 C53.8372268,179.232609 53.7709424,176.908544 53.9794621,175.86472 C54.4379293,173.571071 58.2244267,171.932751 58.162285,169.321115 C58.1401902,168.408633 57.3834431,166.829762 56.81174,165.445831 C56.7178371,166.103924 56.6888377,166.879534 56.2925121,167.471265 C55.5896211,168.517855 54.073365,169.128941 53.6963724,167.644084 C53.537566,167.019171 54.2211241,165.660126 54.5704982,165.116784 C53.0307664,164.844422 51.5559381,164.867925 51.3515612,162.857699 C51.206564,161.441969 53.0459566,161.118452 54.2142194,159.63636 C55.0828215,158.533086 55.1007735,156.25741 56.0936589,155.676739 C55.3521019,154.176674 51.0850426,152.684903 50.2219642,151.441992 C49.3602668,150.200463 49.1766037,148.538639 48.4847601,147.456103 C47.8426298,146.452372 45.6828626,146.047286 44.7769755,145.379514 C44.528409,145.197018 44.3254129,144.991018 44.1431308,144.776723 C43.7081393,145.555098 43.0121529,146.441312 42.2250255,146.970828 C41.3591853,147.551499 40.4974878,147.431217 39.5377447,147.536291 C38.7340461,147.624774 37.3931676,147.99668 37.2536942,147.58468 C37.0866022,147.09111 38.0739638,145.773541 39.0033266,145.101622 C39.7227887,144.579019 41.1699985,143.978992 41.9654115,143.662389 C42.2761197,143.537959 42.603399,143.42459 42.9223928,143.338872 C42.7539199,143.20753 42.5647331,143.101074 42.3410232,143.027799 M38.8155207,153.582178 L38.8155207,153.582178 C39.6233621,153.338849 40.1508756,153.175708 41.9364121,153.000125 C45.4039156,152.660017 44.3668407,154.519546 45.1470635,155.166579 C45.8568592,155.75831 47.7970593,157.353771 46.3926582,157.969006 C45.6428157,158.295287 44.601598,158.132146 43.4430016,158.080992 C42.7083493,158.047811 41.3840419,157.745033 40.7322451,158.15012 C39.4369372,158.957528 40.7764348,160.90554 39.2077035,160.91107 C37.3268832,160.9166 36.6308968,159.586588 36.3326169,158.470871 C36.1006215,157.606778 37.7770649,156.632081 38.3335778,155.75831 C38.9605179,154.7767 37.071412,154.106164 38.8155207,153.582178 M244.377308,119.904667 C243.990649,120.154908 243.598466,120.409297 243.202141,120.663686 C227.202739,119.419392 218.497386,111.161427 209.978457,103.079045 C204.986412,98.3438148 200.053747,93.665269 193.852011,90.3582118 C212.062274,88.2995963 227.437497,87.9442812 237.703296,88.0064959 C240.815901,88.0258516 245.900469,87.9014222 248.654034,88.9162132 C257.576193,92.2066798 261.16936,105.097567 254.708011,112.355949 C252.864475,114.425625 246.858831,118.30091 244.377308,119.904667" id="Fill-5"></path>
        <path d="M27.3845548,135 C30.3935737,120.437607 49.3611886,112.468283 50.2414719,102.862068 C51.0885371,93.5923327 40.2067953,84.3474197 34.4240534,78.561075 C11.6944729,55.8211265 74.1669091,29.7370679 41.1479788,0 C63.6450317,29.2916462 7.24184467,50.436075 0.739374242,70.551759 C-6.05513988,91.5582863 36.168011,92.7980203 37.9797892,103.089605 C39.5244373,111.860137 25.7153383,117.503064 27.3845548,135" id="Fill-7" opacity="0.7"></path>
    </g>
</svg>