<?xml version="1.0" encoding="UTF-8"?>
<svg width="400px" height="400px" viewBox="0 0 400 400" version="1.1" xmlns="http://www.w3.org/2000/svg" xmlns:xlink="http://www.w3.org/1999/xlink">
    <defs></defs>
    <g id="img_list-watching" fill="#ffffff" stroke="none" stroke-width="1" fill-rule="evenodd">
        <path d="M197.939186,46.4352119 C187.876543,46.4352119 179.730257,38.2900468 179.730257,28.2445786 C179.730257,18.1991105 187.876543,10.0539454 197.939186,10.0539454 C207.994757,10.0539454 216.148114,18.1991105 216.148114,28.2445786 C216.148114,38.2900468 207.994757,46.4352119 197.939186,46.4352119 M315.459257,31.1056297 C307.341257,23.122944 297.328114,14.214832 288.304971,8.80356008 C270.414257,-1.92008316 254.1924,1.64740027 245.169257,11.8765408 C236.393614,7.4330813 225.715757,5.94250902 213.828686,4.8899248 C209.302971,1.80281538 203.829686,0.00141286472 197.939186,0.00141286472 C192.041614,0.00141286472 186.568329,1.80987971 182.042614,4.8899248 C170.169686,5.94250902 159.491829,7.4330813 150.730329,11.8765408 C141.707186,1.64740027 125.485329,-1.92008316 107.594614,8.80356008 C98.5644,14.214832 88.5583286,23.122944 80.4332571,31.1056297 C129.890829,31.6425183 169.823186,71.8385196 169.823186,121.373557 C169.823186,127.180431 169.257471,132.846018 168.2109,138.342062 C176.109686,130.401762 189.015043,113.122427 183.9519,88.3125223 C182.0214,78.8392643 179.461543,70.0088598 176.597614,61.891952 C179.404971,60.6133094 182.968971,55.866084 186.087471,53.859816 C189.700971,55.5340607 193.7034,56.4877444 197.939186,56.4877444 C202.174971,56.4877444 206.184471,55.5269964 209.797971,53.859816 C212.916471,55.8519553 216.487543,60.6133094 219.301971,61.891952 C216.438043,70.0088598 213.871114,78.8392643 211.940614,88.3125223 C206.884543,113.122427 219.7899,130.401762 227.688686,138.342062 C226.642114,132.846018 226.069329,127.180431 226.069329,121.373557 C226.069329,71.8385196 266.001686,31.6425183 315.459257,31.1056297 M316.4634,180.664425 C283.687329,180.664425 257.1129,154.116697 257.1129,121.373557 C257.1129,88.6304168 283.687329,62.0897531 316.4634,62.0897531 C349.239471,62.0897531 375.8139,88.6304168 375.8139,121.373557 C375.8139,154.116697 349.239471,180.664425 316.4634,180.664425 M316.4634,42.027074 C272.592257,42.027074 237.030043,77.5464931 237.030043,121.373557 C237.030043,165.207685 272.592257,200.734168 316.4634,200.734168 C360.334543,200.734168 395.896757,165.207685 395.896757,121.373557 C395.896757,77.5464931 360.334543,42.027074 316.4634,42.027074 M79.4291143,180.664425 C46.6530429,180.664425 20.0856857,154.116697 20.0856857,121.373557 C20.0856857,88.6304168 46.6530429,62.0897531 79.4291143,62.0897531 C112.212257,62.0897531 138.779614,88.6304168 138.779614,121.373557 C138.779614,154.116697 112.212257,180.664425 79.4291143,180.664425 M79.4291143,42.027074 C35.5650429,42.027074 0.00282857143,77.5464931 0.00282857143,121.373557 C0.00282857143,165.207685 35.5650429,200.734168 79.4291143,200.734168 C123.300257,200.734168 158.869543,165.207685 158.869543,121.373557 C158.869543,77.5464931 123.300257,42.027074 79.4291143,42.027074" id="Fill-1"></path>
        <path d="M197.946257,19.0538936 C192.826543,19.0538936 188.6544,23.2147802 188.6544,28.3364149 C188.6544,33.4580495 192.826543,37.6189361 197.946257,37.6189361 C203.073043,37.6189361 207.238114,33.4580495 207.238114,28.3364149 C207.238114,23.2147802 203.073043,19.0538936 197.946257,19.0538936" id="Path" opacity="0.6"></path>
        <path d="M337.833257,76.3384938 C330.846686,72.6014666 322.954971,70.6305203 314.992543,70.6305203 C288.262543,70.6305203 266.524971,92.3533154 266.524971,119.056459 C266.524971,119.317839 266.539114,119.579219 266.553257,119.833534 L266.574471,120.1373 C266.609829,121.790352 267.896829,123.139638 269.544471,123.259731 C269.622257,123.266795 269.700043,123.266795 269.770757,123.266795 C271.326471,123.266795 272.670043,122.143568 272.931686,120.596481 C275.314757,106.255904 284.627829,93.4200282 297.837257,86.2497398 C309.4839,79.9342345 323.407543,78.5354984 335.676471,82.3714261 C336.0159,82.4844553 336.348257,82.5197769 336.694757,82.5197769 C338.455543,82.5197769 339.891043,81.0857192 339.891043,79.3267027 C339.891043,77.9632882 339.0354,76.7976748 337.833257,76.3384938" id="Path" opacity="0.7"></path>
        <path d="M101.357614,76.3384938 C94.3710429,72.6014666 86.4864,70.6305203 78.5169,70.6305203 C51.7869,70.6305203 30.0493286,92.3533154 30.0493286,119.056459 C30.0493286,119.317839 30.0634714,119.579219 30.0776143,119.833534 L30.0988286,120.1373 C30.1341857,121.790352 31.4211857,123.139638 33.0688286,123.259731 C33.1466143,123.266795 33.2244,123.266795 33.3021857,123.266795 C34.8508286,123.266795 36.1944,122.143568 36.4489714,120.596481 C38.8391143,106.255904 48.1521857,93.4200282 61.3616143,86.2497398 C73.0082571,79.9342345 86.9389714,78.5354984 99.2008286,82.3714261 C99.5402571,82.4844553 99.8796857,82.5197769 100.219114,82.5197769 C101.9799,82.5197769 103.4154,81.0857192 103.4154,79.3267027 C103.4154,77.9632882 102.559757,76.7976748 101.357614,76.3384938" id="Path" opacity="0.7"></path>
    </g>
</svg>