<?xml version="1.0" encoding="UTF-8"?>
<svg width="300px" height="324px" viewBox="0 0 300 324" version="1.1" xmlns="http://www.w3.org/2000/svg" xmlns:xlink="http://www.w3.org/1999/xlink">
    <!-- Generator: Sketch 45.1 (43504) - http://www.bohemiancoding.com/sketch -->
    <title>Page 1</title>
    <desc>Created with Sketch.</desc>
    <defs></defs>
    <g id="Iconsv2" stroke="none" stroke-width="1" fill="none" fill-rule="evenodd">
        <g id="Artboard" transform="translate(-3645.000000, -1663.000000)" fill="#FFFFFF">
            <g id="Group-5" transform="translate(3567.000000, 1578.000000)">
                <g id="Group-13">
                    <g id="Page-1" transform="translate(78.000000, 84.000000)">
                        <polygon id="Fill-1" points="0 257.1521 183.98 324.2481 183.98 272.3641 0 213.8561"></polygon>
                        <polygon id="Fill-3" points="134.2323 0.9995 95.6013 7.5955 267.4563 25.7635 299.9993 16.8545"></polygon>
                        <path d="M257.7285,71.7732 L105.3305,49.1852 L105.3305,24.8932 L257.7285,41.0032 L257.7285,71.7732 Z M95.6015,14.0822 L95.6015,57.5772 L267.4575,83.0492 L267.4575,32.2482 L95.6015,14.0822 Z" id="Fill-4" opacity="0.79908288"></path>
                        <polygon id="Fill-5" points="123.0449 246.4734 155.1089 228.5144 160.5929 230.1154 128.6729 248.2634"></polygon>
                        <polygon id="Fill-6" points="74.374 230.9964 107.457 214.6004 112.474 216.0654 79.499 232.6264"></polygon>
                        <polygon id="Fill-7" points="31.7861 217.4544 65.7611 202.4264 70.3701 203.7724 36.4721 218.9444"></polygon>
                        <path d="M223.6328,115.8308 C218.8088,123.5638 209.3178,129.7938 203.4118,126.3708 C195.6978,121.8978 202.0288,105.6278 215.5738,101.6588 C223.6098,99.3048 230.7428,103.6548 223.6328,115.8308 M204.6088,155.1008 C201.3938,163.9648 194.5788,169.7838 189.0958,168.3478 C179.4808,165.8298 180.4858,145.2878 193.4198,138.6358 C201.2988,134.5838 209.6528,139.8288 204.6088,155.1008 M193.4418,200.0268 C192.1868,208.9278 187.6828,214.6398 182.4888,213.9168 C172.4938,212.5278 168.2578,191.1518 178.8378,182.2268 C185.7558,176.3928 195.4438,182.2978 193.4418,200.0268 M163.0278,161.5248 C153.8248,159.1148 154.9698,139.0908 167.4368,132.5488 C174.9968,128.5818 182.9218,133.6578 177.9588,148.5318 C174.7478,157.3278 168.3288,162.9128 163.0278,161.5248 M167.0548,192.4028 C165.8478,201.1018 161.5548,206.7108 156.6158,206.0438 C147.0398,204.7508 143.0078,183.9048 153.1578,175.1228 C159.7578,169.4118 168.9848,175.1248 167.0548,192.4028 M138.1458,155.0118 C129.3308,152.7028 130.6048,133.1728 142.6318,126.7388 C149.8928,122.8548 157.4148,127.7728 152.5338,142.2658 C149.3788,150.8538 143.1938,156.3338 138.1458,155.0118 M141.8808,185.1288 C140.7178,193.6348 136.6208,199.1448 131.9208,198.5298 C122.7348,197.3258 118.8948,176.9828 128.6448,168.3388 C135.0978,162.6188 143.7748,167.9808 141.8808,185.1288 M114.3728,148.7898 C105.9198,146.5758 107.3078,127.5138 118.9218,121.1848 C126.0688,117.2888 133.1338,121.9128 128.2508,136.2808 C125.1498,144.6718 119.1838,150.0498 114.3728,148.7898 M117.8378,178.1818 C116.7158,186.5028 112.8028,191.9178 108.3228,191.3488 C99.2328,190.1948 95.7128,168.7028 106.0748,161.1508 C112.0348,156.8078 119.5998,162.0458 117.8378,178.1818 M141.3198,86.4608 C147.7898,84.9878 153.1848,88.7888 146.4818,99.7568 C141.8358,106.9248 133.1758,112.7778 128.1748,109.7158 C121.1638,105.4238 128.5058,89.3788 141.3198,86.4608 M165.3668,91.1968 C172.0938,89.7008 177.8018,93.6208 171.0248,104.8708 C166.3198,112.2178 157.3988,118.1918 152.1178,115.0168 C144.7548,110.5878 152.0998,94.1468 165.3668,91.1968 M190.5178,96.1488 C197.5178,94.6318 203.5658,98.6778 196.7148,110.2228 C191.9498,117.7578 182.7518,123.8568 177.1698,120.5618 C169.4218,115.9878 176.7608,99.1308 190.5178,96.1488 M267.4568,89.5358 L95.6018,64.0628 C63.6898,82.5848 33.6638,128.2298 33.6638,177.9398 C33.6638,183.3348 34.0228,188.4698 34.7008,193.3298 L214.7778,245.9018 C214.1808,240.1938 213.8648,234.1268 213.8648,227.7218 C213.8648,168.6908 240.0668,112.8648 267.4568,89.5358 M0,207.3713 L183.98,265.8783 L214.777,245.9023 L34.701,193.3293 L0,207.3713 Z M14.324,206.8213 L34.96,198.4723 L203.225,247.5973 L183.262,260.5453 L14.324,206.8213 Z" id="Fill-8"></path>
                        <path d="M279.042,223.1834 C277.339,222.7444 275.756,221.7894 274.419,220.5024 C272.662,218.8124 270.595,217.7454 268.537,217.2204 L253.458,213.3774 L253.458,200.4324 L253.458,167.7724 L246.391,166.2444 C245.532,168.0674 244.35,169.5274 243.041,170.1944 C240.396,171.5414 238.241,169.1484 238.241,164.8424 C238.241,160.5364 240.396,155.9814 243.041,154.6754 C245.672,153.3754 247.795,155.7844 247.795,160.0494 C247.795,160.4314 247.759,160.8144 247.726,161.1974 L253.458,162.4104 L257.459,163.2574 L257.459,201.4084 L268.535,204.1094 C270.583,204.6094 272.648,204.5924 274.393,203.7734 C276.144,202.9524 278.318,202.9124 280.635,203.9284 C284.162,205.4764 287.05,209.3324 287.735,213.4604 C288.843,220.1204 284.503,224.5894 279.042,223.1834 L279.042,223.1834 Z M273.943,32.2484 L273.943,89.5354 C246.552,112.8654 220.351,168.6904 220.351,227.7214 C220.351,234.1274 220.666,246.6794 221.263,252.3884 L190.465,272.3644 L190.465,324.2474 L300,231.4634 L300,23.3404 L273.943,32.2484 Z" id="Fill-10" opacity="0.803838315"></path>
                    </g>
                </g>
            </g>
        </g>
    </g>
</svg>