<?xml version="1.0" encoding="UTF-8"?>
<svg width="52px" height="55px" viewBox="0 0 52 55" version="1.1" xmlns="http://www.w3.org/2000/svg" xmlns:xlink="http://www.w3.org/1999/xlink">
    <!-- Generator: Sketch 46.1 (44463) - http://www.bohemiancoding.com/sketch -->
    <title>Page 1</title>
    <desc>Created with Sketch.</desc>
    <defs>
        <linearGradient x1="60.6510103%" y1="121.164047%" x2="60.6510081%" y2="3.17053298%" id="linearGradient-1">
            <stop stop-color="#6F7689" offset="0%"></stop>
            <stop stop-color="#313540" offset="100%"></stop>
        </linearGradient>
    </defs>
    <g id="Comps" stroke="none" stroke-width="1" fill="none" fill-rule="evenodd" opacity="0.32274683">
        <g id="V2-Home" transform="translate(-236.000000, -1180.000000)" fill="url(#linearGradient-1)">
            <g id="Group-39" transform="translate(191.000000, 680.000000)">
                <g id="Group-33" transform="translate(12.000000, 77.000000)">
                    <g transform="translate(-1.000000, 0.000000)" id="Group-30">
                        <g transform="translate(0.000000, 410.000000)">
                            <g id="Page-1" transform="translate(34.000000, 13.000000)">
                                <path d="M47.144454,32.3727845 C47.1441141,32.3733515 47.1437741,32.3739186 47.1435475,32.374599 C44.3560228,37.8239082 40.6010971,42.144867 35.7758771,45.2169289 C33.1629765,46.8805371 30.2369765,48.1786505 26.9726071,49.0821247 C26.2421553,49.2842072 25.5000316,49.4727948 24.7356976,49.6355268 C25.7119375,50.9046093 26.688064,52.1734649 27.6641906,53.4425474 C28.0482274,53.9417433 28.4322642,54.4410526 28.816301,54.9402485 C39.3431472,52.2045371 46.6272678,46.267032 51.2249441,37.6773928 L47.144454,32.3727845 Z" id="Fill-4" opacity="0.796025815"></path>
                                <path d="M15.4317859,21.309268 L15.3209603,20.425299 C14.9880302,19.1601856 16.0762288,18.4933814 18.5856696,18.4237526 C18.6410824,20.9255155 17.4591692,21.7064021 15.4317859,21.309268 M22.4328366,1.3858866 C22.4182185,4.38185567 24.0347086,6.26081443 25.1949779,7.94653608 C26.1742774,9.36916495 26.82144,10.6560515 25.8955136,12.3583299 C25.6603775,12.790732 25.3248411,13.2497835 24.8652208,13.7451237 C24.694223,13.9294021 24.5118933,14.1169691 24.3059934,14.3116804 C24.4809573,14.2020206 24.5649264,13.8091959 24.5867969,13.2918557 C24.6265717,12.3503918 24.4560272,10.9917216 24.2249706,10.1103608 C24.1510868,9.8285567 24.0716505,9.59234021 23.9906277,9.43947423 C23.7965129,9.07318557 23.6307277,8.72254639 23.4779742,8.37950515 C22.0157108,5.09560825 22.3339095,2.85773196 22.4328366,1.3858866 M9.59304415,25.169701 L3.68869095,28.854134 L11.911543,22.130299 L13.0039345,19.471701 C12.9656328,22.782701 12.6941214,23.2486701 9.59304415,25.169701 M45.3665982,32.0280309 C43.4734974,27.1058144 40.3795592,26.6510722 39.7694518,22.0821031 C39.2597447,19.7823093 37.3301553,17.9532474 36.2613341,15.8743608 C35.823131,15.0222577 35.3648705,14.1986186 34.878507,13.4237423 C34.6265997,11.8108247 32.9105026,10.769 32.5647675,9.41203093 C31.9442347,6.97604124 30.5336446,4.3616701 21.9043186,0.11328866 C21.4662288,2.85829897 21.7706026,5.68529897 22.3539669,8.04168041 L22.543209,8.69612371 L22.5646262,8.77040206 L22.8415769,9.72796907 L22.8538153,9.77004124 L17.0468028,15.039268 L14.3903878,17.4497423 C14.8271177,16.4041753 15.4719007,15.2241134 16.3408278,13.9912062 C17.3880052,12.5055258 18.7669794,10.9435258 20.5095931,9.4434433 C20.9341979,9.07783505 21.38056,8.71642268 21.8493591,8.36034021 C20.1088985,7.4358866 17.4915784,6.53864948 13.3778859,5.68790722 C13.618688,8.21858763 14.5148116,10.6537835 15.561649,12.6362784 C14.3213767,13.8621546 13.2671737,15.3964845 12.4690706,17.3550515 L12.1497388,20.2228763 L0.773116262,29.259433 C-1.7265791,32.1197732 2.46439662,33.6239381 4.44939882,34.6332165 C5.0348028,36.9349381 10.1497785,37.4130412 14.3803024,37.5348351 C17.2719669,37.6185258 19.573128,35.5684433 20.7908499,35.4281649 C23.9747631,35.0616495 24.0606586,39.9251237 24.1247969,40.5072165 C24.3964216,42.9819897 25.2737344,45.3866804 26.2108793,47.4688557 C34.8646821,44.9687938 41.1305217,39.6826701 45.3665982,32.0280309" id="Fill-1"></path>
                            </g>
                        </g>
                    </g>
                </g>
            </g>
        </g>
    </g>
</svg>