<?xml version="1.0" encoding="UTF-8"?>
<svg width="400px" height="400px" viewBox="0 0 400 400" version="1.1" xmlns="http://www.w3.org/2000/svg" xmlns:xlink="http://www.w3.org/1999/xlink">
    <defs></defs>
    <g id="img_list-socialmedia" fill="#ffffff" stroke="none" stroke-width="1" fill-rule="evenodd">
        <path d="M55.9792782,141.869194 C55.9792782,141.869194 84.4883443,138.902649 99.3977515,115.905547 C99.0744673,115.830364 98.7601277,115.704209 98.4675108,115.497774 C71.6195888,96.8154162 80.2894831,74.0005377 80.2894831,74.0005377 C80.2894831,74.0005377 92.3608895,88.4637231 108.75766,85.4207198 C112.97441,65.57621 127.712591,50.1356446 147.965771,50.1356446 C164.980998,50.1356446 180.534418,60.9925908 186.059639,76.2522072 L207.321006,73.2474326 L191.294798,86.8288097 L207.321006,100.412735 L187.30933,97.8768993 C174.788137,178.892401 55.9792782,141.869194 55.9792782,141.869194 M197.968764,189.684358 C236.868926,171.989574 263,139.28621 263,101.828471 C263,64.3720065 236.868926,31.6673674 197.968764,13.9802297 C178.469488,5.11372361 155.764204,0 131.497444,0 C58.8811692,0 0,45.6080942 0,101.828471 C0,133.852639 19.0980459,162.405643 48.9692501,181.056144 L36.2755536,237 L102.387811,201.146592 C111.737496,202.778956 121.490968,203.655668 131.497444,203.655668 C155.764204,203.655668 178.469488,198.543218 197.968764,189.684358" id="Fill-1"></path>
        <path d="M279.214437,234.669914 C278.880706,237.250748 278.096057,239.305245 276.236337,241.425851 C275.631291,242.116193 277.883336,242.759494 276.148446,248.091523 C275.368892,250.484197 274.632647,251.436436 272.445565,253.075202 C271.580668,253.719775 272.720701,256.793892 269.961692,259.969716 C268.18222,262.02167 264.490803,263.365484 257.798358,264.348235 C253.007668,265.052561 241.749992,265.652637 233.350681,263.423966 C231.189074,262.850588 225.979311,259.487876 218.30478,258.539451 L218.30478,261.055446 L194.604813,261.055446 L194.604813,219.706162 L218.30478,219.706162 L218.30478,223.637166 C219.018098,223.553257 219.674095,223.438836 220.127561,223.274832 C222.275156,222.503125 224.103031,222.467527 225.767863,217.188895 C227.788079,210.777493 228.642786,208.004685 234.117497,203.670664 C239.590933,199.337914 240.440545,191.928505 243.256875,188.315337 C246.075752,184.70344 245.128059,179.913006 245.27327,178.52978 C245.415934,177.149098 250.172232,175.060275 254.239414,182.406117 C258.304049,189.75323 253.733723,200.977951 251.805219,204.097837 C249.875441,207.218993 247.417043,213.640566 253.723533,213.091344 C260.03257,212.540851 267.851037,213.920262 272.146226,215.847624 C276.089852,217.619882 279.736687,219.688363 279.098523,224.230885 C278.674353,227.251605 277.219696,228.444129 277.15728,229.133199 C277.07958,229.959574 279.709937,230.834261 279.214437,234.669914 M331,218.102993 C331,183.714333 302.341203,154.511496 262.545739,144 C252.366956,162.878229 236.516026,178.462399 218.195235,189.896892 C210.455742,194.754709 202.270426,198.856074 193.806152,202.245484 C173.331397,210.488897 151.135765,214.591533 129.099355,214.752994 C129.042035,215.87178 129,216.982937 129,218.102993 C129,251.445336 155.926455,279.933676 193.806152,291.207979 C205.066375,294.557978 217.238626,296.383632 229.990447,296.383632 C237.676441,296.383632 245.180284,295.707276 252.366956,294.435929 L303.118209,322 L293.377607,279.020849 C316.309485,264.678785 331,242.721354 331,218.102993" id="Fill-4" opacity="0.8"></path>
    </g>
</svg>