<?xml version="1.0" encoding="UTF-8"?>
<svg width="400px" height="400px" viewBox="0 0 400 400" version="1.1" xmlns="http://www.w3.org/2000/svg" xmlns:xlink="http://www.w3.org/1999/xlink">
    <defs></defs>
    <g id="img_list-security" fill="#ffffff" stroke="none" stroke-width="1" fill-rule="evenodd">
        <path d="M287,79.8315371 L279.417184,78.212701 C205.811356,62.4881446 150.25661,6.98570718 149.708195,6.42878461 L143.353039,0 L137.012221,6.43415686 C136.454845,6.98928868 81.0990333,62.4487481 7.30323221,78.212701 L0,79.9694246 L0.268830634,89.3905488 C-0.00896102112,140.625634 13.0149871,265.884862 139.729202,322.377582 L143.360208,324 L146.991214,322.377582 C273.757403,265.863373 286.75626,140.600564 286.451586,89.3654784 L286.442624,87.5550323 L287,79.8315371 Z M143.360208,304.453988 C33.093051,253.084596 18.656846,143.678859 18.1084315,94.0017244 C79.5326468,78.7911126 126.782319,40.0035152 143.360208,24.9540706 C159.945266,40.0035152 207.19673,78.7911126 268.611985,94.0017244 C268.0797,143.687813 253.654248,253.07027 143.360208,304.453988 L143.360208,304.453988 Z" id="Fill-1"></path>
        <path d="M144,290 L144,43 C122.763893,60.7203907 82.6248635,89.614318 32,104.477737 C34.5184709,158.701094 53.7685834,245.00314 144,290 L144,290 Z" id="Path" opacity="0.7"></path>
    </g>
</svg>