<?xml version="1.0" encoding="UTF-8"?>
<svg width="400px" height="400px" viewBox="0 0 400 400" version="1.1" xmlns="http://www.w3.org/2000/svg" xmlns:xlink="http://www.w3.org/1999/xlink">
    <defs></defs>
    <g id="img_list-largecap" fill="#ffffff" stroke="none" stroke-width="1" fill-rule="evenodd">
        <path d="M88.660267,37.2520565 L88.660267,200.852823 L16.4262817,218.194098 L16.4262817,322.02413 L158.616155,322.02413 L158.616155,0.0791548636 L88.660267,37.2520565 Z M136.102612,23.6570363 L151.999483,15.5254641 L151.999483,32.6123402 L136.102612,40.2910516 L136.102612,23.6570363 Z M114.762982,34.5732046 L129.506629,27.0316541 L129.506629,43.477169 L114.762982,50.5995742 L114.762982,34.5732046 Z M94.9267575,44.7185134 L108.636717,37.7056836 L108.636717,53.5581117 L94.9267575,60.1801478 L94.9267575,44.7185134 Z M136.102612,47.747547 L151.999483,40.2711288 L151.999483,57.3572386 L136.102612,64.3815623 L136.102612,47.747547 Z M114.762982,57.7840466 L129.506629,50.8493756 L129.506629,67.2956567 L114.762982,73.8096498 L114.762982,57.7840466 Z M94.9267575,67.1117538 L108.636717,60.6636591 L108.636717,76.5160872 L94.9267575,82.5733882 L94.9267575,67.1117538 Z M136.102612,71.8380577 L151.999483,65.0167935 L151.999483,82.1021371 L136.102612,88.4713068 L136.102612,71.8380577 Z M114.762982,80.9941223 L129.506629,74.6678633 L129.506629,91.1141444 L114.762982,97.0197255 L114.762982,80.9941223 Z M94.9267575,89.5049942 L108.636717,83.6224009 L108.636717,99.4740627 L94.9267575,104.967395 L94.9267575,89.5049942 Z M136.102612,95.9285685 L151.999483,89.7624582 L151.999483,106.848568 L136.102612,112.561817 L136.102612,95.9285685 Z M114.762982,104.204964 L129.506629,98.486351 L129.506629,114.932632 L114.762982,120.231334 L114.762982,104.204964 Z M94.9267575,111.898235 L108.636717,106.580376 L108.636717,122.432804 L94.9267575,127.359869 L94.9267575,111.898235 Z M136.102612,120.018313 L151.999483,114.508123 L151.999483,131.594233 L136.102612,136.652328 L136.102612,120.018313 Z M114.762982,127.415806 L129.506629,122.304839 L129.506629,138.750354 L114.762982,143.442176 L114.762982,127.415806 Z M94.9267575,134.291475 L108.636717,129.538352 L108.636717,145.390014 L94.9267575,149.753109 L94.9267575,134.291475 Z M136.102612,144.108057 L151.999483,139.253021 L151.999483,156.339898 L136.102612,160.742073 L136.102612,144.108057 Z M114.762982,150.625882 L129.506629,146.12256 L129.506629,162.568841 L114.762982,166.652251 L114.762982,150.625882 Z M94.9267575,156.683949 L108.636717,152.496327 L108.636717,168.347989 L94.9267575,172.14635 L94.9267575,156.683949 Z M136.102612,168.198568 L151.999483,163.998686 L151.999483,181.084796 L136.102612,184.832583 L136.102612,168.198568 Z M114.762982,173.836724 L129.506629,169.941048 L129.506629,186.387329 L114.762982,189.86386 L114.762982,173.836724 Z M94.9267575,179.077956 L108.636717,175.455069 L108.636717,191.306731 L94.9267575,194.538824 L94.9267575,179.077956 Z M24.9363873,228.54783 L145.845633,202.697215 L145.845633,219.258436 L24.9363873,241.7329 L24.9363873,228.54783 Z M24.9363873,253.32108 L145.845633,233.815115 L145.845633,250.375569 L24.9363873,266.505384 L24.9363873,253.32108 Z M24.9363873,278.09433 L145.845633,264.933014 L145.845633,281.494235 L24.9363873,291.278634 L24.9363873,278.09433 Z M24.9363873,302.868347 L145.845633,296.050914 L145.845633,312.612134 L24.9363873,316.051118 L24.9363873,302.868347 Z" id="Fill-1" opacity="0.8"></path>
        <path d="M160.915018,0 L160.915018,322.0239 L160.915018,324.456016 L159.842251,324.456016 L158.616232,324.456016 L16.4263583,324.456016 L10.7284341,324.456016 L0,324.456016 L0,336.473303 L319.53125,336.473303 L319.53125,324.456016 L307.74001,324.456016 L307.74001,218.193868 L230.824931,200.818877 L230.824931,37.2518267 L160.915018,0 Z M167.661955,32.6121103 L167.661955,15.5260004 L183.515915,23.6575727 L183.515915,40.291588 L167.661955,32.6121103 Z M190.092742,43.4777053 L190.092742,27.0314242 L204.795777,34.5729747 L204.795777,50.5993443 L190.092742,43.4777053 Z M210.903651,53.5578818 L210.903651,37.7054538 L224.57683,44.7190498 L224.57683,60.1806842 L210.903651,53.5578818 Z M167.661955,57.3570088 L167.661955,40.2708989 L183.515915,47.7473171 L183.515915,64.3813324 L167.661955,57.3570088 Z M190.092742,67.2954268 L190.092742,50.8499119 L204.795777,57.7838167 L204.795777,73.80942 L190.092742,67.2954268 Z M210.903651,76.5158573 L210.903651,60.6634293 L224.57683,67.1115239 L224.57683,82.5739246 L210.903651,76.5158573 Z M167.661955,82.1026735 L167.661955,65.0165636 L183.515915,71.8378279 L183.515915,88.4710769 L167.661955,82.1026735 Z M190.092742,91.1139145 L190.092742,74.6683997 L204.795777,80.9946586 L204.795777,97.0202619 L190.092742,91.1139145 Z M210.903651,99.4745991 L210.903651,83.622171 L224.57683,89.5047643 L224.57683,104.967165 L210.903651,99.4745991 Z M167.661955,106.848338 L167.661955,89.7622283 L183.515915,95.9283386 L183.515915,112.561588 L167.661955,106.848338 Z M190.092742,114.932402 L190.092742,98.4861211 L204.795777,104.204734 L204.795777,120.231104 L190.092742,114.932402 Z M210.903651,122.432575 L210.903651,106.580147 L224.57683,111.898005 L224.57683,127.359639 L210.903651,122.432575 Z M167.661955,131.594003 L167.661955,114.507893 L183.515915,120.018849 L183.515915,136.652098 L167.661955,131.594003 Z M190.092742,138.75089 L190.092742,122.304609 L204.795777,127.415576 L204.795777,143.441946 L190.092742,138.75089 Z M210.903651,145.39055 L210.903651,129.538122 L224.57683,134.291245 L224.57683,149.75288 L210.903651,145.39055 Z M167.661955,156.339668 L167.661955,139.252792 L183.515915,144.108594 L183.515915,160.742609 L167.661955,156.339668 Z M190.092742,162.568611 L190.092742,146.123097 L204.795777,150.626418 L204.795777,166.652788 L190.092742,162.568611 Z M210.903651,168.348526 L210.903651,152.496097 L224.57683,156.683719 L224.57683,172.14612 L210.903651,168.348526 Z M167.661955,181.084566 L167.661955,163.998456 L183.515915,168.198338 L183.515915,184.832353 L167.661955,181.084566 Z M190.092742,186.387099 L190.092742,169.941584 L204.795777,173.836494 L204.795777,189.86363 L190.092742,186.387099 Z M210.903651,191.307267 L210.903651,175.454839 L224.57683,179.077726 L224.57683,194.538594 L210.903651,191.307267 Z M167.661955,205.830231 L167.661955,188.744121 L183.515915,192.289615 L183.515915,208.922864 L167.661955,205.830231 Z M190.092742,210.204821 L190.092742,193.759306 L204.795777,197.047336 L204.795777,213.073705 L190.092742,210.204821 Z M210.903651,214.266009 L210.903651,198.412815 L224.57683,201.4702 L224.57683,216.932601 L210.903651,214.266009 Z M167.661955,230.575896 L167.661955,213.489786 L183.515915,216.378593 L183.515915,233.012609 L167.661955,230.575896 Z M230.824931,229.861739 L230.824931,214.892811 L294.638463,228.548366 L294.638463,241.733436 L230.824931,229.861739 Z M190.092742,234.024074 L190.092742,217.577793 L204.795777,220.258178 L204.795777,236.284547 L190.092742,234.024074 Z M210.903651,237.223985 L210.903651,221.371557 L224.57683,223.86344 L224.57683,239.325841 L210.903651,237.223985 Z M167.661955,255.320028 L167.661955,238.23545 L183.515915,240.46987 L183.515915,257.103119 L167.661955,255.320028 Z M190.092742,257.842562 L190.092742,241.396281 L204.795777,243.46902 L204.795777,259.494623 L190.092742,257.842562 Z M230.824931,257.985853 L230.824931,243.017691 L294.638463,253.32085 L294.638463,266.50592 L230.824931,257.985853 Z M210.903651,260.18196 L210.903651,244.329532 L224.57683,246.256681 L224.57683,261.719082 L210.903651,260.18196 Z M167.661955,280.067225 L167.661955,262.980349 L183.515915,264.560381 L183.515915,281.19363 L167.661955,280.067225 Z M190.092742,281.66105 L190.092742,265.214769 L204.795777,266.679862 L204.795777,282.705465 L190.092742,281.66105 Z M210.903651,283.139936 L210.903651,267.287507 L224.57683,268.649921 L224.57683,284.111556 L210.903651,283.139936 Z M230.824931,286.110733 L230.824931,271.142572 L294.638463,278.0941 L294.638463,291.278404 L230.824931,286.110733 Z M167.661955,304.812123 L167.661955,287.726014 L183.515915,288.650126 L183.515915,305.283375 L167.661955,304.812123 Z M190.092742,305.479538 L190.092742,289.033257 L204.795777,289.889937 L204.795777,305.916307 L190.092742,305.479538 Z M210.903651,306.097911 L210.903651,290.246249 L224.57683,291.043162 L224.57683,306.504796 L210.903651,306.097911 Z M230.824931,314.234847 L230.824931,299.266685 L294.638463,302.868117 L294.638463,316.050888 L230.824931,314.234847 Z" id="Fill-2"></path>
    </g>
</svg>