<?xml version="1.0" encoding="UTF-8"?>
<svg width="120px" height="108px" viewBox="0 0 120 108" version="1.1" xmlns="http://www.w3.org/2000/svg" xmlns:xlink="http://www.w3.org/1999/xlink">
    <!-- Generator: Sketch 44.1 (41455) - http://www.bohemiancoding.com/sketch -->
    <title>Page 1</title>
    <desc>Created with Sketch.</desc>
    <defs></defs>
    <g id="Comps" stroke="none" stroke-width="1" fill="none" fill-rule="evenodd">
        <g id="Home-v4_ListActions" transform="translate(-948.000000, -151.000000)" fill="#FFFFFF">
            <g id="Group-9" transform="translate(281.000000, 48.000000)">
                <g id="CAROUSEL" transform="translate(0.000000, 65.000000)">
                    <g id="Group-13" transform="translate(645.000000, 12.000000)">
                        <g id="CLASSIC-BULLS" transform="translate(2.000000, 0.000000)">
                            <g id="Page-1" transform="translate(20.000000, 26.000000)">
                                <path d="M71.6735102,103.443115 C67.8745306,109.518676 52.0002449,109.519084 48.2014694,103.443115 C49.6243265,103.648702 51.2633061,103.513753 52.8416735,103.263047 C52.8124898,103.270396 59.8949388,105.832793 67.0635102,103.270396 C67.0384082,103.264067 69.7975918,103.714646 71.6735102,103.443115" id="Fill-1"></path>
                                <path d="M71.283,92.0107123 C71.020551,92.324096 70.7638163,92.614614 70.573,92.7973361 C69.9619796,93.3818427 68.8619796,94.0318843 68.495449,94.6161868 C67.8495306,95.6467803 71.4201429,99.0047841 73.098102,94.5541225 C74.0823878,91.9417066 73.7268776,89.0957331 71.283,92.0107123 M48.593,92.0107123 C48.855449,92.324096 49.1121837,92.614614 49.3032041,92.7973361 C49.9140204,93.3818427 51.0140204,94.0318843 51.3807551,94.6161868 C52.0264694,95.6467803 48.4558571,99.0047841 46.778102,94.5541225 C45.7938163,91.9417066 46.1491224,89.0957331 48.593,92.0107123 M77.1491224,95.0659486 C76.4699388,101.021873 72.6242245,102.313381 66.3295306,101.107824 C62.7501429,100.423688 57.1260612,100.423688 53.5466735,101.107824 C47.2536122,102.312973 43.4062653,101.023506 42.7268776,95.0659486 C42.155449,90.0536461 46.1721837,88.0116499 50.4327959,87.6576386 C53.7085102,87.3854949 56.7036122,88.4779486 59.938102,88.5612454 C63.1723878,88.4779486 66.1674898,87.3854949 69.4432041,87.6576386 C73.7038163,88.0116499 77.720551,90.0536461 77.1491224,95.0659486" id="Fill-3" opacity="0.813915308"></path>
                                <path d="M82.1067959,54.8138382 C78.7180204,55.6482352 77.6031224,55.5461558 75.2861837,57.7006435 C73.3631224,59.4886662 70.3708776,64.4891274 67.0723061,60.0509195 C68.2957755,65.0752673 70.857,64.4540121 72.9284286,63.2621331 C75.5100612,64.03222 78.0559796,64.7453467 80.0223061,62.0447342 C81.6429184,59.708341 80.982102,56.6449384 82.1067959,54.8138382 M37.7690408,54.8138382 C41.1578163,55.6482352 42.2727143,55.5461558 44.589449,57.7006435 C46.5127143,59.4886662 49.5049592,64.4891274 52.8035306,60.0509195 C51.5800612,65.0752673 49.0188367,64.4540121 46.9474082,63.2621331 C44.3655714,64.03222 41.8196531,64.7453467 39.8535306,62.0447342 C38.2331224,59.708341 38.8935306,56.6449384 37.7690408,54.8138382 M7.53781633,50.2167947 C16.1612857,48.6531425 31.5408776,50.8794941 32.4147551,55.5437059 C30.0778163,52.7261104 17.6447551,51.2394261 9.51169388,51.8061709 C6.3492449,52.0264582 9.36516327,55.4971577 10.0347551,55.9742767 C19.7127143,62.5975962 22.9192449,58.2633051 32.1016939,58.0209686 C34.2916939,73.4239327 40.9812857,81.9093845 43.0757755,88.2029875 C44.412102,86.5178609 47.2174082,85.4102994 49.2327143,84.9913656 L51.3508776,71.29129 L51.6978163,84.9550253 C54.0165918,84.8931652 57.4490408,85.7912597 59.9380204,86.0450291 C62.427,85.7912597 65.859449,84.8931652 68.1782245,84.9550253 L68.5249592,71.29129 L70.6431224,84.9913656 C72.6586327,85.4102994 75.4637347,86.5178609 76.8002653,88.2029875 C78.8947551,81.9093845 85.5843469,73.4239327 87.7743469,58.0209686 C96.9565918,58.2633051 100.163531,62.5975962 109.841082,55.9742767 C110.510673,55.4971577 113.526796,52.0264582 110.364551,51.8061709 C102.231286,51.2394261 89.7982245,52.7261104 87.4612857,55.5437059 C88.3351633,50.8794941 103.714755,48.6531425 112.338224,50.2167947 C101.034143,45.1434488 89.0239388,49.4162881 84.5159796,51.0491501 C79.7727143,46.8865565 79.6306735,36.6185943 80.4874082,33.0356076 C80.7043469,32.1283259 80.7165918,31.4987002 78.9804694,31.0679251 C75.1598571,30.1191992 70.8565918,30.9192975 66.3914898,31.2087947 C64.161898,31.3529308 62.0488367,31.4268363 59.9380204,31.4301028 C57.8272041,31.4268363 55.7141429,31.3529308 53.484551,31.2087947 C49.019449,30.9192975 44.7163878,30.1191992 40.8955714,31.0679251 C39.1596531,31.4987002 39.1714898,32.1283259 39.3886327,33.0356076 C40.2453673,36.6185943 40.1031224,46.8865565 35.3600612,51.0491501 C30.8523061,49.4162881 18.8416939,45.1434488 7.53781633,50.2167947" id="Fill-5"></path>
                                <path d="M35.881898,31.9202473 C13.4061837,30.6720204 7.06842857,21.7163909 10.6147551,2.0415879e-05 C-1.37667347,10.4502964 -4.04606122,29.2555667 6.95108163,39.0653966 C12.5916939,44.0975025 25.8723061,47.0212605 34.0784286,48.1396423 C36.8043469,44.2669543 38.1884286,36.7155289 35.881898,31.9202473" id="Fill-7" opacity="0.833673007"></path>
                                <path d="M83.9942449,31.9202473 C106.469755,30.6720204 112.80751,21.7163909 109.26098,2.0415879e-05 C121.252612,10.4502964 123.922204,29.2555667 112.924857,39.0653966 C107.284245,44.0975025 94.0036327,47.0212605 85.7975102,48.1396423 C83.0715918,44.2669543 81.6877143,36.7155289 83.9942449,31.9202473" id="Fill-9" opacity="0.833673007"></path>
                            </g>
                        </g>
                    </g>
                </g>
            </g>
        </g>
    </g>
</svg>