<?xml version="1.0" encoding="UTF-8"?>
<svg width="400px" height="400px" viewBox="0 0 400 400" version="1.1" xmlns="http://www.w3.org/2000/svg" xmlns:xlink="http://www.w3.org/1999/xlink">
    <defs></defs>
    <g id="img_list-luxury" fill="#ffffff" stroke="none" stroke-width="1" fill-rule="evenodd">
        <path d="M213.280651,199.6464 C213.280651,252.114172 170.728874,294.6815 118.111898,294.6815 C65.5705536,294.6815 22.9415701,252.114172 22.9415701,199.6464 C22.9415701,147.178629 65.5705536,104.606565 118.111898,104.606565 C170.728874,104.606565 213.280651,147.178629 213.280651,199.6464 M122.911303,307.012468 C122.911303,300.653647 113.315645,300.653647 113.315645,307.012468 C113.315645,313.295533 122.911303,313.295533 122.911303,307.012468 M122.911303,92.2787539 C122.911303,98.6391533 113.315645,98.6391533 113.315645,92.2787539 C113.315645,85.9909545 122.911303,85.9909545 122.911303,92.2787539 M154.293356,306.228072 C187.405465,294.995575 213.595779,268.840602 224.842709,235.775994 C227.20302,228.864781 215.484974,227.289675 213.595779,232.70943 C203.448647,261.771563 180.404889,284.863127 151.224007,294.91824 C145.876279,296.802686 147.369987,308.505505 154.293356,306.228072 M11.3779364,235.775994 C22.6264418,268.840602 48.8167564,294.995575 82.010798,306.228072 C88.8506582,308.505505 90.4262998,296.802686 84.9982145,294.91824 C55.8945385,284.863127 32.771998,261.771563 22.7036482,232.70943 C20.8191809,227.289675 9.09640735,228.864781 11.3779364,235.775994 M82.010798,93.0631505 C48.8167564,104.295648 22.6264418,130.447464 11.3779364,163.515228 C9.09640735,170.428019 20.8191809,171.996813 22.7036482,166.578636 C32.771998,137.43759 55.8945385,114.424939 84.9982145,104.295648 C90.4262998,102.488537 88.8506582,90.7052258 82.010798,93.0631505 M224.842709,163.515228 C213.595779,130.447464 187.405465,104.295648 154.293356,93.0631505 C147.369987,90.7052258 145.876279,102.488537 151.224007,104.295648 C180.404889,114.424939 203.448647,137.43759 213.595779,166.578636 C215.484974,171.996813 227.20302,170.428019 224.842709,163.515228 M227.754495,194.772724 C225.080631,190.296771 225.316977,189.591287 222.170421,194.772724 C219.183004,199.80107 219.023865,199.171343 222.170421,204.436428 C224.842709,208.989717 224.606363,209.696778 227.754495,204.436428 C230.741911,199.485417 230.901051,200.116723 227.754495,194.772724 M13.9745937,194.618055 C11.1415901,189.750692 11.2187966,189.826449 8.39051992,194.618055 C5.39837652,199.567487 5.24396364,198.939339 8.39051992,204.199689 C11.0643837,208.680377 10.8280375,209.464774 13.9745937,204.199689 C16.9620102,199.253413 17.12115,199.878405 13.9745937,194.618055 M214.619946,268.291367 C201.089912,287.847622 185.988963,306.621059 185.437488,325.628079 C185.046729,336.858998 180.642811,343.38038 173.008827,346.988289 C167.662675,349.502462 166.406889,347.149272 166.406889,342.043592 L166.406889,316.357363 C166.406889,308.505505 164.990387,308.58284 158.1458,311.0181 C132.269038,320.208325 103.401708,320.13099 77.6037285,310.860273 C70.5259464,308.267187 69.8972654,309.449306 69.8972654,316.671437 L69.8972654,340.784138 C69.8972654,346.364875 69.5017793,350.054854 62.8982654,346.756285 C55.5022037,343.143641 51.1754919,336.701172 50.8619392,325.628079 C50.2332582,306.621059 35.1323091,287.847622 21.6842081,268.291367 C-5.76661985,228.626464 -7.49824997,176.004022 18.4557185,135.630479 C29.3906712,118.667309 50.2332582,93.456138 50.8619392,73.4264036 C51.1754919,62.4322243 55.5022037,55.9124203 62.816332,52.2981982 C68.2444174,49.6293557 69.8972654,51.0434792 69.8972654,57.2476307 L69.8972654,83.2447771 C69.8972654,91.3349527 71.9424482,90.4716429 78.4687557,88.1137181 C104.030389,79.161811 132.505384,79.161811 158.068594,88.2731226 C166.011403,91.0982132 166.324956,90.0754989 166.324956,81.8322318 C166.324956,73.6647213 166.406889,65.492476 166.406889,57.4038787 C166.406889,50.4910872 168.604909,49.4699511 174.663251,52.9279251 C181.271492,56.6968169 185.123936,63.0603729 185.437488,73.4264036 C185.988963,92.357667 206.281651,118.274322 216.901475,134.298425 C243.797677,174.82506 242.385903,228.156141 214.619946,268.291367 M260,192.656274 L260,210.642158 C260,213.470405 258.038326,215.823595 255.205323,216.377565 C252.449525,216.846309 249.700031,217.393967 246.944234,217.869024 C241.438942,218.885425 240.969401,218.730755 241.598082,213.156331 C242.385903,205.534899 242.540315,197.837711 241.990417,190.219436 C241.598082,184.878594 241.675288,184.485607 247.18058,185.429408 C249.854444,185.977065 252.531459,186.452122 255.205323,186.922445 C258.038326,187.468524 260,189.826449 260,192.656274" id="Fill-1" opacity="0.9"></path>
        <path d="M208,199.00361 C208,248.126421 167.974606,288.001807 118.5,288.001807 C69.1011515,288.001807 29,248.126421 29,199.00361 C29,149.880799 69.1011515,110.00069 118.5,110.00069 C167.974606,110.00069 208,149.880799 208,199.00361 Z M180.031151,144.236942 C180.031151,137.894097 179.242007,137.894097 173.572795,137.894097 C167.89727,137.894097 167.108126,137.894097 167.108126,144.236942 C167.108126,149.95794 167.190197,150.663225 173.572795,150.663225 C179.319343,150.663225 180.031151,150.586084 180.031151,144.236942 Z M69.8902957,253.68684 C69.8902957,247.421135 69.1784877,247.34242 63.5076975,247.34242 C57.8337507,247.34242 57.0493414,247.34242 57.0493414,253.68684 C57.0493414,259.407838 57.0493414,260.113123 63.4272048,260.113123 C69.1784877,260.113123 69.8902957,260.113123 69.8902957,253.68684 Z M69.8902957,144.318805 C69.8902957,138.676522 69.9676319,137.894097 63.5076975,137.894097 C57.0493414,137.894097 57.0493414,138.599382 57.0493414,144.318805 C57.0493414,150.03508 57.2040136,150.663225 63.5076975,150.663225 C69.1784877,150.663225 69.8902957,150.586084 69.8902957,144.318805 Z M180.031151,253.373555 C180.031151,247.811561 179.557665,247.34242 173.572795,247.34242 C167.819934,247.34242 167.108126,247.421135 167.108126,253.68684 C167.108126,260.346119 168.056677,260.113123 173.886875,260.113123 C179.794408,260.113123 180.031151,259.484978 180.031151,253.373555 Z M103.610427,204.094889 C101.954803,197.434035 102.98069,192.890612 95.5722045,197.042035 C81.0756256,205.193748 66.5001323,213.33759 51.9262172,221.566444 C42.5511842,226.813579 42.8668418,227.910864 53.4224346,225.562012 C69.0222371,222.035585 84.5415469,218.509158 100.142928,215.063021 C108.176416,213.262024 105.580131,212.005734 103.610427,204.094889 Z M129.451743,213.024305 C130.08148,209.105878 130.788553,205.269315 131.498783,201.429603 C131.737105,199.786036 131.498783,198.298325 130.711217,196.886179 C119.050823,175.574912 107.313092,154.345507 95.6495406,133.114529 C90.3717442,123.556967 90.0576648,126.37496 92.2656903,135.230385 C98.0943093,158.341075 103.924507,181.532054 109.754704,204.719885 C110.228191,206.520881 111.250921,207.933026 112.82921,208.874456 C116.451382,211.144594 120.078288,213.498169 123.70046,215.768306 C127.873455,218.432018 128.585263,217.649592 129.451743,213.024305 Z M134.41546,191.481616 C139.377599,200.414181 139.218192,197.593039 146.626677,190.06947 C151.98181,184.745196 151.51148,183.252761 143.788915,183.49048 C132.917664,183.725051 128.976678,181.609195 134.41546,191.481616" id="Combined-Shape"></path>
        <path d="M161,69.2755832 L161,4.72488108 C161,2.12595921 158.874211,0 156.274972,0 L80.6476977,0 C78.1257891,0 76,2.12595921 76,4.72488108 L76,69.2755832 C76,71.874505 78.1257891,74.0004642 80.6476977,74.0004642 L156.274972,74.0004642 C158.874211,74.0004642 161,71.874505 161,69.2755832" id="Path" opacity="0.6"></path>
        <path d="M161,329.725641 L161,394.283647 C161,396.881153 158.874211,399.002503 156.274972,399.002503 L80.6476977,399.002503 C78.1257891,399.002503 76,396.881153 76,394.283647 L76,329.725641 C76,327.129716 78.1257891,325.002039 80.6476977,325.002039 L156.274972,325.002039 C158.874211,325.002039 161,327.129716 161,329.725641" id="Path" opacity="0.6"></path>
    </g>
</svg>