<?xml version="1.0" encoding="UTF-8"?>
<svg width="400px" height="400px" viewBox="0 0 400 400" version="1.1" xmlns="http://www.w3.org/2000/svg" xmlns:xlink="http://www.w3.org/1999/xlink">
    <defs></defs>
    <g id="img_list-classicbears" fill="#ffffff" stroke="none" stroke-width="1" fill-rule="evenodd">
        <path d="M129.675146,78.3507983 C121.378393,78.8394789 117.1948,86.1543961 106.307887,89.3590772 C105.696561,89.5392574 105.267304,90.0199595 105.157664,90.6475983 C105.048689,91.2765668 105.288568,91.8722918 105.802879,92.249274 C108.548528,94.2611754 113.370027,94.4639612 116.392102,97.7637189 C116.888472,98.3075839 117.656616,98.4525259 118.317778,98.1280685 C124.663604,95.0084911 130.287136,87.6450382 131.389516,80.2257362 C131.464603,79.7210987 131.322403,79.2556886 130.978864,78.8800361 C130.633997,78.5030539 130.184141,78.3195494 129.675146,78.3507983 M274.453676,149.069865 C274.325431,148.512037 274.148013,148.529989 274.080236,149.091805 C272.292773,163.599968 264.368796,182.735637 248.290931,189.805882 C247.777949,190.036592 247.653026,189.853088 248.000551,189.407624 C262.457074,170.801857 259.898145,118.348808 216.934576,110.370349 C216.389034,110.265964 216.349165,110.395614 216.840883,110.666882 C240.055976,123.534806 253.471916,190.366369 198.121028,204.123227 C204.402399,195.693985 201.794298,184.475606 197.627316,179.647309 C197.260521,179.220461 196.90037,179.364738 196.851863,179.92456 C195.41259,193.681418 177.894122,216.404735 149.066795,210.129012 C148.519924,210.022632 148.365099,210.252678 148.745184,210.660909 C164.688824,227.665 203.359159,232.759246 230.878781,223.378573 C256.484024,214.656787 284.43091,189.512009 274.453676,149.069865 M11.5510794,121.635268 C29.6569509,117.405355 28.7233503,115.547039 45.3474215,106.938947 C52.8295161,103.062081 60.1827007,100.058856 73.1700487,95.7917098 C73.7660912,95.6002268 74.5176231,95.0404049 74.8638195,94.5417512 C83.6051121,81.7456326 84.0150989,69.9122481 96.6396385,57.4139921 C98.8796155,55.1953156 101.475756,52.9447253 104.550326,50.5691391 C110.724715,45.7993503 120.260731,41.7429688 125.022426,39.6778776 C129.38676,37.7929667 146.984965,30.2300524 160.120493,25.7262122 C164.698791,12.1714752 172.93574,4.79273033 181.193952,1.76224563 C201.588972,-5.71822459 221.566697,11.965365 213.220108,29.4215685 C223.903024,24.2043212 230.943236,34.0696858 243.212277,37.3022914 C256.464089,40.8048349 273.109424,34.4433436 270.321248,23.8413013 C270.167087,23.2442466 270.377729,23.0899964 270.839545,23.4949032 C276.647804,28.8637413 276.764088,38.6386833 271.839594,46.3950752 C301.217115,42.6817674 319.623334,77.1939218 333.849281,60.4478011 C334.212089,60.0196238 334.724407,59.8161731 335.281909,59.8793359 C335.842069,59.9444933 336.293254,60.2576478 336.549081,60.7569664 C343.942799,75.1494416 334.968937,89.593112 324.943196,91.1907984 C368.599822,138.506385 354.294137,198.623409 338.365117,217.098196 C337.905294,217.630758 337.192966,217.808943 336.536456,217.554298 C335.879281,217.300317 335.473281,216.68797 335.491886,215.983206 C335.822799,203.865921 333.002063,188.557253 322.343733,171.804484 C334.132351,272.869619 256.358436,291.689474 242.703946,291.325124 C245.664889,284.318708 235.336807,262.556131 220.221116,261.823442 C237.798058,286.802003 230.12592,309.277987 215.796978,321.574122 C202.007598,333.389555 182.063762,335.795725 172.487213,329.927569 C171.946987,329.618404 172.044002,329.329849 172.659314,329.272005 C179.889569,328.617772 195.14148,321.68981 195.14148,296.866164 C195.14148,260.341444 152.388552,247.428973 138.753997,233.035168 C140.035787,237.576905 140.768713,244.371893 135.202992,248.710845 C134.7033,249.10046 134.072039,249.170271 133.501247,248.900998 C132.927797,248.631725 132.581601,248.095174 132.564989,247.461551 C131.727074,214.298421 69.3226839,211.029248 51.2281086,203.802094 C40.7757687,199.628695 32.9375105,192.384919 32.9375105,185.08064 C16.3386896,185.08064 5.29960992,160.007002 5.29960992,150.405592 C0.914677219,141.150579 -6.51625206,126.728185 11.5510794,121.635268" id="fill"></path>
    </g>
</svg>