<?xml version="1.0" encoding="UTF-8"?>
<svg width="79px" height="121px" viewBox="0 0 79 121" version="1.1" xmlns="http://www.w3.org/2000/svg" xmlns:xlink="http://www.w3.org/1999/xlink">
    <!-- Generator: Sketch 44.1 (41455) - http://www.bohemiancoding.com/sketch -->
    <title>Page 1</title>
    <desc>Created with Sketch.</desc>
    <defs></defs>
    <g id="Comps" stroke="none" stroke-width="1" fill="none" fill-rule="evenodd">
        <g id="Home-v4_News-popup" transform="translate(-764.000000, -145.000000)" fill="#FFFFFF">
            <g id="Group-9" transform="translate(281.000000, 48.000000)">
                <g id="CAROUSEL" transform="translate(0.000000, 65.000000)">
                    <g id="Group-17" transform="translate(440.000000, 12.000000)">
                        <g id="IDEAS-FOR-YOU" transform="translate(2.000000, 0.000000)">
                            <g id="Page-1" transform="translate(41.000000, 20.000000)">
                                <path d="M39.2533871,121.003466 C46.153446,121.003466 52.120854,118.489316 56.0246117,113.572392 L22.4954468,113.572392 C26.3969141,118.486121 32.3565347,121.003466 39.2533871,121.003466" id="Fill-1" opacity="0.700634058"></path>
                                <path d="M17.9968155,99.0459701 C17.9968155,99.8319841 18.0467462,100.604304 18.1218714,101.368865 L61.0755739,101.368865 C61.1516152,100.605674 61.1896359,99.8306147 61.1896359,99.0459701 C61.1896359,98.9240968 61.1896359,97.6040315 61.190552,95.6399094 L17.9963574,95.6399094 C17.9968155,97.6040315 17.9968155,98.9240968 17.9968155,99.0459701" id="Fill-3" opacity="0.700634058"></path>
                                <path d="M25.7108826,104.606151 L17.9963574,104.606151 C18.4613086,106.742813 19.2102694,108.144583 20.2207939,109.996418 L20.5313721,110.489388 L57.6175281,110.489388 C58.7668508,108.505639 59.6152149,106.934067 60.1191029,104.606151 L52.3977066,104.606151 L25.7108826,104.606151 Z" id="Fill-5"></path>
                                <path d="M70.617305,38.3960083 C69.9837803,48.4987075 65.6475951,55.6454098 61.8217111,61.9504107 C59.8318116,65.2277513 57.9532256,68.3243361 56.7471009,71.5706379 C55.1021357,75.9950477 54.1259672,80.460082 53.626202,84.2208076 L24.4991858,84.2208076 C23.9998786,80.4632772 23.0237102,75.9964171 21.3787449,71.5706379 C20.1721622,68.3243361 18.2931181,65.2277513 16.3036767,61.9504107 C12.4777926,55.6454098 8.14114936,48.4987075 7.50808282,38.3960083 C7.04313163,30.995974 9.83604533,23.6881434 15.3710258,17.8176869 C21.5015104,11.313672 30.358487,7.43152965 39.0624648,7.43152965 C47.7650685,7.43152965 56.6229613,11.313672 62.7543619,17.8176869 C68.2893425,23.6881434 71.0817981,30.995974 70.617305,38.3960083 M39.0624648,0 C17.8680199,0 -1.25727779,17.7811705 0.0647410601,38.8593093 C1.15222296,56.1990887 11.3087725,65.8736339 14.3852377,74.1514295 C16.5350071,79.937442 17.4355924,86.0110206 17.4635352,89.793656 C17.4635352,89.8666887 17.4639933,90.4824453 17.4644514,91.3428613 L60.6600202,91.3428613 C60.6600202,90.4824453 60.6613945,89.8676016 60.6613945,89.7945689 C60.6893373,86.0110206 61.5899226,79.937442 63.739692,74.1514295 C66.8166153,65.8736339 76.9727067,56.1990887 78.0606467,38.8593093 C79.3831236,17.7811705 60.2573679,0 39.0624648,0" id="Fill-7"></path>
                                <path d="M21.7791658,39.2174107 C20.4301202,32.537661 24.7708862,26.0336462 31.4748868,24.6898452 C38.1775132,23.3460443 44.7042369,27.67186 46.0532825,34.3506968 C47.40187,41.030903 43.0606459,47.5344614 36.3575614,48.8782624 C29.6544769,50.2220633 23.1272952,45.8962475 21.7791658,39.2174107 M35.5962325,53.5861302 L35.942541,55.3014848 C35.9865167,55.5196699 36.1999819,55.6616271 36.4184861,55.6173511 L38.9168543,55.1170774 C39.1358166,55.0728013 39.2773633,54.8605501 39.2329295,54.6419086 L38.8875372,52.926554 C38.8426454,52.7079125 38.9805275,52.4783161 39.1930766,52.4075657 C39.9351662,52.1583417 40.6506871,51.8598207 41.3359748,51.5170237 C41.5352396,51.4170602 41.7963452,51.4818767 41.9209429,51.6667406 L42.8989437,53.1196341 C43.0239995,53.3035851 43.2750274,53.3533386 43.4610078,53.2287266 L45.5773374,51.8146318 C45.7624017,51.6904762 45.8127905,51.4394265 45.6872766,51.255019 L44.7092758,49.8030384 C44.5846781,49.617718 44.6240729,49.3529746 44.7921883,49.2059964 C45.3762403,48.6965936 45.9236459,48.1479357 46.4270758,47.5655003 C46.5736614,47.3966123 46.8384316,47.3569007 47.0248702,47.4796869 L48.48981,48.4501084 C48.6753324,48.5738074 48.9268183,48.523141 49.0504999,48.3378207 L50.4613863,46.2239816 C50.5850679,46.0382048 50.5346791,45.7876115 50.3486986,45.6643688 L48.8846749,44.6944038 C48.6982364,44.5707047 48.6327309,44.3118953 48.7316762,44.1119683 C49.0761524,43.4222662 49.3729882,42.7083719 49.6185191,41.9753066 C49.6895215,41.7630554 49.9194776,41.6252063 50.1384399,41.6685694 L51.8608206,42.0054325 C52.0797829,42.0483392 52.2932481,41.906382 52.3353915,41.687284 L52.8269113,39.1964138 C52.8704289,38.9777723 52.727508,38.7650647 52.5076296,38.7230709 L50.7852488,38.3848384 C50.5658285,38.3423882 50.4050424,38.1273983 50.4201591,37.9051051 C50.4723802,37.1428267 50.4737544,36.3700499 50.4160363,35.5908827 C50.3995455,35.369046 50.5584992,35.1535996 50.7788357,35.10978 L52.4993841,34.7651572 C52.7188044,34.7204247 52.8612673,34.5081735 52.8163755,34.2899884 L52.3138617,31.8014005 C52.2703441,31.5832155 52.0573369,31.4417147 51.8374585,31.4855343 L50.1155359,31.83107 C49.8965736,31.8744332 49.6661594,31.7374969 49.595157,31.5261587 C49.3464196,30.7857901 49.045461,30.0737217 48.7014429,29.3904098 C48.6011234,29.1913958 48.6657127,28.931217 48.8516932,28.8070614 L50.3093037,27.8325319 C50.4948261,27.7079199 50.5442987,27.4573266 50.4192429,27.2724627 L49.0005692,25.165014 C48.8750553,24.98015 48.6244855,24.9313094 48.438505,25.0550085 L46.9813526,26.0295381 C46.7958302,26.1536936 46.5296857,26.1153515 46.3831001,25.9473763 C45.8723409,25.3644844 45.3212707,24.8199346 44.7353864,24.3169222 C44.5663549,24.1713133 44.5260438,23.9070264 44.6506416,23.7212496 L45.6236035,22.2619657 C45.7472851,22.0771018 45.6973544,21.8265085 45.511832,21.7028094 L43.3890893,20.2973871 C43.2031088,20.1741445 42.952081,20.2243545 42.8283994,20.4096749 L41.8545213,21.8685023 C41.7308397,22.0542791 41.4706503,22.119552 41.2704693,22.0205015 C40.5787686,21.6777044 39.8618734,21.3819222 39.1252807,21.1377192 C38.9127316,21.0669688 38.7748496,20.8373724 38.8179091,20.6191873 L39.1559721,18.9033762 C39.1990316,18.6847347 39.0561107,18.47294 38.8371484,18.4300333 L36.3364898,17.940258 C36.1170694,17.8968949 35.9040623,18.0393086 35.8619189,18.2579501 L35.5229397,19.9746741 C35.4798802,20.1933156 35.2641245,20.3530745 35.0414976,20.338468 C34.2751298,20.2859758 33.5005165,20.2859758 32.7190321,20.3430326 C32.4964052,20.3594649 32.2801915,20.2001624 32.2362158,19.9824338 L31.8899073,18.2666227 C31.8454735,18.0479812 31.6324663,17.9064804 31.413046,17.9507565 L28.9155939,18.4510302 C28.6966317,18.4953062 28.555085,18.7075574 28.5995187,18.9261989 L28.9458272,20.64201 C28.9898029,20.8601951 28.8523789,21.0897915 28.6393717,21.1605419 C27.8972821,21.4093094 27.1822192,21.7082869 26.4964735,22.0515404 C26.2972087,22.1510474 26.035645,22.0871438 25.9115054,21.9013669 L24.9325884,20.4484735 C24.8079907,20.2636095 24.5565047,20.2143125 24.3705243,20.338468 L22.2564851,21.7534758 C22.0705046,21.8780878 22.0214901,22.1286811 22.1456298,22.3130886 L23.1240886,23.7650692 C23.2477702,23.9499331 23.2097496,24.21422 23.0416342,24.3611982 C22.4566661,24.8710575 21.9106347,25.4197154 21.4049144,26.0026073 C21.2587869,26.1710389 20.9931005,26.2112068 20.80712,26.0875078 L19.3430964,25.1175427 C19.1571159,24.9938437 18.9051719,25.0449665 18.7819484,25.2302869 L17.3706039,27.344126 C17.2464643,27.5299028 17.2982273,27.7800397 17.4837497,27.9028258 L18.9482314,28.8732473 C19.13467,28.9969464 19.1997173,29.2566688 19.0998559,29.4561392 C18.7562959,30.1453849 18.459002,30.8597357 18.213013,31.5946268 C18.1433849,31.8055086 17.9125126,31.9433578 17.6935503,31.9004511 L15.9716276,31.5635879 C15.7526654,31.5197683 15.5396582,31.6626385 15.4961406,31.8808235 L15.0046208,34.3716937 C14.9615613,34.5903352 15.1044822,34.80213 15.3239025,34.8454931 L17.0467414,35.1832692 C17.2666198,35.2257194 17.4274059,35.4407093 17.4113731,35.6620895 C17.3600681,36.4252808 17.35961,37.1985141 17.4173281,37.9772249 C17.4333609,38.1990616 17.2730329,38.4145079 17.0545287,38.4583275 L15.3335222,38.8034068 C15.1136438,38.84677 14.9720971,39.0599341 15.0160728,39.2781191 L15.5181285,41.766707 C15.5621041,41.9853486 15.7755694,42.1268493 15.9940736,42.0825733 L17.7164543,41.737494 C17.9354166,41.6936744 18.1662889,41.8306106 18.2377494,42.0414924 C18.4869449,42.7823175 18.7874453,43.4939295 19.1314634,44.1772413 C19.2308668,44.3762553 19.1662775,44.6364341 18.9812132,44.7601332 L17.5226865,45.7355757 C17.3371641,45.8592748 17.2872334,46.1103245 17.4113731,46.2951884 L18.8323372,48.4035501 C18.9569349,48.5879575 19.2088789,48.637711 19.3934852,48.513099 L20.8510957,47.5390259 C21.0370762,47.4148704 21.3032207,47.453669 21.4498062,47.6211877 C21.9614816,48.2036231 22.5120937,48.7477165 23.0961457,49.2507289 C23.2660934,49.3963378 23.3054883,49.6606247 23.1822648,49.846858 L22.2083867,51.3052289 C22.0847051,51.4910058 22.135552,51.7411426 22.3210744,51.8648417 L24.4424428,53.2707204 C24.6288814,53.3944195 24.8799092,53.3437531 25.0040489,53.1584327 L25.9779269,51.6996053 C26.1011505,51.5138285 26.3622561,51.4476426 26.5619789,51.5471496 C27.2541378,51.8904031 27.9705749,52.185729 28.7076256,52.4308448 C28.9201747,52.5011388 29.0585149,52.7307352 29.0149973,52.9489203 L28.6764762,54.6647313 C28.6329586,54.8829164 28.7758795,55.095624 28.9957579,55.1380743 L31.4950423,55.628306 C31.7144627,55.6716691 31.9274699,55.528799 31.9700713,55.3101575 L32.3095086,53.5934335 C32.3525681,53.374792 32.5674076,53.2145766 32.7909506,53.230096 C33.5564023,53.2816753 34.3314736,53.2825882 35.1134162,53.2246186 C35.3365011,53.2090991 35.5517987,53.3679452 35.5962325,53.5861302" id="Fill-9"></path>
                                <path d="M32.5523632,31.3818453 C30.3109779,31.3818453 28.4942326,33.1925988 28.4942326,35.4255724 C28.4942326,37.6590024 30.3109779,39.4692995 32.5523632,39.4692995 C34.7937486,39.4692995 36.6104939,37.6590024 36.6104939,35.4255724 C36.6104939,33.1925988 34.7937486,31.3818453 32.5523632,31.3818453" id="Fill-11"></path>
                                <path d="M34.8946985,44.4147524 C30.3775718,44.4147524 26.7161384,40.7663146 26.7161384,36.2652204 C26.7161384,31.7641263 30.3775718,28.1147755 34.8946985,28.1147755 C39.4113672,28.1147755 43.0732587,31.7641263 43.0732587,36.2652204 C43.0732587,40.7663146 39.4113672,44.4147524 34.8946985,44.4147524 M45.7937957,36.2652204 C45.7937957,30.2669568 40.9138696,25.4043509 34.8946985,25.4043509 C28.8755275,25.4043509 23.9951433,30.2669568 23.9951433,36.2652204 C23.9951433,42.2634841 28.8755275,47.1256335 34.8946985,47.1256335 C40.9138696,47.1256335 45.7937957,42.2634841 45.7937957,36.2652204" id="Fill-13" opacity="0.495584239"></path>
                                <path d="M45.4938643,70.0861696 C41.6120945,70.187046 38.3840048,67.1319985 38.2832272,63.2640062 C38.1829077,59.3960139 41.2474628,56.1798382 45.1292326,56.0789618 C49.0110025,55.9789983 52.2395502,59.0335894 52.3394117,62.9015816 C52.4406473,66.7691175 49.3756341,69.9857497 45.4938643,70.0861696 M55.8570079,61.8604098 L54.8602259,61.8868841 C54.7333377,61.8891664 54.6174435,61.7905723 54.5982041,61.6655039 C54.5313244,61.226395 54.4337534,60.7996104 54.3073233,60.3837807 C54.2706769,60.2619074 54.3325177,60.1236018 54.4484119,60.0720225 L55.359533,59.6680606 C55.4754273,59.6164813 55.5281065,59.4818273 55.4763434,59.3654315 L54.8886268,58.0490178 C54.8368638,57.9330785 54.700814,57.8814991 54.5858359,57.932622 L53.6733406,58.3361275 C53.5588206,58.3877068 53.4131512,58.3402355 53.3481038,58.2320559 C53.1190638,57.8563942 52.8639133,57.4985341 52.5858587,57.1598452 C52.5052366,57.0617075 52.5084432,56.9101648 52.5963945,56.817961 L53.2835145,56.0967635 C53.3710078,56.0045598 53.3673432,55.8598638 53.274811,55.7731375 L52.2258078,54.7803498 C52.1328176,54.6931671 51.9880643,54.6968187 51.900571,54.7881095 L51.212993,55.5097635 C51.1254997,55.6015108 50.9734171,55.6129221 50.8717234,55.5380637 C50.5185437,55.2792542 50.1465828,55.0437238 49.7576728,54.8355807 C49.6463594,54.7757853 49.5913898,54.6333716 49.6362817,54.5156064 L49.993584,53.5885481 C50.039392,53.4703265 49.9807578,53.3379548 49.8621151,53.2923093 L48.5107791,52.7756033 C48.3921364,52.7299579 48.2592932,52.7888404 48.2144014,52.9070621 L47.8566409,53.8345768 C47.811291,53.9532549 47.6747831,54.021723 47.5515596,53.9911406 C47.1278356,53.887982 46.69495,53.8122106 46.2519867,53.7679345 C46.1260147,53.7556103 46.0201982,53.6456048 46.0174497,53.5196235 L45.9913392,52.5259229 C45.9881326,52.3985722 45.8823161,52.2995216 45.755428,52.3031732 L44.3088114,52.340146 C44.1819232,52.3433412 44.0816037,52.4483257 44.0861845,52.5747635 L44.1109208,53.5684641 C44.1145855,53.6949019 44.0151821,53.8099283 43.8901263,53.8290994 C43.4494533,53.8957417 43.0202324,53.9934229 42.6033796,54.1194042 C42.4819884,54.1559206 42.3408997,54.0942992 42.2905109,53.9788164 L41.8851101,53.0700162 C41.8333471,52.9545333 41.6972973,52.9024975 41.5814031,52.9540768 L40.2598423,53.5406204 C40.1439481,53.5912868 40.0921851,53.7273101 40.1425739,53.8423366 L40.5488908,54.7502238 C40.5997377,54.8657067 40.5525554,55.0094898 40.4449067,55.0752192 C40.0665326,55.3039027 39.708314,55.5576912 39.3684187,55.8347588 C39.2690153,55.9146383 39.1164747,55.9118996 39.0257748,55.8242604 L38.3010923,55.1386663 C38.2090182,55.0514836 38.0628907,55.0555916 37.9758555,55.1473389 L36.9795315,56.1930753 C36.8920382,56.2848226 36.896161,56.429975 36.987777,56.5162448 L37.7115434,57.2018389 C37.8040755,57.2894781 37.8155275,57.440108 37.7404024,57.5428102 C37.4797549,57.8951928 37.2443018,58.2658335 37.0349592,58.6524502 C36.9749507,58.7647379 36.8324878,58.8190559 36.7138451,58.7734105 L35.7839428,58.4178327 C35.6657581,58.3717309 35.5315407,58.4310699 35.4866488,58.5488351 L34.9676442,59.8944618 C34.9213781,60.0126835 34.9809285,60.1445987 35.1000293,60.1907006 L36.0308479,60.5471912 C36.1499487,60.5923802 36.2186607,60.7284035 36.1888855,60.8507332 C36.0844432,61.2724969 36.00886,61.7047589 35.9644263,62.1461501 C35.9516,62.2725879 35.8416608,62.3771158 35.7143146,62.380311 L34.7179906,62.4058725 C34.5911025,62.4099805 34.4903249,62.5145085 34.4930733,62.6404899 L34.5315521,64.0824285 C34.5338425,64.2084098 34.6396589,64.3083733 34.7665471,64.3051781 L35.7633292,64.2787037 C35.8897592,64.275965 36.0065696,64.3745591 36.025809,64.5005404 C36.0922306,64.9387364 36.1898016,65.3664339 36.3162317,65.7818072 C36.35242,65.903224 36.2905792,66.041986 36.1756011,66.0931089 L35.264022,66.4975273 C35.1476696,66.5486501 35.0959066,66.6833041 35.1472116,66.7992434 L35.7349282,68.1170265 C35.7871493,68.2320529 35.9236571,68.2845452 36.0381771,68.2334223 L36.9488402,67.8299169 C37.0656506,67.7778811 37.2104038,67.8258088 37.2759093,67.9339884 C37.5049493,68.3091937 37.7605579,68.6679666 38.0372382,69.0061991 C38.1187765,69.1034239 38.1146537,69.2558796 38.0267024,69.3476268 L37.3395824,70.0683679 C37.2520891,70.1605716 37.2566699,70.3052676 37.3482859,70.3929068 L38.3972891,71.3856945 C38.4902793,71.4724208 38.6354907,71.4683127 38.7225259,71.3774783 L39.4110201,70.6553679 C39.4975972,70.5636206 39.6501379,70.5522093 39.7522897,70.6275242 C40.1050113,70.8863337 40.4774303,71.121864 40.8658822,71.3300071 C40.9781118,71.3898026 41.0330814,71.5322163 40.9877314,71.6508944 L40.630429,72.5770398 C40.584163,72.6957179 40.6427972,72.8276331 40.761898,72.8723656 L42.1118597,73.3899846 C42.2309605,73.43563 42.3638037,73.3767474 42.4091536,73.2580693 L42.7669141,72.331011 C42.812264,72.2123329 42.9483138,72.1438648 43.0715373,72.1744472 C43.4948032,72.2776059 43.9290631,72.3533773 44.3715683,72.3967404 C44.4979984,72.4095211 44.6028987,72.5195266 44.6065634,72.6464208 L44.6322158,73.639665 C44.6354224,73.7665592 44.7407808,73.8660662 44.867669,73.8624146 L46.3142856,73.8249854 C46.4411737,73.8227031 46.5414932,73.7168057 46.5382867,73.5912809 L46.5130923,72.5966673 C46.5098857,72.4711424 46.6083729,72.356116 46.7338868,72.3369449 C47.1741017,72.2698462 47.6037807,72.1717085 48.0206335,72.0466401 C48.1411086,72.0101238 48.2821972,72.0717451 48.332586,72.1876844 L48.7379868,73.0955717 C48.790666,73.2105981 48.9257996,73.2626339 49.0412357,73.2110546 L50.3646288,72.6254239 C50.4805231,72.5743011 50.5322861,72.4382777 50.4809812,72.3232513 L50.0751223,71.415364 C50.0238173,71.2998811 50.0719157,71.1551852 50.1800226,71.0894558 C50.5570224,70.8612287 50.9170733,70.6074402 51.2551363,70.3303726 C51.3540816,70.2500366 51.5066222,70.2541447 51.5982382,70.3417839 L52.3229208,71.0269216 C52.4140787,71.1141043 52.5602062,71.1104527 52.6476995,71.0177925 L53.6431073,69.9720561 C53.7310587,69.8812217 53.7278521,69.7351564 53.63532,69.6488866 L52.9120117,68.9637489 C52.8185633,68.8765662 52.8084856,68.7254799 52.8826945,68.6227777 C53.1438001,68.2708515 53.3792532,67.9002108 53.5885958,67.5131377 C53.6486043,67.4013064 53.7906091,67.3465319 53.9092518,67.3921773 L54.8396123,67.7477551 C54.958255,67.7943134 55.0920143,67.7349744 55.1369062,67.6167528 L55.6554527,66.271126 C55.7017188,66.1529044 55.6421684,66.0205327 55.5235257,65.9748873 L54.5922491,65.6188531 C54.4736063,65.5727512 54.4053524,65.4376408 54.4355857,65.3139417 C54.5391118,64.8926345 54.6151531,64.4603725 54.6595868,64.0189813 C54.671955,63.8939129 54.7814361,63.7889285 54.9096985,63.7848204 L55.9069386,63.7601719 C56.0329106,63.7560638 56.1346044,63.6515358 56.1300236,63.5241851 L56.0920029,62.0840723 C56.0901706,61.9576345 55.9838961,61.8581275 55.8570079,61.8604098" id="Fill-15"></path>
                                <path d="M46.1921481,61.3039242 C44.9392993,61.0857392 43.7446267,61.9219631 43.5256645,63.1712781 C43.3076184,64.4210495 44.146821,65.6101125 45.4005859,65.828754 C46.6538927,66.0464826 47.8481073,65.2098022 48.0675276,63.9604873 C48.2851156,62.7111723 47.445913,61.5216528 46.1921481,61.3039242" id="Fill-17" opacity="0.495584239"></path>
                            </g>
                        </g>
                    </g>
                </g>
            </g>
        </g>
    </g>
</svg>