<?xml version="1.0" encoding="UTF-8"?>
<svg width="259px" height="371px" viewBox="0 0 259 371" version="1.1" xmlns="http://www.w3.org/2000/svg" xmlns:xlink="http://www.w3.org/1999/xlink">
    <!-- Generator: Sketch 45.1 (43504) - http://www.bohemiancoding.com/sketch -->
    <title>Page 1</title>
    <desc>Created with Sketch.</desc>
    <defs>
        <polygon id="path-1" points="129.399866 370.691788 0 370.691788 0 0 129.399866 0 258.799733 0 258.799733 370.691788"></polygon>
    </defs>
    <g id="Iconsv2" stroke="none" stroke-width="1" fill="none" fill-rule="evenodd">
        <g id="Artboard" transform="translate(-2286.000000, -2391.000000)">
            <g id="Group-4-Copy" transform="translate(2168.000000, 2363.000000)">
                <g id="Page-1" transform="translate(118.000000, 28.000000)">
                    <mask id="mask-2" fill="white">
                        <use xlink:href="#path-1"></use>
                    </mask>
                    <g id="Clip-2"></g>
                    <path d="M155.856389,223.61249 L132.512379,226.776737 L132.512379,213.160924 L155.856389,209.657884 L155.856389,223.61249 Z M155.856389,249.538652 C148.096854,250.378439 140.313773,251.22346 132.512379,252.073712 L132.512379,238.472288 C140.313773,237.510848 148.096854,236.553333 155.856389,235.599742 L155.856389,249.538652 Z M155.856389,275.466121 C148.096854,276.096616 140.313773,276.731035 132.512379,277.370687 L132.512379,263.769263 C140.313773,263.018424 148.096854,262.270202 155.856389,261.525904 L155.856389,275.466121 Z M155.856389,301.392283 C148.098162,301.812177 140.313773,302.235995 132.512379,302.666354 L132.512379,289.064929 C140.313773,288.523384 148.096854,287.987071 155.856389,287.453374 L155.856389,301.392283 Z M155.856389,353.480061 C148.098162,353.690662 140.313773,353.262919 132.512379,353.480061 L132.512379,314.363212 C140.313773,314.03096 148.098162,313.702631 155.856389,313.379535 L155.856389,353.480061 Z M124.835253,227.820586 L104.023687,230.64604 L104.023687,217.444889 L124.835253,214.317268 L124.835253,227.820586 Z M124.835253,252.908268 L104.023687,255.177788 L104.023687,241.989717 L124.835253,239.419338 L124.835253,252.908268 Z M124.835253,277.998566 L104.023687,279.709535 L104.023687,266.518848 L124.835253,264.508328 L124.835253,277.998566 Z M124.835253,303.088864 L104.023687,304.238667 L104.023687,291.050596 L124.835253,289.598626 L124.835253,303.088864 Z M124.835253,353.480061 L104.023687,353.480061 L104.023687,315.581035 L124.835253,314.688924 L124.835253,353.480061 Z M96.345253,231.692505 L75.5349955,234.521884 L75.5349955,221.732778 L96.345253,218.599924 L96.345253,231.692505 Z M96.345253,256.01496 L75.5349955,258.288404 L75.5349955,245.509763 L96.345253,242.936768 L96.345253,256.01496 Z M96.345253,280.34003 L75.5349955,282.053616 L75.5349955,269.274975 L96.345253,267.26053 L96.345253,280.34003 Z M96.345253,304.665101 L75.5349955,305.820136 L75.5349955,293.040187 L96.345253,291.586909 L96.345253,304.665101 Z M96.345253,353.480061 L75.5349955,353.480061 L75.5349955,316.805399 L96.345253,315.91198 L96.345253,353.480061 Z M67.8578692,235.56704 L47.0463035,238.395111 L47.0463035,226.016742 L67.8578692,222.886505 L67.8578692,235.56704 Z M67.8578692,259.125576 L47.0463035,261.395096 L47.0463035,249.031116 L67.8578692,246.460737 L67.8578692,259.125576 Z M67.8578692,282.685419 L47.0463035,284.395081 L47.0463035,272.029793 L67.8578692,270.017965 L67.8578692,282.685419 Z M67.8578692,306.243955 L47.0463035,307.393758 L47.0463035,295.02847 L67.8578692,293.577808 L67.8578692,306.243955 Z M67.8578692,353.480061 L47.0463035,353.480061 L47.0463035,318.028455 L67.8578692,317.137652 L67.8578692,353.480061 Z M39.3678692,239.43896 L19.8970864,242.078667 L19.8970864,230.095338 L39.3678692,227.171778 L39.3678692,239.43896 Z M39.3678692,262.23096 L19.8970864,264.347434 L19.8970864,252.374571 L39.3678692,249.975551 L39.3678692,262.23096 Z M39.3678692,285.02296 L19.8970864,286.612278 L19.8970864,274.640722 L39.3678692,272.768859 L39.3678692,285.02296 Z M39.3678692,307.816268 C32.8640914,308.173374 26.3720864,308.526556 19.8970864,308.878429 L19.8970864,296.906874 C26.3720864,296.462126 32.8640914,296.014763 39.3678692,295.562167 L39.3678692,307.816268 Z M39.3678692,353.480061 C32.8640914,353.661884 26.3720864,353.304778 19.8970864,353.480061 L19.8970864,331.143273 L19.8970864,319.174333 C26.3720864,318.903561 32.8640914,318.630172 39.3678692,318.354167 L39.3678692,353.480061 Z M241.043844,353.217136 L241.043844,222.518934 L182.121344,213.168773 L182.121344,353.480061 L172.705778,353.480061 L172.705778,208.043712 C175.81247,207.592424 178.957096,207.139828 182.121344,206.683308 L248.847854,217.270914 L248.847854,199.967621 L222.582899,195.402419 L222.582899,186.884197 L221.931475,186.771702 C221.406935,176.955864 222.040046,175.255359 209.660369,175.255359 C207.424859,175.255359 205.373788,175.514359 203.324026,176.037591 C197.920344,168.266283 188.600268,163.113753 177.977344,163.113753 C172.476864,163.113753 167.260238,164.513399 162.78791,167.045843 C156.915935,163.379293 150.112607,161.019515 142.84491,160.147025 C143.124839,154.734187 143.40346,149.32004 143.589208,143.993535 C143.869137,135.347121 144.149066,133.163934 151.416763,126.878606 C154.492061,124.257212 157.754415,121.813717 161.109642,119.541581 C165.767718,116.399571 170.708339,113.517869 175.924965,110.811449 C186.643379,105.746561 198.198965,102.601934 209.38044,102.775909 C192.793975,108.714596 177.324612,115.787389 164.650617,125.13101 C177.697415,137.442667 203.511081,141.2845 220.097546,114.216384 C224.291253,107.405207 228.763581,101.291237 234.914177,96.9274798 C225.036859,93.7828535 215.43947,86.7963939 202.671293,84.9637727 C170.708339,80.4208081 154.864864,92.2118485 156.543132,110.025293 C156.730187,111.421015 157.010117,112.730404 157.474485,114.128742 C152.630662,117.272061 148.06546,120.678303 143.962011,124.433803 C143.962011,104.172939 137.811415,75.1832525 138.931132,60.0762273 C139.025314,57.9819899 139.303935,56.0604192 139.583864,54.0512071 C140.235288,49.6861414 141.259516,45.3197677 142.473415,40.9533939 C145.362965,31.9590303 150.021041,23.7521313 156.543132,17.5518283 C150.765339,30.3003838 146.478758,42.8736566 145.17591,55.360596 C160.458218,55.1002879 177.604541,42.8736566 169.869859,18.0750606 C167.911662,11.8747576 166.608814,5.93868687 167.353112,0 C159.712612,3.66524242 149.741112,5.06488889 141.355006,11.1775505 C120.198107,26.3709091 118.615329,42.0011667 130.915213,51.1708131 C131.849182,51.9543535 132.966283,52.5665354 133.990511,53.0923838 C133.524834,55.7111616 133.246213,58.3312475 133.059157,60.9500253 C132.501915,68.8076667 133.43196,75.0092778 134.086001,82.7805859 C134.921864,93.2596212 135.20441,103.649707 135.107612,113.95346 C131.10096,110.286909 126.628632,106.881975 121.877682,103.82499 C122.343359,102.515601 122.62198,101.117263 122.716162,99.7202323 C124.39443,81.9931212 108.550955,70.1183636 76.5880005,74.7463535 C63.9126975,76.5815909 54.2211268,83.479101 44.4392985,86.6211111 C50.4944045,91.0764343 55.0622227,97.1014545 59.161748,103.912631 C75.8437025,130.982056 101.654753,127.225247 114.702859,114.827258 C101.934682,105.483636 86.5595005,98.4997929 69.877546,92.4734646 C81.0603288,92.2981818 92.6146066,95.4428081 103.427203,100.59403 C108.643829,103.212808 113.585758,106.09451 118.243834,109.237828 C121.970556,111.771581 125.511531,114.476692 128.959632,117.533677 C133.990511,122.075333 134.831607,128.100354 134.460112,134.213015 C133.990511,142.858121 133.339086,151.501919 132.501915,160.058076 C121.040511,161.194798 110.789081,166.260995 103.427203,173.769379 C98.0209045,171.061652 91.8690005,169.575672 85.2527278,169.575672 C74.1641268,169.575672 64.1926268,173.943354 57.1106773,180.928505 C54.2211268,179.88204 51.0555712,179.268551 47.7945258,179.268551 C36.6182833,179.268551 27.0810662,188.385874 23.8527227,198.152005 L23.2850157,198.250111 L23.3569601,199.885212 C23.3347227,199.970237 23.3059449,200.051338 23.2850157,200.136364 L23.3674247,200.123283 L23.7559247,209.062707 C67.789849,202.077556 111.822465,195.091096 155.856389,188.104636 L169.809687,190.320525 C116.190147,198.42801 62.7838237,207.291566 9.28462677,215.803247 L9.28462677,231.697737 L13.4914146,231.08948 L13.4914146,353.480061 L-0.000130808081,353.480061 L-0.000130808081,370.691788 L258.799733,370.691788 L258.799733,353.217136 L241.043844,353.217136 Z" id="Fill-1" fill="#FFFFFF" mask="url(#mask-2)"></path>
                </g>
            </g>
        </g>
    </g>
</svg>