<?xml version="1.0" encoding="UTF-8"?>
<svg width="80px" height="98px" viewBox="0 0 80 98" version="1.1" xmlns="http://www.w3.org/2000/svg" xmlns:xlink="http://www.w3.org/1999/xlink">
    <!-- Generator: Sketch 46.1 (44463) - http://www.bohemiancoding.com/sketch -->
    <title>Page 1 Copy 2</title>
    <desc>Created with Sketch.</desc>
    <defs>
        <linearGradient x1="100%" y1="100%" x2="0%" y2="0%" id="linearGradient-1">
            <stop stop-color="#FFE500" offset="0%"></stop>
            <stop stop-color="#3FCC0B" offset="47.308384%"></stop>
            <stop stop-color="#179731" offset="100%"></stop>
        </linearGradient>
    </defs>
    <g id="Comps" stroke="none" stroke-width="1" fill="none" fill-rule="evenodd">
        <g id="V2-Home-Copy" transform="translate(-845.000000, -820.000000)" fill="url(#linearGradient-1)">
            <g id="Group-39" transform="translate(191.000000, 680.000000)">
                <g id="Group-38" transform="translate(151.000000, 0.000000)">
                    <g id="Group-17" transform="translate(496.000000, 91.000000)">
                        <g id="Group-29" transform="translate(7.000000, 47.000000)">
                            <g id="Group-14">
                                <g id="Page-1-Copy-2" transform="translate(0.000000, 2.000000)">
                                    <path d="M48.1780181,93.0337581 L40.9624558,93.0337581 L40.9624558,78.0844667 C43.3737372,78.0277251 45.7800672,77.9713695 48.1780181,77.9173299 L48.1780181,93.0337581 Z M38.5888805,93.0337581 L32.1556231,93.0337581 L32.1556231,78.2998532 L38.5888805,78.1423663 L38.5888805,93.0337581 Z M29.7820477,93.0337581 L23.349552,93.0337581 L23.349552,78.5198717 L29.7820477,78.3592968 L29.7820477,93.0337581 Z M20.9759767,93.0337581 L14.5427192,93.0337581 L14.5427192,78.7364162 L20.9759767,78.5789293 L20.9759767,93.0337581 Z M12.1695248,93.0337581 L6.15065271,93.0337581 L6.15065271,78.9325029 C8.15211906,78.8873412 10.1589176,78.8406355 12.1695248,78.7927718 L12.1695248,93.0337581 Z M40.9460785,27.0343871 L47.9879645,33.1840969 C48.4114908,33.5762702 48.5531741,34.2228158 48.3612161,34.8743793 L45.2007655,46.1466599 C44.993192,46.9267606 44.6184169,47.6628575 44.1156699,48.2850853 L26.279196,73.1664745 C25.6519048,74.1816475 24.491778,74.3221505 23.6687202,73.4845363 L20.2797482,70.1638011 L13.6621502,64.194738 L9.8199442,60.993276 C8.83387448,60.1992795 8.51813412,58.7386655 9.13361835,57.7265804 L26.6779658,32.9227767 C27.1738572,32.302865 27.8160022,31.8095603 28.540415,31.4914985 L39.1841787,26.8545124 C39.8091847,26.5843142 40.4837036,26.6522497 40.9460785,27.0343871 L40.9460785,27.0343871 Z M74.5112975,93.0337581 L74.5112975,22.3020596 L56.2966207,17.8491942 L56.2966207,93.1588212 L53.3867819,93.1588212 L53.3867819,17 L4.17051503,27.9005652 L4.17051503,93.0337581 L0,93.0337581 L0,98 L80,98 L80,93.0337581 L74.5112975,93.0337581 Z" id="Fill-1"></path>
                                    <path d="M42.4013652,35.1940603 C43.1866852,34.3059344 43.2040816,33.0490808 42.425507,32.3904163 C41.639477,31.7341708 40.3556988,31.9252733 39.5721539,32.8130536 C38.7960646,33.699106 38.814171,34.9476658 39.5980709,35.6042569 C40.3748703,36.2632671 41.6235007,36.0808038 42.4013652,35.1940603" id="Fill-4"></path>
                                    <path d="M53.4800625,15.728061 L53.4800625,15.7175613 C54.4395396,15.5009578 55.410815,15.2835765 56.38818,15.0642508 L77,20.1441287 L77,11.842808 L68.8868813,9.65227348 L68.8868813,5.56597197 L48.2750613,0 L7.47007452,11.0191701 L7.47007452,16.2059887 C21.0717368,12.8546615 34.6733991,9.50333425 48.2750613,6.15200703 L52.5852864,7.21402544 C36.0226042,11.1039449 19.5253841,15.3566851 3,19.4406533 L3,27 L53.4800625,15.728061 Z" id="Fill-6"></path>
                                </g>
                            </g>
                        </g>
                    </g>
                </g>
            </g>
        </g>
    </g>
</svg>