<?xml version="1.0" encoding="UTF-8"?>
<svg width="107px" height="123px" viewBox="0 0 107 123" version="1.1" xmlns="http://www.w3.org/2000/svg" xmlns:xlink="http://www.w3.org/1999/xlink">
    <!-- Generator: Sketch 44.1 (41455) - http://www.bohemiancoding.com/sketch -->
    <title>Page 1</title>
    <desc>Created with Sketch.</desc>
    <defs></defs>
    <g id="Comps" stroke="none" stroke-width="1" fill="none" fill-rule="evenodd">
        <g id="Home-v4_News-popup" transform="translate(-921.000000, -11.000000)" fill="#FFFFFF">
            <g id="Page-1" transform="translate(921.000000, 11.000000)">
                <polygon id="Fill-1" opacity="0.79370471" points="21.9451892 76.6644567 19.4634882 76.6644567 19.4634882 68.7433687 16.3459706 68.7433687 16.3459706 42.1008775 19.4634882 42.1008775 19.4634882 36.2353091 21.9451892 36.2353091 21.9451892 42.1008775 25.0616314 42.1008775 25.0616314 68.7433687 21.9451892 68.7433687"></polygon>
                <polygon id="Fill-2" points="38.2900844 102.104057 35.8078457 102.104057 35.8078457 92.9383026 32.6914035 92.9383026 32.6914035 65.3901616 35.8078457 65.3901616 35.8081146 55.3217036 38.2903533 55.3217036 38.2900844 65.3901616 41.4070643 65.3901616 41.4070643 92.9383026 38.2900844 92.9383026"></polygon>
                <polygon id="Fill-3" opacity="0.79370471" points="52.1532249 85.9592028 52.1532249 91.2926818 49.0367827 91.2926818 49.0367827 115.520821 52.1532249 115.520821 52.1532249 122.723441 54.6354636 122.723441 54.6354636 115.520821 57.7527123 115.520821 57.7527123 91.2926818 54.6354636 91.2926818 54.6354636 85.9592028"></polygon>
                <polygon id="Fill-4" points="70.9811653 105.993745 68.4989266 105.993745 68.4989266 91.3236646 65.3816779 91.3236646 65.3816779 69.5203208 68.4989266 69.5203208 68.4989266 53.5571058 70.9811653 53.5571058 70.9811653 69.5203208 74.0984141 69.5203208 74.0984141 91.3236646 70.9811653 91.3236646"></polygon>
                <polygon id="Fill-5" opacity="0.79370471" points="87.576005 77.9255914 85.0934975 77.9255914 85.0934975 62.8950725 81.9765176 62.8950725 81.9767864 42.6405986 85.0937663 42.6405986 85.0937663 35.9612309 87.5762739 35.9612309 87.5762739 42.6405986 90.6927161 42.6405986 90.6924472 62.8950725 87.576005 62.8950725"></polygon>
                <polygon id="Fill-6" points="101.190249 59.1807034 101.190249 67.0142257 98.0735384 67.0142257 98.0735384 84.3728697 101.190249 84.3728697 101.190249 90.511579 103.672219 90.511579 103.672219 84.3728697 106.788393 84.3728697 106.788393 67.0142257 103.672219 67.0142257 103.672219 59.1807034"></polygon>
                <polygon id="Fill-7" points="3.11716809 16.0672496 3.11716809 30.0124348 -8.06532663e-05 30.0124348 -8.06532663e-05 45.5996793 3.11716809 45.5996793 3.11716809 53.2401284 5.59940678 53.2401284 5.59940678 45.5996793 8.71665553 45.5996793 8.71665553 30.0124348 5.59940678 30.0124348 5.59940678 16.0672496"></polygon>
                <polygon id="Fill-8" opacity="0.791836504" points="78.0501553 11.5926382 94.8198513 11.5926382 86.4348688 23.5479112"></polygon>
                <path d="M97.9916216,15.6149067 C97.9916216,22.0171167 92.7623327,27.2258079 86.3345362,27.2258079 C79.9067397,27.2258079 74.6774508,22.0171167 74.6774508,15.6149067 C74.6774508,9.2124289 79.9067397,4.00400556 86.3345362,4.00400556 C92.7623327,4.00400556 97.9916216,9.2124289 97.9916216,15.6149067 M102.011112,15.6149067 C102.011112,7.0048072 94.9786844,8.03355784e-05 86.3345362,8.03355784e-05 C77.6903879,8.03355784e-05 70.6579608,7.0048072 70.6579608,15.6149067 C70.6579608,24.2247384 77.6903879,31.2297331 86.3345362,31.2297331 C94.9786844,31.2297331 102.011112,24.2247384 102.011112,15.6149067" id="Fill-9"></path>
            </g>
        </g>
    </g>
</svg>