<?xml version="1.0" encoding="UTF-8"?>
<svg width="237px" height="177px" viewBox="0 0 237 177" version="1.1" xmlns="http://www.w3.org/2000/svg" xmlns:xlink="http://www.w3.org/1999/xlink">
    <!-- Generator: Sketch 45.1 (43504) - http://www.bohemiancoding.com/sketch -->
    <title>Page 1</title>
    <desc>Created with Sketch.</desc>
    <defs></defs>
    <g id="Iconsv2" stroke="none" stroke-width="1" fill="none" fill-rule="evenodd">
        <g id="Artboard" transform="translate(-1642.000000, -2584.000000)" fill="#FFFFFF">
            <g id="Group-4" transform="translate(1522.000000, 2363.000000)">
                <g id="Page-1" transform="translate(238.500000, 309.500000) scale(-1, 1) translate(-238.500000, -309.500000) translate(120.000000, 221.000000)">
                    <path d="M82.683388,0.00022346922 L82.683388,164.206151 L81.9384906,164.206151 L81.7932356,164.206151 L80.4486958,164.206151 L12.767318,164.206151 L12.767318,164.335764 L-0.00022346922,164.335764 L-0.00022346922,176.017989 L236.87715,176.017989 L236.87715,164.335764 L225.600893,164.335764 L225.600893,76.9868596 L150.819898,48.8952889 L150.819898,27.5137539 L82.683388,0.00022346922 Z M89.78375,33.1511374 L89.78375,16.3425275 L105.676136,22.2398803 L105.676136,38.3974498 L89.78375,33.1511374 Z M112.154509,40.5360502 L112.154509,24.6429193 L126.393967,29.9249867 L126.393967,45.2356079 L112.154509,40.5360502 Z M132.214596,47.1574432 L132.214596,32.0844443 L145.045453,36.8450836 L145.045453,51.3921849 L132.214596,47.1574432 Z M89.78375,57.4943844 L89.78375,40.6857746 L105.676136,45.6408321 L105.676136,61.7991465 L89.78375,57.4943844 Z M112.154509,63.552635 L112.154509,47.6595041 L126.393967,52.0998375 L126.393967,67.4089688 L112.154509,63.552635 Z M132.214596,68.9851717 L132.214596,53.9136626 L145.045453,57.9130168 L145.045453,72.460863 L132.214596,68.9851717 Z M157.303485,77.8658386 L157.303485,64.1887774 L221.109162,85.536792 L221.109162,96.4242124 L157.303485,77.8658386 Z M89.78375,81.8383764 L89.78375,65.0297665 L105.676136,69.0425288 L105.676136,85.2008433 L89.78375,81.8383764 Z M112.154509,86.5707096 L112.154509,70.6775786 L126.393967,74.2724535 L126.393967,89.5830747 L112.154509,86.5707096 Z M132.214596,90.8136452 L132.214596,75.7413912 L145.045453,78.98095 L145.045453,93.5280513 L132.214596,90.8136452 Z M89.78375,106.181623 L89.78375,89.3730136 L105.676136,92.4427358 L105.676136,108.601795 L89.78375,106.181623 Z M157.303485,103.562564 L157.303485,89.8869928 L221.109162,105.993909 L221.109162,116.882075 L157.303485,103.562564 Z M112.154509,109.587294 L112.154509,93.6949083 L126.393967,96.4458144 L126.393967,111.756436 L112.154509,109.587294 Z M132.214596,112.642864 L132.214596,97.5698646 L145.045453,100.048883 L145.045453,114.595984 L132.214596,112.642864 Z M89.78375,130.524871 L89.78375,113.716261 L105.676136,115.844433 L105.676136,132.002747 L89.78375,130.524871 Z M157.303485,129.258545 L157.303485,115.582974 L221.109162,126.451772 L221.109162,137.339192 L157.303485,129.258545 Z M112.154509,132.604624 L112.154509,116.712238 L126.393967,118.619175 L126.393967,133.929797 L112.154509,132.604624 Z M132.214596,134.470592 L132.214596,119.399083 L145.045453,121.117561 L145.045453,135.663918 L132.214596,134.470592 Z M89.78375,154.868118 L89.78375,138.059508 L105.676136,139.246874 L105.676136,155.403699 L89.78375,154.868118 Z M112.154509,155.622699 L112.154509,139.729568 L126.393967,140.793281 L126.393967,156.102413 L112.154509,155.622699 Z M132.214596,156.299065 L132.214596,141.226811 L145.045453,142.185494 L145.045453,156.731851 L132.214596,156.299065 Z M157.303485,154.955271 L157.303485,141.279699 L221.109162,146.908889 L221.109162,157.796309 L157.303485,154.955271 Z" id="Fill-1"></path>
                    <path d="M12.7672435,27.4668253 L12.7672435,161.971459 L80.4486213,161.971459 L80.4486213,0.126856027 L12.7672435,27.4668253 Z M57.9095158,22.1855028 L73.8041365,16.2874051 L73.8041365,33.0952701 L57.9095158,38.3438172 L57.9095158,22.1855028 Z M37.1939191,29.8743337 L51.4333778,24.5892867 L51.4333778,40.4824176 L37.1939191,45.18421 L37.1939191,29.8743337 Z M18.5416881,36.7966653 L31.3725459,32.0352811 L31.3725459,47.1067902 L18.5416881,51.3430217 L18.5416881,36.7966653 Z M57.9095158,45.5871995 L73.8041365,40.6299073 L73.8041365,57.4385171 L57.9095158,61.7455139 L57.9095158,45.5871995 Z M37.1939191,52.0484395 L51.4333778,47.6073612 L51.4333778,63.5004922 L37.1939191,67.3583158 L37.1939191,52.0484395 Z M18.5416881,57.8653433 L31.3725459,53.8637545 L31.3725459,68.9345187 L18.5416881,72.4116998 L18.5416881,57.8653433 Z M57.9095158,68.9888962 L73.8041365,64.9731543 L73.8041365,81.7825091 L57.9095158,85.1464658 L57.9095158,68.9888962 Z M37.1939191,74.2218005 L51.4333778,70.6246909 L51.4333778,86.517077 L37.1939191,89.5316767 L37.1939191,74.2218005 Z M18.5416881,78.9332765 L31.3725459,75.691483 L31.3725459,90.7637371 L18.5416881,93.479633 L18.5416881,78.9332765 Z M57.9095158,92.3898481 L73.8041365,89.3171463 L73.8041365,106.126501 L57.9095158,108.548907 L57.9095158,92.3898481 Z M37.1939191,96.3944165 L51.4333778,93.6420206 L51.4333778,109.534407 L37.1939191,111.705783 L37.1939191,96.3944165 Z M18.5416881,100.00121 L31.3725459,97.5207014 L31.3725459,112.59221 L18.5416881,114.547566 L18.5416881,100.00121 Z M57.9095158,115.7908 L73.8041365,113.661138 L73.8041365,130.469003 L57.9095158,131.949114 L57.9095158,115.7908 Z M37.1939191,118.568522 L51.4333778,116.65935 L51.4333778,132.552481 L37.1939191,133.878399 L37.1939191,118.568522 Z M18.5416881,121.069143 L31.3725459,119.349175 L31.3725459,134.419939 L18.5416881,135.615499 L18.5416881,121.069143 Z M57.9095158,139.193242 L73.8041365,138.004385 L73.8041365,154.81225 L57.9095158,155.350811 L57.9095158,139.193242 Z M37.1939191,140.741883 L51.4333778,139.67668 L51.4333778,155.570556 L37.1939191,156.052504 L37.1939191,140.741883 Z M18.5416881,142.137076 L31.3725459,141.177648 L31.3725459,156.249157 L18.5416881,156.684177 L18.5416881,142.137076 Z" id="Fill-2" opacity="0.800951087"></path>
                </g>
            </g>
        </g>
    </g>
</svg>