<?xml version="1.0" encoding="UTF-8"?>
<svg width="400px" height="400px" viewBox="0 0 400 400" version="1.1" xmlns="http://www.w3.org/2000/svg" xmlns:xlink="http://www.w3.org/1999/xlink">
    <defs></defs>
    <g id="img_list-dontfighttheshorts" fill="#ffffff" stroke="none" stroke-width="1" fill-rule="evenodd">
        <path d="M258.004604,18.7859811 C259.277465,18.1160314 260.642911,17.7985639 261.98735,17.7985639 C265.068357,17.7985639 268.045108,19.4644899 269.579387,22.380055 C271.782773,26.5693805 270.173803,31.7507917 265.986435,33.9559456 C264.713574,34.6251172 263.34735,34.9433627 262.002911,34.9433627 C258.922682,34.9433627 255.945931,33.2782148 254.410874,30.3618716 C252.206709,26.1725462 253.81568,20.9903568 258.004604,18.7859811 L258.004604,18.7859811 Z M269.243277,105.62967 C271.936046,109.144378 275.875222,111.21025 279.771606,111.21025 C280.97989,111.21025 282.184284,111.011833 283.34433,110.59788 L319.188265,97.8058095 C322.388311,96.6643272 324.813437,94.0125402 325.84822,90.5235107 C326.883002,87.0344811 326.427854,83.0435728 324.601034,79.5592118 L286.968403,7.85747515 C285.126023,4.34432426 282.064467,1.68942485 278.573437,0.572842012 C277.489638,0.226584615 276.397281,0.0398390533 275.323597,0.00560236686 C275.209227,0.00171183432 275.096412,0.000155621302 274.982819,0.000155621302 C272.720302,0.000155621302 270.554261,0.691114201 268.746114,2.03334793 L238.122773,24.768842 C234.476137,27.4758746 232.936412,32.3110284 233.835817,37.158632 L269.243277,105.62967 Z" id="Fill-7" opacity="0.7"></path>
        <path d="M265.096522,112.854778 L225.527368,36.3373405 C225.527368,36.3373405 216.217437,41.3639086 209.135789,41.3639086 C208.913272,41.3639086 208.692311,41.3584618 208.47524,41.3483464 C196.623478,40.789666 182.996247,39.6326216 168.087597,39.6326216 C154.451808,39.6326216 139.745446,40.6013642 124.355195,43.8795269 C123.061327,44.1401926 121.803249,44.5829352 120.601968,45.1688494 C114.379268,47.6548997 109.981053,53.7326896 109.981053,60.8422488 C109.981053,64.7320033 111.302929,68.3105151 113.513318,71.1638317 C104.793135,72.1769263 98.0227002,79.5837222 98.0227002,88.5770772 C98.0227002,93.988808 100.480503,98.817737 104.33254,102.035207 C97.0159268,104.432554 91.7307551,111.312571 91.7307551,119.430557 C91.7307551,127.770302 97.3084668,134.799716 104.934737,137.008761 C99.9981236,140.202888 96.728833,145.752343 96.728833,152.070568 C96.728833,154.444571 97.3100229,157.123592 98.2226545,159.305403 C99.8292906,163.151583 103.107918,166.414184 106.838581,168.230284 C108.323066,168.953145 109.912586,169.441018 111.532449,169.753039 C113.790297,170.188 116.093272,170.34829 118.390023,170.378636 C119.154828,170.38953 119.9173,170.394977 120.681327,170.394977 C122.298856,170.394977 123.917162,170.372412 125.534691,170.340509 C128.229794,170.287598 130.924119,170.210565 133.618444,170.107855 C142.971167,169.749926 152.310664,169.04963 161.605812,167.9525 C163.940686,167.677051 167.066819,167.032 170.033455,167.032 C173.068558,167.032 175.937162,167.707397 177.616156,170.142092 C179.642151,173.078666 177.82389,176.519453 176.434325,179.315968 C173.786682,184.643663 170.554737,189.612651 167.594325,194.761382 C162.767414,203.152483 158.407323,211.949755 156.634188,221.54692 C155.196384,229.341991 154.930297,238.122145 157.595835,245.696234 C159.323844,250.603752 164.859542,261.065394 170.682334,262.034136 C170.682334,262.034136 172.147368,262.380394 173.983524,262.380394 C175.642288,262.380394 177.603707,262.097163 179.062517,261.023376 C184.696247,256.877625 183.360366,248.225858 184.651121,242.172968 C186.041465,235.656326 188.804256,229.552858 192.489016,224.017409 C199.849977,212.963628 210.414874,204.456589 220.026682,195.473349 C243.962059,173.103565 236.249428,131.923835 265.096522,112.854778" id="Fill-9"></path>
        <path d="M327.358847,201.221144 L322.461135,226.017843 L262.25157,136.104523 C260.863561,134.028535 258.545803,132.808464 256.09578,132.791346 C253.311982,137.662292 251.222966,143.074801 249.359579,148.760425 L252.446032,148.322351 L310.043744,234.335801 L285.250975,229.422837 L297.221776,247.30139 L332.376375,254.256884 L339.331982,219.09892 L327.358847,201.221144 Z" id="Fill-4" opacity="0.8"></path>
        <path d="M103.787062,67.0388556 C103.252554,65.0414562 102.978686,62.9639118 102.978686,60.8420154 C102.978686,59.3752846 103.124957,57.9396781 103.379373,56.535974 L93.2789611,41.5792107 C91.9337437,39.5849237 89.7124622,38.3617402 87.3091213,38.2893763 C84.8902197,38.2201249 82.6136979,39.3063615 81.1517757,41.2158349 L54.9795561,75.3832698 L13.6357117,15.0947994 C11.9761693,12.673332 9.14024256,11.534184 6.41790847,11.9201249 C5.31310297,12.0773024 4.22852632,12.4842521 3.24587185,13.1573142 C-0.156462243,15.4924118 -1.02396796,20.1447107 1.31090618,23.5497047 L48.4829886,92.3382107 C49.8359863,94.313045 52.0557117,95.5198882 54.4489382,95.5813586 C56.8507231,95.6443852 59.1217986,94.5581485 60.5782746,92.6556781 L86.7038124,58.5512698 L96.5249108,73.0940805 C98.5197849,70.6414888 100.979144,68.5732817 103.787062,67.0388556" id="Fill-1" opacity="0.8"></path>
    </g>
</svg>