<?xml version="1.0" encoding="UTF-8"?>
<svg width="106px" height="112px" viewBox="0 0 106 112" version="1.1" xmlns="http://www.w3.org/2000/svg" xmlns:xlink="http://www.w3.org/1999/xlink">
    <!-- Generator: Sketch 44.1 (41455) - http://www.bohemiancoding.com/sketch -->
    <title>Page 1</title>
    <desc>Created with Sketch.</desc>
    <defs></defs>
    <g id="Comps" stroke="none" stroke-width="1" fill="none" fill-rule="evenodd">
        <g id="Home-v4_AddList2-Copy" transform="translate(-794.000000, -143.000000)" fill="#FFFFFF">
            <g id="Group-9" transform="translate(275.000000, 60.000000)">
                <g transform="translate(-573.000000, -12.000000)" id="CAROUSEL">
                    <g transform="translate(11.000000, 65.000000)">
                        <g id="Group" transform="translate(1052.000000, 12.000000)">
                            <g id="DIVIDEND-CHAMP">
                                <g id="Page-1" transform="translate(29.000000, 18.000000)">
                                    <polygon id="Fill-1" opacity="0.798856431" points="25.8149709 76.2819189 52.7796644 62.8915219 67.5927542 70.6028064 64.4655901 71.6816177 52.8042774 65.3755795 24.8540793 79.7633433 24.8504693 81.1479 25.7142217 80.8543057 25.8149709 87.9544279 52.7819616 74.3150997 57.8804632 77.8198409 57.8807913 77.8865072 81.2040731 69.8369653 98.8148409 75.8415275 98.8148409 72.6750437 80.8660545 66.0238515 75.7954477 67.7729381 52.8042774 53.9552858 24.8540793 68.3394372 24.8068223 69.7601184 25.7611505 69.3880352"></polygon>
                                    <polygon id="Fill-2" points="52.7449108 51.0795392 52.6924031 10.2423423 54.0576043 11.203913 54.0576043 51.8440667 71.3526693 61.9146147 71.3526693 19.8662591 52.7245641 8.34054733 28.969078 21.8301227 28.8847375 21.8780699 28.7140873 63.2991714 28.713431 63.5776591 52.7166879 51.063119"></polygon>
                                    <path d="M45.1137313,0.293599842 C45.1097932,-0.0755276956 44.1121461,-0.0827526119 44.1121461,0.293599842 L44.1121461,12.8918833 L45.1422824,12.277437 L45.1137313,0.293599842 Z" id="Fill-3"></path>
                                    <path d="M45.5539102,6.4579312 L45.6290619,6.44118253 C46.079644,6.34101892 46.5545108,6.32229982 47.0152663,6.30423753 C48.0611548,6.26417209 49.1431424,6.22213621 50.0318359,5.22575458 C50.2845294,4.94562488 50.5175325,4.65892706 50.7426594,4.3814246 C51.3169628,3.67436803 51.8134892,3.06287739 52.3372539,2.9453083 C53.7434768,2.72002227 54.5806471,3.23594697 55.3889381,3.73216736 C55.8956378,4.04283875 56.4194025,4.36467593 57.0668885,4.48487226 L57.2844675,4.52559452 L57.1184118,4.37879736 C56.6297616,3.94760122 56.2208576,3.33972304 55.8254087,2.7525344 C54.8677988,1.33218155 53.8760588,-0.13546166 51.682548,0.649098561 L49.6199783,1.51838734 C48.2236006,1.9942466 47.3982446,1.5962194 46.5266161,1.17553223 C46.2374954,1.03563158 45.9385294,0.891133254 45.6208576,0.784401538 L45.5394706,0.757143899 L45.5539102,6.38174118 L45.5539102,6.4579312 Z" id="Fill-5"></path>
                                    <path d="M42.9838204,105.306805 L35.7275789,105.306805 L35.7640062,97.4043884 L42.9995728,95.2461089 L42.9838204,105.306805 Z M24.9697276,90.6917845 L17.3702167,88.9105142 L17.3797337,109.153087 L16.5110588,109.153087 L16.5015418,88.9821066 L12.6153127,90.3229853 L12.7288607,109.153087 L11.6793622,109.153087 L11.5681115,90.6845596 L8.38647059,91.78209 L8.49640867,109.153087 L7.4866192,109.153087 L7.37897833,92.1295428 L4.68664396,93.0589297 L4.80052012,109.153087 L3.8320805,109.153087 L3.72082972,93.3919327 L1.72520743,94.0805986 L1.80068731,109.153087 L0.932996904,109.153087 L0,109.153087 L0,111.705453 L31.0566873,111.705453 L31.0566873,111.64437 L103.560031,111.64437 L103.560031,111.61547 L105.792594,111.61547 L105.792594,107.140291 L103.560031,107.140291 L103.560031,105.306805 L103.533777,105.306805 L102.011053,105.306805 L102.011053,78.5404606 L81.790322,71.6462485 L81.8086997,105.306805 L80.2863034,105.306805 L80.2679257,71.7716993 L73.4530774,74.1240664 L73.6401362,105.306805 L71.8010526,105.306805 L71.6179319,74.7572317 L66.0412817,76.6820151 L66.223418,105.306805 L64.4532508,105.306805 L64.2750526,77.2915353 L59.5539505,78.9210823 L59.7393684,105.306805 L58.0413994,105.306805 L57.8602477,79.5056437 L54.3596223,80.7138468 L54.4853127,105.306805 L52.9622601,105.306805 L52.8313189,79.6294525 L56.1337276,78.4895578 L52.7761858,76.9079579 L27.1317337,89.5433512 L16.8418576,86.0070831 L3.72312693,90.5331647 L3.73297214,92.4691139 L17.035808,87.8789932 L24.7580557,90.5121468 L24.7577276,90.4573031 L24.9697276,90.6917845 L24.985808,90.684888 L24.9697276,90.6917845 Z" id="Fill-7"></path>
                                </g>
                            </g>
                        </g>
                    </g>
                </g>
            </g>
        </g>
    </g>
</svg>