<?xml version="1.0" encoding="UTF-8"?>
<svg width="400px" height="400px" viewBox="0 0 400 400" version="1.1" xmlns="http://www.w3.org/2000/svg" xmlns:xlink="http://www.w3.org/1999/xlink">
    <defs></defs>
    <g id="img_list-insiderconfidence" fill="#ffffff" stroke="none" stroke-width="1" fill-rule="evenodd">
        <polygon id="Fill-1" opacity="0.7" points="172.310326 -0.000478571429 172.310326 22.9637714 169.025394 23.6062536 169.025394 13.5179679 161.486284 13.5179679 161.486284 25.073075 129.229015 31.3603071 129.229015 45.9172536 192.763565 33.5330214 192.763565 18.9784679 177.016899 22.0473071 177.016899 -0.000478571429"></polygon>
        <path d="M179.436075,195.450127 C170.576785,213.414502 161.755691,231.399216 152.386712,249.103966 C151.1477,251.429823 149.106554,253.180198 146.793255,253.966252 C146.077064,254.210323 145.35371,254.353895 144.645874,254.400555 C143.07264,254.502252 141.565057,254.125377 140.326045,253.280698 C132.33096,247.832163 128.451589,244.991841 120.85757,239.244198 C117.898505,237.004484 117.301679,232.15177 119.432349,227.771645 C126.969072,212.033823 134.26229,196.200288 141.448079,180.299752 C143.690952,175.307055 148.108661,172.38418 151.79466,173.583002 C161.145735,176.62193 165.97406,178.165323 176.081911,181.249716 C178.339108,181.937663 180.018577,183.901002 180.661956,186.628859 C181.306528,189.356716 180.851747,192.579895 179.436075,195.450127 L179.436075,195.450127 Z M155.848304,315.229377 L155.848304,266.10402 C162.436073,265.709198 169.132465,265.294038 175.852729,264.880073 C175.852729,281.66477 175.852729,298.44468 175.875409,315.229377 L155.848304,315.229377 Z M146.38622,315.229377 L127.728235,315.229377 L127.728235,267.780216 C133.831381,267.39377 140.041956,267.039627 146.38622,266.663948 L146.38622,315.229377 Z M118.884463,315.229377 L101.488169,315.229377 L101.488169,269.345145 C107.215314,268.996984 112.996174,268.652413 118.884463,268.283913 L118.884463,315.229377 Z M93.2340606,315.229377 L76.9979971,315.229377 L76.9979971,270.779663 C82.3228816,270.47577 87.7778743,270.144359 93.2340606,269.816538 L93.2340606,315.229377 Z M69.2822263,315.229377 L54.0357009,315.229377 L54.0357009,272.166323 C59.0371056,271.875591 64.1471326,271.56093 69.2822263,271.24627 L69.2822263,315.229377 Z M48.1497997,231.05943 C44.2143269,229.815145 41.419986,225.993752 41.5083163,221.02977 C41.557256,218.313877 42.4739813,215.691305 43.9720154,213.503038 C38.2448699,213.47552 33.6755675,208.851323 33.7197327,202.431288 C33.745993,198.569216 35.481564,194.88302 38.1672825,192.234127 C33.1467794,191.142984 29.3521576,186.694663 29.3521576,180.835752 C29.3521576,174.81652 33.4810022,169.200484 38.9312202,166.903341 C35.4481417,165.042895 33.0560618,161.34593 33.0823222,156.792323 C33.0906777,155.08143 33.5347165,153.097752 34.2222605,151.439502 C35.4350116,148.51902 37.8951297,145.862948 40.6321752,144.204698 C41.7219801,143.545466 42.8798232,143.044163 44.0460218,142.667288 C45.6753577,142.142055 47.3190174,141.810645 48.9364168,141.573752 C50.6123051,141.327288 52.2738696,141.122698 53.915142,140.937252 C55.7724656,140.72668 57.609497,140.534055 59.4250427,140.362966 C65.7311097,139.767145 71.785316,139.439323 77.6521188,139.42018 C80.6350568,139.410609 85.5469375,140.228966 87.7599695,136.40877 C89.1099907,134.079323 88.0929986,131.727145 87.3171244,129.82243 C85.840576,126.193663 83.9737033,122.919038 82.2608117,119.535538 C79.4664708,114.018805 76.9084732,108.284323 76.0132337,101.906163 C75.2862992,96.7268232 75.335239,90.8906446 77.2450832,85.6945554 C78.4817074,82.3278054 82.2882657,75.1516268 85.9635223,73.9516089 C85.9635223,73.9516089 89.304556,72.6211804 91.153524,73.7135196 C94.5399166,75.7139482 93.5193436,81.3706625 94.1663033,85.2111982 C94.8622028,89.3460554 96.3996274,93.1698411 98.4944879,96.5772696 C102.681821,103.383752 109.11919,108.353716 114.376036,113.91352 C129.337279,129.733895 121.494981,158.586966 139.978692,173.068538 C131.281739,192.75577 122.43916,212.34968 113.164479,231.771305 C113.164479,231.771305 107.068495,228.387805 102.694952,228.941752 C85.2342005,231.156341 67.8379066,233.05627 50.5203939,231.669609 C49.7206466,231.606198 48.9065755,231.372895 48.1497997,231.05943 L48.1497997,231.05943 Z M46.8069404,315.229377 L32.4735593,315.229377 L32.4735593,273.460859 C37.2075858,273.158163 41.9642916,272.890163 46.8069404,272.593448 L46.8069404,315.229377 Z M259.545686,315.229377 L259.545686,202.361895 L259.545686,86.2305554 C251.267704,82.4869304 242.957495,78.6894661 234.597151,74.8644839 L234.597151,56.2420732 C222.740599,50.4812696 210.750359,44.6618411 198.624041,38.7861804 C198.624041,85.3679304 198.652689,131.948484 198.652689,178.50152 L198.652689,315.229377 L192.790661,315.229377 C192.790661,269.382234 192.778724,223.509966 192.763207,177.66402 C192.753657,130.854948 192.763207,84.0123768 192.763207,37.1410911 L15.3243516,71.7645375 L15.3243516,193.754788 C15.3243516,234.24552 15.3494183,274.737448 15.3494183,315.229377 L0.000238730532,315.229377 L0.000238730532,329.018216 L274.869798,329.018216 L274.869798,315.229377 L259.545686,315.229377 Z" id="Fill-2"></path>
        <path d="M138.804138,232.090154 C136.120807,230.686743 132.771418,231.992046 131.29845,234.940046 C129.826677,237.889243 130.78518,241.321796 133.461349,242.674957 C136.138712,244.028118 139.523911,242.834082 141.001653,239.937529 C142.480588,237.040975 141.486276,233.494761 138.804138,232.090154" id="Fill-5" opacity="0.7"></path>
        <polygon id="Fill-7" opacity="0.7" points="224.212015 31.4856929 198.623683 18.9770321 198.623683 33.5327821 224.212015 46.0402464"></polygon>
    </g>
</svg>