<?xml version="1.0" encoding="UTF-8"?>
<svg width="400px" height="400px" viewBox="0 0 400 400" version="1.1" xmlns="http://www.w3.org/2000/svg" xmlns:xlink="http://www.w3.org/1999/xlink">
    <defs></defs>
    <g id="img_list-videogames" fill="#ffffff" stroke="none" stroke-width="1" fill-rule="evenodd">
        <path d="M351.797422,103.566332 C347.351078,99.1353532 347.351078,91.9319489 351.797422,87.4900766 C356.213815,83.0550128 363.440145,83.0550128 367.879681,87.4900766 C372.316495,91.9319489 372.316495,99.1353532 367.879681,103.566332 C363.440145,108.019098 356.213815,108.019098 351.797422,103.566332 L351.797422,103.566332 Z M344.083709,79.7692255 C339.607415,84.201566 332.420566,84.201566 327.985113,79.7692255 C323.545576,75.3246298 323.545576,68.1157787 327.985113,63.6725447 C332.420566,59.2361191 339.607415,59.2361191 344.083709,63.6725447 C348.508271,68.1157787 348.508271,75.3246298 344.083709,79.7692255 L344.083709,79.7692255 Z M344.083709,127.393396 C339.607415,131.835268 332.420566,131.835268 327.985113,127.393396 C323.545576,122.951523 323.545576,115.759013 327.985113,111.307609 C332.420566,106.861651 339.607415,106.861651 344.083709,111.307609 C348.508271,115.759013 348.508271,122.951523 344.083709,127.393396 L344.083709,127.393396 Z M320.246895,103.566332 C315.816888,108.019098 308.609618,108.019098 304.163274,103.566332 C299.742797,99.1353532 299.742797,91.9319489 304.163274,87.4900766 C308.609618,83.0550128 315.816888,83.0550128 320.246895,87.4900766 C324.702769,91.9319489 324.702769,99.1353532 320.246895,103.566332 L320.246895,103.566332 Z M98.6444393,158.509651 L288.214432,158.509651 L288.214432,32.544034 L98.6444393,32.544034 L98.6444393,158.509651 Z M280.88872,181.406672 C276.854881,181.406672 273.563008,178.123609 273.563008,174.099779 C273.563008,170.055523 276.854881,166.771098 280.88872,166.771098 C284.956594,166.771098 288.214432,170.055523 288.214432,174.099779 C288.214432,178.123609 284.956594,181.406672 280.88872,181.406672 L280.88872,181.406672 Z M253.524509,181.406672 C249.501562,181.406672 246.238278,178.123609 246.238278,174.099779 C246.238278,170.055523 249.501562,166.771098 253.524509,166.771098 C257.588299,166.771098 260.881534,170.055523 260.881534,174.099779 C260.881534,178.123609 257.588299,181.406672 253.524509,181.406672 L253.524509,181.406672 Z M98.6444393,178.540289 L154.622629,178.540289 L154.622629,169.637481 L98.6444393,169.637481 L98.6444393,178.540289 Z M82.7949796,101.74846 C82.7949796,104.395609 80.6589375,106.557991 78.0164533,106.557991 L62.0621656,106.557991 L62.0621656,122.510332 C62.0621656,125.153396 59.8866428,127.323949 57.2346288,127.323949 L44.8281586,127.323949 C42.184313,127.323949 40.004706,125.153396 40.004706,122.510332 L40.004706,106.557991 L24.0653937,106.557991 C21.4283551,106.557991 19.2269656,104.395609 19.2269656,101.74846 L19.2269656,89.3229277 C19.2269656,86.6703319 21.4283551,84.5202043 24.0653937,84.5202043 L40.004706,84.5202043 L40.004706,68.5569702 C40.004706,65.9193532 42.184313,63.7488 44.8281586,63.7488 L57.2346288,63.7488 C59.8866428,63.7488 62.0621656,65.9193532 62.0621656,68.5569702 L62.0621656,84.5202043 L78.0164533,84.5202043 C80.6589375,84.5202043 82.7949796,86.6703319 82.7949796,89.3229277 L82.7949796,101.74846 Z M319.530797,11.831183 C316.959106,4.98045957 310.382166,0.0715234043 302.634418,0.0715234043 L84.2053937,0.0715234043 C76.5012112,0.0715234043 69.8752604,4.98045957 67.3321586,11.831183 C29.9262358,13.5101617 -0.000136140351,50.3292255 -0.000136140351,95.5377362 C-0.000136140351,140.743523 29.9262358,177.55714 67.3321586,179.240204 C69.8752604,186.082757 76.5012112,190.999864 84.2053937,190.999864 L302.634418,190.999864 C310.382166,190.999864 316.959106,186.082757 319.530797,179.240204 C356.943527,177.55714 386.853562,140.743523 386.853562,95.5377362 C386.853562,50.3292255 356.943527,13.5101617 319.530797,11.831183 L319.530797,11.831183 Z" id="Fill-1"></path>
        <path d="M121.402706,112.587714 C122.352838,113.517424 123.581058,114 124.824273,114 C126.04704,114 127.265718,113.517424 128.206308,112.587714 L182.586048,58.1915311 C184.471317,56.3225697 184.471317,53.2880634 182.586048,51.4027435 C180.745763,49.5324188 177.667716,49.5324188 175.827431,51.4027435 L121.402706,105.798926 C119.532431,107.678794 119.532431,110.717389 121.402706,112.587714" id="Fill-4" opacity="0.7"></path>
        <path d="M177.893818,78.3941236 L147.390094,108.902736 C145.536635,110.739953 145.536635,113.767308 147.390094,115.595069 C148.301964,116.551503 149.534001,117 150.736318,117 C151.973758,117 153.196339,116.551503 154.102805,115.595069 L184.591668,85.1121243 C186.469444,83.2586964 186.469444,80.2475515 184.591668,78.3941236 C182.767929,76.5352921 179.75133,76.5352921 177.893818,78.3941236" id="Fill-6" opacity="0.7"></path>
        <path d="M118.763014,91 C119.974706,91 121.1918,90.5516883 122.118467,89.6105039 L152.636341,59.1158589 C154.454553,57.2577961 154.454553,54.2613998 152.636341,52.4046874 C150.768148,50.5317709 147.761208,50.5317709 145.888962,52.4046874 L115.385948,82.8952814 C113.538017,84.7479428 113.538017,87.7591928 115.385948,89.6105039 C116.318018,90.5516883 117.54592,91 118.763014,91" id="Fill-8" opacity="0.7"></path>
    </g>
</svg>