<?xml version="1.0" encoding="UTF-8"?>
<svg width="118px" height="111px" viewBox="0 0 118 111" version="1.1" xmlns="http://www.w3.org/2000/svg" xmlns:xlink="http://www.w3.org/1999/xlink">
    <!-- Generator: Sketch 44.1 (41455) - http://www.bohemiancoding.com/sketch -->
    <title>Fill 1</title>
    <desc>Created with Sketch.</desc>
    <defs></defs>
    <g id="Comps" stroke="none" stroke-width="1" fill="none" fill-rule="evenodd">
        <g id="Home-v4_News-popup" transform="translate(-1154.000000, -151.000000)" fill="#FFFFFF">
            <g id="Group-9" transform="translate(281.000000, 48.000000)">
                <g id="CAROUSEL" transform="translate(0.000000, 65.000000)">
                    <g id="Group-3" transform="translate(853.000000, 12.000000)">
                        <g id="CLASSIC-BEARS" transform="translate(2.000000, 0.000000)">
                            <path d="M61.2250487,52.1017245 C58.4594645,52.2645231 57.0649332,54.701409 53.4359623,55.769014 C53.232187,55.8290391 53.0891014,55.9891798 53.0525548,56.1982709 C53.0162296,56.407805 53.0961892,56.6062644 53.2676262,56.7318519 C54.1828428,57.4020952 55.7900091,57.4696511 56.7973675,58.5689298 C56.9628241,58.7501126 57.2188721,58.7983985 57.4392594,58.690309 C59.5545348,57.6510554 61.4290454,55.1980004 61.7965053,52.7263398 C61.8215342,52.5582253 61.7741343,52.4031789 61.6596215,52.2780343 C61.5446657,52.1524468 61.3947137,52.0913142 61.2250487,52.1017245 M109.484559,75.6610196 C109.44181,75.4751855 109.382671,75.4811658 109.360079,75.668329 C108.764258,80.5015671 106.122932,86.8764092 100.763644,89.231785 C100.59265,89.3086437 100.551009,89.2475111 100.66685,89.0991096 C105.485691,82.9007989 104.632715,65.4266306 90.3115252,62.7686929 C90.129678,62.7339182 90.1163883,62.7771097 90.2802945,62.8674796 C98.0186585,67.1542901 102.490639,89.4185051 84.0403428,94.0014541 C86.1341332,91.193343 85.264766,87.4560611 83.8757721,85.8475658 C83.753507,85.7053661 83.6334568,85.7534305 83.6172877,85.9399291 C83.1375299,90.5228782 77.2980408,98.0929062 67.6889316,96.0022167 C67.5066414,95.9667776 67.4550331,96.0434148 67.5817281,96.1794126 C72.8962745,101.844142 85.7863863,103.541235 94.9595938,100.416165 C103.494675,97.5105964 112.810303,89.1338843 109.484559,75.6610196 M21.8503598,66.5214794 C27.8856503,65.1123294 27.5744501,64.4932514 33.1158072,61.6255582 C35.6098387,60.334022 38.0609002,59.3335299 42.3900162,57.9119762 C42.5886971,57.8481857 42.8392077,57.6616871 42.9546065,57.495566 C45.8683707,53.2326769 46.005033,49.2905124 50.2132128,45.126853 C50.9598718,44.3877248 51.825252,43.6379649 52.8501085,42.8465639 C54.9082382,41.2575602 58.0869102,39.9062204 59.674142,39.2182575 C61.1289199,38.5903197 66.9949884,36.0708163 71.3734977,34.5704105 C72.8995969,30.0547958 75.6452466,27.5966465 78.397984,26.5870731 C85.1963242,24.0950351 91.8555655,29.9861325 89.0733693,35.8014786 C92.6343413,34.0634089 94.9810788,37.3499488 99.0707589,38.4268566 C103.48803,39.5936912 109.036475,37.4744289 108.107083,33.9424727 C108.055696,33.7435704 108.12591,33.6921836 108.279848,33.8270739 C110.215935,35.6156445 110.254696,38.8720611 108.613198,41.4560196 C118.405705,40.2189711 124.541111,51.7163235 129.283094,46.1375338 C129.40403,45.9948911 129.574802,45.9271137 129.760636,45.9481557 C129.947356,45.9698622 130.097751,46.0741863 130.183027,46.2405289 C132.6476,51.035227 129.656312,55.8469802 126.314399,56.3792322 C140.866607,72.1419101 136.098046,92.1692491 130.788372,98.3239253 C130.635098,98.5013426 130.397655,98.5607032 130.178819,98.4758707 C129.95976,98.3912597 129.824427,98.187263 129.830629,97.9524785 C129.940933,93.9157356 129.000688,88.8158177 125.447911,83.2348131 C129.37745,116.903574 103.452812,123.173206 98.9013153,123.051827 C99.8882962,120.717715 96.4456024,113.467747 91.4070385,113.223659 C97.2660192,121.544998 94.7086401,129.03263 89.9323261,133.128955 C85.3358659,137.065139 78.6879207,137.866729 75.4957376,135.911816 C75.3156623,135.80882 75.3480005,135.712692 75.5531047,135.693422 C77.9631897,135.475471 83.04716,133.167495 83.04716,124.897765 C83.04716,112.729948 68.7961842,108.428297 64.2513322,103.633156 C64.6785957,105.146187 64.9229045,107.409864 63.067664,108.855339 C62.9010999,108.985135 62.6906798,109.008392 62.5004158,108.918686 C62.3092657,108.828981 62.1938669,108.650235 62.1883296,108.43915 C61.9090246,97.3912107 41.1075613,96.3021207 35.0760362,93.8944721 C31.5919229,92.5041492 28.9791702,90.0909633 28.9791702,87.6576214 C23.4462299,87.6576214 19.7665366,79.3046092 19.7665366,76.1060027 C18.3048924,73.022795 15.827916,68.2181296 21.8503598,66.5214794" id="Fill-1"></path>
                        </g>
                    </g>
                </g>
            </g>
        </g>
    </g>
</svg>