<?xml version="1.0" encoding="UTF-8"?>
<svg width="339px" height="353px" viewBox="0 0 339 353" version="1.1" xmlns="http://www.w3.org/2000/svg" xmlns:xlink="http://www.w3.org/1999/xlink">
    <!-- Generator: Sketch 45.1 (43504) - http://www.bohemiancoding.com/sketch -->
    <title>Page 1</title>
    <desc>Created with Sketch.</desc>
    <defs></defs>
    <g id="Iconsv2" stroke="none" stroke-width="1" fill="none" fill-rule="evenodd">
        <g id="Artboard" transform="translate(-1626.000000, -913.000000)" fill="#FFFFFF">
            <g id="BUYING-PRESSURE" transform="translate(1533.000000, 845.000000)">
                <g id="Page-1" transform="translate(93.000000, 68.000000)">
                    <path d="M338.279617,148.071718 L338.205408,148.109706 C336.633769,115.371202 309.595217,89.3079674 276.469767,89.3079674 C257.272624,89.3079674 240.138314,98.0663874 228.804667,111.797689 C217.471021,98.0663874 200.332293,89.3079674 181.139568,89.3079674 C148.015885,89.3079674 120.975566,115.371202 119.40481,148.109706 L119.329718,148.071718 C119.329718,148.749316 119.335902,149.454301 119.352687,150.183139 C119.347387,150.494993 119.329718,150.80508 119.329718,151.120468 C119.329718,155.167505 119.725499,159.11913 120.471122,162.951491 C122.825488,178.233229 129.708366,199.11509 148.588353,222.659638 L178.472464,183.472025 L183.981593,176.249907 L190.158603,183.81745 C194.762207,189.461746 199.338424,195.12106 203.936727,200.767122 C205.365248,198.143307 206.796421,195.521258 208.255863,192.913344 C211.687142,186.78139 215.153759,180.672405 218.795297,174.651765 C222.355558,168.588719 226.144631,162.645821 229.877163,156.672886 L241.393681,138.922818 L248.015945,128.712023 L254.886454,138.334447 L267.353554,155.801814 C270.198229,159.981367 273.110046,164.117631 275.955605,168.298067 L284.795301,158.521925 C288.062261,154.982866 291.310668,151.430555 294.580278,147.893263 L282.969232,145.071557 L313.701444,128.896662 L305.495174,160.871874 L299.376471,151.255634 C296.628974,155.159554 293.858508,159.046688 291.10836,162.949724 L279.505265,179.053061 L276.146428,183.714088 L271.439462,178.891391 C266.361451,173.687049 261.534337,168.316619 256.569407,163.035418 L250.327022,156.103067 L245.599737,164.90831 C242.173759,171.040264 238.802553,177.201371 235.20342,183.243215 C231.685564,189.327463 227.992786,195.320717 224.261138,201.294536 C220.533906,207.271004 216.68741,213.182099 212.871835,219.110862 L205.982773,229.819916 L198.752703,219.5729 C193.876117,212.654685 188.916487,205.791243 183.966575,198.921617 L156.276928,231.642452 C164.747347,240.944187 175.131296,250.58428 187.86166,260.397527 C195.846187,266.663764 204.737123,272.890246 214.654616,279.10701 C219.157507,281.930483 223.86624,284.752189 228.804667,287.573012 C233.743978,284.752189 238.452711,281.930483 242.950302,279.10701 C250.695417,274.251626 257.796504,269.393592 264.344558,264.513472 C266.18653,263.142374 267.997581,261.770392 269.747675,260.397527 C271.336983,259.172196 272.887419,257.950399 274.402518,256.732136 C308.157861,229.601707 324.236461,203.967824 331.79252,183.408418 C333.424233,178.96825 334.660165,174.767495 335.589543,170.837956 C336.243289,168.073674 336.753917,165.433956 337.138213,162.951491 C337.878535,159.11913 338.279617,155.167505 338.279617,151.120468 C338.279617,150.80508 338.261948,150.494993 338.257531,150.183139 C338.273433,149.454301 338.279617,148.749316 338.279617,148.071718" id="Fill-1"></path>
                    <path d="M279.203924,260.385866 C278.824928,260.693303 278.462718,261.002506 278.081072,261.308176 C276.538586,262.550293 274.955463,263.798593 273.332584,265.04866 C272.205315,265.93475 270.989702,266.841159 269.794409,267.744034 C270.6911,268.396012 271.355446,268.994984 271.709706,269.523281 C275.592423,275.348682 275.884841,282.610555 272.492433,288.950118 C266.383449,300.364157 250.460333,306.911328 228.804579,306.911328 L174.139105,306.911328 C173.920895,302.705272 171.08152,299.36057 167.574265,299.36057 L166.919636,299.36057 L166.919636,293.455659 L171.756468,293.455659 C174.870593,293.455659 177.39458,290.929022 177.39458,287.814898 C177.39458,284.701657 174.870593,282.179437 171.756468,282.179437 L152.420626,282.179437 C149.311802,282.179437 146.786932,284.701657 146.786932,287.814898 C146.786932,290.929022 149.311802,293.455659 152.420626,293.455659 L157.52514,293.455659 L157.52514,299.36057 L147.871796,299.36057 C139.956177,284.032893 118.952401,273.050855 94.2072583,273.050855 C69.456815,273.050855 48.4530389,284.032893 40.5365368,299.36057 L31.256004,299.36057 C27.608282,299.36057 24.647876,302.968537 24.647876,307.415772 L24.647876,321.375 C24.647876,325.825769 27.608282,329.430203 31.256004,329.430203 L42.4262141,329.430203 C51.477936,343.051074 71.2289948,352.521546 94.2072583,352.521546 C117.181988,352.521546 136.930396,343.051074 145.981235,329.430203 L167.574265,329.430203 C171.221987,329.430203 174.182393,325.825769 174.182393,321.375 L174.182393,318.659307 L228.804579,318.659307 C254.931421,318.659307 274.62859,309.851415 282.848112,294.493701 C288.320137,284.270538 287.809509,272.496939 281.483198,263.007914 C280.879809,262.103272 280.098848,261.237501 279.203924,260.385866" id="Fill-3" opacity="0.802536232"></path>
                    <path d="M20.6805255,85.5855947 C5.72124307,64.7532059 10.5015346,35.6376877 31.3259724,20.6784052 C52.1645453,5.72000625 81.2835973,10.4976475 96.2384625,31.3273859 C111.192444,52.1571244 106.417453,81.2779433 85.5877149,96.2381092 C64.7553262,111.195625 35.6371576,106.415333 20.6805255,85.5855947 M92.553636,105.936509 C118.775006,87.1059942 124.76826,50.5854854 105.938629,24.3605814 C87.1063476,-1.85725503 50.5920228,-7.85227603 24.3635851,10.9764718 C-1.85690166,29.8043361 -7.85280609,66.3274953 10.9759417,92.5488655 C29.8055729,118.772886 66.3322658,124.765257 92.553636,105.936509" id="Fill-5"></path>
                    <path d="M67.0153413,52.3117263 C68.0586835,53.764101 68.6320358,55.3975808 68.8528957,57.0557969 L91.6385693,34.6305665 L63.1078881,49.0562515 C64.6106188,49.7965738 65.9728826,50.8602351 67.0153413,52.3117263" id="Fill-7"></path>
                    <path d="M62.9251928,64.684121 C66.3714906,62.2113736 67.1515677,57.4222476 64.6858878,53.9874345 C62.2131405,50.5482042 57.4301986,49.761943 53.9892014,52.2311566 C50.5526214,54.7012537 49.7672436,59.4877293 52.2329235,62.9234259 C54.7056709,66.364423 59.4886128,67.1506843 62.9251928,64.684121" id="Fill-9" opacity="0.802649457"></path>
                    <path d="M114.011942,171.199018 C104.113885,168.715669 94.7361735,164.777295 86.8841625,158.715133 C75.5584671,149.970848 68.467981,137.509049 65.6869132,121.566499 C63.3122276,121.836831 60.9225236,122.017053 58.5063163,122.017053 C56.9373276,122.017053 55.3789402,121.93931 53.8240865,121.824463 C56.8534009,141.553436 65.5128756,157.065751 79.7274185,168.03012 C90.7209406,176.51114 103.962817,181.415113 117.556301,184.059248 C116.422848,180.689809 115.398942,177.307119 114.608263,173.954466 C114.387404,173.025971 114.203648,172.113378 114.011942,171.199018" id="Fill-11" opacity="0.801290761"></path>
                </g>
            </g>
        </g>
    </g>
</svg>
