<?xml version="1.0" encoding="UTF-8"?>
<svg width="310px" height="303px" viewBox="0 0 310 303" version="1.1" xmlns="http://www.w3.org/2000/svg" xmlns:xlink="http://www.w3.org/1999/xlink">
    <!-- Generator: Sketch 45.1 (43504) - http://www.bohemiancoding.com/sketch -->
    <title>Page 1</title>
    <desc>Created with Sketch.</desc>
    <defs>
        <polygon id="path-1" points="231.937545 102.39662 231.937545 0.0743443114 0.627796407 0.0743443114 0.627796407 102.39662 231.937545 102.39662"></polygon>
        <polygon id="path-3" points="0 303.573383 309.901617 303.573383 309.901617 2 0 2"></polygon>
    </defs>
    <g id="Iconsv2" stroke="none" stroke-width="1" fill="none" fill-rule="evenodd">
        <g id="Artboard" transform="translate(-2980.000000, -1687.000000)">
            <g id="Group-3" transform="translate(2908.000000, 1598.000000)">
                <g id="Page-1" transform="translate(72.000000, 89.000000)">
                    <g id="Group-3" transform="translate(77.964072, 0.854820)">
                        <mask id="mask-2" fill="white">
                            <use xlink:href="#path-1"></use>
                        </mask>
                        <g id="Clip-2"></g>
                        <path d="M212.675222,37.104494 C212.606539,37.5852725 212.428335,38.0836856 212.104413,38.6062305 C212.073784,38.6572784 212.026449,38.7101826 211.992108,38.7612305 C211.626419,39.3125479 211.148425,39.8815 210.508934,40.4745838 C210.343725,40.5998832 210.073635,40.8319192 209.814683,41.0630269 L209.319982,41.4816198 C209.113934,41.6236257 208.973784,41.7266497 208.781659,41.8797934 C208.288814,42.2742545 207.761629,42.619524 207.182467,42.975003 C206.67106,43.2840749 206.372198,43.472488 206.069623,43.6367695 C205.170251,44.1630269 204.41103,44.5658413 203.623964,44.9315299 C203.550641,44.9667994 203.476389,45.0057814 203.403066,45.041979 C200.167557,46.5929072 196.775192,47.9433563 193.131299,49.1323084 C183.730132,52.1849731 172.013246,54.600003 158.330551,56.3040749 C155.054204,56.7096737 151.718455,57.0790749 148.292677,57.3853623 C146.478156,57.5589251 144.757377,57.6944341 142.99576,57.8262305 C139.460461,58.1037455 135.972497,58.307009 132.443695,58.4731467 C126.544413,58.6977575 121.181599,58.8119192 116.166838,58.8119192 C108.478096,58.8119192 100.757796,58.5733862 93.2194132,58.1000329 C90.7496228,57.9329671 88.264982,57.732488 85.7413593,57.5301527 C85.6030659,57.5180868 85.4759102,57.5050928 85.3385449,57.4939551 C82.6385749,57.2619192 79.9061198,56.9676976 77.1671677,56.6697635 C75.7610299,56.5351826 74.5228862,56.3820389 73.2884551,56.2001228 C68.9308204,55.6237455 64.9295928,55.0130269 61.2272275,54.3577575 C61.107497,54.3364102 60.9877665,54.3187754 60.8680359,54.3002126 C58.4418683,53.8528473 56.0621078,53.3767096 53.7538144,52.9015 L53.3649222,52.8142545 L50.0421677,52.0383263 C47.3821078,51.4183263 44.7953713,50.7064401 42.3701317,49.9991946 C39.0297425,49.0357814 36.0986647,48.0231766 33.472018,46.9344641 C32.4603413,46.5325778 31.5980958,46.1418293 30.7302814,45.7510808 C30.0137545,45.4206617 29.3009401,45.0781766 28.5547126,44.6939251 L28.0330958,44.4303323 C27.8938743,44.3551527 27.7416587,44.2799731 27.6070778,44.2066497 C27.259024,44.0256617 26.9351018,43.8530269 26.639024,43.6887455 C26.3318084,43.5142545 26.0867784,43.3518293 25.806479,43.1847635 C25.7962695,43.1773383 25.786988,43.1699132 25.7767784,43.1634162 C25.7229461,43.1318593 25.6718982,43.0956617 25.6199222,43.0641048 C25.5614491,43.0288353 25.502976,42.9898533 25.4612096,42.9647934 C24.785521,42.5406317 24.3585749,42.2668293 23.9650419,41.9828174 C23.5334551,41.6774581 23.1705509,41.4064401 22.8457006,41.1502725 C22.7185449,41.0296138 22.5848922,40.9154521 22.4512395,40.805003 L22.4530958,40.805003 C21.8275269,40.2935958 21.3495329,39.7988952 20.9513593,39.2512904 C20.7146826,38.9347934 20.5476168,38.7361707 20.4232455,38.5217695 C20.2339042,38.1876377 20.1429461,37.9639551 20.064982,37.7532665 C20.0241437,37.6502425 20.0102216,37.5834162 19.9814491,37.4980269 C19.8867784,37.2409311 19.8283054,37.0051826 19.8283054,36.7220988 C19.8468683,33.9051826 24.992497,29.0027275 39.4297725,24.3610808 C58.4780659,18.1787156 86.4977964,14.6434162 116.327407,14.6434162 C140.611359,14.6434162 164.07112,17.0296737 182.385251,21.3696737 C206.054772,26.990512 212.57591,33.5812605 212.694713,36.5903024 C212.698425,36.6803323 212.706778,36.7712904 212.715132,36.8613204 C212.710491,36.9402126 212.687287,37.0228174 212.675222,37.104494 L212.675222,37.104494 Z M210.746539,69.1876377 C209.029473,70.920482 206.06591,72.9011407 201.474383,74.9514102 L201.474383,62.2460509 C203.425341,61.5935659 205.334533,60.9123084 207.16576,60.1883563 C207.912916,59.8941347 208.596958,59.5692844 209.322766,59.262997 C209.80076,59.0606617 210.277826,58.8583263 210.746539,58.6522784 L210.746539,69.1876377 Z M188.290102,79.5262305 C185.353455,80.3504222 182.278515,81.1272784 179.017018,81.8363802 L179.017018,67.8928772 C182.23118,67.2793743 185.318186,66.6176078 188.290102,65.9103623 L188.290102,79.5262305 Z M165.832737,84.2606916 C162.819982,84.7238353 159.733904,85.1470689 156.560581,85.5229671 L156.560581,71.2676078 C158.333335,71.075482 159.983575,70.8768593 161.553994,70.6670988 C163.026958,70.4833263 164.395042,70.2531467 165.832737,70.0535958 L165.832737,84.2606916 Z M143.376299,86.7815299 C140.325491,87.0135659 137.240341,87.2066198 134.104144,87.3597635 L134.104144,72.9828174 C137.269114,72.8296737 140.326419,72.6394042 143.376299,72.4157216 L143.376299,86.7815299 Z M120.919862,87.757009 C119.359653,87.7774281 117.82079,87.8256916 116.249443,87.8256916 C114.706868,87.8256916 113.181,87.7885659 111.646778,87.770003 L111.646778,73.3113802 C113.155012,73.3280868 114.658605,73.380991 116.166838,73.380991 C117.694563,73.380991 119.328096,73.3494341 120.919862,73.3299431 L120.919862,87.757009 Z M98.462497,87.3931766 C95.3337246,87.2400329 92.2420778,87.0460509 89.1894132,86.814015 L89.1894132,72.4593443 C89.9736946,72.5122485 90.7533353,72.5697934 91.5431856,72.6134162 C91.5561796,72.6152725 91.5691737,72.6162006 91.5812395,72.6171287 L91.603515,72.6171287 C91.6527066,72.6208413 91.7009701,72.6245539 91.7501617,72.6264102 C93.9535749,72.7656317 96.2201018,72.8389551 98.462497,72.9391946 L98.462497,87.3931766 Z M76.0060599,85.5127575 C72.8429461,85.1368593 69.7448024,84.721979 66.732976,84.2588353 L66.732976,70.093506 C67.7669281,70.2382964 68.7758204,70.3923683 69.8311198,70.532518 C69.8701018,70.5371587 69.9174371,70.5408713 69.9564192,70.5473683 C71.3263593,70.7487754 72.9468982,70.9492545 74.573006,71.1088952 C75.0240838,71.1636557 75.535491,71.2119192 76.0060599,71.2666796 L76.0060599,85.5127575 Z M53.5486946,81.8252425 C52.427497,81.5811407 51.2663892,81.3537455 50.1804611,81.0957216 C48.0624371,80.5963802 46.1272575,80.0868293 44.2756108,79.5726377 L44.2756108,65.966979 C44.3498623,65.9836856 44.4213293,66.0050329 44.4946527,66.0217395 L48.4550419,66.9071886 C50.1637545,67.2589551 51.8548323,67.5773084 53.5486946,67.9067994 L53.5486946,81.8252425 Z M31.0913293,74.9876078 C26.4125569,72.8965 23.4889042,70.8870689 21.8191737,69.1765 L21.8191737,58.6643443 C22.6656407,59.0328174 23.4721976,59.4059311 24.3780659,59.7641946 C24.3910599,59.7697635 24.4040539,59.7771886 24.417976,59.7827575 C26.4552515,60.6292246 28.7301317,61.4357814 31.0913293,62.2154222 L31.0913293,74.9876078 Z M231.872946,35.8607814 C231.438575,28.895991 225.041808,16.2305419 188.113754,7.46236826 C167.989743,2.69542216 142.499204,0.0743443114 116.327407,0.0743443114 C83.9992335,0.0743443114 53.2303413,4.03937425 31.9080958,10.9540449 C6.1502515,19.2432964 0.676988024,29.483506 0.627796407,36.6116497 C0.627796407,36.6339251 0.634293413,36.6543443 0.634293413,36.6766198 C0.634293413,36.6923982 0.627796407,36.7063204 0.627796407,36.7220988 L0.627796407,66.095991 C0.627796407,66.6398832 0.707616766,67.1707814 0.855191617,67.678476 C1.44456287,71.7029072 4.11111976,77.230003 12.5488743,82.7682365 C15.5031557,82.4600928 18.4741437,82.2280569 21.4739042,82.1417395 C22.6099521,82.1092545 23.7385749,82.0944042 24.8671976,82.0944042 L24.8690539,82.0944042 L24.8746228,82.0944042 C48.0206707,82.0944042 70.2190838,88.8587156 89.1606407,101.410931 C97.9807904,102.038356 107.05618,102.39662 116.249443,102.39662 C148.578545,102.39662 179.359503,98.4297335 200.702168,91.5113503 C224.855251,83.6926677 231.068246,74.1708413 231.816329,67.2496737 C231.89615,66.8719192 231.937916,66.4876677 231.937916,66.095991 L231.937916,36.7220988 C231.937916,36.4631467 231.914713,36.1670689 231.872946,35.8607814 L231.872946,35.8607814 Z" id="Fill-1" fill="#FFFFFF" mask="url(#mask-2)"></path>
                    </g>
                    <mask id="mask-4" fill="white">
                        <use xlink:href="#path-3"></use>
                    </mask>
                    <g id="Clip-5"></g>
                    <path d="M94.5537126,234.67 L112.71006,234.67 L112.71006,229.567066 L94.5537126,229.567066 L94.5537126,234.67 Z M96.5102395,209.951677 L111.411587,209.951677 C114.484671,216.914611 111.525749,221.043922 103.961377,222.857515 C97.6221557,221.368772 92.9006886,218.658593 96.5102395,209.951677 L96.5102395,209.951677 Z M115.476856,206.760719 C111.619491,203.532635 103.138114,203.72012 103.138114,203.72012 C103.138114,203.72012 94.6558084,203.532635 90.7993713,206.760719 C82.9268563,213.351467 76.8057485,226.459641 78.7697006,230.387545 C81.6970659,236.240419 103.138114,241.119671 103.138114,241.119671 C103.138114,241.119671 124.579162,236.240419 127.506527,230.387545 C129.470479,226.459641 123.349371,213.351467 115.476856,206.760719 L115.476856,206.760719 Z" id="Fill-4" fill="#FFFFFF" mask="url(#mask-4)"></path>
                    <path d="M66.5369521,172.886443 L81.112521,163.622641 C74.9570719,153.413988 59.1331497,158.598599 66.5369521,172.886443" id="Fill-6" fill="#FFFFFF" mask="url(#mask-4)"></path>
                    <path d="M121.83362,190.145832 C116.915386,192.226731 113.700296,199.982299 113.700296,199.982299 C113.700296,199.982299 125.898889,200.170713 129.114907,199.224006 C132.331853,198.279156 132.804278,189.956491 132.804278,189.956491 C132.804278,189.956491 126.751853,188.064934 121.83362,190.145832" id="Fill-7" fill="#FFFFFF" mask="url(#mask-4)"></path>
                    <path d="M94.5634581,199.982021 C94.5634581,199.982021 91.3483683,192.22738 86.4301347,190.145554 C81.5109731,188.064656 75.459476,189.956213 75.459476,189.956213 C75.459476,189.956213 75.9319012,198.278877 79.1488473,199.224656 C82.3648653,200.170434 94.5634581,199.982021 94.5634581,199.982021" id="Fill-8" fill="#FFFFFF" mask="url(#mask-4)"></path>
                    <path d="M150.522171,232.736213 C135.779536,245.878728 119.724506,251.684266 103.13765,254.503039 C86.5507934,251.684266 70.4966916,245.878728 55.7531287,232.736213 C55.5972006,214.150135 56.0055838,195.760823 58.6879192,178.166931 C43.6501347,148.591632 76.3291467,137.863219 89.2609731,158.896811 L116.766512,158.858757 C129.652859,137.975524 162.032081,148.508099 147.525195,177.74741 C150.264147,195.468458 150.680883,214.001632 150.522171,232.736213 M100.488728,119.688308 C83.0925299,120.186722 66.708009,126.143548 53.1116317,136.915584 C33.0869311,152.779416 22.0225299,176.50741 22.7492665,202.013728 C24.0152545,246.140464 60.9516617,281.013608 105.075614,279.749476 C122.471811,279.251063 138.85726,273.294237 152.45271,262.523129 C172.483907,246.654656 183.548308,222.926662 182.815075,197.424057 C181.547231,153.294536 144.609895,118.42232 100.488728,119.688308" id="Fill-9" fill="#FFFFFF" opacity="0.796761775" mask="url(#mask-4)"></path>
                    <path d="M124.890368,163.622177 L139.466865,172.885051 C141.374201,169.192895 142.75435,163.753045 139.190278,160.549093 C135.920428,157.61059 129.098572,156.681518 124.890368,163.622177" id="Fill-10" fill="#FFFFFF" mask="url(#mask-4)"></path>
                    <path d="M175.280219,30.2686228 C175.280219,28.7056287 178.596476,27.6883832 185.629021,27.1231437 L185.629021,32.9750898 C178.596476,32.5286527 175.280219,31.6497006 175.280219,30.2686228 L175.280219,30.2686228 Z M206.67932,39.6567964 C214.733751,40.1032335 218.522434,41.0796407 218.522434,42.6983234 C218.522434,43.6533832 217.065249,44.4896407 214.186147,45.1801796 C212.218482,45.6693114 209.704141,46.0452096 206.67932,46.3106587 L206.67932,39.6567964 Z M148.751087,31.9142216 C148.751087,34.0777246 152.614021,35.8198503 160.302763,37.090479 C165.696207,37.9759281 174.004021,38.6386228 185.629021,39.105479 L185.629021,46.6587126 C177.320278,46.4563772 171.162045,45.8502994 166.861955,44.8033533 C166.242883,44.4200299 165.91432,43.987515 165.878123,43.5271557 L165.841925,42.2231138 C165.805728,42.0486228 165.440967,41.8815569 164.748572,41.7627545 L163.619021,41.5604192 C162.999949,41.4564671 162.233302,41.3998503 161.396117,41.3998503 L155.893153,41.3998503 C155.092165,41.3998503 154.326446,41.4564671 153.707374,41.5604192 L152.686416,41.7349102 C151.994021,41.8527844 151.593063,42.0207784 151.593063,42.1961976 C151.48447,44.3708383 150.86447,46.164012 149.698722,47.5311677 C149.625398,47.6499701 149.698722,47.7743413 149.953033,47.8866467 L150.49971,48.1168263 C150.86447,48.2560479 151.447344,48.3748503 152.213063,48.4305389 C163.14474,49.3234132 174.368781,49.8116168 185.629021,49.8951497 L185.629021,52.6498802 C185.629021,52.8039521 185.91953,52.9570958 186.467135,53.0684731 L187.413841,53.2708084 C188.033841,53.4035329 188.909081,53.4731437 189.855787,53.4731437 L196.815937,53.4731437 C197.727374,53.4731437 198.601686,53.4044611 199.220757,53.2782335 L200.20459,53.0833234 C200.751266,52.964521 201.079829,52.8113772 201.079829,52.6498802 L201.079829,49.7067365 C212.412464,49.3104192 221.631716,48.3479341 228.482344,46.8545509 C235.952973,45.2432934 239.742584,43.193024 239.742584,40.7659281 C239.742584,38.3805988 235.589141,36.5595808 227.389919,35.3539222 C221.376476,34.5028144 212.777225,33.9023054 201.079829,33.5338323 L201.079829,26.8511976 C207.493302,27.0117665 212.157225,27.4721257 215.036326,28.2322754 C215.218243,28.3445808 215.583003,28.6582934 215.583003,29.3757485 C215.583003,29.6411976 215.656326,30.0802096 215.87444,30.7085629 C215.946835,30.8617066 216.311596,31.0083533 216.89447,31.1197305 L217.878302,31.2942216 C218.497374,31.4055988 219.300219,31.4687126 220.137404,31.4687126 L225.749889,31.4687126 C226.550877,31.4687126 227.352793,31.4120958 227.935668,31.3081437 L228.992823,31.1271557 C229.611895,31.0222754 230.012853,30.8617066 230.049979,30.6946407 L230.486207,29.2021856 C230.960488,27.6391916 231.616686,26.530988 232.381476,25.9100599 C232.56432,25.7699102 232.490997,25.6306886 232.163362,25.4979641 L231.507165,25.226018 C231.17953,25.0942216 230.632853,24.9893413 229.940458,24.9262275 C221.95935,24.1939222 212.266746,23.753982 201.079829,23.6147605 L201.079829,22.4917066 C201.079829,22.3107186 200.678871,22.1362275 199.950278,22.0174251 L198.856925,21.8364371 C198.236925,21.738982 197.508332,21.6897904 196.707344,21.6897904 L189.855787,21.6897904 C188.909081,21.6897904 188.033841,21.7668263 187.414769,21.8986228 L186.467135,22.0935329 C185.920458,22.2123353 185.629021,22.3599102 185.629021,22.5130539 L185.629021,23.7400599 C178.886985,23.9563174 172.947793,24.3749102 167.955308,24.9819162 C155.201686,26.543982 148.751087,28.8736228 148.751087,31.9142216 L148.751087,31.9142216 Z" id="Fill-11" fill="#FFFFFF" opacity="0.804404438" mask="url(#mask-4)"></path>
                    <path d="M288.710518,126.668692 C286.993452,128.400608 284.029889,130.382195 279.438362,132.431536 L279.438362,119.726177 C281.38932,119.072763 283.298512,118.392434 285.130668,117.66941 C285.876895,117.373332 286.561865,117.04941 287.286746,116.744051 C287.76474,116.541716 288.241805,116.338452 288.710518,116.131476 L288.710518,126.668692 Z M266.254081,137.006356 C263.318362,137.830548 260.242494,138.606476 256.980997,139.317434 L256.980997,125.373003 C260.195159,124.758572 263.283093,124.096805 266.254081,123.390488 L266.254081,137.006356 Z M243.796716,138.096925 C240.783961,138.560997 237.697883,138.985159 234.52456,139.361057 L234.52456,125.104769 C236.297314,124.912644 237.947554,124.715877 239.517973,124.505189 C240.990937,124.322344 242.359949,124.092165 243.796716,123.891686 L243.796716,138.096925 Z M221.340278,140.620548 C218.28947,140.850728 215.20432,141.04471 212.068123,141.196925 L212.068123,126.820907 C215.233093,126.667763 218.290398,126.477494 221.340278,126.253811 L221.340278,140.620548 Z M284.316686,102.417225 C281.671476,103.274829 278.865698,104.078602 275.97453,104.850817 C274.391117,105.471746 272.776147,106.063901 271.095278,106.613362 C261.695039,109.665099 249.978153,112.080129 236.29453,113.784201 C233.018183,114.189799 229.682434,114.559201 226.256656,114.86456 C224.442135,115.039979 222.721356,115.17456 220.95974,115.306356 C217.42444,115.584799 213.936476,115.786207 210.407674,115.954201 C204.508392,116.176955 199.145578,116.291117 194.130817,116.291117 C190.856326,116.291117 187.581835,116.231716 184.315698,116.140757 C187.906686,119.641716 191.224799,123.34965 194.298811,127.217225 C195.780129,127.215368 197.347763,127.187524 198.883841,127.168033 L198.883841,133.347614 C203.772374,140.401506 207.820009,147.953811 211.020249,155.85974 C237.03426,154.740398 261.064829,151.05474 278.666147,145.34944 C302.819231,137.530757 309.033153,128.008003 309.780308,121.086835 C309.860129,120.709081 309.901895,120.325757 309.901895,119.934081 L309.901895,90.5601886 C309.901895,90.4701587 309.88426,90.3615659 309.87962,90.2641108 C303.944141,94.5549192 295.702225,98.7315659 284.316686,102.417225 L284.316686,102.417225 Z" id="Fill-12" fill="#FFFFFF" mask="url(#mask-4)"></path>
                    <path d="M288.710518,239.919395 C286.993452,241.651311 284.029889,243.632898 279.438362,245.68224 L279.438362,232.97688 C281.38932,232.323467 283.298512,231.644066 285.130668,230.920114 C285.876895,230.624964 286.561865,230.301042 287.286746,229.994754 C287.76474,229.792419 288.241805,229.590084 288.710518,229.383108 L288.710518,239.919395 Z M266.254081,250.257988 C263.318362,251.081251 260.242494,251.858108 256.980997,252.568138 L256.980997,238.623707 C260.195159,238.010204 263.283093,237.348437 266.254081,236.64212 L266.254081,250.257988 Z M243.796716,251.348557 C240.783961,251.811701 237.697883,252.235862 234.52456,252.61176 L234.52456,238.355473 C236.297314,238.163347 237.947554,237.966581 239.517973,237.755892 C240.990937,237.57212 242.359949,237.34194 243.796716,237.142389 L243.796716,251.348557 Z M309.37471,200.216192 C303.476356,204.385413 295.397793,208.438617 284.316686,212.025892 C281.671476,212.883497 278.865698,213.687269 275.97453,214.458557 C274.391117,215.080413 272.776147,215.672569 271.095278,216.22203 C261.695039,219.273766 249.978153,221.687868 236.29453,223.39194 C233.018183,223.798467 229.682434,224.167868 226.256656,224.473228 C224.442135,224.648647 222.721356,224.782299 220.95974,224.915024 C219.548033,225.025473 218.150249,225.092299 216.746895,225.173048 C215.608063,230.268557 214.115608,235.230413 212.330787,240.05676 C215.402015,239.906401 218.376716,239.721701 221.340278,239.505443 L221.340278,253.871251 C218.28947,254.102359 215.20432,254.295413 212.068123,254.447629 L212.068123,240.785353 C208.171775,251.11188 202.845159,260.749725 196.331446,269.468707 C227.881835,269.298856 257.791266,265.36724 278.666147,258.600144 C302.819231,250.781461 309.033153,241.259635 309.780308,234.337539 C309.860129,233.960713 309.901895,233.576461 309.901895,233.184784 L309.901895,203.810892 C309.901895,203.551012 309.878692,203.255862 309.836925,202.949575 C309.784021,202.116102 309.639231,201.196311 309.37471,200.216192 L309.37471,200.216192 Z" id="Fill-13" fill="#FFFFFF" mask="url(#mask-4)"></path>
                    <path d="M157.051847,268.329317 C142.191338,280.101892 124.293943,286.607251 105.292985,287.153928 C57.0805599,288.53315 16.7304401,250.435635 15.3465778,202.222281 C14.5511587,174.356623 26.6393024,148.43821 48.5128653,131.109766 C63.3724461,119.337192 81.2707695,112.831832 100.271728,112.285156 C148.486937,110.898509 188.831488,149.001593 190.218135,197.216802 C191.017266,225.074108 178.930979,250.996234 157.051847,268.329317 M205.522296,196.774078 C203.896189,140.03294 156.579422,95.3539581 99.8382844,96.9800659 C43.0971467,98.6061737 -1.58369162,145.921084 0.0433443114,202.66315 C1.6694521,259.405216 48.9852904,304.084198 105.726428,302.45809 C162.467566,300.83291 207.147476,253.515216 205.522296,196.774078" id="Fill-14" fill="#FFFFFF" mask="url(#mask-4)"></path>
                    <path d="M288.710518,183.293533 C286.993452,185.025449 284.029889,187.007964 279.438362,189.057305 L279.438362,176.351946 C281.38932,175.698533 283.298512,175.018204 285.130668,174.294251 C285.876895,173.999102 286.561865,173.67518 287.286746,173.368892 C287.76474,173.167485 288.241805,172.964222 288.710518,172.757246 L288.710518,183.293533 Z M266.254081,193.632126 C263.318362,194.456317 260.242494,195.232246 256.980997,195.942275 L256.980997,181.998772 C260.195159,181.384341 263.283093,180.722575 266.254081,180.016257 L266.254081,193.632126 Z M243.796716,194.722695 C240.783961,195.186766 237.697883,195.61 234.52456,195.986826 L234.52456,181.730539 C236.297314,181.538413 237.947554,181.340719 239.517973,181.130958 C240.990937,180.947186 242.359949,180.717006 243.796716,180.516527 L243.796716,194.722695 Z M309.37471,143.590329 C303.476356,147.759551 295.397793,151.812754 284.316686,155.40003 C281.671476,156.257635 278.865698,157.061407 275.97453,157.833623 C274.391117,158.454551 272.776147,159.047635 271.095278,159.596168 C261.695039,162.647904 249.978153,165.062934 236.29453,166.766078 C233.018183,167.172605 229.682434,167.542006 226.256656,167.848293 C224.442135,168.022784 222.721356,168.157365 220.95974,168.289162 C219.086746,168.435808 217.22953,168.521198 215.370458,168.631647 C216.667075,173.352186 217.642554,178.173892 218.340518,183.066138 C219.335488,183.002096 220.351805,182.951976 221.340278,182.879581 L221.340278,197.245389 C220.736985,197.290868 220.116985,197.320569 219.507195,197.359551 C219.608362,202.32512 219.382823,207.222006 218.874201,212.040928 C241.83462,210.568892 262.857075,207.098563 278.666147,201.974281 C302.819231,194.156527 309.033153,184.633772 309.780308,177.711677 C309.860129,177.33485 309.901895,176.950599 309.901895,176.558922 L309.901895,147.18503 C309.901895,146.92515 309.878692,146.63 309.836925,146.324641 C309.784021,145.491168 309.639231,144.570449 309.37471,143.590329 L309.37471,143.590329 Z" id="Fill-15" fill="#FFFFFF" mask="url(#mask-4)"></path>
                </g>
            </g>
        </g>
    </g>
</svg>