<?xml version="1.0" encoding="UTF-8"?>
<svg width="400px" height="400px" viewBox="0 0 400 400" version="1.1" xmlns="http://www.w3.org/2000/svg" xmlns:xlink="http://www.w3.org/1999/xlink">
    <defs></defs>
    <g id="img_list-classicbulls" fill="#ffffff" stroke="none" stroke-width="1" fill-rule="evenodd">
        <path d="M215.020531,310.329344 C203.623592,328.556028 156.000735,328.557253 144.604408,310.329344 C148.87298,310.946107 153.789918,310.54126 158.52502,309.78914 C158.437469,309.811189 179.684816,317.49838 201.190531,309.811189 C201.115224,309.792202 209.392776,311.143937 215.020531,310.329344" id="Fill-1"></path>
        <path d="M213.849,276.032137 C213.061653,276.972288 212.291449,277.843842 211.719,278.392008 C209.885939,280.145528 206.585939,282.095653 205.486347,283.84856 C203.548592,286.940341 214.260429,297.014352 219.294306,283.662367 C222.247163,275.82512 221.180633,267.287199 213.849,276.032137 M145.779,276.032137 C146.566347,276.972288 147.336551,277.843842 147.909612,278.392008 C149.742061,280.145528 153.042061,282.095653 154.142265,283.84856 C156.079408,286.940341 145.367571,297.014352 140.334306,283.662367 C137.381449,275.82512 138.447367,267.287199 145.779,276.032137 M231.447367,285.197846 C229.409816,303.065619 217.872673,306.940144 198.988592,303.323471 C188.250429,301.271063 171.378184,301.271063 160.64002,303.323471 C141.760837,306.938919 130.218796,303.070519 128.180633,285.197846 C126.466347,270.160938 138.516551,264.03495 151.298388,262.972916 C161.125531,262.156485 170.110837,265.433846 179.814306,265.683736 C189.517163,265.433846 198.502469,262.156485 208.329612,262.972916 C221.111449,264.03495 233.161653,270.160938 231.447367,285.197846" id="Fill-3" opacity="0.7"></path>
        <path d="M246.320388,164.441515 C236.154061,166.944705 232.809367,166.638467 225.858551,173.10193 C220.089367,178.465998 211.112633,193.467382 201.216918,180.152758 C204.887327,195.225802 212.571,193.362036 218.785286,189.786399 C226.530184,192.09666 234.167939,194.23604 240.066918,186.134203 C244.928755,179.125023 242.946306,169.934815 246.320388,164.441515 M113.307122,164.441515 C123.473449,166.944705 126.818143,166.638467 133.768347,173.10193 C139.538143,178.465998 148.514878,193.467382 158.410592,180.152758 C154.740184,195.225802 147.05651,193.362036 140.842224,189.786399 C133.096714,192.09666 125.458959,194.23604 119.560592,186.134203 C114.699367,179.125023 116.680592,169.934815 113.307122,164.441515 M22.613449,150.650384 C48.4838571,145.959428 94.6226327,152.638482 97.2442653,166.631118 C90.233449,158.178331 52.9342653,153.718278 28.5350816,155.418513 C19.0477347,156.079375 28.0954898,166.491473 30.1042653,167.92283 C59.1381429,187.792789 68.7577347,174.789915 96.3050816,174.062906 C102.875082,220.271798 122.943857,245.728153 129.227327,264.608963 C133.236306,259.553583 141.652224,256.230898 147.698143,254.974097 L154.052633,213.87387 L155.093449,254.865076 C162.049776,254.679496 172.347122,257.373779 179.814061,258.135087 C187.281,257.373779 197.578347,254.679496 204.534673,254.865076 L205.574878,213.87387 L211.929367,254.974097 C217.975898,256.230898 226.391204,259.553583 230.400796,264.608963 C236.684265,245.728153 256.753041,220.271798 263.323041,174.062906 C290.869776,174.789915 300.490592,187.792789 329.523245,167.92283 C331.53202,166.491473 340.580388,156.079375 331.093653,155.418513 C306.693857,153.718278 269.394673,158.178331 262.383857,166.631118 C265.00549,152.638482 311.144265,145.959428 337.014673,150.650384 C303.102429,135.430346 267.071816,148.248864 253.547939,153.14745 C239.318143,140.65967 238.89202,109.855783 241.462224,99.1068227 C242.113041,96.3849777 242.149776,94.4961006 236.941408,93.2037754 C225.479571,90.3575977 212.569776,92.7578926 199.174469,93.6263841 C192.485694,94.0587924 186.14651,94.2805089 179.814061,94.2903085 C173.481612,94.2805089 167.142429,94.0587924 160.453653,93.6263841 C147.058347,92.7578926 134.149163,90.3575977 122.686714,93.2037754 C117.478959,94.4961006 117.514469,96.3849777 118.165898,99.1068227 C120.736102,109.855783 120.309367,140.65967 106.080184,153.14745 C92.5569184,148.248864 56.5250816,135.430346 22.613449,150.650384" id="Fill-5"></path>
        <path d="M107.645694,95.7607418 C40.218551,92.0160612 21.2052857,65.1491728 31.8442653,6.1247637e-05 C-4.13002041,31.3508892 -12.1381837,87.7667002 20.8532449,117.19619 C37.7750816,132.292507 77.6169184,141.063781 102.235286,144.418927 C110.413041,132.800863 114.565286,110.146587 107.645694,95.7607418" id="Fill-7" opacity="0.75"></path>
        <path d="M251.982735,95.7607418 C319.409265,92.0160612 338.422531,65.1491728 327.782939,6.1247637e-05 C363.757837,31.3508892 371.766612,87.7667002 338.774571,117.19619 C321.852735,132.292507 282.010898,141.063781 257.392531,144.418927 C249.214776,132.800863 245.063143,110.146587 251.982735,95.7607418" id="Fill-9" opacity="0.75"></path>
    </g>
</svg>