<?xml version="1.0" encoding="UTF-8"?>
<svg width="268px" height="325px" viewBox="0 0 268 325" version="1.1" xmlns="http://www.w3.org/2000/svg" xmlns:xlink="http://www.w3.org/1999/xlink">
    <!-- Generator: Sketch 45.1 (43504) - http://www.bohemiancoding.com/sketch -->
    <title>Page 1</title>
    <desc>Created with Sketch.</desc>
    <defs></defs>
    <g id="Iconsv2" stroke="none" stroke-width="1" fill="none" fill-rule="evenodd">
        <g id="Artboard" transform="translate(-2935.000000, -2436.000000)" fill="#FFFFFF">
            <g id="Group-4-Copy" transform="translate(2823.000000, 2363.000000)">
                <g id="Page-1" transform="translate(112.000000, 73.000000)">
                    <path d="M161.219245,307.81999 L137.073657,307.81999 L137.073657,258.4595 C145.142578,258.272147 153.194931,258.086069 161.219245,257.907637 L161.219245,307.81999 Z M129.130912,307.81999 L107.603167,307.81999 L107.603167,259.170676 L129.130912,258.650676 L129.130912,307.81999 Z M99.6604216,307.81999 L78.1352255,307.81999 L78.1352255,259.897147 L99.6604216,259.366951 L99.6604216,307.81999 Z M70.1924804,307.81999 L48.6647353,307.81999 L48.6647353,260.612147 L70.1924804,260.092147 L70.1924804,307.81999 Z M40.7232647,307.81999 L20.5821863,307.81999 L20.5821863,261.259598 C27.2797353,261.11048 33.9951275,260.956265 40.7232647,260.798225 L40.7232647,307.81999 Z M137.018853,89.8992059 L160.583265,110.204696 C162.00052,111.499598 162.474637,113.634402 161.832284,115.785775 L151.256402,153.005284 C150.561794,155.581069 149.307676,158.011559 147.625324,160.066069 L87.9387549,242.220971 C85.8396373,245.572931 81.9574804,246.036853 79.2032647,243.271167 L67.8626765,232.306559 L45.7180686,212.597539 L32.8608137,202.026755 C29.5611078,199.405088 28.5045392,194.582343 30.5641471,191.240578 L89.2731667,109.341853 C90.9325784,107.29499 93.081402,105.666167 95.5055196,104.615971 L131.122971,89.3052843 C133.214441,88.4131275 135.471598,88.6374412 137.018853,89.8992059 L137.018853,89.8992059 Z M249.338853,307.81999 L249.338853,74.2737157 L188.386696,59.5709706 L188.386696,308.232931 L178.649441,308.232931 L178.649441,56.767049 L13.9560098,92.7592059 L13.9560098,307.81999 L0.00012745098,307.81999 L0.00012745098,324.217833 L267.705814,324.217833 L267.705814,307.81999 L249.338853,307.81999 Z" id="Fill-1"></path>
                    <path d="M142.926206,117.219725 C145.745422,113.944235 145.807873,109.308843 143.012873,106.879627 C140.191108,104.459333 135.58248,105.164137 132.769637,108.438353 C129.983559,111.706196 130.048559,116.311 132.862676,118.732569 C135.651304,121.163059 140.133755,120.490118 142.926206,117.219725" id="Fill-4" opacity="0.796422101"></path>
                    <path d="M178.649186,51.5476765 L178.649186,51.5132647 C181.862225,50.8033627 185.114775,50.0909118 188.387716,49.3720882 L257.411343,66.0210098 L257.411343,38.814049 L230.242618,31.6347353 L230.242618,18.2421863 L161.21899,0.00012745098 L24.5736961,36.1146373 L24.5736961,53.114049 C70.1221275,42.1303235 115.670559,31.146598 161.21899,20.1628725 L175.652814,23.6435588 C120.188696,36.3924804 64.9437941,50.3305196 9.60457843,63.7154216 L9.60457843,88.4906176 L178.649186,51.5476765 Z" id="Fill-6" opacity="0.846807065"></path>
                </g>
            </g>
        </g>
    </g>
</svg>