<?xml version="1.0" encoding="UTF-8"?>
<svg width="400px" height="400px" viewBox="0 0 400 400" version="1.1" xmlns="http://www.w3.org/2000/svg" xmlns:xlink="http://www.w3.org/1999/xlink">
    <defs></defs>
    <g id="img_list-bestofthenasdaq" fill="#ffffff" stroke="none" stroke-width="1" fill-rule="evenodd">
        <path d="M104.394278,265.676649 L104.02355,266.228716 L98.900106,261.104511 C91.8771258,254.079074 82.2071921,250.210433 71.6724238,250.210433 L71.0358675,250.210433 C70.0357351,250.210433 69.0415629,250.171085 68.0497748,250.112063 C60.1685166,288.70308 52.7014967,327.182015 37.1720265,365.79211 C55.7829536,356.513096 73.0558013,347.154789 89.1085828,337.873986 C101.665669,350.243621 115.078053,362.576888 128.656728,374.947118 C132.406927,341.844575 130.845338,308.727126 128.789642,275.622794 C119.873682,274.537142 111.500106,271.122198 104.394278,265.676649" id="Fill-1" opacity="0.8"></path>
        <path d="M198.977364,250.210493 L198.340808,250.210493 C187.80902,250.210493 178.139086,254.080922 171.113126,261.108744 L163.77306,268.451351 L163.445245,267.20473 C157.905179,271.011367 151.695775,273.638752 145.129947,274.975994 C152.691139,308.294356 161.962927,341.60318 154.777232,374.924523 C169.624252,362.553696 182.202795,350.174523 193.443258,337.805485 C207.439748,347.085692 220.683457,356.363514 232.781007,365.642528 C233.75849,326.963275 214.834053,288.546343 204.420874,249.90465 C202.622662,250.101987 200.807166,250.210493 198.977364,250.210493" id="Fill-4" opacity="0.8"></path>
        <path d="M135.006974,224.650517 C85.3996887,224.650517 45.1839934,184.424762 45.1839934,134.804332 C45.1839934,85.1833068 85.3996887,44.9581479 135.006974,44.9581479 C184.614258,44.9581479 224.828762,85.1833068 224.828762,134.804332 C224.828762,184.424762 184.614258,224.650517 135.006974,224.650517 M256.916444,103.557114 L256.661344,103.108784 C248.322338,94.7675676 243.831874,83.454372 243.831874,71.6570747 L243.831874,71.0215421 C243.831874,46.4563593 223.534788,26.5402226 198.977305,26.5402226 L198.340748,26.5402226 C186.548364,26.5402226 175.23757,21.8554054 166.899159,13.5141892 L166.834192,13.3192369 L166.448563,13.1034181 C157.766841,4.41879968 146.386311,-0.000119236884 135.006974,-0.000119236884 C123.626444,-0.000119236884 112.24651,4.36156598 103.564192,13.0461844 L103.179159,13.1761526 L103.114788,13.5189587 C94.7751854,21.8601749 83.4649868,26.5402226 71.6720066,26.5402226 L71.0360464,26.5402226 C46.4785629,26.5402226 26.1814768,46.4563593 26.1814768,71.0215421 L26.1814768,71.6570747 C26.1814768,83.454372 21.6910132,94.7675676 13.3520066,103.108784 L13.2339934,103.25783 L13.0486291,103.557114 C4.36571523,112.241733 0.0123377483,123.624682 -0.000178807947,135.008227 C0.0123377483,146.391176 4.36571523,157.774722 13.0486291,166.45934 L13.2339934,166.758625 L13.3520066,166.907671 C21.6910132,175.248887 26.1814768,186.562083 26.1814768,198.358784 L26.1814768,198.995509 C26.1814768,223.560095 46.4785629,244.248887 71.0360464,244.248887 L71.6720066,244.248887 C83.4649868,244.248887 94.7751854,248.547377 103.114788,256.888593 L103.178563,256.7938 L103.564192,257.037639 C112.24651,265.722258 123.626444,270.036844 135.006974,270.036844 C146.386311,270.036844 157.766841,265.665024 166.448563,256.980405 L166.834788,256.650715 L166.899159,256.893362 C175.23757,248.552146 186.548364,244.248887 198.340748,244.248887 L198.977305,244.248887 C223.534788,244.248887 243.831874,223.560095 243.831874,198.995509 L243.831874,198.358784 C243.831874,186.562083 248.322338,175.248887 256.661344,166.907671 L257.013596,166.45934 C274.378828,149.089507 274.281675,120.926948 256.916444,103.557114" id="Fill-6"></path>
        <polygon id="Fill-9" points="72.4463046 133.369376 63.7878278 118.045648 58.7758411 118.045648 58.7758411 148.061745 65.1533245 148.061745 65.1533245 132.656339 73.8511391 148.061745 78.822 148.061745 78.822 118.005107 72.4463046 118.005107"></polygon>
        <path d="M90.705457,137.07806 L93.5985695,128.723132 L96.5316159,137.07806 L90.705457,137.07806 Z M91.3783709,118.045469 L80.7035364,148.061566 L87.2014172,148.061566 L88.974596,142.478299 L98.2428079,142.478299 L99.9951258,148.061566 L106.494199,148.061566 L95.8193642,118.045469 L91.3783709,118.045469 Z" id="Fill-11"></path>
        <path d="M117.073788,124.403359 C117.970212,124.403359 118.74445,124.668064 119.395907,125.198072 C120.034252,125.741793 120.354318,126.393422 120.354318,127.154153 L126.87306,127.154153 C126.87306,124.600696 125.922397,122.413295 124.021073,120.592548 C122.092331,118.772397 119.776768,117.862023 117.073788,117.862023 C114.370808,117.862023 112.055245,118.772397 110.127695,120.592548 C108.225179,122.413295 107.275709,124.600696 107.275709,127.154153 C107.275709,130.048033 108.340808,132.289686 110.473391,133.879114 C111.66902,134.762063 113.569748,135.563335 116.177364,136.283525 C118.037563,136.799821 119.219483,137.23444 119.721934,137.587381 C120.143325,137.913494 120.354318,138.457214 120.354318,139.217945 C120.354318,139.978676 120.034252,140.630902 119.395907,141.174026 C118.74445,141.704034 117.970212,141.96874 117.073788,141.96874 C116.177364,141.96874 115.403126,141.704034 114.751669,141.174026 C114.113325,140.630902 113.79445,139.978676 113.79445,139.217945 L107.275709,139.217945 C107.275709,141.758287 108.225179,143.938533 110.127695,145.758684 C112.055245,147.579432 114.370808,148.489209 117.073788,148.489209 C119.776768,148.489209 122.092331,147.579432 124.021073,145.758684 C125.922397,143.938533 126.87306,141.758287 126.87306,139.217945 C126.87306,136.283525 125.800212,134.015044 123.654517,132.411904 C122.445179,131.528955 120.530146,130.727087 117.909417,130.006896 C116.07604,129.491196 114.914384,129.063136 114.425642,128.723311 C114.004252,128.397198 113.79445,127.874344 113.79445,127.154153 C113.79445,126.393422 114.113325,125.741793 114.751669,125.198072 C115.403126,124.668064 116.177364,124.403359 117.073788,124.403359" id="Fill-13"></path>
        <path d="M145.254695,139.156598 C143.570325,140.841415 141.546815,141.683227 139.18357,141.683227 L136.475225,141.683227 L136.475225,124.443959 L139.18357,124.443959 C141.546815,124.443959 143.570325,125.286367 145.254695,126.971184 C146.939066,128.655405 147.780656,130.686606 147.780656,133.063593 C147.780656,135.441176 146.939066,137.472377 145.254695,139.156598 M139.18357,118.045707 L130.078073,118.045707 L130.078073,148.061804 L139.18357,148.061804 C143.312841,148.061804 146.843702,146.594595 149.777344,143.660175 C152.710987,140.725755 154.177808,137.193959 154.177808,133.063593 C154.177808,128.920707 152.710987,125.381757 149.777344,122.447337 C146.843702,119.512917 143.312841,118.045707 139.18357,118.045707" id="Fill-15"></path>
        <path d="M165.144755,137.07806 L168.037868,128.723132 L170.970914,137.07806 L165.144755,137.07806 Z M165.817669,118.045469 L155.142834,148.061566 L161.640715,148.061566 L163.413894,142.478299 L172.682106,142.478299 L174.434424,148.061566 L180.933497,148.061566 L170.258662,118.045469 L165.817669,118.045469 Z" id="Fill-17"></path>
        <path d="M205.182119,133.063772 C205.182119,134.762301 204.74106,136.338017 203.858344,137.791514 C202.988742,139.190759 201.827086,140.250179 200.37457,140.97037 C200.238079,140.820727 200.055099,140.610274 199.825033,140.338414 C198.126358,138.341793 196.754901,137.166713 195.70947,136.813176 C193.305695,135.957651 191.233907,136.317746 189.495894,137.893462 C188.572649,136.426252 188.110132,134.815958 188.110132,133.063772 C188.110132,130.645648 188.939205,128.573907 190.595563,126.848549 C192.28053,125.136904 194.296291,124.281379 196.64702,124.281379 C198.99596,124.281379 201.012318,125.136904 202.696689,126.848549 C204.353046,128.573907 205.182119,130.645648 205.182119,133.063772 M196.64702,141.846165 C194.731987,141.846165 193.013642,141.255346 191.491987,140.073708 C192.361589,139.312977 193.440993,139.149622 194.731987,139.584837 C195.24755,139.788136 196.06947,140.535751 197.196556,141.825894 C196.992715,141.839607 196.809735,141.846165 196.64702,141.846165 M186.012715,122.243621 C183.065364,125.232293 181.591391,128.839209 181.591391,133.063772 C181.591391,137.275219 183.065364,140.875576 186.012715,143.863653 C188.946358,146.866037 192.490927,148.36723 196.64702,148.36723 C198.900596,148.36723 201.047483,147.871204 203.084106,146.87975 C203.219404,146.934002 203.274238,146.961427 203.247417,146.961427 C204.048477,147.246403 204.84894,147.388891 205.651192,147.388891 C207.810596,147.388891 210.105298,146.356896 212.537086,144.291713 L213.65702,143.334241 L211.762848,141.072317 L210.622053,142.029789 C209.29053,143.144058 208.068079,143.870807 206.955298,144.210036 C210.133311,141.16711 211.722318,137.451689 211.722318,133.063772 C211.722318,128.839209 210.241192,125.232293 207.280728,122.243621 C204.347682,119.241236 200.802517,117.740044 196.64702,117.740044 C192.490927,117.740044 188.946358,119.241236 186.012715,122.243621" id="Fill-19"></path>
    </g>
</svg>