<?xml version="1.0" encoding="UTF-8"?>
<svg width="400px" height="400px" viewBox="0 0 400 400" version="1.1" xmlns="http://www.w3.org/2000/svg" xmlns:xlink="http://www.w3.org/1999/xlink">
    <defs></defs>
    <g id="img_list-holding" fill="#ffffff" stroke="none" stroke-width="1" fill-rule="evenodd">
        <path d="M91.236948,33.607875 L118.100928,33.607875 C120.431388,33.607875 122.326908,30.3667973 122.326908,26.3835387 L122.326908,13.8923683 C122.326908,9.90910965 120.431388,6.66803195 118.100928,6.66803195 C102.289968,6.66803195 93.321228,14.3323756 88.581768,20.7621807 C87.167388,22.6799232 86.640048,25.8096738 87.236028,28.7359872 C87.839928,31.6960964 89.410068,33.607875 91.236948,33.607875" id="Fill-1" opacity="0.7"></path>
        <path d="M211.898676,33.607875 L238.762656,33.607875 C240.590196,33.607875 242.160336,31.6960964 242.763576,28.7359872 C243.360216,25.8096738 242.832216,22.6799232 241.419156,20.7621807 C236.678376,14.3323756 227.709636,6.66803195 211.898676,6.66803195 C209.568216,6.66803195 207.672696,9.90910965 207.672696,13.8923683 L207.672696,26.3835387 C207.672696,30.3667973 209.568216,33.607875 211.898676,33.607875" id="Fill-3" opacity="0.7"></path>
        <path d="M131.473122,16.9626781 L131.473122,16.9626781 C153.720402,11.314151 176.279202,11.314151 198.526482,16.9626781 C198.665082,16.9977992 198.801702,17.0150284 198.937002,17.0150284 C199.535622,17.0150284 200.092002,16.6724323 200.533542,16.021036 C201.069462,15.2324688 201.363822,14.0940162 201.363822,12.8170674 L201.363822,9.54616991 C201.363822,7.00287484 200.166582,4.62988379 198.694122,4.25680533 C176.336622,-1.41889093 153.664302,-1.41889093 131.305482,4.25680533 C129.833682,4.62988379 128.635782,7.00287484 128.635782,9.54616991 L128.635782,12.8170674 C128.635782,14.0940162 128.930142,15.2318061 129.465402,16.0203734 C130.006602,16.8195432 130.719402,17.1521993 131.473122,16.9626781" id="Fill-5"></path>
        <path d="M309.763674,41.8963133 L20.236194,41.8963133 C9.105954,41.8963133 -6.6e-05,51.0397175 -6.6e-05,62.2141794 L3.959934,130.205906 L140.989134,130.205906 L139.211094,113.803707 C139.211094,110.402265 141.982434,107.61975 145.370214,107.61975 L184.629654,107.61975 C188.017434,107.61975 190.788774,110.402265 190.788774,113.803707 L189.010734,130.205906 L326.039934,130.205906 L329.999934,62.2141794 C329.999934,51.0397175 320.893254,41.8963133 309.763674,41.8963133" id="Fill-10"></path>
        <path d="M186.68265,155.375515 C186.68265,158.507254 183.91131,161.069103 180.52419,161.069103 L149.47581,161.069103 C146.08869,161.069103 143.31669,158.507254 143.31669,155.375515 L141.48189,139.78839 L9.23967,139.78839 L9.23967,241.796523 C9.23967,252.085006 18.34635,260.503458 29.47659,260.503458 L299.86341,260.503458 C310.99365,260.503458 320.09967,252.085006 320.09967,241.796523 L320.09967,139.78839 L188.51811,139.78839 L186.68265,155.375515 Z" id="Fill-7" opacity="0.75"></path>
        <path d="M149.345328,138.248828 L149.953848,144.240614 L150.291108,147.553922 C150.291108,149.976613 152.141088,151.958633 154.402908,151.958633 L175.131528,151.958633 C177.393348,151.958633 179.242668,149.976613 179.242668,147.553922 L179.579928,144.240614 L180.188448,138.248828 L180.506568,135.118415 L181.601508,124.345526 L181.984308,120.576307 C181.984308,118.153617 180.134328,116.172258 177.872508,116.172258 L151.661268,116.172258 C149.400108,116.172258 147.549468,118.153617 147.549468,120.576307 L147.932268,124.345526 L149.027208,135.118415 L149.345328,138.248828 Z" id="Fill-13"></path>
    </g>
</svg>