<?xml version="1.0" encoding="UTF-8"?>
<svg width="132px" height="67px" viewBox="0 0 132 67" version="1.1" xmlns="http://www.w3.org/2000/svg" xmlns:xlink="http://www.w3.org/1999/xlink">
    <!-- Generator: Sketch 44.1 (41455) - http://www.bohemiancoding.com/sketch -->
    <title>Page 1</title>
    <desc>Created with Sketch.</desc>
    <defs></defs>
    <g id="Comps" stroke="none" stroke-width="1" fill="none" fill-rule="evenodd">
        <g id="Home-v4" transform="translate(-518.000000, -171.000000)" fill="#FFFFFF">
            <g id="Group-9" transform="translate(282.000000, 48.000000)">
                <g id="CAROUSEL" transform="translate(11.000000, 65.000000)">
                    <g id="Group-14" transform="translate(208.000000, 12.000000)">
                        <g id="10-UNDER-10" transform="translate(2.000000, 0.000000)">
                            <g id="Page-1" transform="translate(15.000000, 46.000000)">
                                <path d="M65.9797286,15.478404 C62.6255143,15.478404 59.9100857,12.7633489 59.9100857,9.41485955 C59.9100857,6.06637016 62.6255143,3.35131512 65.9797286,3.35131512 C69.3315857,3.35131512 72.0493714,6.06637016 72.0493714,9.41485955 C72.0493714,12.7633489 69.3315857,15.478404 65.9797286,15.478404 M105.153086,10.3685432 C102.447086,7.70764801 99.1093714,4.73827732 96.1016571,2.93452003 C90.1380857,-0.640027719 84.7308,0.549133422 81.7230857,3.95884695 C78.7978714,2.47769377 75.2385857,1.98083634 71.2762286,1.62997493 C69.7676571,0.600938462 67.9432286,0.000470954907 65.9797286,0.000470954907 C64.0138714,0.000470954907 62.1894429,0.603293236 60.6808714,1.62997493 C56.7232286,1.98083634 53.1639429,2.47769377 50.2434429,3.95884695 C47.2357286,0.549133422 41.8284429,-0.640027719 35.8648714,2.93452003 C32.8548,4.73827732 29.5194429,7.70764801 26.8110857,10.3685432 C43.2969429,10.5475061 56.6077286,23.9461732 56.6077286,40.4578523 C56.6077286,42.3934769 56.4191571,44.2820061 56.0703,46.1140207 C58.7032286,43.4672541 63.0050143,37.7074756 61.3173,29.4375074 C60.6738,26.2797548 59.8205143,23.3362866 58.8658714,20.6306507 C59.8016571,20.2044365 60.9896571,18.622028 62.0291571,17.953272 C63.2336571,18.5113536 64.5678,18.8292481 65.9797286,18.8292481 C67.3916571,18.8292481 68.7281571,18.5089988 69.9326571,17.953272 C70.9721571,18.6173184 72.1625143,20.2044365 73.1006571,20.6306507 C72.1460143,23.3362866 71.2903714,26.2797548 70.6468714,29.4375074 C68.9615143,37.7074756 73.2633,43.4672541 75.8962286,46.1140207 C75.5473714,44.2820061 75.3564429,42.3934769 75.3564429,40.4578523 C75.3564429,23.9461732 88.6672286,10.5475061 105.153086,10.3685432 M105.4878,60.2214749 C94.5624429,60.2214749 85.7043,51.3722322 85.7043,40.4578523 C85.7043,29.5434723 94.5624429,20.6965844 105.4878,20.6965844 C116.413157,20.6965844 125.2713,29.5434723 125.2713,40.4578523 C125.2713,51.3722322 116.413157,60.2214749 105.4878,60.2214749 M105.4878,14.0090247 C90.8640857,14.0090247 79.0100143,25.848831 79.0100143,40.4578523 C79.0100143,55.0692282 90.8640857,66.9113894 105.4878,66.9113894 C120.111514,66.9113894 131.965586,55.0692282 131.965586,40.4578523 C131.965586,25.848831 120.111514,14.0090247 105.4878,14.0090247 M26.4763714,60.2214749 C15.5510143,60.2214749 6.69522857,51.3722322 6.69522857,40.4578523 C6.69522857,29.5434723 15.5510143,20.6965844 26.4763714,20.6965844 C37.4040857,20.6965844 46.2598714,29.5434723 46.2598714,40.4578523 C46.2598714,51.3722322 37.4040857,60.2214749 26.4763714,60.2214749 M26.4763714,14.0090247 C11.8550143,14.0090247 0.000942857143,25.848831 0.000942857143,40.4578523 C0.000942857143,55.0692282 11.8550143,66.9113894 26.4763714,66.9113894 C41.1000857,66.9113894 52.9565143,55.0692282 52.9565143,40.4578523 C52.9565143,25.848831 41.1000857,14.0090247 26.4763714,14.0090247" id="Fill-1"></path>
                                <path d="M65.9820857,6.35129788 C64.2755143,6.35129788 62.8848,7.73826008 62.8848,9.44547162 C62.8848,11.1526832 64.2755143,12.5396454 65.9820857,12.5396454 C67.6910143,12.5396454 69.0793714,11.1526832 69.0793714,9.44547162 C69.0793714,7.73826008 67.6910143,6.35129788 65.9820857,6.35129788" id="Path" opacity="0.798403533"></path>
                                <path d="M112.611086,25.4461646 C110.282229,24.2004889 107.651657,23.5435068 104.997514,23.5435068 C96.0875143,23.5435068 88.8416571,30.7844385 88.8416571,39.6854862 C88.8416571,39.7726129 88.8463714,39.8597395 88.8510857,39.9445114 L88.8581571,40.0457667 C88.8699429,40.596784 89.2989429,41.0465459 89.8481571,41.0865771 C89.8740857,41.0889318 89.9000143,41.0889318 89.9235857,41.0889318 C90.4421571,41.0889318 90.8900143,40.7145227 90.9772286,40.1988271 C91.7715857,35.4186347 94.8759429,31.1400094 99.2790857,28.7499133 C103.1613,26.6447448 107.802514,26.1784995 111.892157,27.457142 C112.0053,27.4948184 112.116086,27.5065923 112.231586,27.5065923 C112.818514,27.5065923 113.297014,27.0285731 113.297014,26.4422342 C113.297014,25.9877627 113.0118,25.5992249 112.611086,25.4461646" id="Path" opacity="0.798120471"></path>
                                <path d="M33.7858714,25.4461646 C31.4570143,24.2004889 28.8288,23.5435068 26.1723,23.5435068 C17.2623,23.5435068 10.0164429,30.7844385 10.0164429,39.6854862 C10.0164429,39.7726129 10.0211571,39.8597395 10.0258714,39.9445114 L10.0329429,40.0457667 C10.0447286,40.596784 10.4737286,41.0465459 11.0229429,41.0865771 C11.0488714,41.0889318 11.0748,41.0889318 11.1007286,41.0889318 C11.6169429,41.0889318 12.0648,40.7145227 12.1496571,40.1988271 C12.9463714,35.4186347 16.0507286,31.1400094 20.4538714,28.7499133 C24.3360857,26.6447448 28.9796571,26.1784995 33.0669429,27.457142 C33.1800857,27.4948184 33.2932286,27.5065923 33.4063714,27.5065923 C33.9933,27.5065923 34.4718,27.0285731 34.4718,26.4422342 C34.4718,25.9877627 34.1865857,25.5992249 33.7858714,25.4461646" id="Path" opacity="0.798120471"></path>
                            </g>
                        </g>
                    </g>
                </g>
            </g>
        </g>
    </g>
</svg>