<?xml version="1.0" encoding="UTF-8"?>
<svg width="400px" height="400px" viewBox="0 0 400 400" version="1.1" xmlns="http://www.w3.org/2000/svg" xmlns:xlink="http://www.w3.org/1999/xlink">
    <defs></defs>
    <g id="img_list-ideasforyou" fill="#ffffff" stroke="none" stroke-width="1" fill-rule="evenodd">
        <path d="M117.578859,362.758234 C138.247166,362.758234 156.121828,355.221025 167.81507,340.4805 L67.3824391,340.4805 C79.068821,355.211446 96.9201569,362.758234 117.578859,362.758234" id="Fill-1" opacity="0.7"></path>
        <path d="M53.9073234,296.931505 C53.9073234,299.287909 54.056885,301.603261 54.2819134,303.89535 L182.944628,303.89535 C183.172401,301.607366 183.286287,299.283804 183.286287,296.931505 C183.286287,296.56614 183.286287,292.608695 183.289031,286.720421 L53.9059513,286.720421 C53.9073234,292.608695 53.9073234,296.56614 53.9073234,296.931505" id="Fill-3" opacity="0.7"></path>
        <path d="M77.013895,313.600461 L53.9059513,313.600461 C55.2986574,320.005993 57.5420805,324.208384 60.5689865,329.760028 L61.4992867,331.237912 L172.586462,331.237912 C176.029122,325.290797 178.570296,320.579358 180.079633,313.600461 L156.951107,313.600461 L77.013895,313.600461 Z" id="Fill-5"></path>
        <path d="M211.52575,115.10801 C209.628102,145.395055 196.639574,166.820268 185.179593,185.722132 C179.219086,195.547324 173.592004,204.830625 169.979201,214.562765 C165.051903,227.826775 162.127906,241.212573 160.630919,252.486912 L73.3844014,252.486912 C71.888786,241.222152 68.9647893,227.83088 64.0374913,214.562765 C60.4233161,204.830625 54.7948626,195.547324 48.8357272,185.722132 C37.3757459,166.820268 24.385846,145.395055 22.4895704,115.10801 C21.0968643,92.9233285 29.4627056,71.0150658 46.0420823,53.4159298 C64.4052206,33.9174391 90.9352421,22.2791022 117.006974,22.2791022 C143.07459,22.2791022 169.607355,33.9174391 187.973238,53.4159298 C204.552615,71.0150658 212.917084,92.9233285 211.52575,115.10801 M117.006974,0 C53.5215314,0 -3.7660263,53.3064569 0.193924156,116.496948 C3.45134702,168.480151 33.8740849,197.483626 43.089271,222.299762 C49.5286499,239.645742 52.2262461,257.853821 52.3099457,269.193844 C52.3099457,269.41279 52.3113178,271.258777 52.3126899,273.838232 L181.699886,273.838232 C181.699886,271.258777 181.704002,269.415527 181.704002,269.196581 C181.787702,257.853821 184.485298,239.645742 190.924677,222.299762 C200.141235,197.483626 230.562601,168.480151 233.821396,116.496948 C237.782719,53.3064569 180.493789,0 117.006974,0" id="Fill-7"></path>
        <path d="M65.2369044,117.570506 C61.1959986,97.5451769 74.1982475,78.0466862 94.2792853,74.0180837 C114.356207,69.9894813 133.906232,82.9579139 137.947138,102.980506 C141.986672,123.007203 128.983051,142.504326 108.904757,146.532928 C88.8264637,150.561531 69.2750659,137.593098 65.2369044,117.570506 M106.624287,160.646721 L107.661613,165.78921 C107.793337,166.443311 108.432746,166.868886 109.08725,166.736151 L116.570815,165.236372 C117.22669,165.103636 117.650677,164.467325 117.517581,163.811856 L116.482999,158.669367 C116.348531,158.013898 116.76154,157.325587 117.398206,157.113483 C119.621047,156.366331 121.764305,155.47139 123.817003,154.443713 C124.413877,154.144031 125.195988,154.338345 125.569206,154.892552 L128.498691,159.248205 C128.873281,159.799674 129.625205,159.948831 130.182287,159.575255 L136.521501,155.335917 C137.075839,154.963709 137.226773,154.211083 136.850811,153.658245 L133.921326,149.305329 C133.548108,148.749754 133.666111,147.956076 134.16968,147.515447 C135.919139,145.988301 137.558827,144.34347 139.066791,142.597378 C139.505871,142.091066 140.298959,141.972014 140.857414,142.340116 L145.245467,145.249358 C145.801177,145.620198 146.554473,145.468304 146.924947,144.912729 L151.151089,138.575617 C151.521563,138.018674 151.370629,137.267416 150.813547,136.897945 L146.428238,133.990071 C145.869783,133.619232 145.673569,132.843343 145.969948,132.243979 C147.001786,130.17631 147.890922,128.036114 148.626381,125.838446 C148.83906,125.202135 149.527866,124.788875 150.183742,124.918874 L155.342929,125.928761 C155.998804,126.057392 156.638214,125.631816 156.764449,124.974979 L158.236739,117.507559 C158.36709,116.85209 157.938988,116.21441 157.280368,116.088517 L152.121181,115.074524 C151.463934,114.947262 150.982318,114.30274 151.027598,113.636324 C151.18402,111.351077 151.188137,109.034357 151.015249,106.698479 C150.965853,106.033431 151.44198,105.387541 152.101971,105.256174 L157.25567,104.223023 C157.912917,104.088919 158.339648,103.452608 158.20518,102.798507 L156.69996,95.3379297 C156.569608,94.6838291 155.93157,94.2596217 155.27295,94.3909891 L150.115136,95.4268764 C149.45926,95.5568755 148.769082,95.1463521 148.556402,94.5127777 C147.811339,92.2932148 146.909853,90.1584934 145.879388,88.1099819 C145.578893,87.5133546 145.772362,86.7333603 146.329445,86.3611524 L150.695544,83.4395946 C151.251254,83.0660183 151.399444,82.3147606 151.024854,81.7605541 L146.775385,75.4425997 C146.399423,74.8883932 145.648871,74.7419732 145.091789,75.1128127 L140.727062,78.0343705 C140.171351,78.4065783 139.374147,78.2916318 138.935068,77.7880565 C137.405149,76.0405954 135.754484,74.4080809 133.999537,72.9000918 C133.493223,72.4635686 133.372476,71.6712586 133.745694,71.1143152 L136.660086,66.7395047 C137.030559,66.1852982 136.880998,65.4340405 136.325287,65.0632011 L129.966864,60.8498631 C129.409781,60.4803921 128.657857,60.6309173 128.287384,61.1864922 L125.370248,65.5599343 C124.999774,66.1168777 124.220408,66.3125605 123.620789,66.0156152 C121.548882,64.9879385 119.401507,64.101208 117.195132,63.369108 C116.558466,63.1570043 116.145457,62.4686935 116.274436,61.814593 L117.287064,56.6707354 C117.416044,56.0152664 116.987941,55.3803237 116.332065,55.251693 L108.841639,53.7833878 C108.184392,53.6533888 107.546354,54.0803331 107.420119,54.735802 L106.404747,59.8823964 C106.275767,60.5378653 105.629497,61.0168093 104.962644,60.9730201 C102.667081,60.8156528 100.346819,60.8156528 98.0059746,60.9867042 C97.3391222,61.035967 96.6914796,60.5583915 96.5597557,59.9056594 L95.5224298,54.7618018 C95.3893338,54.1063329 94.751296,53.6821254 94.0940485,53.8148613 L86.6132273,55.3146399 C85.957352,55.4473758 85.5333656,56.083687 85.6664616,56.739156 L86.7037875,61.8830135 C86.8355115,62.5371141 86.4238742,63.2254249 85.7858364,63.4375286 C83.5629952,64.1833127 81.4211094,65.079622 79.3670394,66.1086672 C78.7701654,66.4069808 77.9866825,66.2154033 77.6148368,65.6584599 L74.6826074,61.3028072 C74.3093896,60.7486007 73.5560934,60.6008123 72.999011,60.9730201 L66.6666578,65.2150947 C66.1095754,65.588671 65.9627581,66.3399287 66.3346037,66.8927668 L69.265461,71.2456827 C69.6359346,71.7998892 69.5220483,72.5921993 69.0184787,73.0328277 C67.2662761,74.561343 65.630704,76.2061732 64.1158789,77.9536342 C63.6781713,78.458578 62.8823392,78.5789981 62.3252568,78.2081587 L57.9399478,75.300285 C57.3828654,74.9294456 56.6281971,75.0827076 56.2590957,75.6382825 L52.031581,81.9753946 C51.6597354,82.532338 51.8147854,83.2822273 52.3704957,83.6503299 L56.7571768,86.559572 C57.3156313,86.9304115 57.510473,87.7090374 57.2113499,88.3070331 C56.1822567,90.373334 55.2917481,92.5148974 54.5549174,94.7180394 C54.3463545,95.3502454 53.6548039,95.7635055 52.9989286,95.6348749 L47.8411137,94.6249875 C47.1852383,94.49362 46.5472006,94.9219327 46.4168488,95.5760332 L44.9445595,103.043453 C44.8155798,103.698922 45.2436826,104.333865 45.9009301,104.463864 L51.0614892,105.476488 C51.7201088,105.60375 52.2017244,106.248272 52.1537001,106.911951 C52.0000222,109.199935 51.99865,111.518023 52.1715377,113.852533 C52.219562,114.517581 51.7393186,115.163471 51.0848153,115.294838 L45.9297447,116.329357 C45.2711251,116.459356 44.8471387,117.098404 44.9788626,117.752505 L46.4827107,125.213082 C46.6144347,125.868551 47.2538445,126.292759 47.9083478,126.160023 L53.0675348,125.125504 C53.7234102,124.994136 54.4149608,125.40466 54.6290121,126.036866 C55.3754477,128.257797 56.2755612,130.39115 57.3060265,132.439662 C57.6037774,133.036289 57.4103079,133.816283 56.8559697,134.187123 L52.4871263,137.111417 C51.9314159,137.482257 51.7818544,138.234883 52.1537001,138.789089 L56.4100294,145.109781 C56.7832471,145.662619 57.5379154,145.811775 58.0908815,145.438199 L62.4569807,142.51801 C63.0140631,142.145802 63.8112673,142.262117 64.2503471,142.764324 C65.7830098,144.510416 67.4323031,146.141563 69.1817614,147.649552 C69.6908195,148.086075 69.8088222,148.878385 69.4397208,149.436697 L66.5225847,153.80877 C66.1521112,154.365714 66.304417,155.115603 66.8601273,155.486442 L73.2144345,159.701149 C73.772889,160.071988 74.5248131,159.920095 74.8966588,159.36452 L77.8137948,154.991078 C78.1828962,154.434134 78.965007,154.235715 79.5632532,154.534028 C81.6365329,155.563073 83.7825351,156.448435 85.990283,157.183272 C86.6269486,157.394008 87.0413301,158.082318 86.9109783,158.736419 L85.8969785,163.880276 C85.7666267,164.534377 86.1947295,165.172057 86.8533491,165.299319 L94.3396587,166.768992 C94.9969062,166.898992 95.634944,166.470679 95.7625515,165.81521 L96.7792956,160.668615 C96.9082752,160.013147 97.5518015,159.532834 98.2213981,159.57936 C100.514218,159.733991 102.835852,159.736727 105.178068,159.562939 C105.846292,159.516413 106.491191,159.99262 106.624287,160.646721" id="Fill-9"></path>
        <path d="M97.5067379,94.0801382 C90.7929342,94.0801382 85.3510896,99.5086253 85.3510896,106.202893 C85.3510896,112.898529 90.7929342,118.325647 97.5067379,118.325647 C104.220542,118.325647 109.662386,112.898529 109.662386,106.202893 C109.662386,99.5086253 104.220542,94.0801382 97.5067379,94.0801382" id="Fill-11"></path>
        <path d="M104.522925,133.1517 C90.9924083,133.1517 80.0250195,122.21399 80.0250195,108.720087 C80.0250195,95.2261847 90.9924083,84.2857374 104.522925,84.2857374 C118.05207,84.2857374 129.020831,95.2261847 129.020831,108.720087 C129.020831,122.21399 118.05207,133.1517 104.522925,133.1517 M137.169876,108.720087 C137.169876,90.737796 122.552637,76.1601119 104.522925,76.1601119 C86.493213,76.1601119 71.8746018,90.737796 71.8746018,108.720087 C71.8746018,126.702378 86.493213,141.278694 104.522925,141.278694 C122.552637,141.278694 137.169876,126.702378 137.169876,108.720087" id="Fill-13" opacity="0.5"></path>
        <path d="M136.271467,210.112454 C124.644087,210.414873 114.974727,201.256097 114.67286,189.660181 C114.372365,178.064265 123.551876,168.42244 135.179256,168.120021 C146.806637,167.820339 156.477368,176.977746 156.776491,188.573662 C157.079731,200.16821 147.898848,209.811404 136.271467,210.112454 M167.313033,185.452317 L164.327291,185.531684 C163.947212,185.538526 163.600065,185.24295 163.542436,184.868005 C163.342106,183.551593 163.049843,182.272129 162.671137,181.025506 C162.561367,180.660141 162.746604,180.245512 163.093751,180.090882 L165.822906,178.879838 C166.170054,178.725207 166.327848,178.321526 166.172798,177.972581 L164.412363,174.026083 C164.257313,173.678507 163.849792,173.523876 163.505388,173.677138 L160.772117,174.886814 C160.429086,175.041444 159.992751,174.89913 159.797909,174.574816 C159.111847,173.448614 158.347574,172.375779 157.514694,171.360418 C157.2732,171.06621 157.282805,170.611897 157.546253,170.335478 L159.604439,168.173389 C159.866515,167.89697 159.855538,167.463183 159.578369,167.203185 L156.436205,164.226891 C156.157663,163.965524 155.724072,163.976472 155.461996,164.250154 L153.402438,166.413612 C153.140362,166.688663 152.684817,166.722873 152.380205,166.498453 C151.322298,165.722564 150.208133,165.016464 149.043199,164.392469 C148.709773,164.213207 148.545118,163.786263 148.679586,163.433212 L149.749843,160.653969 C149.887056,160.299551 149.711424,159.902712 149.356044,159.765871 L145.308277,158.216829 C144.952897,158.079988 144.554981,158.256513 144.420513,158.610932 L143.348884,161.391543 C143.213044,161.74733 142.804151,161.952592 142.435049,161.860908 C141.165834,161.551647 139.869177,161.324491 138.542333,161.191755 C138.164999,161.154808 137.848038,160.825021 137.839805,160.447339 L137.761594,157.468308 C137.751989,157.086522 137.435029,156.789576 137.05495,156.800524 L132.721782,156.911365 C132.341704,156.920944 132.041208,157.235678 132.05493,157.614728 L132.129024,160.593759 C132.140001,160.972809 131.84225,161.317649 131.46766,161.375122 C130.147677,161.57491 128.861997,161.86775 127.613364,162.245432 C127.249751,162.354904 126.827136,162.170169 126.676203,161.823961 L125.461873,159.099454 C125.306823,158.753246 124.899302,158.597247 124.552154,158.751878 L120.593576,160.510286 C120.246429,160.66218 120.091379,161.069966 120.242312,161.414806 L121.459386,164.136576 C121.611692,164.482784 121.470363,164.913833 121.147914,165.110885 C120.01454,165.796459 118.941539,166.557295 117.923422,167.387921 C117.625671,167.627393 117.168754,167.619182 116.897074,167.356447 L114.726373,165.301094 C114.450576,165.039727 114.012868,165.052043 113.752165,165.327094 L110.767795,168.462124 C110.505719,168.737174 110.518068,169.172329 110.792493,169.430959 L112.960449,171.486312 C113.237618,171.749047 113.271921,172.200623 113.046893,172.508515 C112.266154,173.564929 111.560882,174.676079 110.933822,175.835123 C110.754073,176.171752 110.327343,176.334593 109.971963,176.197752 L107.186551,175.13176 C106.832542,174.99355 106.43051,175.171443 106.296042,175.524494 L104.741425,179.55857 C104.602841,179.912988 104.781217,180.308459 105.137969,180.446668 L107.926125,181.515398 C108.282878,181.65087 108.488696,182.058657 108.399508,182.425391 C108.086664,183.689803 107.860263,184.985688 107.727167,186.308942 C107.688748,186.687992 107.359438,187.001358 106.977988,187.010937 L103.993617,187.087568 C103.613539,187.099884 103.311672,187.41325 103.319905,187.790931 L103.435163,192.113742 C103.442024,192.491424 103.758984,192.791106 104.139063,192.781527 L107.124805,192.702159 C107.503511,192.693948 107.853403,192.989525 107.911032,193.367207 C108.10999,194.680881 108.402253,195.963083 108.780959,197.208337 C108.889357,197.572334 108.70412,197.988331 108.359717,198.141593 L105.62919,199.354006 C105.28067,199.507268 105.12562,199.910949 105.279298,200.258525 L107.039733,204.209128 C107.196155,204.553968 107.605048,204.711335 107.948079,204.558073 L110.675862,203.348398 C111.025754,203.192399 111.459345,203.336082 111.655559,203.660395 C112.341621,204.785229 113.107266,205.860801 113.936029,206.874793 C114.180268,207.166265 114.167918,207.623314 113.904471,207.898365 L111.846284,210.059086 C111.584209,210.335505 111.59793,210.769291 111.872355,211.032026 L115.014519,214.008321 C115.29306,214.268319 115.728024,214.256003 115.988727,213.983689 L118.05103,211.818863 C118.310361,211.543812 118.767279,211.509602 119.073262,211.73539 C120.129798,212.511279 121.245335,213.217379 122.408896,213.841375 C122.745067,214.020636 122.909722,214.447581 122.773881,214.803368 L121.703625,217.579874 C121.56504,217.935661 121.740672,218.331132 122.097424,218.465236 L126.141074,220.017014 C126.497827,220.153855 126.895743,219.97733 127.031583,219.621543 L128.103212,216.8423 C128.239052,216.486513 128.646573,216.281252 129.015674,216.372935 C130.283517,216.682196 131.584291,216.909352 132.909763,217.039351 C133.288469,217.077667 133.602686,217.407454 133.613663,217.787872 L133.690502,220.765535 C133.700107,221.145953 134.015695,221.444267 134.395773,221.43332 L138.728942,221.32111 C139.10902,221.314268 139.409515,220.996797 139.39991,220.620483 L139.324444,217.638716 C139.314839,217.262402 139.609845,216.917563 139.985807,216.86009 C141.304419,216.658933 142.591471,216.364725 143.840104,215.98978 C144.200973,215.880307 144.623587,216.065043 144.774521,216.412619 L145.988851,219.134389 C146.146645,219.479229 146.551422,219.635227 146.897197,219.480597 L150.861264,217.724925 C151.208411,217.571663 151.363461,217.163877 151.209783,216.819037 L149.994081,214.097267 C149.840404,213.751059 149.984477,213.317273 150.308298,213.120222 C151.437556,212.436016 152.516046,211.67518 153.528673,210.844554 C153.825052,210.603714 154.28197,210.616029 154.556394,210.878764 L156.727095,212.93275 C157.000148,213.194116 157.437855,213.183169 157.699931,212.905381 L160.681557,209.770351 C160.945005,209.498038 160.9354,209.060146 160.658231,208.801516 L158.491647,206.747531 C158.211733,206.486165 158.181547,206.03322 158.403831,205.725328 C159.185941,204.670283 159.891213,203.559133 160.518274,202.39872 C160.698022,202.06346 161.123381,201.89925 161.478761,202.036091 L164.265545,203.102084 C164.620925,203.241662 165.021586,203.063768 165.156054,202.70935 L166.709299,198.675274 C166.847883,198.320855 166.669507,197.924016 166.314127,197.787175 L163.524598,196.719814 C163.169218,196.581605 162.964772,196.176555 163.055332,195.805715 C163.365432,194.542672 163.593204,193.246787 163.7263,191.923533 C163.763348,191.548588 164.091286,191.233854 164.47548,191.221538 L167.462595,191.147644 C167.839929,191.135328 168.14454,190.821962 168.130819,190.440175 L168.016933,186.122838 C168.011444,185.743788 167.693112,185.445474 167.313033,185.452317" id="Fill-15"></path>
        <path d="M138.363093,183.78402 C134.610334,183.129919 131.031834,185.636848 130.375958,189.38219 C129.722827,193.128899 132.236559,196.69361 135.992063,197.349079 C139.746195,198.001812 143.323322,195.493514 143.98057,191.748173 C144.632329,188.002831 142.118597,184.436752 138.363093,183.78402" id="Fill-17" opacity="0.5"></path>
    </g>
</svg>