<?xml version="1.0" encoding="UTF-8"?>
<svg width="400px" height="400px" viewBox="0 0 400 400" version="1.1" xmlns="http://www.w3.org/2000/svg" xmlns:xlink="http://www.w3.org/1999/xlink">
    <defs></defs>
    <g id="img_list-earningsbears" fill="#ffffff" stroke="none" stroke-width="1" fill-rule="evenodd">
        <path d="M94.5537126,234.67 L112.71006,234.67 L112.71006,229.567066 L94.5537126,229.567066 L94.5537126,234.67 Z M96.5102395,209.951677 L111.411587,209.951677 C114.484671,216.914611 111.525749,221.043922 103.961377,222.857515 C97.6221557,221.368772 92.9006886,218.658593 96.5102395,209.951677 L96.5102395,209.951677 Z M115.476856,206.760719 C111.619491,203.532635 103.138114,203.72012 103.138114,203.72012 C103.138114,203.72012 94.6558084,203.532635 90.7993713,206.760719 C82.9268563,213.351467 76.8057485,226.459641 78.7697006,230.387545 C81.6970659,236.240419 103.138114,241.119671 103.138114,241.119671 C103.138114,241.119671 124.579162,236.240419 127.506527,230.387545 C129.470479,226.459641 123.349371,213.351467 115.476856,206.760719 L115.476856,206.760719 Z" id="Fill-4"></path>
        <path d="M66.5369521,172.886443 L81.112521,163.622641 C74.9570719,153.413988 59.1331497,158.598599 66.5369521,172.886443" id="Fill-6"></path>
        <path d="M121.83362,190.145832 C116.915386,192.226731 113.700296,199.982299 113.700296,199.982299 C113.700296,199.982299 125.898889,200.170713 129.114907,199.224006 C132.331853,198.279156 132.804278,189.956491 132.804278,189.956491 C132.804278,189.956491 126.751853,188.064934 121.83362,190.145832" id="Fill-7"></path>
        <path d="M94.5634581,199.982021 C94.5634581,199.982021 91.3483683,192.22738 86.4301347,190.145554 C81.5109731,188.064656 75.459476,189.956213 75.459476,189.956213 C75.459476,189.956213 75.9319012,198.278877 79.1488473,199.224656 C82.3648653,200.170434 94.5634581,199.982021 94.5634581,199.982021" id="Fill-8"></path>
        <path d="M150.522171,232.736213 C135.779536,245.878728 119.724506,251.684266 103.13765,254.503039 C86.5507934,251.684266 70.4966916,245.878728 55.7531287,232.736213 C55.5972006,214.150135 56.0055838,195.760823 58.6879192,178.166931 C43.6501347,148.591632 76.3291467,137.863219 89.2609731,158.896811 L116.766512,158.858757 C129.652859,137.975524 162.032081,148.508099 147.525195,177.74741 C150.264147,195.468458 150.680883,214.001632 150.522171,232.736213 M100.488728,119.688308 C83.0925299,120.186722 66.708009,126.143548 53.1116317,136.915584 C33.0869311,152.779416 22.0225299,176.50741 22.7492665,202.013728 C24.0152545,246.140464 60.9516617,281.013608 105.075614,279.749476 C122.471811,279.251063 138.85726,273.294237 152.45271,262.523129 C172.483907,246.654656 183.548308,222.926662 182.815075,197.424057 C181.547231,153.294536 144.609895,118.42232 100.488728,119.688308" id="Fill-9" opacity="0.8"></path>
        <path d="M124.890368,163.622177 L139.466865,172.885051 C141.374201,169.192895 142.75435,163.753045 139.190278,160.549093 C135.920428,157.61059 129.098572,156.681518 124.890368,163.622177" id="Fill-10"></path>
        <path d="M175.280219,30.2686228 C175.280219,28.7056287 178.596476,27.6883832 185.629021,27.1231437 L185.629021,32.9750898 C178.596476,32.5286527 175.280219,31.6497006 175.280219,30.2686228 L175.280219,30.2686228 Z M206.67932,39.6567964 C214.733751,40.1032335 218.522434,41.0796407 218.522434,42.6983234 C218.522434,43.6533832 217.065249,44.4896407 214.186147,45.1801796 C212.218482,45.6693114 209.704141,46.0452096 206.67932,46.3106587 L206.67932,39.6567964 Z M148.751087,31.9142216 C148.751087,34.0777246 152.614021,35.8198503 160.302763,37.090479 C165.696207,37.9759281 174.004021,38.6386228 185.629021,39.105479 L185.629021,46.6587126 C177.320278,46.4563772 171.162045,45.8502994 166.861955,44.8033533 C166.242883,44.4200299 165.91432,43.987515 165.878123,43.5271557 L165.841925,42.2231138 C165.805728,42.0486228 165.440967,41.8815569 164.748572,41.7627545 L163.619021,41.5604192 C162.999949,41.4564671 162.233302,41.3998503 161.396117,41.3998503 L155.893153,41.3998503 C155.092165,41.3998503 154.326446,41.4564671 153.707374,41.5604192 L152.686416,41.7349102 C151.994021,41.8527844 151.593063,42.0207784 151.593063,42.1961976 C151.48447,44.3708383 150.86447,46.164012 149.698722,47.5311677 C149.625398,47.6499701 149.698722,47.7743413 149.953033,47.8866467 L150.49971,48.1168263 C150.86447,48.2560479 151.447344,48.3748503 152.213063,48.4305389 C163.14474,49.3234132 174.368781,49.8116168 185.629021,49.8951497 L185.629021,52.6498802 C185.629021,52.8039521 185.91953,52.9570958 186.467135,53.0684731 L187.413841,53.2708084 C188.033841,53.4035329 188.909081,53.4731437 189.855787,53.4731437 L196.815937,53.4731437 C197.727374,53.4731437 198.601686,53.4044611 199.220757,53.2782335 L200.20459,53.0833234 C200.751266,52.964521 201.079829,52.8113772 201.079829,52.6498802 L201.079829,49.7067365 C212.412464,49.3104192 221.631716,48.3479341 228.482344,46.8545509 C235.952973,45.2432934 239.742584,43.193024 239.742584,40.7659281 C239.742584,38.3805988 235.589141,36.5595808 227.389919,35.3539222 C221.376476,34.5028144 212.777225,33.9023054 201.079829,33.5338323 L201.079829,26.8511976 C207.493302,27.0117665 212.157225,27.4721257 215.036326,28.2322754 C215.218243,28.3445808 215.583003,28.6582934 215.583003,29.3757485 C215.583003,29.6411976 215.656326,30.0802096 215.87444,30.7085629 C215.946835,30.8617066 216.311596,31.0083533 216.89447,31.1197305 L217.878302,31.2942216 C218.497374,31.4055988 219.300219,31.4687126 220.137404,31.4687126 L225.749889,31.4687126 C226.550877,31.4687126 227.352793,31.4120958 227.935668,31.3081437 L228.992823,31.1271557 C229.611895,31.0222754 230.012853,30.8617066 230.049979,30.6946407 L230.486207,29.2021856 C230.960488,27.6391916 231.616686,26.530988 232.381476,25.9100599 C232.56432,25.7699102 232.490997,25.6306886 232.163362,25.4979641 L231.507165,25.226018 C231.17953,25.0942216 230.632853,24.9893413 229.940458,24.9262275 C221.95935,24.1939222 212.266746,23.753982 201.079829,23.6147605 L201.079829,22.4917066 C201.079829,22.3107186 200.678871,22.1362275 199.950278,22.0174251 L198.856925,21.8364371 C198.236925,21.738982 197.508332,21.6897904 196.707344,21.6897904 L189.855787,21.6897904 C188.909081,21.6897904 188.033841,21.7668263 187.414769,21.8986228 L186.467135,22.0935329 C185.920458,22.2123353 185.629021,22.3599102 185.629021,22.5130539 L185.629021,23.7400599 C178.886985,23.9563174 172.947793,24.3749102 167.955308,24.9819162 C155.201686,26.543982 148.751087,28.8736228 148.751087,31.9142216 L148.751087,31.9142216 Z" id="Fill-11" opacity="0.8"></path>
        <path d="M288.710518,126.668692 C286.993452,128.400608 284.029889,130.382195 279.438362,132.431536 L279.438362,119.726177 C281.38932,119.072763 283.298512,118.392434 285.130668,117.66941 C285.876895,117.373332 286.561865,117.04941 287.286746,116.744051 C287.76474,116.541716 288.241805,116.338452 288.710518,116.131476 L288.710518,126.668692 Z M266.254081,137.006356 C263.318362,137.830548 260.242494,138.606476 256.980997,139.317434 L256.980997,125.373003 C260.195159,124.758572 263.283093,124.096805 266.254081,123.390488 L266.254081,137.006356 Z M243.796716,138.096925 C240.783961,138.560997 237.697883,138.985159 234.52456,139.361057 L234.52456,125.104769 C236.297314,124.912644 237.947554,124.715877 239.517973,124.505189 C240.990937,124.322344 242.359949,124.092165 243.796716,123.891686 L243.796716,138.096925 Z M221.340278,140.620548 C218.28947,140.850728 215.20432,141.04471 212.068123,141.196925 L212.068123,126.820907 C215.233093,126.667763 218.290398,126.477494 221.340278,126.253811 L221.340278,140.620548 Z M284.316686,102.417225 C281.671476,103.274829 278.865698,104.078602 275.97453,104.850817 C274.391117,105.471746 272.776147,106.063901 271.095278,106.613362 C261.695039,109.665099 249.978153,112.080129 236.29453,113.784201 C233.018183,114.189799 229.682434,114.559201 226.256656,114.86456 C224.442135,115.039979 222.721356,115.17456 220.95974,115.306356 C217.42444,115.584799 213.936476,115.786207 210.407674,115.954201 C204.508392,116.176955 199.145578,116.291117 194.130817,116.291117 C190.856326,116.291117 187.581835,116.231716 184.315698,116.140757 C187.906686,119.641716 191.224799,123.34965 194.298811,127.217225 C195.780129,127.215368 197.347763,127.187524 198.883841,127.168033 L198.883841,133.347614 C203.772374,140.401506 207.820009,147.953811 211.020249,155.85974 C237.03426,154.740398 261.064829,151.05474 278.666147,145.34944 C302.819231,137.530757 309.033153,128.008003 309.780308,121.086835 C309.860129,120.709081 309.901895,120.325757 309.901895,119.934081 L309.901895,90.5601886 C309.901895,90.4701587 309.88426,90.3615659 309.87962,90.2641108 C303.944141,94.5549192 295.702225,98.7315659 284.316686,102.417225 L284.316686,102.417225 Z" id="Fill-12"></path>
        <path d="M288.710518,239.919395 C286.993452,241.651311 284.029889,243.632898 279.438362,245.68224 L279.438362,232.97688 C281.38932,232.323467 283.298512,231.644066 285.130668,230.920114 C285.876895,230.624964 286.561865,230.301042 287.286746,229.994754 C287.76474,229.792419 288.241805,229.590084 288.710518,229.383108 L288.710518,239.919395 Z M266.254081,250.257988 C263.318362,251.081251 260.242494,251.858108 256.980997,252.568138 L256.980997,238.623707 C260.195159,238.010204 263.283093,237.348437 266.254081,236.64212 L266.254081,250.257988 Z M243.796716,251.348557 C240.783961,251.811701 237.697883,252.235862 234.52456,252.61176 L234.52456,238.355473 C236.297314,238.163347 237.947554,237.966581 239.517973,237.755892 C240.990937,237.57212 242.359949,237.34194 243.796716,237.142389 L243.796716,251.348557 Z M309.37471,200.216192 C303.476356,204.385413 295.397793,208.438617 284.316686,212.025892 C281.671476,212.883497 278.865698,213.687269 275.97453,214.458557 C274.391117,215.080413 272.776147,215.672569 271.095278,216.22203 C261.695039,219.273766 249.978153,221.687868 236.29453,223.39194 C233.018183,223.798467 229.682434,224.167868 226.256656,224.473228 C224.442135,224.648647 222.721356,224.782299 220.95974,224.915024 C219.548033,225.025473 218.150249,225.092299 216.746895,225.173048 C215.608063,230.268557 214.115608,235.230413 212.330787,240.05676 C215.402015,239.906401 218.376716,239.721701 221.340278,239.505443 L221.340278,253.871251 C218.28947,254.102359 215.20432,254.295413 212.068123,254.447629 L212.068123,240.785353 C208.171775,251.11188 202.845159,260.749725 196.331446,269.468707 C227.881835,269.298856 257.791266,265.36724 278.666147,258.600144 C302.819231,250.781461 309.033153,241.259635 309.780308,234.337539 C309.860129,233.960713 309.901895,233.576461 309.901895,233.184784 L309.901895,203.810892 C309.901895,203.551012 309.878692,203.255862 309.836925,202.949575 C309.784021,202.116102 309.639231,201.196311 309.37471,200.216192 L309.37471,200.216192 Z" id="Fill-13"></path>
        <path d="M157.051847,268.329317 C142.191338,280.101892 124.293943,286.607251 105.292985,287.153928 C57.0805599,288.53315 16.7304401,250.435635 15.3465778,202.222281 C14.5511587,174.356623 26.6393024,148.43821 48.5128653,131.109766 C63.3724461,119.337192 81.2707695,112.831832 100.271728,112.285156 C148.486937,110.898509 188.831488,149.001593 190.218135,197.216802 C191.017266,225.074108 178.930979,250.996234 157.051847,268.329317 M205.522296,196.774078 C203.896189,140.03294 156.579422,95.3539581 99.8382844,96.9800659 C43.0971467,98.6061737 -1.58369162,145.921084 0.0433443114,202.66315 C1.6694521,259.405216 48.9852904,304.084198 105.726428,302.45809 C162.467566,300.83291 207.147476,253.515216 205.522296,196.774078" id="Fill-14"></path>
        <path d="M288.710518,183.293533 C286.993452,185.025449 284.029889,187.007964 279.438362,189.057305 L279.438362,176.351946 C281.38932,175.698533 283.298512,175.018204 285.130668,174.294251 C285.876895,173.999102 286.561865,173.67518 287.286746,173.368892 C287.76474,173.167485 288.241805,172.964222 288.710518,172.757246 L288.710518,183.293533 Z M266.254081,193.632126 C263.318362,194.456317 260.242494,195.232246 256.980997,195.942275 L256.980997,181.998772 C260.195159,181.384341 263.283093,180.722575 266.254081,180.016257 L266.254081,193.632126 Z M243.796716,194.722695 C240.783961,195.186766 237.697883,195.61 234.52456,195.986826 L234.52456,181.730539 C236.297314,181.538413 237.947554,181.340719 239.517973,181.130958 C240.990937,180.947186 242.359949,180.717006 243.796716,180.516527 L243.796716,194.722695 Z M309.37471,143.590329 C303.476356,147.759551 295.397793,151.812754 284.316686,155.40003 C281.671476,156.257635 278.865698,157.061407 275.97453,157.833623 C274.391117,158.454551 272.776147,159.047635 271.095278,159.596168 C261.695039,162.647904 249.978153,165.062934 236.29453,166.766078 C233.018183,167.172605 229.682434,167.542006 226.256656,167.848293 C224.442135,168.022784 222.721356,168.157365 220.95974,168.289162 C219.086746,168.435808 217.22953,168.521198 215.370458,168.631647 C216.667075,173.352186 217.642554,178.173892 218.340518,183.066138 C219.335488,183.002096 220.351805,182.951976 221.340278,182.879581 L221.340278,197.245389 C220.736985,197.290868 220.116985,197.320569 219.507195,197.359551 C219.608362,202.32512 219.382823,207.222006 218.874201,212.040928 C241.83462,210.568892 262.857075,207.098563 278.666147,201.974281 C302.819231,194.156527 309.033153,184.633772 309.780308,177.711677 C309.860129,177.33485 309.901895,176.950599 309.901895,176.558922 L309.901895,147.18503 C309.901895,146.92515 309.878692,146.63 309.836925,146.324641 C309.784021,145.491168 309.639231,144.570449 309.37471,143.590329 L309.37471,143.590329 Z" id="Fill-15"></path>
        <path d="M290.639293,37.9593144 C290.570611,38.4400928 290.392407,38.938506 290.068485,39.4610509 C290.037856,39.5120988 289.990521,39.565003 289.95618,39.6160509 C289.590491,40.1673683 289.112497,40.7363204 288.473006,41.3294042 C288.307796,41.4547036 288.037707,41.6867395 287.778754,41.9178473 L287.284054,42.3364401 C287.078006,42.4784461 286.937856,42.5814701 286.745731,42.7346138 C286.252886,43.1290749 285.725701,43.4743443 285.146539,43.8298234 C284.635132,44.1388952 284.336269,44.3273084 284.033695,44.4915898 C283.134323,45.0178473 282.375102,45.4206617 281.588036,45.7863503 C281.514713,45.8216198 281.440461,45.8606018 281.367138,45.8967994 C278.131629,47.4477275 274.739263,48.7981766 271.095371,49.9871287 C261.694204,53.0397934 249.977317,55.4548234 236.294623,57.1588952 C233.018275,57.564494 229.682527,57.9338952 226.256749,58.2401826 C224.442228,58.4137455 222.721449,58.5492545 220.959832,58.6810509 C217.424533,58.9585659 213.936569,59.1618293 210.407766,59.3279671 C204.508485,59.5525778 199.145671,59.6667395 194.13091,59.6667395 C186.442168,59.6667395 178.721868,59.4282066 171.183485,58.9548533 C168.713695,58.7877874 166.229054,58.5873084 163.705431,58.3849731 C163.567138,58.3729072 163.439982,58.3599132 163.302617,58.3487754 C160.602647,58.1167395 157.870192,57.822518 155.13124,57.5245838 C153.725102,57.390003 152.486958,57.2368593 151.252527,57.0549431 C146.894892,56.4785659 142.893665,55.8678473 139.191299,55.2125778 C139.071569,55.1912305 138.951838,55.1735958 138.832108,55.1550329 C136.40594,54.7076677 134.02618,54.2315299 131.717886,53.7563204 L131.328994,53.6690749 L128.00624,52.8931467 C125.34618,52.2731467 122.759443,51.5612605 120.334204,50.854015 C116.993814,49.8906018 114.062737,48.877997 111.43609,47.7892844 C110.424413,47.3873982 109.562168,46.9966497 108.694353,46.6059012 C107.977826,46.275482 107.265012,45.932997 106.518784,45.5487455 L105.997168,45.2851527 C105.857946,45.2099731 105.705731,45.1347934 105.57115,45.0614701 C105.223096,44.880482 104.899174,44.7078473 104.603096,44.5435659 C104.29588,44.3690749 104.05085,44.2066497 103.770551,44.0395838 C103.760341,44.0321587 103.75106,44.0247335 103.74085,44.0182365 C103.687018,43.9866796 103.63597,43.950482 103.583994,43.9189251 C103.525521,43.8836557 103.467048,43.8446737 103.425281,43.8196138 C102.749593,43.3954521 102.322647,43.1216497 101.929114,42.8376377 C101.497527,42.5322784 101.134623,42.2612605 100.809772,42.0050928 C100.682617,41.8844341 100.548964,41.7702725 100.415311,41.6598234 L100.417168,41.6598234 C99.7915988,41.1484162 99.3136048,40.6537156 98.9154311,40.1061108 C98.6787545,39.7896138 98.5116886,39.590991 98.3873174,39.3765898 C98.197976,39.0424581 98.107018,38.8187754 98.0290539,38.6080868 C97.9882156,38.5050629 97.9742934,38.4382365 97.945521,38.3528473 C97.8508503,38.0957515 97.7923772,37.860003 97.7923772,37.5769192 C97.8109401,34.760003 102.956569,29.8575479 117.393844,25.2159012 C136.442138,19.0335359 164.461868,15.4982365 194.291479,15.4982365 C218.575431,15.4982365 242.035192,17.884494 260.349323,22.224494 C284.018844,27.8453323 290.539982,34.4360808 290.658784,37.4451228 C290.662497,37.5351527 290.67085,37.6261108 290.679204,37.7161407 C290.674563,37.7950329 290.651359,37.8776377 290.639293,37.9593144 L290.639293,37.9593144 Z M288.710611,70.0424581 C286.993545,71.7753024 284.029982,73.7559611 279.438455,75.8062305 L279.438455,63.1008713 C281.389413,62.4483862 283.298605,61.7671287 285.129832,61.0431766 C285.876988,60.7489551 286.56103,60.4241048 287.286838,60.1178174 C287.764832,59.915482 288.241898,59.7131467 288.710611,59.5070988 L288.710611,70.0424581 Z M266.254174,80.3810509 C263.317527,81.2052425 260.242587,81.9820988 256.98109,82.6912006 L256.98109,68.7476976 C260.195251,68.1341946 263.282257,67.4724281 266.254174,66.7651826 L266.254174,80.3810509 Z M243.796808,85.115512 C240.784054,85.5786557 237.697976,86.0018892 234.524653,86.3777874 L234.524653,72.1224281 C236.297407,71.9303024 237.947647,71.7316796 239.518066,71.5219192 C240.99103,71.3381467 242.359114,71.1079671 243.796808,70.9084162 L243.796808,85.115512 Z M221.340371,87.6363503 C218.289563,87.8683862 215.204413,88.0614401 212.068216,88.2145838 L212.068216,73.8376377 C215.233186,73.684494 218.290491,73.4942246 221.340371,73.2705419 L221.340371,87.6363503 Z M198.883934,88.6118293 C197.323725,88.6322485 195.784862,88.680512 194.213515,88.680512 C192.67094,88.680512 191.145072,88.6433862 189.61085,88.6248234 L189.61085,74.1662006 C191.119084,74.1829072 192.622677,74.2358114 194.13091,74.2358114 C195.658635,74.2358114 197.292168,74.2042545 198.883934,74.1847635 L198.883934,88.6118293 Z M176.426569,88.247997 C173.297796,88.0948533 170.20615,87.9008713 167.153485,87.6688353 L167.153485,73.3141647 C167.937766,73.3670689 168.717407,73.4246138 169.507257,73.4682365 C169.520251,73.4700928 169.533246,73.471021 169.545311,73.4719491 L169.567587,73.4719491 C169.616778,73.4756617 169.665042,73.4793743 169.714234,73.4812305 C171.917647,73.6204521 174.184174,73.6937754 176.426569,73.794015 L176.426569,88.247997 Z M153.970132,86.3675778 C150.807018,85.9916796 147.708874,85.5767994 144.697048,85.1136557 L144.697048,70.9483263 C145.731,71.0931168 146.739892,71.2471886 147.795192,71.3873383 C147.834174,71.391979 147.881509,71.3956916 147.920491,71.4021886 C149.290431,71.6035958 150.91097,71.8040749 152.537078,71.9637156 C152.988156,72.018476 153.499563,72.0667395 153.970132,72.1215 L153.970132,86.3675778 Z M131.512766,82.6800629 C130.391569,82.4359611 129.230461,82.2085659 128.144533,81.9505419 C126.026509,81.4512006 124.091329,80.9416497 122.239683,80.4274581 L122.239683,66.8217994 C122.313934,66.838506 122.385401,66.8598533 122.458725,66.8765599 L126.419114,67.762009 C128.127826,68.1137754 129.818904,68.4321287 131.512766,68.7616198 L131.512766,82.6800629 Z M109.055401,75.8424281 C104.376629,73.7513204 101.452976,71.7418892 99.7832455,70.0313204 L99.7832455,59.5191647 C100.629713,59.8876377 101.436269,60.2607515 102.342138,60.619015 C102.355132,60.6245838 102.368126,60.632009 102.382048,60.6375778 C104.419323,61.4840449 106.694204,62.2906018 109.055401,63.0702425 L109.055401,75.8424281 Z M309.837018,36.7156018 C309.402647,29.7508114 303.00588,17.0853623 266.077826,8.31718862 C245.953814,3.55024251 220.463275,0.929164671 194.291479,0.929164671 C161.963305,0.929164671 131.194413,4.89419461 109.872168,11.8088653 C84.1143234,20.0981168 78.6410599,30.3383263 78.5918683,37.4664701 C78.5918683,37.4887455 78.5983653,37.5091647 78.5983653,37.5314401 C78.5983653,37.5472186 78.5918683,37.5611407 78.5918683,37.5769192 L78.5918683,66.9508114 C78.5918683,67.4947036 78.6716886,68.0256018 78.8192635,68.5332964 C79.4086347,72.5577275 82.0751916,78.0848234 90.5129461,83.6230569 C93.4672275,83.3149132 96.4382156,83.0828772 99.437976,82.9965599 C100.574024,82.9640749 101.702647,82.9492246 102.831269,82.9492246 L102.833126,82.9492246 L102.838695,82.9492246 C125.984743,82.9492246 148.183156,89.7135359 167.124713,102.265751 C175.944862,102.893177 185.020251,103.25144 194.213515,103.25144 C226.542617,103.25144 257.323575,99.2845539 278.66624,92.3661707 C302.819323,84.547488 309.032317,75.0256617 309.780401,68.104494 C309.860222,67.7267395 309.901988,67.342488 309.901988,66.9508114 L309.901988,37.5769192 C309.901988,37.3179671 309.878784,37.0218892 309.837018,36.7156018 L309.837018,36.7156018 Z" id="Fill-1"></path>
    </g>
</svg>