<?xml version="1.0" encoding="UTF-8"?>
<svg width="400px" height="400px" viewBox="0 0 400 400" version="1.1" xmlns="http://www.w3.org/2000/svg" xmlns:xlink="http://www.w3.org/1999/xlink">
    <defs></defs>
    <g id="img_list-bestofthedow" fill="#ffffff" stroke="none" stroke-width="1" fill-rule="evenodd">
        <path d="M89.4586887,145.711705 C87.0292848,148.141753 84.109947,149.356777 80.7012715,149.356777 L76.7925298,149.356777 L76.7925298,124.488136 L80.7012715,124.488136 C84.109947,124.488136 87.0292848,125.70316 89.4586887,128.133207 C91.8874967,130.563255 93.1027947,133.492905 93.1027947,136.922158 C93.1027947,140.352007 91.8874967,143.281657 89.4586887,145.711705 M80.7012715,115.258009 L67.5654437,115.258009 L67.5654437,158.557095 L80.7012715,158.557095 C86.6567682,158.557095 91.7510066,156.441236 95.9827947,152.207731 C100.214583,147.974821 102.330477,142.879829 102.330477,136.922158 C102.330477,130.945409 100.214583,125.840282 95.9827947,121.607373 C91.7510066,117.374463 86.6567682,115.258009 80.7012715,115.258009" id="Fill-1"></path>
        <path d="M136.625662,145.887818 C134.215927,148.357214 131.316258,149.591912 127.926656,149.591912 C124.518576,149.591912 121.608775,148.357214 119.19904,145.887818 C116.789305,143.418422 115.584139,140.430346 115.584139,136.922397 C115.584139,133.434718 116.789305,130.446045 119.19904,127.956975 C121.608775,125.487579 124.518576,124.252882 127.926656,124.252882 C131.316258,124.252882 134.215927,125.487579 136.625662,127.956975 C139.035397,130.446045 140.239967,133.434718 140.239967,136.922397 C140.239967,140.430346 139.035397,143.418422 136.625662,145.887818 M127.926656,114.817071 C121.912152,114.817071 116.789305,116.983009 112.557517,121.313692 C108.285795,125.624702 106.150828,130.8282 106.150828,136.922397 C106.150828,142.997516 108.285795,148.190878 112.557517,152.501888 C116.789305,156.833168 121.912152,158.99851 127.926656,158.99851 C133.922086,158.99851 139.035397,156.833168 143.267781,152.501888 C147.538311,148.190878 149.673874,142.997516 149.673874,136.922397 C149.673874,130.8282 147.538311,125.624702 143.267781,121.313692 C139.035397,116.983009 133.922086,114.817071 127.926656,114.817071" id="Fill-3"></path>
        <polygon id="Fill-5" points="196.135212 115.257949 185.938391 143.447933 183.498854 136.745628 191.286536 115.257949 181.500377 115.257949 178.620377 123.224165 175.740377 115.257949 165.98402 115.257949 173.742497 136.745628 171.30296 143.447933 161.076338 115.257949 151.319384 115.257949 166.98296 158.557035 175.62296 158.557035 178.620377 150.267687 181.618391 158.557035 190.257795 158.557035 205.921371 115.257949"></polygon>
        <path d="M104.017709,266.223052 L98.9002252,261.104213 C91.877245,254.079372 82.2073113,250.210731 71.671947,250.210731 L71.0359868,250.210731 C70.0358543,250.210731 69.0410861,250.171383 68.049894,250.112361 C60.1680397,288.702782 52.7016159,327.182313 37.1721457,365.792409 C55.7824768,356.512798 73.0559205,347.154491 89.1075099,337.874285 C101.665788,350.243323 115.078172,362.57659 128.657444,374.94682 C132.407046,341.844873 130.845457,308.727424 128.789762,275.622496 C119.870821,274.536844 111.495457,271.120707 104.387841,265.672178 L104.017709,266.223052 Z" id="Fill-7" opacity="0.7"></path>
        <path d="M198.341225,250.210493 C187.808841,250.210493 178.138907,254.080922 171.112947,261.108744 L163.777649,268.446582 L163.449834,267.201749 C157.908576,271.009579 151.697384,273.638156 145.129768,274.975994 C152.690364,308.294356 161.963344,341.60318 154.777053,374.924523 C169.624073,362.553696 182.203212,350.174523 193.442483,337.805485 C207.440166,347.085692 220.682682,356.363514 232.780232,365.642528 C233.759503,326.963275 214.833278,288.546343 204.420695,249.90465 C202.623079,250.101987 200.808179,250.210493 198.977185,250.210493 L198.341225,250.210493 Z" id="Fill-9" opacity="0.7"></path>
        <path d="M135.006377,224.650517 C85.3990927,224.650517 45.1839934,184.424762 45.1839934,134.804332 C45.1839934,85.1833068 85.3990927,44.9581479 135.006377,44.9581479 C184.613662,44.9581479 224.829358,85.1833068 224.829358,134.804332 C224.829358,184.424762 184.613662,224.650517 135.006377,224.650517 M256.916444,103.557114 L256.661344,103.108784 C248.322338,94.7675676 243.831874,83.454372 243.831874,71.6570747 L243.831874,71.0215421 C243.831874,46.4563593 223.534788,26.5402226 198.977305,26.5402226 L198.341344,26.5402226 C186.547768,26.5402226 175.23757,21.8554054 166.898563,13.5141892 L166.834192,13.3192369 L166.449159,13.1034181 C157.766245,4.41879968 146.386311,-0.000119236884 135.006377,-0.000119236884 C123.626444,-0.000119236884 112.24651,4.36156598 103.564192,13.0461844 L103.179159,13.1761526 L103.114192,13.5189587 C94.7751854,21.8601749 83.4649868,26.5402226 71.6720066,26.5402226 L71.0360464,26.5402226 C46.4779669,26.5402226 26.1814768,46.4563593 26.1814768,71.0215421 L26.1814768,71.6570747 C26.1814768,83.454372 21.6904172,94.7675676 13.3520066,103.108784 L13.2339934,103.25783 L13.0480331,103.557114 C4.36511921,112.241733 0.0123377483,123.624682 -0.000178807947,135.008227 C0.0123377483,146.391176 4.36511921,157.774722 13.0480331,166.45934 L13.2339934,166.758625 L13.3520066,166.907671 C21.6904172,175.248887 26.1814768,186.562083 26.1814768,198.358784 L26.1814768,198.995509 C26.1814768,223.560095 46.4779669,244.248887 71.0360464,244.248887 L71.6720066,244.248887 C83.4649868,244.248887 94.7751854,248.547377 103.114192,256.888593 L103.178563,256.7938 L103.564192,257.037639 C112.24651,265.722258 123.626444,270.036844 135.006377,270.036844 C146.386311,270.036844 157.766245,265.665024 166.449159,256.980405 L166.834788,256.650715 L166.898563,256.893362 C175.23757,248.552146 186.547768,244.248887 198.341344,244.248887 L198.977305,244.248887 C223.534788,244.248887 243.831874,223.560095 243.831874,198.995509 L243.831874,198.358784 C243.831874,186.562083 248.322338,175.248887 256.661344,166.907671 L257.013596,166.45934 C274.378828,149.089507 274.281675,120.926948 256.916444,103.557114" id="Fill-11"></path>
    </g>
</svg>