<?xml version="1.0" encoding="UTF-8"?>
<svg width="400px" height="400px" viewBox="0 0 400 400" version="1.1" xmlns="http://www.w3.org/2000/svg" xmlns:xlink="http://www.w3.org/1999/xlink">
    <defs></defs>
    <g id="img_list-dogsofthedow" fill="#ffffff" stroke="none" stroke-width="1" fill-rule="evenodd">
        <path d="M308.581881,211.89459 C308.579656,211.898301 308.57743,211.902012 308.575947,211.906466 C290.330331,247.574672 265.752636,275.857311 234.169377,295.965353 C217.066755,306.854425 197.914755,315.351167 176.547974,321.264816 C171.766834,322.587538 166.909298,323.82193 161.906384,324.887085 C168.296318,333.193806 174.68551,341.499043 181.074702,349.805765 C183.588397,353.073229 186.102093,356.341435 188.615788,359.608899 C257.518781,341.702425 305.196662,302.838755 335.290543,246.615662 L308.581881,211.89459 Z" id="Fill-4" opacity="0.8"></path>
        <path d="M101.008053,139.478845 L100.282649,133.692866 C98.1034702,125.412124 105.226225,121.047588 121.651656,120.591835 C122.014358,136.96701 114.278199,142.078268 101.008053,139.478845 M146.833113,9.07125773 C146.73743,28.6812371 157.318093,40.9798763 164.912583,52.0136907 C171.322543,61.3254433 175.558517,69.748701 169.497907,80.8908866 C167.958834,83.7211546 165.762596,86.7258557 162.754172,89.9680825 C161.634914,91.174268 160.441483,92.4019794 159.093775,93.6764536 C160.238993,92.9586804 160.788609,90.3874639 160.931762,87.0012371 C161.192106,80.8389278 160.075815,71.9458144 158.563444,66.1769072 C158.079841,64.3323711 157.559894,62.7862268 157.029563,61.7856495 C155.758993,59.3881237 154.673854,57.0930309 153.674013,54.8476701 C144.102834,33.3530722 146.185589,18.7051546 146.833113,9.07125773 M62.7908344,164.747134 L24.1441589,188.863423 L77.9664636,144.852866 L85.1166623,127.451134 C84.8659603,149.123134 83.0887947,152.173113 62.7908344,164.747134 M296.945007,209.638021 C284.553801,177.419876 264.30257,174.443381 260.309139,144.537402 C256.972874,129.484206 244.342834,117.512165 237.346914,103.904907 C234.478675,98.3275052 231.479152,92.9364124 228.295682,87.8644948 C226.646834,77.3072165 215.414199,70.488 213.151205,61.6060206 C209.089536,45.6613608 199.856583,28.5491134 143.373722,0.741525773 C140.506225,18.708866 142.49849,37.212866 146.316874,52.6364536 L147.55555,56.9200825 L147.695735,57.406268 L149.508503,63.6739794 L149.588609,63.9493608 L111.579073,98.4388454 L94.1916291,114.216495 C97.0502252,107.372784 101.270623,99.6487423 106.958146,91.5788041 C113.812397,81.8543505 122.838411,71.6303505 134.244609,61.8116289 C137.023841,59.4185567 139.945483,57.0529485 143.013987,54.7222268 C131.621881,48.6712577 114.490331,42.798433 87.5643444,37.2299381 C89.1405033,53.7943918 95.0060397,69.7338557 101.858066,82.7101856 C93.7399205,90.7341031 86.8396821,100.77699 81.6157351,113.596701 L79.5255629,132.367918 L5.06039735,191.516289 C-11.301245,210.238515 16.130596,220.083959 29.1233377,226.690144 C32.9550728,241.755959 66.4349139,244.885361 94.1256159,245.682557 C113.052874,246.230351 128.11502,232.811629 136.085563,231.893443 C156.925722,229.494433 157.487947,261.328082 157.907762,265.138144 C159.685669,281.33666 165.428079,297.076454 171.562119,310.705237 C228.205192,294.341196 269.21796,259.741113 296.945007,209.638021" id="Fill-1"></path>
    </g>
</svg>