<?xml version="1.0" encoding="UTF-8"?>
<svg width="81px" height="92px" viewBox="0 0 81 92" version="1.1" xmlns="http://www.w3.org/2000/svg" xmlns:xlink="http://www.w3.org/1999/xlink">
    <!-- Generator: Sketch 43.2 (39069) - http://www.bohemiancoding.com/sketch -->
    <title>Page 1</title>
    <desc>Created with Sketch.</desc>
    <defs></defs>
    <g id="List-View" stroke="none" stroke-width="1" fill="none" fill-rule="evenodd">
        <g id="CMT-IDEAS_DividendChamps" transform="translate(-246.000000, -64.000000)">
            <g id="Page-1" transform="translate(246.000000, 64.000000)">
                <polygon id="Fill-1" fill="#474E5D" points="17.3571429 92 63.6428571 92 63.6428571 89.125 17.3571429 89.125"></polygon>
                <polygon id="Fill-2" fill="#606776" points="23.1428571 92 26.0357143 92 26.0357143 89.125 23.1428571 89.125"></polygon>
                <polygon id="Fill-3" fill="#2E3544" points="54.9642857 92 63.6428571 92 63.6428571 89.125 54.9642857 89.125"></polygon>
                <polygon id="Fill-4" fill="#474E5D" points="20.25 89.125 60.75 89.125 60.75 71.875 20.25 71.875"></polygon>
                <polygon id="Fill-5" fill="#606776" points="26.0357143 89.125 28.9285714 89.125 28.9285714 71.875 26.0357143 71.875"></polygon>
                <polygon id="Fill-6" fill="#2E3544" points="52.0714286 89.125 60.75 89.125 60.75 71.875 52.0714286 71.875"></polygon>
                <path d="M43.3928571,47.4375 C43.3928571,58.0440937 50.1977612,67.0624297 59.7065826,70.4380391 L60.75,71.875 L20.25,71.875 L21.2814844,70.4380391 C30.7966339,67.0656641 37.6071429,58.0487656 37.6071429,47.4375 L43.3928571,47.4375 Z" id="Fill-7" fill="#FFCA10"></path>
                <path d="M39.0535714,47.4375 L38.3303571,47.4375 C38.3303571,58.0487656 33.2224754,67.0656641 26.0861585,70.4380391 L25.3125,71.875 L30.375,71.875 L30.8908326,70.4380391 C35.648317,67.0656641 39.0535714,58.0487656 39.0535714,47.4375" id="Fill-9" fill="#FEE79B"></path>
                <path d="M59.7064922,70.4380211 C50.1976708,67.0624117 43.3927667,58.0440758 43.3927667,47.437482 L41.9463382,47.437482 C41.9463382,58.0440758 45.3488806,67.0624117 50.1032913,70.4380211 L50.6249096,71.874982 L60.7499096,71.874982 L59.7064922,70.4380211 Z" id="Fill-11" fill="#F5A623"></path>
                <path d="M14.6425643,5.75 C14.5248266,3.86406166 14.4642857,1.94530249 14.4642857,8.8817842e-16 L66.5357143,8.8817842e-16 C66.5357143,1.94530249 66.4751734,3.86406166 66.3574357,5.75 L81,5.75 C81,21.6989196 70.1749047,35.3146342 54.9352393,40.6811514 C50.8039389,45.8574306 45.8396898,48.875 40.5,48.875 C35.1603102,48.875 30.1960611,45.8574306 26.0647607,40.6811514 C10.8250953,35.3146342 0,21.6989196 0,5.75 L14.6425643,5.75 Z M21.8237755,34.0528188 C18.4555126,27.5440668 16.0443497,19.2804857 15.0166669,10.0625 L4.64556696,10.0625 C6.10033455,20.2315102 12.6286351,28.9616068 21.8237755,34.0528188 Z M65.9833331,10.0625 C64.9556499,19.2804891 62.5444856,27.5440729 59.1762207,34.0528261 C68.3713838,28.9616151 74.8997321,20.231515 76.3546138,10.0625 L65.9833331,10.0625 Z" id="Combined-Shape" fill="#FFCA10"></path>
                <path d="M53.5178571,0 C53.5178571,26.9928359 47.689654,48.875 40.5,48.875 C54.8791272,48.875 66.5357143,26.9928359 66.5357143,0 L53.5178571,0 Z" id="Fill-19" fill="#F5A623"></path>
                <path d="M24.7700893,0 L20.9732143,0 C20.9732143,26.9928359 29.7157902,48.875 40.5,48.875 C31.8125692,48.875 24.7700893,26.9928359 24.7700893,0" id="Fill-21" fill="#FEE79B"></path>
            </g>
        </g>
    </g>
</svg>